<svg width="24" height="24" viewBox="0 0 24 24" fill="none" xmlns="http://www.w3.org/2000/svg">
<g clip-path="url(#clip0_78_2905)">
<g clip-path="url(#clip1_78_2905)">
<g clip-path="url(#clip2_78_2905)">
<path d="M12 24C18.6274 24 24 18.6274 24 12C24 5.37258 18.6274 0 12 0C5.37258 0 0 5.37258 0 12C0 18.6274 5.37258 24 12 24Z" fill="#28A746"/>
<path d="M12.0001 21.8148C17.4207 21.8148 21.8149 17.4205 21.8149 12C21.8149 6.57942 17.4207 2.18518 12.0001 2.18518C6.57954 2.18518 2.1853 6.57942 2.1853 12C2.1853 17.4205 6.57954 21.8148 12.0001 21.8148Z" fill="#EAFAEE"/>
<path d="M12.0001 21.8148C17.4207 21.8148 21.8149 17.4205 21.8149 12C21.8149 6.57942 17.4207 2.18518 12.0001 2.18518C6.57954 2.18518 2.1853 6.57942 2.1853 12C2.1853 17.4205 6.57954 21.8148 12.0001 21.8148Z" fill="white" fill-opacity="0.57"/>
<path d="M3.56628 13.2048C3.56628 7.7844 7.96068 3.39 13.3811 3.39C15.5195 3.39 17.4971 4.0764 19.1099 5.238C17.3219 3.3588 14.7995 2.1864 12.0011 2.1864C6.58068 2.1864 2.18628 6.5808 2.18628 12.0012C2.18628 15.2832 3.79788 18.186 6.27228 19.968C4.59708 18.2076 3.56748 15.828 3.56748 13.206L3.56628 13.2048Z" fill="#EAFAEE"/>
<path d="M3.56628 13.2048C3.56628 7.7844 7.96068 3.39 13.3811 3.39C15.5195 3.39 17.4971 4.0764 19.1099 5.238C17.3219 3.3588 14.7995 2.1864 12.0011 2.1864C6.58068 2.1864 2.18628 6.5808 2.18628 12.0012C2.18628 15.2832 3.79788 18.186 6.27228 19.968C4.59708 18.2076 3.56748 15.828 3.56748 13.206L3.56628 13.2048Z" fill="white" fill-opacity="0.57"/>
<path d="M12.0001 14.1301L5.16846 9.57125L12.0001 5.01245L18.8317 9.57125L12.0001 14.1301Z" fill="#28A746"/>
<mask id="mask0_78_2905" style="mask-type:luminance" maskUnits="userSpaceOnUse" x="5" y="9" width="14" height="10">
<path d="M18.8305 9.57129H5.16846V18.9877H18.8305V9.57129Z" fill="white"/>
</mask>
<g mask="url(#mask0_78_2905)">
<path d="M5.07016 10.986C4.91296 10.8816 4.70176 10.9236 4.59616 11.0808C4.49176 11.238 4.53376 11.4504 4.69096 11.5548L12.0002 16.4316V15.6108L5.07016 10.9872V10.986Z" fill="#28A746"/>
<path d="M19.403 11.0808C19.2986 10.9236 19.0862 10.8816 18.929 10.986L11.999 15.6096V16.4304L19.3082 11.5536C19.4654 11.4492 19.5074 11.2368 19.403 11.0796V11.0808Z" fill="#1E7B33"/>
<path d="M19.403 13.3177C19.2986 13.1605 19.0862 13.1185 18.929 13.2229L11.999 17.8465V18.6673L19.3082 13.7905C19.4654 13.6861 19.5074 13.4737 19.403 13.3165V13.3177Z" fill="#1E7B33"/>
<path d="M5.07016 13.2229C4.91296 13.1185 4.70176 13.1605 4.59616 13.3177C4.49176 13.4749 4.53376 13.6861 4.69096 13.7917L12.0002 18.6685V17.8477L5.07016 13.2241V13.2229Z" fill="#28A746"/>
</g>
</g>
</g>
</g>
<defs>
<clipPath id="clip0_78_2905">
<rect width="24" height="24" fill="white"/>
</clipPath>
<clipPath id="clip1_78_2905">
<rect width="24" height="24" fill="white"/>
</clipPath>
<clipPath id="clip2_78_2905">
<rect width="24" height="24" fill="white"/>
</clipPath>
</defs>
</svg>
