<svg width="127" height="178" viewBox="0 0 127 178" fill="none" xmlns="http://www.w3.org/2000/svg">
<path d="M6.24291 147.993C5.38957 147.993 4.68557 147.871 4.13091 147.625C3.57624 147.369 3.13891 147.001 2.81891 146.521C2.49891 146.031 2.26957 145.433 2.13091 144.729C2.00291 144.025 1.93891 143.225 1.93891 142.329C1.93891 141.401 2.00291 140.585 2.13091 139.881C2.26957 139.167 2.49891 138.569 2.81891 138.089C3.14957 137.599 3.58691 137.231 4.13091 136.985C4.68557 136.729 5.37891 136.601 6.21091 136.601C6.62691 136.601 7.05891 136.623 7.50691 136.665C7.96557 136.708 8.39757 136.767 8.80291 136.841C9.21891 136.905 9.56557 136.969 9.84291 137.033L9.79491 138.089C9.51757 138.036 9.17624 137.988 8.77091 137.945C8.36557 137.892 7.94957 137.849 7.52291 137.817C7.10691 137.775 6.72291 137.753 6.37091 137.753C5.74157 137.753 5.22424 137.844 4.81891 138.025C4.41357 138.207 4.09891 138.489 3.87491 138.873C3.65091 139.247 3.49091 139.721 3.39491 140.297C3.30957 140.863 3.26691 141.54 3.26691 142.329C3.26691 143.353 3.34691 144.201 3.50691 144.873C3.66691 145.545 3.96557 146.047 4.40291 146.377C4.85091 146.697 5.49624 146.857 6.33891 146.857C6.58424 146.857 6.84557 146.847 7.12291 146.825C7.40024 146.804 7.66691 146.777 7.92291 146.745C8.18957 146.713 8.40824 146.681 8.57891 146.649V143.305H6.78691V142.169H9.84291V147.609C9.66157 147.641 9.42157 147.679 9.12291 147.721C8.82424 147.764 8.50424 147.807 8.16291 147.849C7.82157 147.892 7.48024 147.924 7.13891 147.945C6.80824 147.977 6.50957 147.993 6.24291 147.993ZM14.8863 147.993C14.0863 147.993 13.4516 147.839 12.9823 147.529C12.5236 147.22 12.1929 146.761 11.9903 146.153C11.7876 145.545 11.6863 144.788 11.6863 143.881C11.6863 142.868 11.8249 142.057 12.1023 141.449C12.3796 140.831 12.7689 140.383 13.2703 140.105C13.7716 139.817 14.3636 139.673 15.0463 139.673C16.1129 139.673 16.9183 139.972 17.4623 140.569C18.0063 141.156 18.2783 142.105 18.2783 143.417L18.2143 144.361H12.9503C12.9609 145.193 13.1156 145.823 13.4143 146.249C13.7129 146.676 14.2516 146.889 15.0303 146.889C15.3289 146.889 15.6543 146.884 16.0063 146.873C16.3689 146.852 16.7263 146.831 17.0783 146.809C17.4303 146.788 17.7289 146.767 17.9743 146.745L18.0063 147.721C17.7503 147.764 17.4356 147.807 17.0623 147.849C16.6996 147.892 16.3263 147.924 15.9423 147.945C15.5583 147.977 15.2063 147.993 14.8863 147.993ZM12.9503 143.353H17.0303C17.0303 142.372 16.8703 141.689 16.5503 141.305C16.2409 140.911 15.7396 140.713 15.0463 140.713C14.5983 140.713 14.2196 140.804 13.9103 140.985C13.6009 141.156 13.3609 141.433 13.1903 141.817C13.0303 142.201 12.9503 142.713 12.9503 143.353ZM22.7095 148.009C22.1549 148.009 21.7122 147.924 21.3815 147.753C21.0615 147.583 20.8322 147.289 20.6935 146.873C20.5549 146.447 20.4855 145.849 20.4855 145.081V140.905H19.3495V139.833H20.4855V137.385H21.7175V139.833H24.2295V140.905H21.7175V144.713C21.7175 145.279 21.7389 145.721 21.7815 146.041C21.8349 146.351 21.9415 146.569 22.1015 146.697C22.2615 146.825 22.5122 146.889 22.8535 146.889C22.9602 146.889 23.0989 146.884 23.2695 146.873C23.4402 146.863 23.6109 146.852 23.7815 146.841C23.9629 146.82 24.1229 146.804 24.2615 146.793L24.3415 147.833C24.1922 147.855 24.0162 147.876 23.8135 147.897C23.6109 147.929 23.4082 147.956 23.2055 147.977C23.0135 147.999 22.8482 148.009 22.7095 148.009ZM29.2105 151.369V139.833H30.4425V140.409C30.6132 140.303 30.8265 140.196 31.0825 140.089C31.3492 139.972 31.6319 139.876 31.9305 139.801C32.2292 139.716 32.5172 139.673 32.7945 139.673C33.4772 139.673 34.0319 139.817 34.4585 140.105C34.8852 140.383 35.1999 140.82 35.4025 141.417C35.6159 142.015 35.7225 142.788 35.7225 143.737C35.7225 144.783 35.5999 145.62 35.3545 146.249C35.1199 146.868 34.7412 147.316 34.2185 147.593C33.7065 147.86 33.0399 147.993 32.2185 147.993C31.8879 147.993 31.5519 147.972 31.2105 147.929C30.8799 147.887 30.6239 147.849 30.4425 147.817V151.369H29.2105ZM32.1545 146.905C32.7305 146.905 33.1839 146.799 33.5145 146.585C33.8559 146.372 34.0959 146.036 34.2345 145.577C34.3732 145.108 34.4425 144.495 34.4425 143.737C34.4425 142.66 34.2825 141.903 33.9625 141.465C33.6425 141.017 33.1945 140.793 32.6185 140.793C32.3625 140.793 32.0959 140.825 31.8185 140.889C31.5519 140.953 31.2959 141.033 31.0505 141.129C30.8052 141.215 30.6025 141.305 30.4425 141.401V146.745C30.6132 146.767 30.8639 146.799 31.1945 146.841C31.5252 146.884 31.8452 146.905 32.1545 146.905ZM39.4077 147.993C38.6717 147.993 38.1117 147.785 37.7277 147.369C37.3437 146.953 37.1517 146.345 37.1517 145.545C37.1517 145.023 37.2423 144.596 37.4237 144.265C37.605 143.935 37.877 143.684 38.2397 143.513C38.613 143.332 39.0717 143.22 39.6157 143.177L42.0797 142.937V142.249C42.0797 141.705 41.957 141.321 41.7117 141.097C41.477 140.873 41.125 140.761 40.6557 140.761C40.389 140.761 40.069 140.772 39.6957 140.793C39.333 140.815 38.9703 140.841 38.6077 140.873C38.245 140.905 37.925 140.937 37.6477 140.969L37.5837 140.025C37.8397 139.972 38.149 139.919 38.5117 139.865C38.8743 139.812 39.253 139.769 39.6477 139.737C40.0423 139.695 40.405 139.673 40.7357 139.673C41.3437 139.673 41.8397 139.769 42.2237 139.961C42.6077 140.143 42.885 140.425 43.0557 140.809C43.237 141.183 43.3277 141.663 43.3277 142.249V146.297C43.349 146.532 43.4397 146.703 43.5997 146.809C43.7703 146.916 43.9837 146.985 44.2397 147.017L44.1917 147.993C44.0423 147.993 43.8983 147.988 43.7597 147.977C43.621 147.967 43.4877 147.945 43.3597 147.913C43.2423 147.892 43.125 147.865 43.0077 147.833C42.869 147.78 42.7357 147.716 42.6077 147.641C42.4903 147.567 42.373 147.476 42.2557 147.369C42.053 147.455 41.7917 147.545 41.4717 147.641C41.1623 147.737 40.8263 147.817 40.4637 147.881C40.1117 147.956 39.7597 147.993 39.4077 147.993ZM39.6157 146.953C39.9037 146.953 40.2023 146.927 40.5117 146.873C40.821 146.82 41.1143 146.756 41.3917 146.681C41.669 146.607 41.8983 146.537 42.0797 146.473V143.865L39.7597 144.089C39.2797 144.132 38.933 144.271 38.7197 144.505C38.517 144.74 38.4157 145.076 38.4157 145.513C38.4157 145.961 38.517 146.313 38.7197 146.569C38.9223 146.825 39.221 146.953 39.6157 146.953ZM45.6949 147.833V139.833H46.9269V147.833H45.6949ZM45.6949 138.073V136.633H46.9269V138.073H45.6949ZM51.7542 147.993C51.4342 147.993 51.1302 147.956 50.8422 147.881C50.5542 147.817 50.2875 147.7 50.0422 147.529C49.8075 147.359 49.5995 147.124 49.4182 146.825C49.2368 146.516 49.0982 146.121 49.0022 145.641C48.9062 145.161 48.8582 144.58 48.8582 143.897C48.8582 142.948 48.9702 142.164 49.1942 141.545C49.4182 140.916 49.7755 140.447 50.2662 140.137C50.7568 139.828 51.4075 139.673 52.2182 139.673C52.4208 139.673 52.6448 139.684 52.8902 139.705C53.1355 139.727 53.3702 139.753 53.5942 139.785C53.8288 139.817 54.0155 139.849 54.1542 139.881V136.361H55.4022V147.833H54.1702V147.305C53.9995 147.401 53.7755 147.503 53.4982 147.609C53.2315 147.716 52.9435 147.807 52.6342 147.881C52.3355 147.956 52.0422 147.993 51.7542 147.993ZM51.9142 146.873C52.1915 146.873 52.4688 146.841 52.7462 146.777C53.0342 146.713 53.3008 146.639 53.5462 146.553C53.7915 146.457 53.9942 146.372 54.1542 146.297V140.937C54.0262 140.916 53.8502 140.895 53.6262 140.873C53.4022 140.841 53.1675 140.815 52.9222 140.793C52.6875 140.772 52.4742 140.761 52.2822 140.761C51.7382 140.761 51.3115 140.879 51.0022 141.113C50.6928 141.348 50.4688 141.7 50.3302 142.169C50.2022 142.628 50.1382 143.204 50.1382 143.897C50.1382 144.537 50.1862 145.055 50.2822 145.449C50.3782 145.833 50.5062 146.132 50.6662 146.345C50.8368 146.548 51.0288 146.687 51.2422 146.761C51.4555 146.836 51.6795 146.873 51.9142 146.873ZM63.9142 147.993C63.6795 147.993 63.3968 147.983 63.0662 147.961C62.7462 147.951 62.4208 147.929 62.0902 147.897C61.7595 147.865 61.4662 147.839 61.2102 147.817V136.361H62.4582V140.217C62.6288 140.132 62.8422 140.052 63.0982 139.977C63.3542 139.892 63.6262 139.823 63.9142 139.769C64.2128 139.705 64.4955 139.673 64.7622 139.673C65.4875 139.673 66.0635 139.812 66.4902 140.089C66.9275 140.356 67.2368 140.788 67.4182 141.385C67.6102 141.972 67.7062 142.745 67.7062 143.705C67.7062 144.772 67.5888 145.62 67.3542 146.249C67.1302 146.868 66.7408 147.316 66.1862 147.593C65.6422 147.86 64.8848 147.993 63.9142 147.993ZM63.8982 146.873C64.6235 146.873 65.1622 146.767 65.5142 146.553C65.8768 146.329 66.1168 145.983 66.2342 145.513C66.3622 145.044 66.4262 144.441 66.4262 143.705C66.4262 143.023 66.3728 142.468 66.2662 142.041C66.1595 141.615 65.9728 141.3 65.7062 141.097C65.4502 140.895 65.0928 140.793 64.6342 140.793C64.3782 140.793 64.1115 140.82 63.8342 140.873C63.5568 140.916 63.2955 140.975 63.0502 141.049C62.8155 141.113 62.6182 141.177 62.4582 141.241V146.793C62.6822 146.815 62.9382 146.836 63.2262 146.857C63.5248 146.868 63.7488 146.873 63.8982 146.873ZM71.2183 151.369L72.2583 147.833H71.0583L68.8023 139.833H70.0503L72.0023 146.761H72.5463L74.5143 139.833H75.7623L72.4663 151.369H71.2183ZM83.3159 147.993C83.0706 147.993 82.7719 147.977 82.4199 147.945C82.0786 147.913 81.7372 147.876 81.3959 147.833C81.0546 147.78 80.7506 147.732 80.4839 147.689L80.5479 146.617C80.8146 146.649 81.1132 146.687 81.4439 146.729C81.7852 146.772 82.1159 146.809 82.4359 146.841C82.7559 146.863 83.0119 146.873 83.2039 146.873C83.6412 146.873 84.0039 146.836 84.2919 146.761C84.5799 146.676 84.7986 146.537 84.9479 146.345C85.0972 146.153 85.1719 145.881 85.1719 145.529C85.1719 145.263 85.1132 145.055 84.9959 144.905C84.8892 144.756 84.6812 144.633 84.3719 144.537C84.0732 144.441 83.6359 144.351 83.0599 144.265C82.4626 144.169 81.9612 144.052 81.5559 143.913C81.1612 143.764 80.8679 143.545 80.6759 143.257C80.4839 142.969 80.3879 142.559 80.3879 142.025C80.3879 141.428 80.5266 140.959 80.8039 140.617C81.0812 140.276 81.4386 140.036 81.8759 139.897C82.3239 139.748 82.7879 139.673 83.2679 139.673C83.5666 139.673 83.8919 139.689 84.2439 139.721C84.6066 139.753 84.9586 139.796 85.2999 139.849C85.6412 139.892 85.9346 139.935 86.1799 139.977L86.1479 141.049C85.8919 141.007 85.5932 140.969 85.2519 140.937C84.9106 140.895 84.5692 140.863 84.2279 140.841C83.8866 140.809 83.5879 140.793 83.3319 140.793C83.0119 140.793 82.7239 140.831 82.4679 140.905C82.2119 140.969 82.0092 141.087 81.8599 141.257C81.7106 141.428 81.6359 141.668 81.6359 141.977C81.6359 142.212 81.6892 142.404 81.7959 142.553C81.9026 142.692 82.1052 142.809 82.4039 142.905C82.7026 143.001 83.1346 143.097 83.6999 143.193C84.3612 143.3 84.8892 143.433 85.2839 143.593C85.6892 143.753 85.9826 143.977 86.1639 144.265C86.3452 144.553 86.4359 144.959 86.4359 145.481C86.4359 146.1 86.3079 146.596 86.0519 146.969C85.8066 147.332 85.4492 147.593 84.9799 147.753C84.5212 147.913 83.9666 147.993 83.3159 147.993ZM90.705 147.993C90.0224 147.993 89.4997 147.855 89.137 147.577C88.7744 147.3 88.5237 146.868 88.385 146.281C88.257 145.695 88.193 144.937 88.193 144.009V139.833H89.425V144.009C89.425 144.713 89.457 145.273 89.521 145.689C89.5957 146.105 89.7504 146.409 89.985 146.601C90.2197 146.783 90.5717 146.873 91.041 146.873C91.5104 146.873 91.937 146.809 92.321 146.681C92.705 146.553 93.0144 146.425 93.249 146.297V139.833H94.481V147.833H93.249V147.273C92.9077 147.465 92.5344 147.636 92.129 147.785C91.7344 147.924 91.2597 147.993 90.705 147.993ZM96.7887 147.833V139.833H98.0207V140.905C98.2233 140.767 98.4793 140.617 98.7887 140.457C99.098 140.287 99.4393 140.127 99.8127 139.977C100.186 139.828 100.559 139.721 100.933 139.657V140.921C100.57 140.996 100.202 141.097 99.8287 141.225C99.4553 141.343 99.1087 141.471 98.7887 141.609C98.4793 141.748 98.2233 141.871 98.0207 141.977V147.833H96.7887ZM102.672 147.833V140.905H101.664V139.833H102.672V139.129C102.672 138.361 102.741 137.764 102.88 137.337C103.018 136.911 103.248 136.617 103.568 136.457C103.888 136.287 104.309 136.201 104.832 136.201C104.96 136.201 105.136 136.207 105.36 136.217C105.584 136.228 105.802 136.244 106.016 136.265C106.229 136.276 106.378 136.292 106.464 136.313L106.448 137.353C106.256 137.343 106.021 137.337 105.744 137.337C105.477 137.327 105.258 137.321 105.088 137.321C104.789 137.321 104.554 137.375 104.384 137.481C104.213 137.577 104.09 137.759 104.016 138.025C103.952 138.292 103.92 138.665 103.92 139.145V139.833H106.224V140.905H103.92V147.833H102.672ZM107.648 147.833V139.833H108.88V147.833H107.648ZM107.648 138.073V136.633H108.88V138.073H107.648ZM111.179 147.833V139.833H112.411V140.393C112.593 140.287 112.817 140.18 113.083 140.073C113.361 139.967 113.654 139.876 113.963 139.801C114.273 139.716 114.571 139.673 114.859 139.673C115.414 139.673 115.867 139.748 116.219 139.897C116.571 140.036 116.843 140.265 117.035 140.585C117.238 140.895 117.377 141.3 117.451 141.801C117.537 142.292 117.579 142.889 117.579 143.593V147.833H116.331V143.641C116.331 142.948 116.289 142.393 116.203 141.977C116.129 141.561 115.969 141.263 115.723 141.081C115.489 140.889 115.126 140.793 114.635 140.793C114.369 140.793 114.091 140.825 113.803 140.889C113.526 140.943 113.265 141.017 113.019 141.113C112.774 141.199 112.571 141.284 112.411 141.369V147.833H111.179ZM122.877 151.593C122.045 151.593 121.373 151.519 120.861 151.369C120.359 151.231 119.991 150.985 119.757 150.633C119.533 150.281 119.421 149.801 119.421 149.193C119.421 148.884 119.469 148.617 119.565 148.393C119.661 148.18 119.799 147.983 119.981 147.801C120.173 147.609 120.407 147.412 120.685 147.209C120.546 147.103 120.434 146.953 120.349 146.761C120.274 146.559 120.237 146.335 120.237 146.089C120.237 146.015 120.263 145.903 120.317 145.753C120.381 145.604 120.455 145.449 120.541 145.289C120.626 145.119 120.706 144.964 120.781 144.825C120.557 144.719 120.349 144.575 120.157 144.393C119.975 144.201 119.826 143.945 119.709 143.625C119.591 143.305 119.533 142.9 119.533 142.409C119.533 141.748 119.655 141.22 119.901 140.825C120.157 140.42 120.509 140.127 120.957 139.945C121.415 139.764 121.938 139.673 122.525 139.673C122.813 139.673 123.117 139.695 123.437 139.737C123.757 139.78 124.007 139.828 124.189 139.881L126.573 139.817V140.873L125.069 140.841C125.218 140.991 125.341 141.188 125.437 141.433C125.543 141.679 125.597 142.004 125.597 142.409C125.597 143.103 125.479 143.647 125.245 144.041C125.01 144.436 124.663 144.713 124.205 144.873C123.746 145.033 123.17 145.113 122.477 145.113C122.402 145.113 122.274 145.108 122.093 145.097C121.922 145.076 121.794 145.06 121.709 145.049C121.645 145.199 121.581 145.369 121.517 145.561C121.453 145.753 121.421 145.887 121.421 145.961C121.421 146.121 121.437 146.249 121.469 146.345C121.511 146.431 121.591 146.5 121.709 146.553C121.837 146.607 122.029 146.644 122.285 146.665C122.541 146.676 122.893 146.681 123.341 146.681C124.109 146.681 124.722 146.745 125.181 146.873C125.639 147.001 125.965 147.236 126.157 147.577C126.359 147.908 126.461 148.393 126.461 149.033C126.461 149.94 126.146 150.591 125.517 150.985C124.887 151.391 124.007 151.593 122.877 151.593ZM122.893 150.537C123.682 150.537 124.263 150.425 124.637 150.201C125.01 149.977 125.197 149.609 125.197 149.097C125.197 148.703 125.133 148.409 125.005 148.217C124.887 148.036 124.685 147.913 124.397 147.849C124.109 147.796 123.725 147.769 123.245 147.769C123.149 147.769 123.015 147.769 122.845 147.769C122.674 147.759 122.498 147.753 122.317 147.753C122.135 147.743 121.97 147.732 121.821 147.721C121.682 147.711 121.586 147.705 121.533 147.705C121.319 147.865 121.143 148.009 121.005 148.137C120.877 148.276 120.786 148.415 120.733 148.553C120.679 148.703 120.653 148.879 120.653 149.081C120.653 149.433 120.717 149.716 120.845 149.929C120.973 150.143 121.197 150.297 121.517 150.393C121.847 150.489 122.306 150.537 122.893 150.537ZM122.525 144.121C123.186 144.121 123.655 143.993 123.933 143.737C124.21 143.471 124.349 143.028 124.349 142.409C124.349 141.791 124.21 141.348 123.933 141.081C123.655 140.815 123.186 140.681 122.525 140.681C121.906 140.681 121.458 140.815 121.181 141.081C120.914 141.348 120.781 141.791 120.781 142.409C120.781 143.028 120.914 143.471 121.181 143.737C121.458 143.993 121.906 144.121 122.525 144.121ZM14.1108 171.993C13.3748 171.993 12.8148 171.785 12.4308 171.369C12.0468 170.953 11.8548 170.345 11.8548 169.545C11.8548 169.023 11.9454 168.596 12.1268 168.265C12.3081 167.935 12.5801 167.684 12.9428 167.513C13.3161 167.332 13.7748 167.22 14.3188 167.177L16.7828 166.937V166.249C16.7828 165.705 16.6601 165.321 16.4148 165.097C16.1801 164.873 15.8281 164.761 15.3588 164.761C15.0921 164.761 14.7721 164.772 14.3988 164.793C14.0361 164.815 13.6734 164.841 13.3108 164.873C12.9481 164.905 12.6281 164.937 12.3508 164.969L12.2868 164.025C12.5428 163.972 12.8521 163.919 13.2148 163.865C13.5774 163.812 13.9561 163.769 14.3508 163.737C14.7454 163.695 15.1081 163.673 15.4388 163.673C16.0468 163.673 16.5428 163.769 16.9268 163.961C17.3108 164.143 17.5881 164.425 17.7588 164.809C17.9401 165.183 18.0308 165.663 18.0308 166.249V170.297C18.0521 170.532 18.1428 170.703 18.3028 170.809C18.4734 170.916 18.6868 170.985 18.9428 171.017L18.8948 171.993C18.7454 171.993 18.6014 171.988 18.4628 171.977C18.3241 171.967 18.1908 171.945 18.0628 171.913C17.9454 171.892 17.8281 171.865 17.7108 171.833C17.5721 171.78 17.4388 171.716 17.3108 171.641C17.1934 171.567 17.0761 171.476 16.9588 171.369C16.7561 171.455 16.4948 171.545 16.1748 171.641C15.8654 171.737 15.5294 171.817 15.1668 171.881C14.8148 171.956 14.4628 171.993 14.1108 171.993ZM14.3188 170.953C14.6068 170.953 14.9054 170.927 15.2148 170.873C15.5241 170.82 15.8174 170.756 16.0948 170.681C16.3721 170.607 16.6014 170.537 16.7828 170.473V167.865L14.4628 168.089C13.9828 168.132 13.6361 168.271 13.4228 168.505C13.2201 168.74 13.1188 169.076 13.1188 169.513C13.1188 169.961 13.2201 170.313 13.4228 170.569C13.6254 170.825 13.9241 170.953 14.3188 170.953ZM22.926 171.993C22.606 171.993 22.302 171.956 22.014 171.881C21.726 171.817 21.4594 171.7 21.214 171.529C20.9794 171.359 20.7714 171.124 20.59 170.825C20.4087 170.516 20.27 170.121 20.174 169.641C20.078 169.161 20.03 168.58 20.03 167.897C20.03 166.948 20.142 166.164 20.366 165.545C20.59 164.916 20.9474 164.447 21.438 164.137C21.9287 163.828 22.5794 163.673 23.39 163.673C23.5927 163.673 23.8167 163.684 24.062 163.705C24.3074 163.727 24.542 163.753 24.766 163.785C25.0007 163.817 25.1874 163.849 25.326 163.881V160.361H26.574V171.833H25.342V171.305C25.1714 171.401 24.9474 171.503 24.67 171.609C24.4034 171.716 24.1154 171.807 23.806 171.881C23.5074 171.956 23.214 171.993 22.926 171.993ZM23.086 170.873C23.3634 170.873 23.6407 170.841 23.918 170.777C24.206 170.713 24.4727 170.639 24.718 170.553C24.9634 170.457 25.166 170.372 25.326 170.297V164.937C25.198 164.916 25.022 164.895 24.798 164.873C24.574 164.841 24.3394 164.815 24.094 164.793C23.8594 164.772 23.646 164.761 23.454 164.761C22.91 164.761 22.4834 164.879 22.174 165.113C21.8647 165.348 21.6407 165.7 21.502 166.169C21.374 166.628 21.31 167.204 21.31 167.897C21.31 168.537 21.358 169.055 21.454 169.449C21.55 169.833 21.678 170.132 21.838 170.345C22.0087 170.548 22.2007 170.687 22.414 170.761C22.6274 170.836 22.8514 170.873 23.086 170.873ZM30.3544 171.833L28.1144 163.833H29.4584L31.2824 170.761H31.8904L33.7784 163.833H35.0584L32.8184 171.833H30.3544ZM39.3082 171.993C38.5082 171.993 37.8735 171.839 37.4042 171.529C36.9455 171.22 36.6148 170.761 36.4122 170.153C36.2095 169.545 36.1082 168.788 36.1082 167.881C36.1082 166.868 36.2468 166.057 36.5242 165.449C36.8015 164.831 37.1908 164.383 37.6922 164.105C38.1935 163.817 38.7855 163.673 39.4682 163.673C40.5348 163.673 41.3402 163.972 41.8842 164.569C42.4282 165.156 42.7002 166.105 42.7002 167.417L42.6362 168.361H37.3722C37.3828 169.193 37.5375 169.823 37.8362 170.249C38.1348 170.676 38.6735 170.889 39.4522 170.889C39.7508 170.889 40.0762 170.884 40.4282 170.873C40.7908 170.852 41.1482 170.831 41.5002 170.809C41.8522 170.788 42.1508 170.767 42.3962 170.745L42.4282 171.721C42.1722 171.764 41.8575 171.807 41.4842 171.849C41.1215 171.892 40.7482 171.924 40.3642 171.945C39.9802 171.977 39.6282 171.993 39.3082 171.993ZM37.3722 167.353H41.4522C41.4522 166.372 41.2922 165.689 40.9722 165.305C40.6628 164.911 40.1615 164.713 39.4682 164.713C39.0202 164.713 38.6415 164.804 38.3322 164.985C38.0228 165.156 37.7828 165.433 37.6122 165.817C37.4522 166.201 37.3722 166.713 37.3722 167.353ZM44.5543 171.833V163.833H45.7863V164.905C45.9889 164.767 46.2449 164.617 46.5543 164.457C46.8636 164.287 47.2049 164.127 47.5783 163.977C47.9516 163.828 48.3249 163.721 48.6983 163.657V164.921C48.3356 164.996 47.9676 165.097 47.5943 165.225C47.2209 165.343 46.8743 165.471 46.5543 165.609C46.2449 165.748 45.9889 165.871 45.7863 165.977V171.833H44.5543ZM52.7252 172.009C52.1705 172.009 51.7278 171.924 51.3972 171.753C51.0772 171.583 50.8478 171.289 50.7092 170.873C50.5705 170.447 50.5012 169.849 50.5012 169.081V164.905H49.3652V163.833H50.5012V161.385H51.7332V163.833H54.2452V164.905H51.7332V168.713C51.7332 169.279 51.7545 169.721 51.7972 170.041C51.8505 170.351 51.9572 170.569 52.1172 170.697C52.2772 170.825 52.5278 170.889 52.8692 170.889C52.9758 170.889 53.1145 170.884 53.2852 170.873C53.4558 170.863 53.6265 170.852 53.7972 170.841C53.9785 170.82 54.1385 170.804 54.2772 170.793L54.3572 171.833C54.2078 171.855 54.0318 171.876 53.8292 171.897C53.6265 171.929 53.4238 171.956 53.2212 171.977C53.0292 171.999 52.8638 172.009 52.7252 172.009ZM55.7105 171.833V163.833H56.9425V171.833H55.7105ZM55.7105 162.073V160.633H56.9425V162.073H55.7105ZM61.7378 171.993C61.4924 171.993 61.1938 171.977 60.8418 171.945C60.5004 171.913 60.1591 171.876 59.8178 171.833C59.4764 171.78 59.1724 171.732 58.9058 171.689L58.9698 170.617C59.2364 170.649 59.5351 170.687 59.8658 170.729C60.2071 170.772 60.5378 170.809 60.8578 170.841C61.1778 170.863 61.4338 170.873 61.6258 170.873C62.0631 170.873 62.4258 170.836 62.7138 170.761C63.0018 170.676 63.2204 170.537 63.3698 170.345C63.5191 170.153 63.5938 169.881 63.5938 169.529C63.5938 169.263 63.5351 169.055 63.4178 168.905C63.3111 168.756 63.1031 168.633 62.7938 168.537C62.4951 168.441 62.0578 168.351 61.4818 168.265C60.8844 168.169 60.3831 168.052 59.9778 167.913C59.5831 167.764 59.2898 167.545 59.0978 167.257C58.9058 166.969 58.8098 166.559 58.8098 166.025C58.8098 165.428 58.9484 164.959 59.2258 164.617C59.5031 164.276 59.8604 164.036 60.2978 163.897C60.7458 163.748 61.2098 163.673 61.6898 163.673C61.9884 163.673 62.3138 163.689 62.6658 163.721C63.0284 163.753 63.3804 163.796 63.7218 163.849C64.0631 163.892 64.3564 163.935 64.6018 163.977L64.5698 165.049C64.3138 165.007 64.0151 164.969 63.6738 164.937C63.3324 164.895 62.9911 164.863 62.6498 164.841C62.3084 164.809 62.0098 164.793 61.7538 164.793C61.4338 164.793 61.1458 164.831 60.8898 164.905C60.6338 164.969 60.4311 165.087 60.2818 165.257C60.1324 165.428 60.0578 165.668 60.0578 165.977C60.0578 166.212 60.1111 166.404 60.2178 166.553C60.3244 166.692 60.5271 166.809 60.8258 166.905C61.1244 167.001 61.5564 167.097 62.1218 167.193C62.7831 167.3 63.3111 167.433 63.7058 167.593C64.1111 167.753 64.4044 167.977 64.5858 168.265C64.7671 168.553 64.8578 168.959 64.8578 169.481C64.8578 170.1 64.7298 170.596 64.4738 170.969C64.2284 171.332 63.8711 171.593 63.4018 171.753C62.9431 171.913 62.3884 171.993 61.7378 171.993ZM69.5269 171.993C68.7269 171.993 68.0922 171.839 67.6229 171.529C67.1642 171.22 66.8336 170.761 66.6309 170.153C66.4282 169.545 66.3269 168.788 66.3269 167.881C66.3269 166.868 66.4656 166.057 66.7429 165.449C67.0202 164.831 67.4096 164.383 67.9109 164.105C68.4122 163.817 69.0042 163.673 69.6869 163.673C70.7536 163.673 71.5589 163.972 72.1029 164.569C72.6469 165.156 72.9189 166.105 72.9189 167.417L72.8549 168.361H67.5909C67.6016 169.193 67.7562 169.823 68.0549 170.249C68.3536 170.676 68.8922 170.889 69.6709 170.889C69.9696 170.889 70.2949 170.884 70.6469 170.873C71.0096 170.852 71.3669 170.831 71.7189 170.809C72.0709 170.788 72.3696 170.767 72.6149 170.745L72.6469 171.721C72.3909 171.764 72.0762 171.807 71.7029 171.849C71.3402 171.892 70.9669 171.924 70.5829 171.945C70.1989 171.977 69.8469 171.993 69.5269 171.993ZM67.5909 167.353H71.6709C71.6709 166.372 71.5109 165.689 71.1909 165.305C70.8816 164.911 70.3802 164.713 69.6869 164.713C69.2389 164.713 68.8602 164.804 68.5509 164.985C68.2416 165.156 68.0016 165.433 67.8309 165.817C67.6709 166.201 67.5909 166.713 67.5909 167.353ZM74.773 171.833V163.833H76.005V164.393C76.1757 164.287 76.389 164.18 76.645 164.073C76.901 163.967 77.173 163.876 77.461 163.801C77.7597 163.716 78.0424 163.673 78.309 163.673C78.8424 163.673 79.269 163.737 79.589 163.865C79.9197 163.993 80.1864 164.201 80.389 164.489C80.6024 164.372 80.8637 164.249 81.173 164.121C81.4824 163.993 81.813 163.887 82.165 163.801C82.5277 163.716 82.8797 163.673 83.221 163.673C83.765 163.673 84.213 163.743 84.565 163.881C84.917 164.02 85.189 164.244 85.381 164.553C85.5837 164.863 85.7224 165.268 85.797 165.769C85.8824 166.26 85.925 166.868 85.925 167.593V171.833H84.693V167.641C84.693 166.948 84.6504 166.393 84.565 165.977C84.4904 165.561 84.3357 165.263 84.101 165.081C83.8664 164.889 83.509 164.793 83.029 164.793C82.7517 164.793 82.469 164.825 82.181 164.889C81.9037 164.943 81.6424 165.017 81.397 165.113C81.1624 165.199 80.9704 165.284 80.821 165.369C80.8957 165.647 80.9437 165.993 80.965 166.409C80.997 166.815 81.013 167.236 81.013 167.673V171.833H79.781V167.705C79.781 166.98 79.7437 166.409 79.669 165.993C79.5944 165.567 79.4344 165.263 79.189 165.081C78.9544 164.889 78.597 164.793 78.117 164.793C77.8504 164.793 77.5784 164.825 77.301 164.889C77.0344 164.943 76.789 165.017 76.565 165.113C76.341 165.199 76.1544 165.284 76.005 165.369V171.833H74.773ZM90.98 171.993C90.18 171.993 89.5454 171.839 89.076 171.529C88.6174 171.22 88.2867 170.761 88.084 170.153C87.8814 169.545 87.78 168.788 87.78 167.881C87.78 166.868 87.9187 166.057 88.196 165.449C88.4734 164.831 88.8627 164.383 89.364 164.105C89.8654 163.817 90.4574 163.673 91.14 163.673C92.2067 163.673 93.012 163.972 93.556 164.569C94.1 165.156 94.372 166.105 94.372 167.417L94.308 168.361H89.044C89.0547 169.193 89.2094 169.823 89.508 170.249C89.8067 170.676 90.3454 170.889 91.124 170.889C91.4227 170.889 91.748 170.884 92.1 170.873C92.4627 170.852 92.82 170.831 93.172 170.809C93.524 170.788 93.8227 170.767 94.068 170.745L94.1 171.721C93.844 171.764 93.5294 171.807 93.156 171.849C92.7934 171.892 92.42 171.924 92.036 171.945C91.652 171.977 91.3 171.993 90.98 171.993ZM89.044 167.353H93.124C93.124 166.372 92.964 165.689 92.644 165.305C92.3347 164.911 91.8334 164.713 91.14 164.713C90.692 164.713 90.3134 164.804 90.004 164.985C89.6947 165.156 89.4547 165.433 89.284 165.817C89.124 166.201 89.044 166.713 89.044 167.353ZM96.2262 171.833V163.833H97.4582V164.393C97.6395 164.287 97.8635 164.18 98.1302 164.073C98.4075 163.967 98.7008 163.876 99.0102 163.801C99.3195 163.716 99.6182 163.673 99.9062 163.673C100.461 163.673 100.914 163.748 101.266 163.897C101.618 164.036 101.89 164.265 102.082 164.585C102.285 164.895 102.423 165.3 102.498 165.801C102.583 166.292 102.626 166.889 102.626 167.593V171.833H101.378V167.641C101.378 166.948 101.335 166.393 101.25 165.977C101.175 165.561 101.015 165.263 100.77 165.081C100.535 164.889 100.173 164.793 99.6822 164.793C99.4155 164.793 99.1382 164.825 98.8502 164.889C98.5728 164.943 98.3115 165.017 98.0662 165.113C97.8208 165.199 97.6182 165.284 97.4582 165.369V171.833H96.2262ZM107.413 172.009C106.858 172.009 106.415 171.924 106.085 171.753C105.765 171.583 105.535 171.289 105.397 170.873C105.258 170.447 105.189 169.849 105.189 169.081V164.905H104.053V163.833H105.189V161.385H106.421V163.833H108.933V164.905H106.421V168.713C106.421 169.279 106.442 169.721 106.485 170.041C106.538 170.351 106.645 170.569 106.805 170.697C106.965 170.825 107.215 170.889 107.557 170.889C107.663 170.889 107.802 170.884 107.973 170.873C108.143 170.863 108.314 170.852 108.485 170.841C108.666 170.82 108.826 170.804 108.965 170.793L109.045 171.833C108.895 171.855 108.719 171.876 108.517 171.897C108.314 171.929 108.111 171.956 107.909 171.977C107.717 171.999 107.551 172.009 107.413 172.009ZM112.894 171.993C112.649 171.993 112.35 171.977 111.998 171.945C111.657 171.913 111.315 171.876 110.974 171.833C110.633 171.78 110.329 171.732 110.062 171.689L110.126 170.617C110.393 170.649 110.691 170.687 111.022 170.729C111.363 170.772 111.694 170.809 112.014 170.841C112.334 170.863 112.59 170.873 112.782 170.873C113.219 170.873 113.582 170.836 113.87 170.761C114.158 170.676 114.377 170.537 114.526 170.345C114.675 170.153 114.75 169.881 114.75 169.529C114.75 169.263 114.691 169.055 114.574 168.905C114.467 168.756 114.259 168.633 113.95 168.537C113.651 168.441 113.214 168.351 112.638 168.265C112.041 168.169 111.539 168.052 111.134 167.913C110.739 167.764 110.446 167.545 110.254 167.257C110.062 166.969 109.966 166.559 109.966 166.025C109.966 165.428 110.105 164.959 110.382 164.617C110.659 164.276 111.017 164.036 111.454 163.897C111.902 163.748 112.366 163.673 112.846 163.673C113.145 163.673 113.47 163.689 113.822 163.721C114.185 163.753 114.537 163.796 114.878 163.849C115.219 163.892 115.513 163.935 115.758 163.977L115.726 165.049C115.47 165.007 115.171 164.969 114.83 164.937C114.489 164.895 114.147 164.863 113.806 164.841C113.465 164.809 113.166 164.793 112.91 164.793C112.59 164.793 112.302 164.831 112.046 164.905C111.79 164.969 111.587 165.087 111.438 165.257C111.289 165.428 111.214 165.668 111.214 165.977C111.214 166.212 111.267 166.404 111.374 166.553C111.481 166.692 111.683 166.809 111.982 166.905C112.281 167.001 112.713 167.097 113.278 167.193C113.939 167.3 114.467 167.433 114.862 167.593C115.267 167.753 115.561 167.977 115.742 168.265C115.923 168.553 116.014 168.959 116.014 169.481C116.014 170.1 115.886 170.596 115.63 170.969C115.385 171.332 115.027 171.593 114.558 171.753C114.099 171.913 113.545 171.993 112.894 171.993Z" fill="#8C8C8A"/>
<path d="M43.6287 18.9934C42.7967 18.9934 42.114 18.8707 41.5807 18.6254C41.058 18.38 40.6473 18.0174 40.3487 17.5374C40.05 17.0574 39.842 16.4654 39.7247 15.7614C39.618 15.0574 39.5647 14.2467 39.5647 13.3294C39.5647 12.3907 39.618 11.564 39.7247 10.8494C39.842 10.1347 40.05 9.53737 40.3487 9.05737C40.6473 8.57737 41.058 8.21471 41.5807 7.96937C42.114 7.72404 42.7967 7.60137 43.6287 7.60137C44.0127 7.60137 44.3913 7.62271 44.7647 7.66537C45.1487 7.69737 45.506 7.74537 45.8367 7.80937C46.1673 7.86271 46.45 7.91604 46.6847 7.96937L46.6367 9.04137C46.402 8.99871 46.114 8.95604 45.7727 8.91337C45.4313 8.87071 45.0847 8.83337 44.7327 8.80137C44.3807 8.76937 44.0607 8.75337 43.7727 8.75337C43.1647 8.75337 42.6687 8.84404 42.2847 9.02537C41.9113 9.20671 41.6233 9.48937 41.4207 9.87337C41.218 10.2467 41.0793 10.7214 41.0047 11.2974C40.93 11.8627 40.8927 12.54 40.8927 13.3294C40.8927 14.0974 40.93 14.7694 41.0047 15.3454C41.0793 15.9107 41.2127 16.38 41.4047 16.7534C41.6073 17.116 41.9007 17.388 42.2847 17.5694C42.6687 17.7507 43.17 17.8414 43.7887 17.8414C44.2367 17.8414 44.7273 17.8147 45.2607 17.7614C45.8047 17.6974 46.2633 17.6334 46.6367 17.5694L46.6847 18.6574C46.4287 18.7107 46.13 18.764 45.7887 18.8174C45.4473 18.8707 45.09 18.9134 44.7167 18.9454C44.3433 18.9774 43.9807 18.9934 43.6287 18.9934ZM48.5878 18.8334V7.36137H49.8198V18.8334H48.5878ZM52.2262 18.8334V10.8334H53.4582V18.8334H52.2262ZM52.2262 9.07337V7.63337H53.4582V9.07337H52.2262ZM58.7174 18.9934C57.8747 18.9934 57.2134 18.8547 56.7334 18.5774C56.2534 18.2894 55.9121 17.8307 55.7094 17.2014C55.5174 16.572 55.4214 15.74 55.4214 14.7054C55.4214 13.7347 55.5281 12.956 55.7414 12.3694C55.9654 11.772 56.3227 11.34 56.8134 11.0734C57.3041 10.8067 57.9441 10.6734 58.7334 10.6734C58.9147 10.6734 59.1334 10.6894 59.3894 10.7214C59.6561 10.7427 59.9281 10.7747 60.2054 10.8174C60.4827 10.8494 60.7227 10.8814 60.9254 10.9134L60.8774 11.9374C60.6961 11.916 60.4881 11.8947 60.2534 11.8734C60.0187 11.852 59.7894 11.836 59.5654 11.8254C59.3414 11.804 59.1547 11.7934 59.0054 11.7934C58.3974 11.7934 57.9227 11.8894 57.5814 12.0814C57.2507 12.2734 57.0161 12.5827 56.8774 13.0094C56.7494 13.4254 56.6854 13.9907 56.6854 14.7054C56.6854 15.484 56.7441 16.108 56.8614 16.5774C56.9787 17.036 57.2027 17.3667 57.5334 17.5694C57.8641 17.772 58.3547 17.8734 59.0054 17.8734C59.1547 17.8734 59.3414 17.868 59.5654 17.8574C59.8001 17.836 60.0347 17.8147 60.2694 17.7934C60.5147 17.772 60.7281 17.756 60.9094 17.7454L60.9414 18.7694C60.7281 18.8014 60.4827 18.8334 60.2054 18.8654C59.9281 18.8974 59.6561 18.924 59.3894 18.9454C59.1227 18.9774 58.8987 18.9934 58.7174 18.9934ZM62.7262 18.8334V7.36137H63.9582V14.1134L65.1902 14.0654L67.4302 10.8334H68.8542L66.2782 14.5294L68.9822 18.8334H67.5582L65.2222 15.1534L63.9582 15.2174V18.8334H62.7262ZM4.11078 42.9934C3.37478 42.9934 2.81478 42.7854 2.43078 42.3694C2.04678 41.9534 1.85478 41.3454 1.85478 40.5454C1.85478 40.0227 1.94545 39.596 2.12678 39.2654C2.30812 38.9347 2.58012 38.684 2.94278 38.5134C3.31612 38.332 3.77478 38.22 4.31878 38.1774L6.78278 37.9374V37.2494C6.78278 36.7054 6.66012 36.3214 6.41478 36.0974C6.18012 35.8734 5.82812 35.7614 5.35878 35.7614C5.09212 35.7614 4.77212 35.772 4.39878 35.7934C4.03612 35.8147 3.67345 35.8414 3.31078 35.8734C2.94812 35.9054 2.62812 35.9374 2.35078 35.9694L2.28678 35.0254C2.54278 34.972 2.85212 34.9187 3.21478 34.8654C3.57745 34.812 3.95612 34.7694 4.35078 34.7374C4.74545 34.6947 5.10812 34.6734 5.43878 34.6734C6.04678 34.6734 6.54278 34.7694 6.92678 34.9614C7.31078 35.1427 7.58812 35.4254 7.75878 35.8094C7.94012 36.1827 8.03078 36.6627 8.03078 37.2494V41.2974C8.05212 41.532 8.14278 41.7027 8.30278 41.8094C8.47345 41.916 8.68678 41.9854 8.94278 42.0174L8.89478 42.9934C8.74545 42.9934 8.60145 42.988 8.46278 42.9774C8.32412 42.9667 8.19078 42.9454 8.06278 42.9134C7.94545 42.892 7.82812 42.8654 7.71078 42.8334C7.57212 42.78 7.43878 42.716 7.31078 42.6414C7.19345 42.5667 7.07612 42.476 6.95878 42.3694C6.75612 42.4547 6.49478 42.5454 6.17478 42.6414C5.86545 42.7374 5.52945 42.8174 5.16678 42.8814C4.81478 42.956 4.46278 42.9934 4.11078 42.9934ZM4.31878 41.9534C4.60678 41.9534 4.90545 41.9267 5.21478 41.8734C5.52412 41.82 5.81745 41.756 6.09478 41.6814C6.37212 41.6067 6.60145 41.5374 6.78278 41.4734V38.8654L4.46278 39.0894C3.98278 39.132 3.63612 39.2707 3.42278 39.5054C3.22012 39.74 3.11878 40.076 3.11878 40.5134C3.11878 40.9614 3.22012 41.3134 3.42278 41.5694C3.62545 41.8254 3.92412 41.9534 4.31878 41.9534ZM12.926 42.9934C12.606 42.9934 12.302 42.956 12.014 42.8814C11.726 42.8174 11.4594 42.7 11.214 42.5294C10.9794 42.3587 10.7714 42.124 10.59 41.8254C10.4087 41.516 10.27 41.1214 10.174 40.6414C10.078 40.1614 10.03 39.58 10.03 38.8974C10.03 37.948 10.142 37.164 10.366 36.5454C10.59 35.916 10.9474 35.4467 11.438 35.1374C11.9287 34.828 12.5794 34.6734 13.39 34.6734C13.5927 34.6734 13.8167 34.684 14.062 34.7054C14.3074 34.7267 14.542 34.7534 14.766 34.7854C15.0007 34.8174 15.1874 34.8494 15.326 34.8814V31.3614H16.574V42.8334H15.342V42.3054C15.1714 42.4014 14.9474 42.5027 14.67 42.6094C14.4034 42.716 14.1154 42.8067 13.806 42.8814C13.5074 42.956 13.214 42.9934 12.926 42.9934ZM13.086 41.8734C13.3634 41.8734 13.6407 41.8414 13.918 41.7774C14.206 41.7134 14.4727 41.6387 14.718 41.5534C14.9634 41.4574 15.166 41.372 15.326 41.2974V35.9374C15.198 35.916 15.022 35.8947 14.798 35.8734C14.574 35.8414 14.3394 35.8147 14.094 35.7934C13.8594 35.772 13.646 35.7614 13.454 35.7614C12.91 35.7614 12.4834 35.8787 12.174 36.1134C11.8647 36.348 11.6407 36.7 11.502 37.1694C11.374 37.628 11.31 38.204 11.31 38.8974C11.31 39.5374 11.358 40.0547 11.454 40.4494C11.55 40.8334 11.678 41.132 11.838 41.3454C12.0087 41.548 12.2007 41.6867 12.414 41.7614C12.6274 41.836 12.8514 41.8734 13.086 41.8734ZM20.3544 42.8334L18.1144 34.8334H19.4584L21.2824 41.7614H21.8904L23.7784 34.8334H25.0584L22.8184 42.8334H20.3544ZM29.3082 42.9934C28.5082 42.9934 27.8735 42.8387 27.4042 42.5294C26.9455 42.22 26.6148 41.7614 26.4122 41.1534C26.2095 40.5454 26.1082 39.788 26.1082 38.8814C26.1082 37.868 26.2468 37.0574 26.5242 36.4494C26.8015 35.8307 27.1908 35.3827 27.6922 35.1054C28.1935 34.8174 28.7855 34.6734 29.4682 34.6734C30.5348 34.6734 31.3402 34.972 31.8842 35.5694C32.4282 36.156 32.7002 37.1054 32.7002 38.4174L32.6362 39.3614H27.3722C27.3828 40.1934 27.5375 40.8227 27.8362 41.2494C28.1348 41.676 28.6735 41.8894 29.4522 41.8894C29.7508 41.8894 30.0762 41.884 30.4282 41.8734C30.7908 41.852 31.1482 41.8307 31.5002 41.8094C31.8522 41.788 32.1508 41.7667 32.3962 41.7454L32.4282 42.7214C32.1722 42.764 31.8575 42.8067 31.4842 42.8494C31.1215 42.892 30.7482 42.924 30.3642 42.9454C29.9802 42.9774 29.6282 42.9934 29.3082 42.9934ZM27.3722 38.3534H31.4522C31.4522 37.372 31.2922 36.6894 30.9722 36.3054C30.6628 35.9107 30.1615 35.7134 29.4682 35.7134C29.0202 35.7134 28.6415 35.804 28.3322 35.9854C28.0228 36.156 27.7828 36.4334 27.6122 36.8174C27.4522 37.2014 27.3722 37.7134 27.3722 38.3534ZM34.5543 42.8334V34.8334H35.7863V35.9054C35.9889 35.7667 36.2449 35.6174 36.5543 35.4574C36.8636 35.2867 37.2049 35.1267 37.5783 34.9774C37.9516 34.828 38.3249 34.7214 38.6983 34.6574V35.9214C38.3356 35.996 37.9676 36.0974 37.5943 36.2254C37.2209 36.3427 36.8743 36.4707 36.5543 36.6094C36.2449 36.748 35.9889 36.8707 35.7863 36.9774V42.8334H34.5543ZM42.7252 43.0094C42.1705 43.0094 41.7278 42.924 41.3972 42.7534C41.0772 42.5827 40.8478 42.2894 40.7092 41.8734C40.5705 41.4467 40.5012 40.8494 40.5012 40.0814V35.9054H39.3652V34.8334H40.5012V32.3854H41.7332V34.8334H44.2452V35.9054H41.7332V39.7134C41.7332 40.2787 41.7545 40.7214 41.7972 41.0414C41.8505 41.3507 41.9572 41.5694 42.1172 41.6974C42.2772 41.8254 42.5278 41.8894 42.8692 41.8894C42.9758 41.8894 43.1145 41.884 43.2852 41.8734C43.4558 41.8627 43.6265 41.852 43.7972 41.8414C43.9785 41.82 44.1385 41.804 44.2772 41.7934L44.3572 42.8334C44.2078 42.8547 44.0318 42.876 43.8292 42.8974C43.6265 42.9294 43.4238 42.956 43.2212 42.9774C43.0292 42.9987 42.8638 43.0094 42.7252 43.0094ZM45.7105 42.8334V34.8334H46.9425V42.8334H45.7105ZM45.7105 33.0734V31.6334H46.9425V33.0734H45.7105ZM51.7378 42.9934C51.4924 42.9934 51.1938 42.9774 50.8418 42.9454C50.5004 42.9134 50.1591 42.876 49.8178 42.8334C49.4764 42.78 49.1724 42.732 48.9058 42.6894L48.9698 41.6174C49.2364 41.6494 49.5351 41.6867 49.8658 41.7294C50.2071 41.772 50.5378 41.8094 50.8578 41.8414C51.1778 41.8627 51.4338 41.8734 51.6258 41.8734C52.0631 41.8734 52.4258 41.836 52.7138 41.7614C53.0018 41.676 53.2204 41.5374 53.3698 41.3454C53.5191 41.1534 53.5938 40.8814 53.5938 40.5294C53.5938 40.2627 53.5351 40.0547 53.4178 39.9054C53.3111 39.756 53.1031 39.6334 52.7938 39.5374C52.4951 39.4414 52.0578 39.3507 51.4818 39.2654C50.8844 39.1694 50.3831 39.052 49.9778 38.9134C49.5831 38.764 49.2898 38.5454 49.0978 38.2574C48.9058 37.9694 48.8098 37.5587 48.8098 37.0254C48.8098 36.428 48.9484 35.9587 49.2258 35.6174C49.5031 35.276 49.8604 35.036 50.2978 34.8974C50.7458 34.748 51.2098 34.6734 51.6898 34.6734C51.9884 34.6734 52.3138 34.6894 52.6658 34.7214C53.0284 34.7534 53.3804 34.796 53.7218 34.8494C54.0631 34.892 54.3564 34.9347 54.6018 34.9774L54.5698 36.0494C54.3138 36.0067 54.0151 35.9694 53.6738 35.9374C53.3324 35.8947 52.9911 35.8627 52.6498 35.8414C52.3084 35.8094 52.0098 35.7934 51.7538 35.7934C51.4338 35.7934 51.1458 35.8307 50.8898 35.9054C50.6338 35.9694 50.4311 36.0867 50.2818 36.2574C50.1324 36.428 50.0578 36.668 50.0578 36.9774C50.0578 37.212 50.1111 37.404 50.2178 37.5534C50.3244 37.692 50.5271 37.8094 50.8258 37.9054C51.1244 38.0014 51.5564 38.0974 52.1218 38.1934C52.7831 38.3 53.3111 38.4334 53.7058 38.5934C54.1111 38.7534 54.4044 38.9774 54.5858 39.2654C54.7671 39.5534 54.8578 39.9587 54.8578 40.4814C54.8578 41.1 54.7298 41.596 54.4738 41.9694C54.2284 42.332 53.8711 42.5934 53.4018 42.7534C52.9431 42.9134 52.3884 42.9934 51.7378 42.9934ZM59.5269 42.9934C58.7269 42.9934 58.0922 42.8387 57.6229 42.5294C57.1642 42.22 56.8336 41.7614 56.6309 41.1534C56.4282 40.5454 56.3269 39.788 56.3269 38.8814C56.3269 37.868 56.4656 37.0574 56.7429 36.4494C57.0202 35.8307 57.4096 35.3827 57.9109 35.1054C58.4122 34.8174 59.0042 34.6734 59.6869 34.6734C60.7536 34.6734 61.5589 34.972 62.1029 35.5694C62.6469 36.156 62.9189 37.1054 62.9189 38.4174L62.8549 39.3614H57.5909C57.6016 40.1934 57.7562 40.8227 58.0549 41.2494C58.3536 41.676 58.8922 41.8894 59.6709 41.8894C59.9696 41.8894 60.2949 41.884 60.6469 41.8734C61.0096 41.852 61.3669 41.8307 61.7189 41.8094C62.0709 41.788 62.3696 41.7667 62.6149 41.7454L62.6469 42.7214C62.3909 42.764 62.0762 42.8067 61.7029 42.8494C61.3402 42.892 60.9669 42.924 60.5829 42.9454C60.1989 42.9774 59.8469 42.9934 59.5269 42.9934ZM57.5909 38.3534H61.6709C61.6709 37.372 61.5109 36.6894 61.1909 36.3054C60.8816 35.9107 60.3802 35.7134 59.6869 35.7134C59.2389 35.7134 58.8602 35.804 58.5509 35.9854C58.2416 36.156 58.0016 36.4334 57.8309 36.8174C57.6709 37.2014 57.5909 37.7134 57.5909 38.3534ZM64.773 42.8334V34.8334H66.005V35.3934C66.1757 35.2867 66.389 35.18 66.645 35.0734C66.901 34.9667 67.173 34.876 67.461 34.8014C67.7597 34.716 68.0424 34.6734 68.309 34.6734C68.8424 34.6734 69.269 34.7374 69.589 34.8654C69.9197 34.9934 70.1864 35.2014 70.389 35.4894C70.6024 35.372 70.8637 35.2494 71.173 35.1214C71.4824 34.9934 71.813 34.8867 72.165 34.8014C72.5277 34.716 72.8797 34.6734 73.221 34.6734C73.765 34.6734 74.213 34.7427 74.565 34.8814C74.917 35.02 75.189 35.244 75.381 35.5534C75.5837 35.8627 75.7224 36.268 75.797 36.7694C75.8824 37.26 75.925 37.868 75.925 38.5934V42.8334H74.693V38.6414C74.693 37.948 74.6504 37.3934 74.565 36.9774C74.4904 36.5614 74.3357 36.2627 74.101 36.0814C73.8664 35.8894 73.509 35.7934 73.029 35.7934C72.7517 35.7934 72.469 35.8254 72.181 35.8894C71.9037 35.9427 71.6424 36.0174 71.397 36.1134C71.1624 36.1987 70.9704 36.284 70.821 36.3694C70.8957 36.6467 70.9437 36.9934 70.965 37.4094C70.997 37.8147 71.013 38.236 71.013 38.6734V42.8334H69.781V38.7054C69.781 37.98 69.7437 37.4094 69.669 36.9934C69.5944 36.5667 69.4344 36.2627 69.189 36.0814C68.9544 35.8894 68.597 35.7934 68.117 35.7934C67.8504 35.7934 67.5784 35.8254 67.301 35.8894C67.0344 35.9427 66.789 36.0174 66.565 36.1134C66.341 36.1987 66.1544 36.284 66.005 36.3694V42.8334H64.773ZM80.98 42.9934C80.18 42.9934 79.5454 42.8387 79.076 42.5294C78.6174 42.22 78.2867 41.7614 78.084 41.1534C77.8814 40.5454 77.78 39.788 77.78 38.8814C77.78 37.868 77.9187 37.0574 78.196 36.4494C78.4734 35.8307 78.8627 35.3827 79.364 35.1054C79.8654 34.8174 80.4574 34.6734 81.14 34.6734C82.2067 34.6734 83.012 34.972 83.556 35.5694C84.1 36.156 84.372 37.1054 84.372 38.4174L84.308 39.3614H79.044C79.0547 40.1934 79.2094 40.8227 79.508 41.2494C79.8067 41.676 80.3454 41.8894 81.124 41.8894C81.4227 41.8894 81.748 41.884 82.1 41.8734C82.4627 41.852 82.82 41.8307 83.172 41.8094C83.524 41.788 83.8227 41.7667 84.068 41.7454L84.1 42.7214C83.844 42.764 83.5294 42.8067 83.156 42.8494C82.7934 42.892 82.42 42.924 82.036 42.9454C81.652 42.9774 81.3 42.9934 80.98 42.9934ZM79.044 38.3534H83.124C83.124 37.372 82.964 36.6894 82.644 36.3054C82.3347 35.9107 81.8334 35.7134 81.14 35.7134C80.692 35.7134 80.3134 35.804 80.004 35.9854C79.6947 36.156 79.4547 36.4334 79.284 36.8174C79.124 37.2014 79.044 37.7134 79.044 38.3534ZM86.2262 42.8334V34.8334H87.4582V35.3934C87.6395 35.2867 87.8635 35.18 88.1302 35.0734C88.4075 34.9667 88.7008 34.876 89.0102 34.8014C89.3195 34.716 89.6182 34.6734 89.9062 34.6734C90.4608 34.6734 90.9142 34.748 91.2662 34.8974C91.6182 35.036 91.8902 35.2654 92.0822 35.5854C92.2848 35.8947 92.4235 36.3 92.4982 36.8014C92.5835 37.292 92.6262 37.8894 92.6262 38.5934V42.8334H91.3782V38.6414C91.3782 37.948 91.3355 37.3934 91.2502 36.9774C91.1755 36.5614 91.0155 36.2627 90.7702 36.0814C90.5355 35.8894 90.1728 35.7934 89.6822 35.7934C89.4155 35.7934 89.1382 35.8254 88.8502 35.8894C88.5728 35.9427 88.3115 36.0174 88.0662 36.1134C87.8208 36.1987 87.6182 36.284 87.4582 36.3694V42.8334H86.2262ZM97.4127 43.0094C96.858 43.0094 96.4153 42.924 96.0847 42.7534C95.7647 42.5827 95.5353 42.2894 95.3967 41.8734C95.258 41.4467 95.1887 40.8494 95.1887 40.0814V35.9054H94.0527V34.8334H95.1887V32.3854H96.4207V34.8334H98.9327V35.9054H96.4207V39.7134C96.4207 40.2787 96.442 40.7214 96.4847 41.0414C96.538 41.3507 96.6447 41.5694 96.8047 41.6974C96.9647 41.8254 97.2153 41.8894 97.5567 41.8894C97.6633 41.8894 97.802 41.884 97.9727 41.8734C98.1433 41.8627 98.314 41.852 98.4847 41.8414C98.666 41.82 98.826 41.804 98.9647 41.7934L99.0447 42.8334C98.8953 42.8547 98.7193 42.876 98.5167 42.8974C98.314 42.9294 98.1113 42.956 97.9087 42.9774C97.7167 42.9987 97.5513 43.0094 97.4127 43.0094ZM102.894 42.9934C102.649 42.9934 102.35 42.9774 101.998 42.9454C101.657 42.9134 101.315 42.876 100.974 42.8334C100.633 42.78 100.329 42.732 100.062 42.6894L100.126 41.6174C100.393 41.6494 100.691 41.6867 101.022 41.7294C101.363 41.772 101.694 41.8094 102.014 41.8414C102.334 41.8627 102.59 41.8734 102.782 41.8734C103.219 41.8734 103.582 41.836 103.87 41.7614C104.158 41.676 104.377 41.5374 104.526 41.3454C104.675 41.1534 104.75 40.8814 104.75 40.5294C104.75 40.2627 104.691 40.0547 104.574 39.9054C104.467 39.756 104.259 39.6334 103.95 39.5374C103.651 39.4414 103.214 39.3507 102.638 39.2654C102.041 39.1694 101.539 39.052 101.134 38.9134C100.739 38.764 100.446 38.5454 100.254 38.2574C100.062 37.9694 99.966 37.5587 99.966 37.0254C99.966 36.428 100.105 35.9587 100.382 35.6174C100.659 35.276 101.017 35.036 101.454 34.8974C101.902 34.748 102.366 34.6734 102.846 34.6734C103.145 34.6734 103.47 34.6894 103.822 34.7214C104.185 34.7534 104.537 34.796 104.878 34.8494C105.219 34.892 105.513 34.9347 105.758 34.9774L105.726 36.0494C105.47 36.0067 105.171 35.9694 104.83 35.9374C104.489 35.8947 104.147 35.8627 103.806 35.8414C103.465 35.8094 103.166 35.7934 102.91 35.7934C102.59 35.7934 102.302 35.8307 102.046 35.9054C101.79 35.9694 101.587 36.0867 101.438 36.2574C101.289 36.428 101.214 36.668 101.214 36.9774C101.214 37.212 101.267 37.404 101.374 37.5534C101.481 37.692 101.683 37.8094 101.982 37.9054C102.281 38.0014 102.713 38.0974 103.278 38.1934C103.939 38.3 104.467 38.4334 104.862 38.5934C105.267 38.7534 105.561 38.9774 105.742 39.2654C105.923 39.5534 106.014 39.9587 106.014 40.4814C106.014 41.1 105.886 41.596 105.63 41.9694C105.385 42.332 105.027 42.5934 104.558 42.7534C104.099 42.9134 103.545 42.9934 102.894 42.9934Z" fill="#8C8C8A"/>
<path d="M86.0712 63.4167C94.1199 63.1622 101.344 62.8461 106.557 62.5388C111.771 62.2316 114.966 61.9331 114.957 61.7312C114.948 61.5293 111.736 61.4239 106.522 61.3712L86.0361 61.301C69.9562 61.301 50.6288 61.143 37.5947 61.0201C24.5605 60.8972 18.7939 60.9411 16.2661 61.1693H16.0027C16.2485 60.8445 16.5645 60.4846 16.8805 60.1246C17.4159 59.5189 17.9513 58.9482 18.4779 58.4215C19.5224 57.3505 20.5318 56.4375 21.392 55.6737C23.1474 54.1549 24.2709 53.2331 24.0778 52.9259C23.8847 52.6186 22.3838 53.0751 20.2422 54.3217C19.0021 55.063 17.8275 55.9089 16.7313 56.8501C16.1169 57.3768 15.5024 57.9562 14.8968 58.6059C14.5896 58.9307 14.3087 59.2204 14.0191 59.6154C13.6443 60.0368 13.3472 60.5213 13.1414 61.0464C12.8955 61.7 12.8955 62.4207 13.1414 63.0744C13.3676 63.6253 13.7123 64.1199 14.1508 64.5229C14.5194 64.8741 14.809 65.1199 15.125 65.4008L16.0027 66.1821C17.1964 67.1917 18.2936 68.0784 19.2415 68.8158C21.1374 70.2555 22.4452 71.0281 22.6998 70.7911C22.9543 70.554 22.1205 69.3513 20.5581 67.6043C19.7857 66.7264 18.8027 65.7168 17.7231 64.6195L16.3977 63.3026C19.0309 63.6099 24.7887 63.8996 37.5683 64.0137C50.62 64.1366 69.9826 63.9435 86.0712 63.4167Z" fill="#E3E3E3"/>
<path d="M116.77 118.161C116.399 117.808 116.099 117.561 115.791 117.279L114.909 116.495C113.71 115.481 112.608 114.582 111.656 113.85C109.751 112.414 108.446 111.638 108.181 111.876C107.917 112.114 108.763 113.313 110.333 115.076C111.118 115.957 112.096 116.971 113.181 118.073L114.574 119.448C111.7 119.174 105.492 118.954 92.2927 118.928C78.4055 118.928 57.7995 119.192 40.6852 119.809C32.1236 120.1 24.4438 120.426 18.8977 120.761C13.3517 121.096 9.94817 121.378 9.95699 121.59C9.9658 121.801 13.3781 121.889 18.933 121.925H40.7293C57.8436 121.925 78.4144 121.925 92.2839 121.925C105.854 121.925 112.017 121.872 114.794 121.634C114.565 121.925 114.292 122.233 114.019 122.515C113.481 123.123 112.943 123.696 112.414 124.234C111.365 125.3 110.359 126.226 109.486 126.984C107.723 128.509 106.603 129.443 106.797 129.743C106.991 130.043 108.499 129.602 110.641 128.342C111.891 127.606 113.071 126.759 114.168 125.812C114.786 125.283 115.403 124.701 116.011 124.049C116.32 123.723 116.602 123.423 116.893 123.035C117.264 122.608 117.562 122.123 117.775 121.598C118.018 120.941 118.018 120.219 117.775 119.562C117.547 119.011 117.204 118.516 116.77 118.108" fill="#E3E3E3"/>
</svg>
