<svg width="25" height="24" viewBox="0 0 25 24" fill="none" xmlns="http://www.w3.org/2000/svg">
<g clip-path="url(#clip0_78_2935)">
<g clip-path="url(#clip1_78_2935)">
<path d="M12.4165 24C19.0439 24 24.4165 18.6274 24.4165 12C24.4165 5.37258 19.0439 0 12.4165 0C5.78909 0 0.416504 5.37258 0.416504 12C0.416504 18.6274 5.78909 24 12.4165 24Z" fill="#FBE945"/>
<path d="M4.90075 5.56772L3.68555 4.52665C5.56475 2.33332 8.17168 0.93572 11.0261 0.591187L11.2178 2.17972C8.76208 2.47599 6.51861 3.67945 4.90075 5.56799V5.56772Z" fill="#FFFDF0"/>
<path d="M3.70248 7.31415L2.29395 6.55522C2.51341 6.14802 2.76035 5.74962 3.02808 5.37122L4.33448 6.29522C4.10408 6.62108 3.89128 6.96402 3.70248 7.31442V7.31415Z" fill="#FFFDF0"/>
<path d="M12.4165 21.1904C17.4922 21.1904 21.6069 17.0757 21.6069 12C21.6069 6.92425 17.4922 2.80957 12.4165 2.80957C7.34076 2.80957 3.22607 6.92425 3.22607 12C3.22607 17.0757 7.34076 21.1904 12.4165 21.1904Z" fill="#FDC72F"/>
<path d="M5.45245 13.3493C5.45245 8.27357 9.56712 4.1589 14.6429 4.1589C15.9191 4.1589 17.1346 4.41944 18.2394 4.88957C16.6541 3.58984 14.6266 2.80957 12.4167 2.80957C7.34099 2.80957 3.22632 6.92424 3.22632 12C3.22632 15.7992 5.53192 19.06 8.82019 20.4597C6.76445 18.7744 5.45272 16.2152 5.45272 13.3493H5.45245Z" fill="#F4A61C"/>
<path d="M13.2335 7.81863C14.6301 7.81863 16.5063 8.64476 17.421 9.66263L15.9391 11.0736C15.3645 10.3818 14.1525 9.82023 13.2335 9.82023H13.2213C11.3143 9.82663 9.76661 11.3248 9.76661 13.164C9.76661 15.0032 11.3197 16.5077 13.2335 16.5077C14.1527 16.5077 15.365 15.9461 15.9394 15.2544L17.4213 16.6653C16.5063 17.6832 14.6303 18.5096 13.2335 18.5096C10.1743 18.5096 7.69141 16.1149 7.69141 13.164C7.69141 10.213 10.1733 7.81836 13.2314 7.81836H13.2335V7.81863Z" fill="#F4A61C"/>
<path d="M12.7536 6.93862C14.1501 6.93862 16.0264 7.76475 16.941 8.78262L15.4592 10.1936C14.8845 9.50182 13.6725 8.94022 12.7536 8.94022H12.7413C10.8344 8.94662 9.28663 10.4448 9.28663 12.284C9.28663 14.1232 10.8397 15.6277 12.7536 15.6277C13.6728 15.6277 14.885 15.0661 15.4594 14.3744L16.9413 15.7853C16.0264 16.8032 14.1504 17.6296 12.7536 17.6296C9.69436 17.6296 7.21143 15.2349 7.21143 12.284C7.21143 9.33302 9.69329 6.93835 12.7514 6.93835H12.7536V6.93862Z" fill="#D1871C"/>
</g>
</g>
<defs>
<clipPath id="clip0_78_2935">
<rect width="24" height="24" fill="white" transform="translate(0.416504)"/>
</clipPath>
<clipPath id="clip1_78_2935">
<rect width="24" height="24" fill="white" transform="translate(0.416504)"/>
</clipPath>
</defs>
</svg>
