<svg width="179" height="96" viewBox="0 0 179 96" fill="none" xmlns="http://www.w3.org/2000/svg">
<rect width="179" height="96" rx="16" fill="#6ABD45"/>
<path d="M90.4578 18.8723C91.8803 20.197 92.7009 21.7159 92.849 23.68C92.8489 23.9307 92.8488 24.1814 92.8486 24.4397C92.8492 24.5808 92.8497 24.7219 92.8502 24.8672C92.8515 25.336 92.8496 25.8048 92.8477 26.2736C92.8479 26.6119 92.8484 26.9501 92.849 27.2884C92.85 28.2074 92.8483 29.1263 92.8461 30.0453C92.8442 31.0187 92.8446 31.9921 92.8447 32.9656C92.8445 34.6099 92.8426 36.2541 92.8396 37.8984C92.8366 39.5645 92.835 41.2306 92.8351 42.8967C92.8359 58.3314 92.8359 58.3314 92.7342 64.6545C92.7274 65.088 92.7214 65.5215 92.7166 65.955C92.6239 73.657 92.6239 73.657 90.2187 76.5579C87.7932 78.9139 84.0065 79.014 80.8239 78.9989C80.5558 78.9978 80.2877 78.9967 80.0114 78.9956C76.923 78.9558 74.0902 78.7354 71.641 76.6758C68.4862 72.9076 68.8954 67.7038 68.9293 63.0611C68.9313 62.563 68.9331 62.0649 68.9348 61.5669C68.9399 60.2573 68.948 58.9479 68.9571 57.6384C68.9625 56.8605 68.9673 56.0827 68.9719 55.3049C68.9906 52.2099 69.0155 49.115 69.044 46.0201C69.0537 44.9713 69.0628 43.9226 69.0713 42.8739C69.1124 37.8579 69.1544 32.8416 69.2591 27.8265C69.2668 27.445 69.274 27.0635 69.2805 26.6821C69.3318 23.7458 69.4655 21.202 71.436 18.8587C76.0494 14.9963 85.8186 15.0938 90.4578 18.8723ZM76.3964 22.7396C75.4714 23.9081 75.2756 24.7504 75.2769 26.2098C75.2766 26.4722 75.2763 26.7347 75.276 27.0051C75.2768 27.2922 75.2776 27.5794 75.2784 27.8753C75.2785 28.1813 75.2784 28.4873 75.2783 28.7933C75.2782 29.6235 75.2795 30.4537 75.2811 31.284C75.2824 32.1518 75.2826 33.0196 75.2828 33.8874C75.2835 35.5306 75.2853 37.1737 75.2875 38.8168C75.2899 40.6876 75.2911 42.5583 75.2922 44.429C75.2945 48.2771 75.2984 52.1251 75.3032 55.9731C75.5027 55.9066 75.5027 55.9066 75.7063 55.8388C79.6618 54.5203 82.567 54.6331 86.454 56.1918C86.4744 52.0524 86.4898 47.913 86.4993 43.7735C86.5038 41.8515 86.5099 39.9295 86.5199 38.0074C86.5287 36.3321 86.5343 34.6568 86.5363 32.9815C86.5374 32.0945 86.5401 31.2075 86.5464 30.3205C86.5524 29.4853 86.5542 28.6502 86.5529 27.8149C86.5531 27.5087 86.5549 27.2026 86.5582 26.8964C86.6277 24.7372 86.6277 24.7372 85.5794 22.9582C84.1122 21.6657 82.9598 21.811 81.0562 21.7967C80.779 21.7903 80.5019 21.784 80.2163 21.7774C78.6817 21.767 77.6227 21.7742 76.3964 22.7396Z" fill="white"/>
<path d="M113.034 51.5397C115.145 51.5681 115.145 51.5681 116.04 52.1462C116.844 53.0354 117.273 54.1089 117.708 55.2133C118.071 56.0639 118.58 56.7973 119.1 57.5582C119.298 57.8601 119.495 58.1624 119.691 58.4653C119.794 58.6236 119.897 58.7819 120.003 58.945C120.81 60.1926 121.604 61.4483 122.4 62.7025C122.524 62.8983 122.649 63.0941 122.777 63.2959C122.887 63.4703 122.998 63.6447 123.112 63.8245C123.622 64.7024 123.622 64.7024 124.498 65.1561C124.57 60.7548 124.642 56.3535 124.716 51.8189C126.809 51.8189 128.901 51.8189 131.057 51.8189C131.411 52.1728 131.304 52.5594 131.305 53.0486C131.306 53.3765 131.306 53.3765 131.308 53.711C131.308 54.0738 131.308 54.0738 131.307 54.4438C131.308 54.6969 131.309 54.95 131.31 55.2108C131.312 56.0522 131.312 56.8936 131.312 57.735C131.313 58.1701 131.313 58.6051 131.314 59.0401C131.316 60.4088 131.316 61.7776 131.316 63.1463C131.316 64.56 131.318 65.9737 131.322 67.3875C131.325 68.5996 131.326 69.8117 131.326 71.0239C131.326 71.7486 131.326 72.4732 131.329 73.1979C131.331 74.0057 131.33 74.8135 131.329 75.6214C131.33 75.8627 131.331 76.1041 131.333 76.3528C131.332 76.572 131.331 76.7912 131.33 77.0171C131.33 77.2082 131.33 77.3994 131.33 77.5964C131.276 78.0559 131.276 78.0559 130.838 78.4932C129.846 78.6357 128.847 78.6351 127.846 78.6572C127.569 78.6735 127.291 78.6899 127.006 78.7067C125.008 78.7444 125.008 78.7444 124.23 78.0737C123.827 77.504 123.506 76.9266 123.186 76.3068C122.952 75.9391 122.715 75.5735 122.474 75.2102C122.233 74.829 121.992 74.4475 121.751 74.0657C121.485 73.6455 121.219 73.2253 120.953 72.8051C120.817 72.5908 120.681 72.3764 120.542 72.1556C119.849 71.0603 119.153 69.9666 118.458 68.873C118.331 68.6734 118.204 68.4737 118.074 68.2681C117.84 67.9009 117.606 67.5343 117.371 67.1682C117.179 66.8675 116.991 66.5649 116.806 66.2595C116.567 65.859 116.567 65.859 116.189 65.3747C115.973 65.3747 115.756 65.3747 115.533 65.3747C115.53 65.6164 115.53 65.6164 115.527 65.863C115.505 67.3784 115.483 68.8938 115.459 70.4092C115.447 71.1883 115.436 71.9675 115.425 72.7467C115.412 73.6416 115.398 74.5365 115.384 75.4314C115.379 75.8529 115.379 75.8529 115.373 76.283C115.369 76.5413 115.364 76.7995 115.36 77.0656C115.356 77.2943 115.353 77.5229 115.349 77.7586C115.315 78.2746 115.315 78.2746 115.096 78.4932C114.646 78.5151 114.194 78.5218 113.743 78.5223C113.469 78.5225 113.194 78.5228 112.911 78.5231C112.768 78.5226 112.624 78.5222 112.476 78.5217C112.037 78.5205 111.598 78.5217 111.159 78.5231C110.884 78.5228 110.61 78.5225 110.327 78.5223C110.073 78.522 109.819 78.5218 109.558 78.5215C108.974 78.4932 108.974 78.4932 108.756 78.2746C108.734 77.9348 108.728 77.5941 108.728 77.2537C108.727 77.0329 108.727 76.8122 108.726 76.5848C108.726 76.3406 108.727 76.0963 108.727 75.8447C108.727 75.5892 108.727 75.3336 108.726 75.0702C108.725 74.3674 108.725 73.6645 108.726 72.9616C108.727 72.2275 108.726 71.4934 108.726 70.7593C108.725 69.5264 108.726 68.2934 108.727 67.0604C108.728 65.633 108.728 64.2056 108.727 62.7782C108.726 61.5548 108.726 60.3313 108.726 59.1078C108.726 58.3762 108.726 57.6446 108.726 56.913C108.725 56.0978 108.726 55.2826 108.727 54.4674C108.727 54.2232 108.726 53.979 108.726 53.7274C108.727 53.5066 108.727 53.2859 108.728 53.0584C108.728 52.8654 108.728 52.6724 108.728 52.4736C108.81 51.1679 111.941 51.5535 113.034 51.5397Z" fill="white"/>
<path d="M113.034 18.306C115.145 18.3344 115.145 18.3344 116.04 18.9126C116.844 19.8018 117.273 20.8753 117.708 21.9796C118.07 22.8303 118.58 23.5637 119.1 24.3246C119.298 24.6264 119.495 24.9288 119.691 25.2316C119.794 25.3899 119.897 25.5483 120.003 25.7114C120.81 26.9589 121.604 28.2146 122.4 29.4689C122.524 29.6647 122.649 29.8605 122.777 30.0622C122.887 30.2367 122.998 30.4111 123.112 30.5908C123.351 30.9645 123.596 31.3346 123.842 31.7038C124.058 31.6316 124.275 31.5595 124.498 31.4851C124.57 27.2282 124.642 22.9712 124.716 18.5852C126.809 18.5852 128.901 18.5852 131.057 18.5852C131.411 18.9391 131.304 19.3258 131.305 19.815C131.306 20.1429 131.306 20.1429 131.308 20.4774C131.308 20.8401 131.308 20.8401 131.307 21.2102C131.308 21.4633 131.309 21.7164 131.31 21.9771C131.312 22.8186 131.312 23.66 131.312 24.5014C131.313 24.9364 131.313 25.3714 131.314 25.8065C131.316 27.1752 131.316 28.5439 131.316 29.9126C131.316 31.3263 131.318 32.7401 131.322 34.1538C131.325 35.3659 131.326 36.5781 131.326 37.7902C131.326 38.5149 131.326 39.2395 131.329 39.9642C131.331 40.7721 131.33 41.5799 131.329 42.3877C131.33 42.6291 131.331 42.8704 131.332 43.1191C131.332 43.3383 131.331 43.5576 131.33 43.7834C131.33 43.9746 131.33 44.1658 131.33 44.3627C131.276 44.8223 131.276 44.8223 130.838 45.2596C129.846 45.402 128.847 45.4015 127.846 45.4235C127.568 45.4399 127.291 45.4562 127.006 45.4731C125.004 45.5108 125.004 45.5108 124.221 44.827C123.821 44.2609 123.501 43.6904 123.186 43.0731C122.989 42.7611 122.789 42.4509 122.585 42.1431C122.389 41.8293 122.193 41.5153 121.997 41.201C121.772 40.8422 121.547 40.4835 121.321 40.1249C121.141 39.8376 121.141 39.8376 120.957 39.5445C120.211 38.3624 119.457 37.1855 118.704 36.0083C118.554 35.7749 118.405 35.5415 118.252 35.301C117.975 34.869 117.698 34.4375 117.419 34.0066C117.206 33.6743 116.995 33.3401 116.791 33.0025C116.554 32.606 116.554 32.606 116.189 32.141C115.973 32.141 115.756 32.141 115.533 32.141C115.53 32.3827 115.53 32.3827 115.527 32.6293C115.505 34.1447 115.483 35.6601 115.459 37.1755C115.447 37.9547 115.435 38.7338 115.425 39.513C115.412 40.4079 115.398 41.3028 115.384 42.1977C115.378 42.6193 115.378 42.6193 115.373 43.0494C115.368 43.3076 115.364 43.5659 115.36 43.8319C115.356 44.0606 115.353 44.2893 115.349 44.5249C115.315 45.0409 115.315 45.0409 115.096 45.2596C114.664 45.2814 114.231 45.2882 113.799 45.2886C113.403 45.289 113.403 45.289 113 45.2894C112.722 45.2886 112.444 45.2878 112.158 45.2869C111.881 45.2877 111.604 45.2886 111.319 45.2894C111.055 45.2892 110.791 45.2889 110.519 45.2886C110.275 45.2883 110.032 45.2881 109.781 45.2878C109.193 45.2596 109.193 45.2596 108.755 45.0409C108.75 41.6238 108.747 38.2067 108.744 34.7896C108.743 33.2031 108.741 31.6166 108.739 30.03C108.737 28.6477 108.735 27.2654 108.735 25.8831C108.735 25.1507 108.734 24.4184 108.732 23.686C108.731 22.8697 108.731 22.0535 108.731 21.2372C108.73 20.9926 108.729 20.7481 108.728 20.4961C108.729 20.2751 108.729 20.054 108.729 19.8262C108.729 19.633 108.729 19.4397 108.729 19.2405C108.809 17.9342 111.941 18.3198 113.034 18.306Z" fill="white"/>
<path d="M86.0578 55.9048C86.2607 56.0717 86.4637 56.2385 86.6727 56.4104C86.8432 56.5502 87.0138 56.69 87.1894 56.834C89.3062 58.6403 91.0348 60.9763 91.2642 63.8443C91.4118 65.8288 91.092 67.453 90.3896 69.3103C90.2988 69.5534 90.2988 69.5534 90.206 69.8014C89.2604 71.9672 87.4468 73.5402 85.3609 74.5577C85.1895 74.6479 85.0182 74.7381 84.8416 74.831C82.4891 75.8896 79.405 75.8346 76.9978 74.9677C75.8719 74.4543 74.9121 73.8514 73.9915 73.0272C73.8461 72.9069 73.7006 72.7865 73.5508 72.6625C71.8882 71.1744 70.6244 68.9182 70.4602 66.6718C70.3372 64.2854 70.3524 62.2462 71.5864 60.1273C71.7327 59.8631 71.7327 59.8631 71.8819 59.5935C72.6542 58.3187 73.6649 57.2921 74.8661 56.4104C75.0104 56.4104 75.1547 56.4104 75.3034 56.4104C75.3034 56.2661 75.3034 56.1218 75.3034 55.9731C75.7173 55.7942 76.132 55.6169 76.5469 55.4402C76.8931 55.2918 76.8931 55.2918 77.2464 55.1404C80.0872 54.0533 83.4162 54.5063 86.0578 55.9048Z" fill="#F9CE26"/>
<path d="M58.1672 50.2202C58.4785 50.2211 58.4785 50.2211 58.7961 50.222C63.1649 50.286 63.1649 50.286 64.8085 51.3818C64.7109 53.1647 64.5655 54.8894 64.1526 56.6292C63.3367 56.5313 62.5246 56.4302 61.7133 56.2986C58.23 55.6562 58.23 55.6562 54.9696 56.6292C54.4115 57.4019 54.2285 57.9598 54.2018 58.907C54.1939 59.1417 54.1861 59.3765 54.178 59.6184C54.1708 59.9989 54.1708 59.9989 54.1634 60.3871C54.1568 60.6513 54.1503 60.9156 54.1436 61.1878C54.1309 61.7632 54.1196 62.3384 54.1107 62.9138C54.1007 63.5565 54.0867 64.1989 54.07 64.8415C54.0481 65.6874 54.0324 66.5332 54.0209 67.3793C54.0157 67.7088 54.0087 68.0382 53.9999 68.3676C53.9881 68.832 53.9835 69.296 53.9806 69.7605C53.9763 70.0272 53.9719 70.294 53.9675 70.5688C54.1318 71.4828 54.4735 71.7983 55.1882 72.3714C56.0898 72.6719 56.9355 72.6411 57.8803 72.6447C58.0756 72.6455 58.2709 72.6464 58.4722 72.6473C59.9392 72.6345 61.2373 72.4439 62.6554 72.0562C63.3106 71.9277 63.7333 71.9753 64.3712 72.1527C64.6301 73.907 64.8709 75.6214 64.8085 77.4002C60.9917 78.4183 60.9917 78.4183 59.1238 78.4934C58.9443 78.5046 58.7647 78.5159 58.5798 78.5275C55.7273 78.6289 52.6294 78.0788 50.3371 76.3069C47.8389 73.958 47.4303 70.1633 47.3171 66.9053C47.0237 56.0648 47.0237 56.0648 50.104 52.7158C52.294 50.6272 55.2472 50.203 58.1672 50.2202Z" fill="white"/>
<path d="M50.2631 18.5591C50.5035 18.5596 50.7438 18.5601 50.9914 18.5606C51.2628 18.5606 51.5342 18.5606 51.8138 18.5606C52.1122 18.5617 52.4105 18.5629 52.7089 18.564C53.0125 18.5644 53.3161 18.5647 53.6197 18.565C54.4202 18.5658 55.2207 18.5679 56.0212 18.5704C56.8375 18.5726 57.6537 18.5736 58.47 18.5747C60.0727 18.577 61.6754 18.5808 63.278 18.5854C63.2932 21.3698 63.3049 24.1543 63.312 26.9388C63.3154 28.2319 63.32 29.5249 63.3275 30.818C63.3346 32.067 63.3386 33.3159 63.3402 34.5649C63.3415 35.0403 63.3438 35.5157 63.3474 35.9911C63.3522 36.6593 63.3528 37.3275 63.3525 37.9957C63.3548 38.1903 63.3572 38.3848 63.3596 38.5852C63.3509 40.3844 62.9962 42.1864 61.8568 43.6276C60.1076 45.3358 57.3348 45.3269 55.0516 45.3178C54.8179 45.3182 54.5843 45.3186 54.3435 45.319C53.8541 45.3193 53.3646 45.3185 52.8751 45.3167C52.1233 45.3143 51.3716 45.3167 50.6198 45.3195C50.143 45.3192 49.6661 45.3186 49.1893 45.3178C48.964 45.3187 48.7388 45.3195 48.5068 45.3205C48.1957 45.3184 48.1957 45.3184 47.8783 45.3163C47.6955 45.3159 47.5128 45.3156 47.3245 45.3152C46.8799 45.2597 46.8799 45.2597 46.4426 44.8224C46.3042 44.1793 46.3042 44.1793 46.1966 43.3876C46.1417 43.0016 46.1417 43.0016 46.0856 42.6078C46.0248 41.9673 45.9968 41.3653 46.0003 40.7246C46.001 40.5496 46.0017 40.3746 46.0025 40.1943C46.0034 40.0621 46.0043 39.9299 46.0053 39.7936C46.2844 39.7927 46.5635 39.7918 46.851 39.7909C47.8881 39.7862 48.925 39.7743 49.962 39.7603C50.4106 39.7552 50.8591 39.7521 51.3076 39.7509C51.9531 39.7489 52.5982 39.7399 53.2435 39.7296C53.4436 39.7304 53.6436 39.7313 53.8496 39.7322C54.742 39.7118 55.2918 39.6392 56.0806 39.1994C56.7547 38.0464 56.6471 36.9027 56.6299 35.5916C56.6299 35.3094 56.63 35.0272 56.63 34.7365C56.6296 34.1403 56.6255 33.5442 56.6186 32.948C56.6099 32.1855 56.609 31.4233 56.6106 30.6609C56.6115 29.9312 56.6069 29.2017 56.6026 28.4721C56.6026 28.199 56.6025 27.9259 56.6025 27.6445C56.599 27.3899 56.5955 27.1352 56.5919 26.8728C56.5901 26.6494 56.5882 26.426 56.5863 26.1958C56.4859 25.4805 56.2713 25.0671 55.8442 24.4887C54.7232 23.9265 53.4943 23.9569 52.2639 23.9148C52.0613 23.9063 51.8586 23.8979 51.6499 23.8892C51.1531 23.8687 50.6564 23.8499 50.1595 23.8328C50.0437 22.9995 49.9305 22.1658 49.8179 21.3321C49.7848 21.094 49.7516 20.856 49.7175 20.6108C49.6872 20.3846 49.6569 20.1584 49.6257 19.9254C49.5971 19.7159 49.5685 19.5063 49.539 19.2905C49.5273 19.1299 49.5156 18.9694 49.5036 18.804C49.7222 18.5854 49.7222 18.5854 50.2631 18.5591Z" fill="white"/>
<path d="M97.1676 51.819C98.0666 51.8136 98.9656 51.8096 99.8646 51.807C100.171 51.8059 100.477 51.8044 100.783 51.8025C101.222 51.7999 101.661 51.7987 102.1 51.7977C102.497 51.7959 102.497 51.7959 102.901 51.7942C103.508 51.819 103.508 51.819 103.727 52.0377C103.748 52.3741 103.754 52.7116 103.755 53.0488C103.755 53.2674 103.756 53.4859 103.756 53.7112C103.756 53.953 103.756 54.1948 103.755 54.4439C103.756 54.697 103.756 54.9501 103.756 55.2109C103.757 56.0523 103.757 56.8937 103.756 57.7352C103.756 58.3171 103.756 58.8991 103.757 59.4811C103.757 60.7029 103.756 61.9246 103.755 63.1464C103.754 64.5601 103.755 65.9738 103.756 67.3876C103.757 68.5997 103.757 69.8118 103.756 71.024C103.756 71.7487 103.756 72.4733 103.757 73.198C103.757 74.0058 103.756 74.8136 103.755 75.6215C103.756 75.8628 103.756 76.1042 103.756 76.3529C103.756 76.6817 103.756 76.6817 103.755 77.0172C103.755 77.2084 103.754 77.3995 103.754 77.5965C103.727 78.056 103.727 78.056 103.508 78.4933C102.64 78.4987 101.772 78.5027 100.905 78.5053C100.609 78.5064 100.314 78.5079 100.018 78.5098C99.5945 78.5125 99.1706 78.5136 98.7468 78.5147C98.3638 78.5164 98.3638 78.5164 97.973 78.5182C97.3862 78.4933 97.3862 78.4933 97.1676 78.2747C97.1466 77.9317 97.1409 77.5877 97.1413 77.244C97.1408 76.9097 97.1408 76.9097 97.1404 76.5686C97.1412 76.322 97.142 76.0754 97.1428 75.8213C97.1427 75.5632 97.1427 75.3052 97.1427 75.0393C97.1428 74.3296 97.1439 73.62 97.1454 72.9103C97.1468 72.1695 97.1469 71.4286 97.1472 70.6877C97.1479 69.2838 97.1496 67.8799 97.1518 66.476C97.1543 64.8782 97.1555 63.2803 97.1566 61.6824C97.1589 58.3946 97.1627 55.1068 97.1676 51.819Z" fill="white"/>
<path d="M97.1676 18.5854C98.0666 18.58 98.9656 18.576 99.8646 18.5734C100.171 18.5723 100.477 18.5708 100.783 18.5689C101.222 18.5662 101.661 18.5651 102.1 18.564C102.497 18.5623 102.497 18.5623 102.901 18.5605C103.508 18.5854 103.508 18.5854 103.727 18.804C103.749 19.1405 103.755 19.4779 103.756 19.8151C103.757 20.0337 103.758 20.2523 103.759 20.4775C103.759 20.7193 103.759 20.9612 103.759 21.2103C103.759 21.4634 103.76 21.7165 103.761 21.9773C103.763 22.8187 103.763 23.6601 103.764 24.5015C103.764 24.9365 103.765 25.3716 103.765 25.8066C103.767 27.1753 103.768 28.544 103.767 29.9127C103.767 31.3265 103.77 32.7402 103.773 34.1539C103.776 35.3661 103.777 36.5782 103.777 37.7903C103.777 38.515 103.778 39.2397 103.78 39.9643C103.782 40.7722 103.781 41.58 103.78 42.3878C103.781 42.6292 103.782 42.8706 103.784 43.1193C103.783 43.3385 103.782 43.5577 103.781 43.7835C103.781 43.9747 103.781 44.1659 103.781 44.3629C103.727 44.8224 103.727 44.8224 103.29 45.2597C102.701 45.3128 102.701 45.3128 101.963 45.3101C101.699 45.3097 101.435 45.3092 101.163 45.3088C100.886 45.3061 100.61 45.3034 100.324 45.3007C100.046 45.3005 99.7687 45.3004 99.4825 45.3003C97.4169 45.2903 97.4169 45.2903 97.1676 45.041C97.1466 44.698 97.1409 44.3541 97.1413 44.0104C97.1408 43.676 97.1408 43.676 97.1404 43.3349C97.1412 43.0883 97.142 42.8417 97.1428 42.5877C97.1427 42.3296 97.1427 42.0715 97.1427 41.8056C97.1428 41.096 97.1439 40.3864 97.1454 39.6767C97.1468 38.9358 97.1469 38.1949 97.1472 37.454C97.1479 36.0501 97.1496 34.6463 97.1518 33.2424C97.1543 31.6445 97.1555 30.0466 97.1566 28.4487C97.1589 25.161 97.1627 21.8732 97.1676 18.5854Z" fill="white"/>
<path d="M86.0578 55.9048C86.2607 56.0717 86.4637 56.2385 86.6727 56.4104C86.8432 56.5502 87.0138 56.69 87.1894 56.834C89.3062 58.6403 91.0348 60.9763 91.2642 63.8443C91.4118 65.8288 91.092 67.453 90.3896 69.3103C90.2988 69.5534 90.2988 69.5534 90.206 69.8014C89.2604 71.9672 87.4468 73.5402 85.3609 74.5577C85.1895 74.6479 85.0182 74.7381 84.8416 74.831C82.4891 75.8896 79.405 75.8346 76.9978 74.9677C75.8719 74.4543 74.9121 73.8514 73.9915 73.0272C73.8461 72.9069 73.7006 72.7865 73.5508 72.6625C71.8882 71.1744 70.6244 68.9182 70.4602 66.6718C70.3372 64.2854 70.3524 62.2462 71.5864 60.1273C71.7327 59.8631 71.7327 59.8631 71.8819 59.5935C72.6542 58.3187 73.6649 57.2921 74.8661 56.4104C75.0104 56.4104 75.1547 56.4104 75.3034 56.4104C75.3034 56.2661 75.3034 56.1218 75.3034 55.9731C75.7173 55.7942 76.132 55.6169 76.5469 55.4402C76.8931 55.2918 76.8931 55.2918 77.2464 55.1404C80.0872 54.0533 83.4162 54.5063 86.0578 55.9048ZM73.7797 59.3151C72.0565 61.6187 71.5414 63.8245 71.8051 66.6866C71.9477 67.3893 72.1638 68.0035 72.461 68.6544C72.5485 68.8751 72.5485 68.8751 72.6378 69.1002C73.6639 71.4625 75.8554 72.9038 78.1653 73.8753C80.3995 74.5507 82.8457 74.2306 84.9236 73.2459C87.4289 71.8057 88.7958 69.8925 89.6355 67.1709C90.1775 64.4983 89.6181 62.0853 88.1349 59.8404C86.7356 57.9707 84.871 56.6114 82.5185 56.1918C79.0603 55.9353 76.1451 56.5696 73.7797 59.3151Z" fill="#F7E576"/>
<path d="M82.0813 61.2205C83.3079 61.2205 84.5344 61.2205 85.7982 61.2205C85.7982 62.465 85.7423 63.5205 85.5112 64.7187C85.4821 64.8764 85.453 65.0341 85.423 65.1965C85.3309 65.6935 85.2366 66.19 85.1423 66.6865C85.0789 67.0261 85.0157 67.3658 84.9527 67.7054C84.7991 68.5322 84.6427 69.3585 84.4863 70.1848C83.1876 70.1848 81.8889 70.1848 80.5508 70.1848C80.8557 68.1513 81.1962 66.1272 81.562 64.1038C81.6122 63.8246 81.6623 63.5455 81.714 63.2578C81.8361 62.5787 81.9587 61.8996 82.0813 61.2205Z" fill="#FCFDF9"/>
<path d="M85.4992 57.4011C86.8276 58.2506 86.8276 58.2506 87.11 58.8155C86.5621 58.5973 86.0151 58.3775 85.4702 58.1519C85.2898 58.0777 85.1094 58.0036 84.9236 57.9272C84.7432 57.8525 84.5628 57.7779 84.377 57.7009C82.054 56.8625 79.7272 57.2268 77.4898 58.1595C75.3478 59.3459 73.8121 61.299 73.1169 63.6256C72.9327 64.2568 72.9327 64.2568 72.8983 64.9374C72.8819 65.1232 72.8656 65.3089 72.8488 65.5003C72.7675 67.135 73.1136 68.3393 73.7737 69.8313C73.8456 70.0201 73.9174 70.2089 73.9915 70.4035C73.8833 70.6199 73.8833 70.6199 73.7729 70.8408C72.8886 69.7175 72.4163 68.7111 72.0237 67.3425C71.9155 67.0178 71.9155 67.0178 71.8051 66.6866C71.5921 63.8378 72.0464 61.6323 73.7797 59.3151C76.7878 55.8235 81.5604 55.1103 85.4992 57.4011Z" fill="#E3B925"/>
<path d="M77.0524 61.2205C78.3511 61.2205 79.6498 61.2205 80.9879 61.2205C80.9879 61.5812 80.9879 61.942 80.9879 62.3137C80.555 62.458 80.1221 62.6023 79.6761 62.751C79.6597 62.8752 79.6432 62.9994 79.6263 63.1273C79.3077 65.5093 78.9732 67.8568 78.3642 70.1848C77.8592 70.1848 77.3541 70.1848 76.8337 70.1848C77.1654 67.6781 77.5048 65.2006 78.1456 62.751C77.7848 62.751 77.4241 62.751 77.0524 62.751C77.0524 62.2459 77.0524 61.7408 77.0524 61.2205Z" fill="#FDFCF5"/>
<path d="M89.7336 63.407C90.4244 64.4432 90.2824 65.4735 90.1709 66.6866C89.8033 68.5034 89.1969 69.8857 87.9844 71.2781C87.795 71.5622 87.795 71.5622 87.6018 71.852C86.39 73.1311 84.4429 74.2102 82.6655 74.3907C82.1411 74.4032 81.6215 74.3967 81.0972 74.3801C80.9174 74.3771 80.7376 74.3742 80.5523 74.3711C80.1144 74.3635 79.6766 74.3517 79.2388 74.3391C79.2388 74.2669 79.2388 74.1948 79.2388 74.1204C79.4293 74.1148 79.6198 74.1092 79.8161 74.1034C82.7453 73.9639 85.1469 73.3292 87.3285 71.2781C89.2921 68.8766 89.6175 66.409 89.7336 63.407Z" fill="#F9EE92"/>
<path d="M83.393 62.5325C83.6816 62.5325 83.9702 62.5325 84.2676 62.5325C83.9978 67.0077 83.9978 67.0077 83.1744 68.6544C82.8858 68.6544 82.5972 68.6544 82.2998 68.6544C82.3982 67.9208 82.4991 67.1876 82.6004 66.4544C82.6281 66.2482 82.6557 66.042 82.6841 65.8296C82.8423 64.6948 83.0447 63.6244 83.393 62.5325Z" fill="#F6D249"/>
<path d="M82.9295 60.7336C83.0921 60.7359 83.2547 60.7382 83.4222 60.7406C83.6864 60.7427 83.6864 60.7427 83.956 60.7449C84.232 60.7503 84.232 60.7503 84.5137 60.756C84.7923 60.7589 84.7923 60.7589 85.0765 60.7619C85.5358 60.7671 85.995 60.7749 86.4541 60.7833C86.2715 61.8843 86.0887 62.9852 85.9057 64.0861C85.8435 64.4604 85.7813 64.8347 85.7193 65.209C85.6299 65.748 85.5403 66.2869 85.4506 66.8258C85.423 66.9924 85.3955 67.1589 85.3671 67.3305C85.2323 68.1391 85.0908 68.945 84.9236 69.7476C84.7793 69.7476 84.635 69.7476 84.4864 69.7476C84.9236 66.9053 85.3609 64.0629 85.7982 61.2206C84.5716 61.2206 83.345 61.2206 82.0813 61.2206C82.5186 60.7833 82.5186 60.7833 82.9295 60.7336Z" fill="#8EC65F"/>
<path d="M83.1744 62.751C83.3187 62.751 83.463 62.751 83.6117 62.751C83.6611 64.0984 83.4895 65.2697 83.1744 66.5772C83.1327 66.757 83.0909 66.9368 83.048 67.1221C82.9461 67.5604 82.8418 67.9981 82.7371 68.4357C82.8814 68.5078 83.0257 68.58 83.1744 68.6543C82.8858 68.6543 82.5972 68.6543 82.2998 68.6543C82.4043 67.9164 82.5092 67.1785 82.6141 66.4406C82.6583 66.1286 82.6583 66.1286 82.7034 65.8103C82.8488 64.7883 82.998 63.7682 83.1744 62.751Z" fill="#8FC253"/>
<path d="M78.5641 60.7405C78.9074 60.7434 79.2508 60.7486 79.5941 60.7559C79.7694 60.7578 79.9447 60.7598 80.1253 60.7618C80.5586 60.767 80.9919 60.7748 81.4252 60.7832C81.353 61.2882 81.2809 61.7933 81.2066 62.3137C81.1344 62.3137 81.0622 62.3137 80.9879 62.3137C80.9879 61.9529 80.9879 61.5922 80.9879 61.2205C79.7613 61.2205 78.5347 61.2205 77.271 61.2205C77.7083 60.7832 77.7083 60.7832 78.5641 60.7405Z" fill="#8ECB6B"/>
<path d="M83.1743 65.3748C83.3186 65.3748 83.463 65.3748 83.6116 65.3748C83.5395 66.3127 83.4673 67.2507 83.393 68.2171C83.1765 68.2893 82.9601 68.3614 82.7371 68.4357C82.9477 66.3783 82.9477 66.3783 83.1743 65.3748Z" fill="#EFCB2F"/>
</svg>
