<svg width="179" height="96" viewBox="0 0 179 96" fill="none" xmlns="http://www.w3.org/2000/svg">
<rect width="179" height="96" rx="16" fill="white"/>
<path fill-rule="evenodd" clip-rule="evenodd" d="M87.2294 16.8132C80.1595 18.2733 73.5766 23.5908 70.3247 30.4695C68.6708 33.9679 68.4908 34.9087 68.5003 40.0076C68.5098 45.1756 68.6792 46.0117 70.4584 49.6779C77.7083 64.6168 96.0091 68.1176 108.063 56.8711C110.867 54.2546 114.528 48.1631 114.529 46.1111C114.53 45.702 115.198 45.3668 116.015 45.3668C116.832 45.3668 117.5 45.0685 117.5 44.7034C117.5 44.3384 116.108 42.3954 114.407 40.3863C112.705 38.3767 111.227 36.6129 111.122 36.467C110.811 36.0359 103.895 43.8085 103.864 44.6225C103.849 45.0321 104.363 45.3668 105.006 45.3668C106.474 45.3668 106.102 46.5738 103.668 49.7095C98.4858 56.3834 87.8823 57.0997 81.5038 51.2065C71.3014 41.7803 77.7155 24.5257 91.4217 24.5257C94.4735 24.5257 99.084 25.5743 99.084 26.2686C99.084 26.4686 96.4131 29.2989 93.1487 32.559L87.214 38.4856L89.7085 41.033C91.0802 42.4341 92.4863 43.5804 92.8326 43.5804C93.179 43.5804 96.0489 40.9681 99.2105 37.7747L104.958 31.9689L105.104 26.5091C105.204 22.7571 105.012 20.7611 104.489 20.13C102.419 17.6308 92.5012 15.7241 87.2294 16.8132Z" fill="#28A746"/>
<path d="M95.6766 38.3066C94.4619 37.6351 93.1704 37.1235 91.8917 36.5927C91.1501 36.2858 90.4404 35.9276 89.8139 35.4288C88.58 34.444 88.8165 32.8452 90.2614 32.2121C90.6706 32.033 91.099 31.9755 91.5337 31.9499C93.2088 31.8604 94.8007 32.1673 96.316 32.8964C97.0704 33.2609 97.3197 33.1458 97.5755 32.3592C97.844 31.5278 98.0678 30.6837 98.3171 29.8459C98.4833 29.2831 98.2787 28.9122 97.7481 28.6756C96.7763 28.2471 95.7789 27.9402 94.7304 27.7739C93.3622 27.5629 93.3622 27.5565 93.3558 26.1815C93.3494 24.2438 93.3494 24.2438 91.4058 24.2438C91.1245 24.2438 90.8432 24.2374 90.5619 24.2438C89.654 24.2694 89.5006 24.4293 89.475 25.3438C89.4622 25.753 89.475 26.1623 89.4686 26.578C89.4622 27.7931 89.4558 27.7739 88.2923 28.196C85.4792 29.2192 83.7402 31.1377 83.5547 34.2073C83.3885 36.9253 84.8079 38.7606 87.0391 40.0972C88.4137 40.9222 89.9354 41.4082 91.393 42.0541C91.9621 42.3035 92.5055 42.5913 92.9786 42.9878C94.3788 44.1453 94.123 46.0702 92.4607 46.7993C91.5721 47.1894 90.6322 47.2853 89.6668 47.1638C88.1772 46.9783 86.7514 46.5882 85.4088 45.8912C84.6224 45.4819 84.3923 45.5906 84.1238 46.4411C83.8936 47.1766 83.689 47.9184 83.4844 48.6602C83.2095 49.6579 83.3118 49.8945 84.2644 50.3613C85.4792 50.9497 86.777 51.2502 88.1004 51.4613C89.1362 51.6276 89.1681 51.6723 89.1809 52.7467C89.1873 53.2327 89.1873 53.7251 89.1937 54.2112C89.2001 54.8251 89.4942 55.1832 90.1272 55.196C90.8432 55.2088 91.5657 55.2088 92.2817 55.1896C92.8699 55.1768 93.1704 54.8571 93.1704 54.2623C93.1704 53.5972 93.2024 52.9258 93.1768 52.2607C93.1448 51.5828 93.4389 51.2375 94.0911 51.0584C95.5935 50.6491 96.8722 49.8433 97.8568 48.6411C100.593 45.3156 99.551 40.449 95.6766 38.3066Z" fill="#FFD700"/>
<mask id="mask0_78_2853" style="mask-type:alpha" maskUnits="userSpaceOnUse" x="68" y="16" width="50" height="48">
<path fill-rule="evenodd" clip-rule="evenodd" d="M87.2294 16.8132C80.1595 18.2733 73.5766 23.5908 70.3247 30.4695C68.6708 33.9679 68.4908 34.9087 68.5003 40.0076C68.5098 45.1756 68.6792 46.0117 70.4584 49.6779C77.7083 64.6168 96.0091 68.1176 108.063 56.8711C110.867 54.2546 114.528 48.1631 114.529 46.1111C114.53 45.702 115.198 45.3668 116.015 45.3668C116.832 45.3668 117.5 45.0685 117.5 44.7034C117.5 44.3384 116.108 42.3954 114.407 40.3863C112.705 38.3767 111.227 36.6129 111.122 36.467C110.811 36.0359 103.895 43.8085 103.864 44.6225C103.849 45.0321 104.363 45.3668 105.006 45.3668C106.474 45.3668 106.102 46.5738 103.668 49.7095C98.4858 56.3834 87.8823 57.0997 81.5038 51.2065C71.3014 41.7803 77.7155 24.5257 91.4217 24.5257C94.4735 24.5257 99.084 25.5743 99.084 26.2686C99.084 26.4686 96.4131 29.2989 93.1487 32.559L87.214 38.4856L89.7085 41.033C91.0802 42.4341 92.4863 43.5804 92.8326 43.5804C93.179 43.5804 96.0489 40.9681 99.2105 37.7747L104.958 31.9689L105.104 26.5091C105.204 22.7571 105.012 20.7611 104.489 20.13C102.419 17.6308 92.5012 15.7241 87.2294 16.8132Z" fill="#28A746"/>
</mask>
<g mask="url(#mask0_78_2853)">
<path d="M110 62L117.5 55L111.5 51.5L104.5 48.5L105 58.5L110 62Z" fill="#28A746"/>
</g>
<path d="M62.7892 79.5V71.304H68.2372V72.684H64.4452V74.676H67.5172V76.032H64.4452V78.12H68.2372V79.5H62.7892ZM69.3026 79.5V73.476H70.8986V74.184C71.0346 74.08 71.2026 73.972 71.4026 73.86C71.6026 73.74 71.8186 73.632 72.0506 73.536C72.2906 73.432 72.5186 73.364 72.7346 73.332V74.88C72.5266 74.912 72.3066 74.968 72.0746 75.048C71.8426 75.12 71.6226 75.2 71.4146 75.288C71.2146 75.376 71.0426 75.456 70.8986 75.528V79.5H69.3026ZM75.1402 79.632C74.5162 79.632 74.0442 79.476 73.7242 79.164C73.4122 78.844 73.2562 78.364 73.2562 77.724C73.2562 77.276 73.3362 76.928 73.4962 76.68C73.6562 76.424 73.8922 76.24 74.2042 76.128C74.5242 76.008 74.9122 75.936 75.3682 75.912L76.8322 75.78V75.42C76.8322 75.132 76.7602 74.932 76.6162 74.82C76.4722 74.7 76.2602 74.64 75.9802 74.64C75.7562 74.64 75.4962 74.648 75.2002 74.664C74.9122 74.68 74.6242 74.7 74.3362 74.724C74.0562 74.748 73.8122 74.772 73.6042 74.796L73.5562 73.668C73.7642 73.62 74.0122 73.572 74.3002 73.524C74.5962 73.468 74.9042 73.424 75.2242 73.392C75.5442 73.36 75.8402 73.344 76.1122 73.344C76.6242 73.344 77.0522 73.408 77.3962 73.536C77.7402 73.664 78.0002 73.876 78.1762 74.172C78.3522 74.46 78.4402 74.852 78.4402 75.348V78.096C78.4562 78.208 78.5162 78.296 78.6202 78.36C78.7242 78.416 78.8442 78.456 78.9802 78.48L78.9442 79.584C78.8162 79.584 78.6882 79.584 78.5602 79.584C78.4402 79.592 78.3242 79.592 78.2122 79.584C78.1002 79.584 78.0002 79.576 77.9122 79.56C77.7282 79.536 77.5682 79.488 77.4322 79.416C77.3042 79.344 77.2002 79.268 77.1202 79.188C76.9922 79.244 76.8202 79.308 76.6042 79.38C76.3882 79.452 76.1522 79.512 75.8962 79.56C75.6482 79.608 75.3962 79.632 75.1402 79.632ZM75.5242 78.444C75.6762 78.444 75.8362 78.428 76.0042 78.396C76.1722 78.364 76.3282 78.328 76.4722 78.288C76.6242 78.24 76.7442 78.196 76.8322 78.156V76.776L75.6082 76.884C75.3442 76.908 75.1522 76.988 75.0322 77.124C74.9202 77.252 74.8642 77.436 74.8642 77.676C74.8642 77.916 74.9162 78.104 75.0202 78.24C75.1322 78.376 75.3002 78.444 75.5242 78.444ZM79.8495 79.5V73.476H81.4455V73.86C81.5735 73.78 81.7295 73.704 81.9135 73.632C82.0975 73.552 82.2895 73.484 82.4895 73.428C82.6975 73.372 82.8975 73.344 83.0895 73.344C83.5055 73.344 83.8495 73.4 84.1215 73.512C84.4015 73.616 84.6215 73.788 84.7815 74.028C84.9415 74.268 85.0575 74.584 85.1295 74.976C85.2015 75.36 85.2375 75.828 85.2375 76.38V79.5H83.6295V76.464C83.6295 76.048 83.6055 75.716 83.5575 75.468C83.5095 75.212 83.4175 75.028 83.2815 74.916C83.1455 74.804 82.9455 74.748 82.6815 74.748C82.5375 74.748 82.3855 74.764 82.2255 74.796C82.0735 74.82 81.9255 74.856 81.7815 74.904C81.6455 74.952 81.5335 75 81.4455 75.048V79.5H79.8495ZM89.1915 79.5V71.304H91.8555L93.5115 76.776L95.1315 71.304H97.8315V79.5H96.1755V73.428H96.0075L94.2915 79.284H92.7315L91.0155 73.428H90.8475V79.5H89.1915ZM101.777 79.632C101.097 79.632 100.549 79.52 100.133 79.296C99.7254 79.072 99.4294 78.728 99.2454 78.264C99.0614 77.792 98.9694 77.184 98.9694 76.44C98.9694 75.72 99.0654 75.136 99.2574 74.688C99.4494 74.232 99.7534 73.896 100.169 73.68C100.585 73.456 101.121 73.344 101.777 73.344C102.441 73.344 102.977 73.456 103.385 73.68C103.801 73.896 104.105 74.232 104.297 74.688C104.497 75.136 104.597 75.72 104.597 76.44C104.597 77.184 104.505 77.792 104.321 78.264C104.137 78.728 103.837 79.072 103.421 79.296C103.013 79.52 102.465 79.632 101.777 79.632ZM101.777 78.312C102.113 78.312 102.365 78.252 102.533 78.132C102.701 78.004 102.813 77.804 102.869 77.532C102.933 77.252 102.965 76.888 102.965 76.44C102.965 76 102.929 75.652 102.857 75.396C102.785 75.132 102.665 74.944 102.497 74.832C102.329 74.72 102.089 74.664 101.777 74.664C101.473 74.664 101.233 74.72 101.057 74.832C100.889 74.944 100.769 75.132 100.697 75.396C100.625 75.652 100.589 76 100.589 76.44C100.589 76.888 100.617 77.252 100.673 77.532C100.737 77.804 100.853 78.004 101.021 78.132C101.189 78.252 101.441 78.312 101.777 78.312ZM105.689 79.5V73.476H107.285V73.86C107.413 73.78 107.569 73.704 107.753 73.632C107.937 73.552 108.129 73.484 108.329 73.428C108.537 73.372 108.737 73.344 108.929 73.344C109.345 73.344 109.689 73.4 109.961 73.512C110.241 73.616 110.461 73.788 110.621 74.028C110.781 74.268 110.897 74.584 110.969 74.976C111.041 75.36 111.077 75.828 111.077 76.38V79.5H109.469V76.464C109.469 76.048 109.445 75.716 109.397 75.468C109.349 75.212 109.257 75.028 109.121 74.916C108.985 74.804 108.785 74.748 108.521 74.748C108.377 74.748 108.225 74.764 108.065 74.796C107.913 74.82 107.765 74.856 107.621 74.904C107.485 74.952 107.373 75 107.285 75.048V79.5H105.689ZM114.758 79.632C114.094 79.632 113.566 79.52 113.174 79.296C112.79 79.072 112.514 78.732 112.346 78.276C112.178 77.82 112.094 77.248 112.094 76.56C112.094 75.816 112.198 75.208 112.406 74.736C112.622 74.264 112.934 73.916 113.342 73.692C113.75 73.46 114.254 73.344 114.854 73.344C115.742 73.344 116.41 73.568 116.858 74.016C117.314 74.464 117.542 75.172 117.542 76.14L117.47 77.028H113.702C113.71 77.476 113.802 77.812 113.978 78.036C114.154 78.26 114.458 78.372 114.89 78.372C115.138 78.372 115.41 78.368 115.706 78.36C116.002 78.344 116.294 78.328 116.582 78.312C116.878 78.296 117.13 78.28 117.338 78.264L117.374 79.38C117.174 79.412 116.922 79.448 116.618 79.488C116.314 79.528 115.998 79.56 115.67 79.584C115.35 79.616 115.046 79.632 114.758 79.632ZM113.702 76.008H115.946C115.946 75.464 115.858 75.084 115.682 74.868C115.514 74.652 115.238 74.544 114.854 74.544C114.598 74.544 114.386 74.592 114.218 74.688C114.05 74.784 113.922 74.94 113.834 75.156C113.746 75.372 113.702 75.656 113.702 76.008ZM120.009 82.032L120.777 79.5H119.493L118.065 73.476H119.733L120.801 78.144H121.113L122.181 73.476H123.789L121.713 82.032H120.009Z" fill="#1E293B"/>
</svg>
