<svg width="121" height="65" viewBox="0 0 121 65" fill="none" xmlns="http://www.w3.org/2000/svg">
<rect width="121" height="65" rx="16" fill="white"/>
<path d="M42.1775 48.7608V51.9513C42.1775 52.4454 42.0386 52.8257 41.7599 53.0923C41.4822 53.359 41.1069 53.4928 40.635 53.4928C40.141 53.4928 39.7456 53.3529 39.4467 53.0722C39.1489 52.7915 39 52.394 39 51.8779H40.135C40.135 52.0741 40.1752 52.222 40.2547 52.3216C40.3352 52.4212 40.4509 52.4715 40.6018 52.4715C40.7397 52.4715 40.8463 52.4273 40.9218 52.3377C40.9972 52.2492 41.0355 52.1194 41.0355 51.9503V48.7598H42.1775V48.7608Z" fill="#4EA847"/>
<path d="M43.8096 53.265C43.5178 53.1091 43.2894 52.8867 43.1224 52.5979C42.9553 52.3092 42.8718 51.9701 42.8718 51.5837C42.8718 51.2014 42.9563 50.8643 43.1254 50.5725C43.2944 50.2807 43.5258 50.0574 43.8196 49.9014C44.1134 49.7454 44.4425 49.668 44.8077 49.668C45.1729 49.668 45.502 49.7454 45.7958 49.9014C46.0896 50.0574 46.321 50.2807 46.49 50.5725C46.659 50.8643 46.7436 51.2014 46.7436 51.5837C46.7436 51.9661 46.658 52.3031 46.487 52.5949C46.3159 52.8867 46.0825 53.1101 45.7867 53.266C45.4909 53.422 45.1609 53.4995 44.7956 53.4995C44.4294 53.4995 44.1014 53.421 43.8096 53.265ZM45.351 52.2709C45.505 52.1109 45.5814 51.8815 45.5814 51.5837C45.5814 51.2859 45.507 51.0565 45.3581 50.8965C45.2092 50.7365 45.025 50.656 44.8077 50.656C44.5853 50.656 44.4002 50.7355 44.2533 50.8925C44.1064 51.0504 44.0329 51.2809 44.0329 51.5837C44.0329 51.8815 44.1054 52.1109 44.2503 52.2709C44.3952 52.4309 44.5763 52.5114 44.7946 52.5114C45.0119 52.5114 45.1981 52.4309 45.351 52.2709Z" fill="#4EA847"/>
<path d="M47.4338 49.1581C47.307 49.0404 47.2437 48.8945 47.2437 48.7204C47.2437 48.5423 47.307 48.3944 47.4338 48.2767C47.5606 48.159 47.7246 48.0996 47.9248 48.0996C48.121 48.0996 48.282 48.159 48.4088 48.2767C48.5356 48.3944 48.599 48.5423 48.599 48.7204C48.599 48.8945 48.5356 49.0394 48.4088 49.1581C48.282 49.2758 48.121 49.3352 47.9248 49.3352C47.7236 49.3352 47.5606 49.2758 47.4338 49.1581ZM48.4913 49.7216V53.4454H47.3503V49.7216H48.4913Z" fill="#4EA847"/>
<path d="M52.6326 50.1062C52.8932 50.389 53.023 50.7773 53.023 51.2714V53.4467H51.8881V51.4243C51.8881 51.1748 51.8237 50.9816 51.6949 50.8437C51.5661 50.7059 51.392 50.6365 51.1747 50.6365C50.9563 50.6365 50.7833 50.7059 50.6545 50.8437C50.5257 50.9816 50.4613 51.1758 50.4613 51.4243V53.4467H49.3203V49.7229H50.4613V50.2169C50.577 50.0519 50.733 49.9221 50.9282 49.8265C51.1244 49.7309 51.3437 49.6826 51.5892 49.6826C52.0239 49.6816 52.372 49.8235 52.6326 50.1062Z" fill="#4EA847"/>
<path d="M58.6022 48.7607V49.6754H57.3606V53.4465H56.2196V49.6754H54.978V48.7607H58.6022Z" fill="#4EA847"/>
<path d="M59.887 53.265C59.5952 53.1091 59.3668 52.8867 59.1998 52.5979C59.0327 52.3092 58.9492 51.9701 58.9492 51.5837C58.9492 51.2014 59.0337 50.8643 59.2028 50.5725C59.3718 50.2807 59.6032 50.0574 59.897 49.9014C60.1908 49.7454 60.5198 49.668 60.8851 49.668C61.2493 49.668 61.5793 49.7454 61.8731 49.9014C62.167 50.0574 62.3984 50.2807 62.5674 50.5725C62.7364 50.8643 62.821 51.2014 62.821 51.5837C62.821 51.9661 62.7354 52.3031 62.5644 52.5949C62.3933 52.8867 62.1599 53.1101 61.8641 53.266C61.5683 53.422 61.2383 53.4995 60.873 53.4995C60.5058 53.4995 60.1778 53.421 59.887 53.265ZM61.4284 52.2709C61.5824 52.1109 61.6588 51.8815 61.6588 51.5837C61.6588 51.2859 61.5844 51.0565 61.4355 50.8965C61.2865 50.7365 61.1024 50.656 60.8851 50.656C60.6627 50.656 60.4776 50.7355 60.3307 50.8925C60.1838 51.0504 60.1103 51.2809 60.1103 51.5837C60.1103 51.8815 60.1828 52.1109 60.3277 52.2709C60.4726 52.4309 60.6537 52.5114 60.872 52.5114C61.0893 52.5114 61.2745 52.4309 61.4284 52.2709Z" fill="#4EA847"/>
<path d="M64.949 49.8581C65.1492 49.4959 65.428 49.2131 65.7862 49.0109C66.1444 48.8087 66.5498 48.707 67.0046 48.707C67.561 48.707 68.037 48.8539 68.4324 49.1477C68.8288 49.4415 69.0934 49.842 69.2262 50.3491H67.9716C67.878 50.1529 67.7462 50.004 67.5741 49.9024C67.4031 49.7997 67.2079 49.7484 66.9905 49.7484C66.6394 49.7484 66.3546 49.8712 66.1363 50.1157C65.918 50.3602 65.8093 50.6872 65.8093 51.0967C65.8093 51.5062 65.918 51.8332 66.1363 52.0777C66.3546 52.3222 66.6394 52.445 66.9905 52.445C67.2089 52.445 67.4031 52.3936 67.5741 52.291C67.7452 52.1884 67.878 52.0395 67.9716 51.8443H69.2262C69.0924 52.3514 68.8278 52.7508 68.4324 53.0426C68.0359 53.3344 67.56 53.4793 67.0046 53.4793C66.5508 53.4793 66.1444 53.3777 65.7862 53.1754C65.428 52.9732 65.1492 52.6915 64.949 52.3313C64.7488 51.971 64.6492 51.5595 64.6492 51.0967C64.6482 50.6338 64.7488 50.2213 64.949 49.8581Z" fill="#4EA847"/>
<path d="M70.6379 53.265C70.3462 53.1091 70.1178 52.8867 69.9507 52.5979C69.7837 52.3092 69.7002 51.9701 69.7002 51.5837C69.7002 51.2014 69.7847 50.8643 69.9538 50.5725C70.1228 50.2807 70.3542 50.0574 70.648 49.9014C70.9418 49.7454 71.2708 49.668 71.6361 49.668C72.0003 49.668 72.3303 49.7454 72.6241 49.9014C72.9179 50.0574 73.1493 50.2807 73.3184 50.5725C73.4874 50.8643 73.5719 51.2014 73.5719 51.5837C73.5719 51.9661 73.4864 52.3031 73.3154 52.5949C73.1443 52.8867 72.9109 53.1101 72.6151 53.266C72.3193 53.422 71.9892 53.4995 71.624 53.4995C71.2577 53.4995 70.9297 53.421 70.6379 53.265ZM72.1794 52.2709C72.3333 52.1109 72.4098 51.8815 72.4098 51.5837C72.4098 51.2859 72.3354 51.0565 72.1864 50.8965C72.0375 50.7365 71.8534 50.656 71.6361 50.656C71.4137 50.656 71.2286 50.7355 71.0817 50.8925C70.9348 51.0504 70.8613 51.2809 70.8613 51.5837C70.8613 51.8815 70.9338 52.1109 71.0786 52.2709C71.2235 52.4309 71.4046 52.5114 71.623 52.5114C71.8403 52.5114 72.0265 52.4309 72.1794 52.2709Z" fill="#4EA847"/>
<path d="M74.2622 49.1581C74.1354 49.0404 74.072 48.8945 74.072 48.7204C74.072 48.5423 74.1354 48.3944 74.2622 48.2767C74.389 48.159 74.552 48.0996 74.7522 48.0996C74.9484 48.0996 75.1094 48.159 75.2362 48.2767C75.3629 48.3944 75.4263 48.5423 75.4263 48.7204C75.4263 48.8945 75.3629 49.0394 75.2362 49.1581C75.1094 49.2758 74.9484 49.3352 74.7522 49.3352C74.552 49.3352 74.389 49.2758 74.2622 49.1581ZM75.3197 49.7216V53.4454H74.1787V49.7216H75.3197Z" fill="#4EA847"/>
<path d="M79.4612 50.1062C79.7218 50.389 79.8516 50.7773 79.8516 51.2714V53.4467H78.7167V51.4243C78.7167 51.1748 78.6523 50.9816 78.5235 50.8437C78.3947 50.7059 78.2206 50.6365 78.0033 50.6365C77.785 50.6365 77.6119 50.7059 77.4831 50.8437C77.3543 50.9816 77.2899 51.1758 77.2899 51.4243V53.4467H76.1489V49.7229H77.2899V50.2169C77.4056 50.0519 77.5616 49.9221 77.7568 49.8265C77.952 49.7309 78.1723 49.6826 78.4178 49.6826C78.8525 49.6816 79.2006 49.8235 79.4612 50.1062Z" fill="#4EA847"/>
<path fill-rule="evenodd" clip-rule="evenodd" d="M78.4649 15.8882L68.8711 18.459H76.5462H79.9832H79.9903H80.3636L79.8957 16.7143C79.7297 16.0935 79.0857 15.7222 78.4649 15.8882Z" fill="#4EA847"/>
<path fill-rule="evenodd" clip-rule="evenodd" d="M75.5854 13.1559L66.9836 18.1223L74.3981 16.1362L77.7175 15.2467L77.7235 15.2447L78.0847 15.1481L77.1822 13.5845C76.8602 13.0271 76.1428 12.8339 75.5854 13.1559Z" fill="#4EA847"/>
<path fill-rule="evenodd" clip-rule="evenodd" d="M67.9515 19.7521C60.7906 20.5882 59.2693 30.3591 65.9734 33.1864C65.6756 32.6834 65.5045 32.0978 65.5045 31.4729C65.5045 31.2868 65.5196 31.1047 65.5488 30.9266C65.8164 29.3006 67.2331 28.0922 68.8852 28.0922H80.43V26.9814V19.7148H68.8842L67.9515 19.7521ZM73.6223 21.2613C72.1633 21.2613 70.9801 22.4446 70.9801 23.9035C70.9801 25.3625 72.1633 26.5457 73.6223 26.5457C75.0812 26.5457 76.2645 25.3625 76.2645 23.9035C76.2645 22.4446 75.0822 21.2613 73.6223 21.2613ZM72.2096 24.7608L72.766 24.468C72.8496 24.6541 72.9129 24.7447 73.1232 24.8423C73.4351 24.9872 73.8678 25.0053 74.1797 24.8503C74.4031 24.7387 74.4725 24.3996 74.1626 24.2658C73.6263 24.0343 73.0206 24.1983 72.5537 23.7536C72.2157 23.4316 72.1533 22.4164 73.3637 22.2363V21.8369H73.9916V22.2373C74.4655 22.3128 74.6919 22.4728 74.9142 22.8702L74.3809 23.1549C74.2984 23.0141 74.2491 22.9477 74.0781 22.8742C73.6837 22.7042 72.9924 22.7806 72.9965 23.1801C72.9985 23.3894 73.2259 23.4457 73.3959 23.4809C73.9402 23.5916 74.6586 23.5785 74.9484 24.15C75.1255 24.4982 75.041 24.9872 74.6959 25.2548C74.4876 25.4168 74.2461 25.5033 73.9875 25.5335V25.9732H73.3637V25.5496C72.9029 25.4933 72.44 25.281 72.2408 24.8332L72.2096 24.7608ZM67.7171 25.5869V22.2202C68.7313 22.2745 69.6057 21.5742 69.8059 20.6154H77.4407C77.6399 21.5742 78.5143 22.2745 79.5295 22.2202V25.5869C78.5153 25.5325 77.6409 26.2328 77.4407 27.1917H69.8059C69.6057 26.2328 68.7313 25.5325 67.7171 25.5869Z" fill="#4EA847"/>
<path fill-rule="evenodd" clip-rule="evenodd" d="M62.1701 22.6475C54.2787 27.6411 60.5783 37.8215 68.1709 37.8215H79.8254V36.0738H68.1739C63.7397 36.0738 60.1125 32.4455 60.1125 28.0124C60.1125 25.9568 60.8923 24.0752 62.1701 22.6475ZM68.1709 38.7935C62.322 38.7935 57.5226 34.0745 57.3918 28.2559C56.8314 29.6232 56.5225 31.1184 56.5225 32.682C56.5225 39.1497 61.8139 44.4411 68.2816 44.4411H79.8264V38.7945H68.1709V38.7935Z" fill="#F5D60B"/>
<path fill-rule="evenodd" clip-rule="evenodd" d="M59.5067 13.127V18.4174H54.6107V33.7937C54.6107 35.2516 54.3662 36.618 53.8772 37.8928C53.3882 39.1686 52.7271 40.2925 51.895 41.2635C51.0619 42.2354 50.0769 43.0021 48.9399 43.5636C47.8039 44.126 46.5875 44.4057 45.2925 44.4057H39.0271V38.0759H45.2925C45.8208 38.0759 46.3098 37.9612 46.7595 37.7338C47.2093 37.5054 47.6057 37.1945 47.9488 36.8001C48.2919 36.4057 48.5575 35.9499 48.7417 35.4337C48.9268 34.9176 49.0204 34.3712 49.0204 33.7937L48.9459 18.4446H44.0117L44.0066 13.127H59.5067Z" fill="#4EA847"/>
</svg>
