<svg width="48" height="49" viewBox="0 0 48 49" fill="none" xmlns="http://www.w3.org/2000/svg">
<path d="M20 21.8333H10.6667C10.3131 21.8333 9.97392 21.6929 9.72387 21.4428C9.47382 21.1928 9.33334 20.8536 9.33334 20.5V11.1667C9.33334 10.8131 9.47382 10.4739 9.72387 10.2239C9.97392 9.97382 10.3131 9.83334 10.6667 9.83334H20C20.3536 9.83334 20.6928 9.97382 20.9428 10.2239C21.1929 10.4739 21.3333 10.8131 21.3333 11.1667V20.5C21.3333 20.8536 21.1929 21.1928 20.9428 21.4428C20.6928 21.6929 20.3536 21.8333 20 21.8333Z" fill="#6BBC46"/>
<path d="M20 39.1667H10.6667C10.3131 39.1667 9.97392 39.0262 9.72387 38.7761C9.47382 38.5261 9.33334 38.187 9.33334 37.8333V28.5C9.33334 28.1464 9.47382 27.8072 9.72387 27.5572C9.97392 27.3071 10.3131 27.1667 10.6667 27.1667H20C20.3536 27.1667 20.6928 27.3071 20.9428 27.5572C21.1929 27.8072 21.3333 28.1464 21.3333 28.5V37.8333C21.3333 38.187 21.1929 38.5261 20.9428 38.7761C20.6928 39.0262 20.3536 39.1667 20 39.1667Z" fill="#6BBC46"/>
<path d="M25.3333 11.1667H38.6667V13.8334H25.3333V11.1667Z" fill="#FFD900"/>
<path d="M38.6667 28.5H25.3333V31.1667H38.6667V28.5Z" fill="#FFD900"/>
<path d="M38.6667 35.1667H25.3333V37.8333H38.6667V35.1667Z" fill="#84E199"/>
<path d="M38.6667 17.8333H25.3333V20.5H38.6667V17.8333Z" fill="#84E199"/>
</svg>
