<svg width="48" height="49" viewBox="0 0 48 49" fill="none" xmlns="http://www.w3.org/2000/svg">
<path d="M14.6667 9.83334H10.6667C10.313 9.83334 9.97391 9.97382 9.72386 10.2239C9.47381 10.4739 9.33333 10.8131 9.33333 11.1667V37.8333C9.33333 38.187 9.47381 38.5261 9.72386 38.7762C9.97391 39.0262 10.313 39.1667 10.6667 39.1667H14.6667V9.83334Z" fill="#84E199"/>
<path d="M17.3333 39.1667H30.6667V9.83334H17.3333V39.1667ZM24 33.8333C23.6464 33.8333 23.3072 33.6929 23.0572 33.4428C22.8071 33.1928 22.6667 32.8536 22.6667 32.5C22.6667 32.1464 22.8071 31.8072 23.0572 31.5572C23.3072 31.3071 23.6464 31.1667 24 31.1667C24.3536 31.1667 24.6928 31.3071 24.9428 31.5572C25.1929 31.8072 25.3333 32.1464 25.3333 32.5C25.3333 32.8536 25.1929 33.1928 24.9428 33.4428C24.6928 33.6929 24.3536 33.8333 24 33.8333ZM24 15.1667C24.3536 15.1667 24.6928 15.3072 24.9428 15.5572C25.1929 15.8072 25.3333 16.1464 25.3333 16.5C25.3333 16.8536 25.1929 17.1928 24.9428 17.4428C24.6928 17.6929 24.3536 17.8333 24 17.8333C23.6464 17.8333 23.3072 17.6929 23.0572 17.4428C22.8071 17.1928 22.6667 16.8536 22.6667 16.5C22.6667 16.1464 22.8071 15.8072 23.0572 15.5572C23.3072 15.3072 23.6464 15.1667 24 15.1667ZM24 23.1667C24.3536 23.1667 24.6928 23.3072 24.9428 23.5572C25.1929 23.8072 25.3333 24.1464 25.3333 24.5C25.3333 24.8536 25.1929 25.1928 24.9428 25.4428C24.6928 25.6929 24.3536 25.8333 24 25.8333C23.6464 25.8333 23.3072 25.6929 23.0572 25.4428C22.8071 25.1928 22.6667 24.8536 22.6667 24.5C22.6667 24.1464 22.8071 23.8072 23.0572 23.5572C23.3072 23.3072 23.6464 23.1667 24 23.1667Z" fill="#6BBC46"/>
<path d="M37.3333 9.83334H33.3333V39.1667H37.3333C37.687 39.1667 38.0261 39.0262 38.2761 38.7762C38.5262 38.5261 38.6667 38.187 38.6667 37.8333V11.1667C38.6667 10.8131 38.5262 10.4739 38.2761 10.2239C38.0261 9.97382 37.687 9.83334 37.3333 9.83334Z" fill="#FFD900"/>
</svg>
