<svg width="48" height="49" viewBox="0 0 48 49" fill="none" xmlns="http://www.w3.org/2000/svg">
<g clip-path="url(#clip0_7_2042)">
<path d="M36 40.5H24C23.6464 40.5 23.3072 40.3595 23.0572 40.1095C22.8071 39.8594 22.6667 39.5203 22.6667 39.1667V36.5C22.6667 36.1464 22.8071 35.8072 23.0572 35.5572C23.3072 35.3071 23.6464 35.1667 24 35.1667H36C36.3536 35.1667 36.6928 35.3071 36.9428 35.5572C37.1928 35.8072 37.3333 36.1464 37.3333 36.5V39.1667C37.3333 39.5203 37.1928 39.8594 36.9428 40.1095C36.6928 40.3595 36.3536 40.5 36 40.5Z" fill="#84E199"/>
<path d="M36 8.5H12C11.6464 8.5 11.3072 8.64047 11.0572 8.89052C10.8071 9.14057 10.6667 9.47971 10.6667 9.83333V12.5C10.6667 12.8536 10.8071 13.1928 11.0572 13.4428C11.3072 13.6929 11.6464 13.8333 12 13.8333H36C36.3536 13.8333 36.6928 13.6929 36.9428 13.4428C37.1929 13.1928 37.3333 12.8536 37.3333 12.5V9.83333C37.3333 9.47971 37.1929 9.14057 36.9428 8.89052C36.6928 8.64047 36.3536 8.5 36 8.5Z" fill="#FFD900"/>
<path d="M36 16.5H12C11.6464 16.5 11.3072 16.6405 11.0572 16.8905C10.8071 17.1406 10.6667 17.4797 10.6667 17.8333V31.1667C10.6667 31.5203 10.8071 31.8594 11.0572 32.1095C11.3072 32.3595 11.6464 32.5 12 32.5H36C36.3536 32.5 36.6928 32.3595 36.9428 32.1095C37.1929 31.8594 37.3333 31.5203 37.3333 31.1667V17.8333C37.3333 17.4797 37.1929 17.1406 36.9428 16.8905C36.6928 16.6405 36.3536 16.5 36 16.5Z" fill="#28A746"/>
</g>
<defs>
<clipPath id="clip0_7_2042">
<rect width="32" height="32" fill="white" transform="translate(8 8.5)"/>
</clipPath>
</defs>
</svg>
