<svg width="151" height="146" viewBox="0 0 151 146" fill="none" xmlns="http://www.w3.org/2000/svg">
<path fill-rule="evenodd" clip-rule="evenodd" d="M57.7096 1.513C33.5335 6.66333 12.6542 25.4252 3.4966 48.4178C-0.166441 56.5112 0.0167078 65.1563 0.0167078 73.9855C-0.166444 86.3095 1.11562 93.2992 5.87757 102.496C35.365 165.404 123.095 156.391 142.326 91.8277C143.425 89.4365 147.82 89.9883 150.201 88.5168C150.934 87.9649 151.117 87.4131 150.934 86.8613C149.286 82.9986 141.41 73.8015 137.564 69.387C134.267 65.7082 132.802 63.133 131.337 62.2133C129.505 62.3972 113.937 79.6876 110.274 85.3898C109.908 85.9416 109.542 86.4934 109.542 87.2292C109.725 88.8846 112.289 89.4365 113.754 89.8043C114.853 89.9883 115.402 90.908 115.219 92.0116C95.2557 138.549 24.9254 123.649 24.7422 72.514C24.3759 47.3141 45.6215 24.3216 71.2628 25.2413C79.6878 25.4252 94.8894 28.0004 94.1568 30.9434C91.0432 34.9901 80.0541 45.8426 75.4753 50.6251C72.9112 53.2002 60.0906 65.8921 58.259 67.7315C57.8927 68.4673 58.4422 68.6512 59.1748 69.5709C60.0906 70.4906 61.7389 72.1461 63.021 73.4337C64.8525 75.457 66.5009 76.5606 68.6987 77.8482C70.8965 79.1358 73.0944 80.4234 75.109 81.711C76.3911 82.4467 77.6732 82.4467 78.7721 81.3431C89.7612 70.8585 100.75 60.19 111.373 49.1535C112.106 48.4178 112.472 47.682 112.472 46.5784C112.655 43.6353 112.838 35.358 112.838 32.5989C113.021 28.3683 113.021 22.2983 112.655 18.0676C112.289 14.7567 112.289 12.5494 109.908 10.5261C101.483 2.98452 71.8123 -1.79793 57.8927 1.32906L57.7096 1.513Z" fill="#28A746"/>
<path d="M83.7171 67.9154C78.4057 64.0527 57.16 60.1899 65.2187 50.4411C71.0796 46.2105 78.9551 48.6017 85.1823 50.809C85.9149 51.1769 87.0138 51.3608 87.7464 51.3608C90.4937 50.2572 90.4937 46.2105 91.4094 43.8193C94.3399 36.6456 83.7171 36.4616 79.1383 34.9901C76.7573 34.6222 76.5741 32.415 76.5741 30.3916C76.391 28.9201 76.5741 27.2646 75.8415 26.161C74.01 24.8734 69.0649 25.4252 66.5008 25.6092C64.4861 25.6092 64.6693 27.4486 64.6693 28.7361C64.4861 30.7595 65.0356 33.8865 63.5703 35.5419C61.5557 37.0135 57.7095 37.9332 55.5117 39.5886C50.2003 42.8996 46.9035 48.0499 46.3541 55.0396C44.8888 71.2264 61.5557 75.457 73.0942 80.9752C78.9551 83.9182 80.2372 91.4598 73.4606 94.4028C66.6839 97.1619 58.6253 94.5868 52.2149 91.8277C47.2698 89.6204 47.2698 97.3459 45.9878 100.289C45.4383 102.312 45.9878 104.336 48.0024 105.071C52.3981 107.647 57.5263 107.83 62.2883 109.486C64.303 110.957 63.3872 114.636 63.7535 116.844C63.7535 118.499 64.4861 119.419 65.9513 119.787C68.3323 120.154 70.5301 120.338 72.9111 120.154C74.01 120.154 75.4752 119.971 75.6584 118.867C76.0247 116.66 75.8415 114.82 76.0247 112.061C75.8415 109.302 77.3068 107.83 79.8709 107.095C82.2519 106.175 84.6328 105.071 86.6475 103.6C99.1018 94.7707 97.6366 75.273 84.0834 68.0994L83.7171 67.9154Z" fill="#FFD700"/>
</svg>
