<svg width="278" height="79" viewBox="0 0 278 79" fill="none" xmlns="http://www.w3.org/2000/svg">
<path fill-rule="evenodd" clip-rule="evenodd" d="M31.5091 0.628102C18.3091 3.4281 6.90912 13.6281 1.90912 26.1281C-0.0908761 30.5281 0.00912239 35.2281 0.00912239 40.0281C-0.0908776 46.7281 0.609123 50.5281 3.20912 55.5281C19.3091 89.7281 67.2091 84.8281 77.7091 49.7281C78.3091 48.4281 80.7091 48.7281 82.0091 47.9281C82.4091 47.6281 82.5091 47.3281 82.4091 47.0281C81.5091 44.9281 77.2091 39.9281 75.1091 37.5281C73.3091 35.5281 72.5091 34.1281 71.7091 33.6281C70.7091 33.7281 62.2091 43.1281 60.2091 46.2281C60.0091 46.5281 59.8091 46.8281 59.8091 47.2281C59.9091 48.1281 61.3091 48.4281 62.1091 48.6281C62.7091 48.7281 63.0091 49.2281 62.9091 49.8281C52.0091 75.1281 13.6091 67.0281 13.5091 39.2281C13.3091 25.5281 24.9091 13.0281 38.9091 13.5281C43.5091 13.6281 51.8091 15.0281 51.4091 16.6281C49.7091 18.8281 43.7091 24.7281 41.2091 27.3281C39.8091 28.7281 32.8091 35.6281 31.8091 36.6281C31.6091 37.0281 31.9091 37.1281 32.3091 37.6281C32.8091 38.1281 33.7091 39.0281 34.4091 39.7281C35.4091 40.8281 36.3091 41.4281 37.5091 42.1281C38.7091 42.8281 39.9091 43.5281 41.0091 44.2281C41.7091 44.6281 42.4091 44.6281 43.0091 44.0281C49.0091 38.3281 55.0091 32.5281 60.8091 26.5281C61.2091 26.1281 61.4091 25.7281 61.4091 25.1281C61.5091 23.5281 61.6091 19.0281 61.6091 17.5281C61.7091 15.2281 61.7091 11.9281 61.5091 9.6281C61.3091 7.8281 61.3091 6.6281 60.0091 5.5281C55.4091 1.4281 39.2091 -1.1719 31.6091 0.528103L31.5091 0.628102Z" fill="#28A746"/>
<path d="M45.7091 36.7281C42.8091 34.6281 31.2091 32.5281 35.6091 27.2281C38.8091 24.9281 43.1091 26.2281 46.5091 27.4281C46.9091 27.6281 47.5091 27.7281 47.9091 27.7281C49.4091 27.1281 49.4091 24.9281 49.9091 23.6281C51.5091 19.7281 45.7091 19.6281 43.2091 18.8281C41.9091 18.6281 41.8091 17.4281 41.8091 16.3281C41.7091 15.5281 41.8091 14.6281 41.4091 14.0281C40.4091 13.3281 37.7091 13.6281 36.3091 13.7281C35.2091 13.7281 35.3091 14.7281 35.3091 15.4281C35.2091 16.5281 35.5091 18.2281 34.7091 19.1281C33.6091 19.9281 31.5091 20.4281 30.3091 21.3281C27.4091 23.1281 25.6091 25.9281 25.3091 29.7281C24.5091 38.5281 33.6091 40.8281 39.9091 43.8281C43.1091 45.4281 43.8091 49.5281 40.1091 51.1281C36.4091 52.6281 32.0091 51.2281 28.5091 49.7281C25.8091 48.5281 25.8091 52.7281 25.1091 54.3281C24.8091 55.4281 25.1091 56.5281 26.2091 56.9281C28.6091 58.3281 31.4091 58.4281 34.0091 59.3281C35.1091 60.1281 34.6091 62.1281 34.8091 63.3281C34.8091 64.2281 35.2091 64.7281 36.0091 64.9281C37.3091 65.1281 38.5091 65.2281 39.8091 65.1281C40.4091 65.1281 41.2091 65.0281 41.3091 64.4281C41.5091 63.2281 41.4091 62.2281 41.5091 60.7281C41.4091 59.2281 42.2091 58.4281 43.6091 58.0281C44.9091 57.5281 46.2091 56.9281 47.3091 56.1281C54.1091 51.3281 53.3091 40.7281 45.9091 36.8281L45.7091 36.7281Z" fill="#FFD700"/>
<path d="M98.4896 47.0024C98.3896 45.2024 98.4896 24.2024 98.4896 23.3024C98.4896 23.2024 98.5896 23.2024 98.7896 23.2024C102.29 23.2024 108.69 23.2024 112.29 23.2024C113.19 23.3024 113.39 23.0024 113.39 24.0024C113.39 24.9024 113.39 26.1024 113.39 27.0024C113.29 27.5024 112.99 27.3024 112.19 27.4024C109.59 27.4024 103.99 27.4024 102.99 27.4024C102.79 27.4024 102.69 27.6024 102.69 27.8024C102.69 28.4024 102.69 29.4024 102.69 30.2024C102.79 30.9024 102.49 31.7024 102.89 32.2024C104.69 32.4024 109.09 32.1024 110.99 32.3024C111.39 32.6024 111.19 33.1024 111.29 34.0024C111.29 34.8024 111.29 35.6024 111.29 36.0024C111.29 36.3024 111.19 36.4024 110.89 36.5024C109.79 36.6024 104.19 36.5024 103.09 36.5024C102.89 36.5024 102.79 36.6024 102.69 36.8024C102.69 37.6024 102.69 38.5024 102.69 39.6024C102.69 40.4024 102.69 41.3024 102.69 41.9024C102.69 42.7024 102.59 43.0024 103.09 43.0024C104.49 43.0024 111.99 43.0024 113.19 43.0024C113.59 43.1024 113.49 43.5024 113.49 44.0024C113.49 44.7024 113.49 45.7024 113.49 46.3024C113.49 46.9024 113.49 47.1024 113.29 47.1024C111.79 47.0024 99.8896 47.1024 98.4896 47.0024ZM117.19 47.0024C116.89 45.7024 117.19 33.4024 117.09 30.6024C117.09 30.3024 116.99 30.1024 117.29 30.0024C117.49 30.0024 118.09 30.0024 118.79 30.0024C119.69 30.0024 120.39 29.9024 120.99 30.1024C121.29 30.3024 121.29 30.7024 121.39 30.9024C121.59 31.2024 121.79 31.0024 122.09 30.8024C123.59 29.7024 125.59 29.2024 127.39 29.6024C127.59 29.7024 127.69 29.7024 127.79 29.9024C127.99 30.2024 127.69 30.7024 127.39 31.5024C127.09 32.3024 126.89 33.0024 126.49 33.5024C126.29 33.8024 125.89 33.8024 125.49 33.7024C124.59 33.6024 123.69 33.9024 122.99 34.4024C121.39 35.5024 121.39 37.3024 121.49 39.0024C121.49 41.4024 121.49 45.7024 121.49 46.6024C121.49 46.9024 121.29 46.9024 120.99 46.9024C119.89 47.0024 118.09 47.1024 117.19 47.0024ZM141.99 30.2024C142.49 29.8024 143.59 30.1024 144.29 30.0024C145.29 30.0024 145.89 30.0024 145.99 30.2024C146.09 30.4024 145.99 30.8024 145.99 31.5024C145.99 35.2024 145.99 45.4024 145.99 46.8024C145.89 47.1024 145.79 47.0024 145.39 47.1024C144.59 47.1024 142.99 47.2024 142.29 47.0024C141.69 46.8024 141.89 45.5024 141.49 45.5024C140.99 45.7024 140.59 46.4024 139.99 46.7024C138.19 47.9024 135.89 47.7024 133.99 46.9024C127.19 44.5024 125.99 34.6024 132.19 30.9024C134.89 29.2024 138.69 29.0024 141.09 31.2024C142.19 32.4024 141.69 30.9024 141.99 30.2024ZM136.99 43.5024C142.59 43.4024 142.99 34.3024 137.49 33.6024C130.89 33.0024 130.29 43.1024 136.79 43.5024H136.99ZM164.89 36.1024C164.89 37.6024 164.89 45.2024 164.89 46.7024C164.79 47.1024 164.49 47.0024 164.09 47.0024C163.49 47.0024 162.49 47.0024 161.79 47.0024C161.19 47.0024 160.99 47.0024 160.89 46.8024C160.69 45.1024 160.89 41.6024 160.79 39.5024C160.79 37.6024 161.09 36.7024 159.99 35.2024C158.39 32.9024 154.49 33.5024 153.79 36.2024C153.19 38.7024 153.79 43.6024 153.49 46.7024C153.19 47.1024 152.59 46.9024 151.59 47.0024C150.69 47.0024 149.99 47.0024 149.69 47.0024C149.59 47.0024 149.49 46.9024 149.49 46.8024C149.49 46.4024 149.49 45.2024 149.49 43.5024C149.49 39.0024 149.49 31.4024 149.49 30.2024C149.59 29.9024 149.79 30.0024 150.09 29.9024C150.79 29.9024 152.29 29.9024 152.99 29.9024C153.69 30.0024 153.59 31.0024 154.09 30.9024C158.49 27.6024 164.69 30.3024 165.09 35.9024L164.89 36.1024ZM176.49 47.0024C176.39 45.3024 180.69 25.2024 180.99 23.4024C180.99 23.3024 181.09 23.3024 181.39 23.2024C181.89 23.2024 183.49 23.2024 184.09 23.2024C184.29 23.2024 184.49 23.3024 184.59 23.4024C184.79 23.7024 185.09 24.5024 185.49 25.7024C186.79 28.9024 189.19 35.5024 190.29 38.3024C191.09 36.8024 192.89 31.6024 193.89 29.2024C194.89 26.6024 195.79 24.3024 196.09 23.6024C196.19 23.4024 196.29 23.4024 196.39 23.3024C196.69 23.2024 197.19 23.2024 197.89 23.2024C198.69 23.3024 199.29 23.1024 199.59 23.4024C199.79 25.2024 204.29 45.4024 203.99 47.0024C203.79 47.1024 203.19 47.0024 202.29 47.0024C201.19 46.9024 200.59 47.2024 199.99 46.8024C199.39 44.7024 198.29 38.2024 197.69 35.4024C197.29 33.6024 197.19 32.2024 196.99 32.5024C195.79 35.6024 192.29 44.9024 191.79 46.2024C191.59 46.5024 191.39 46.4024 190.89 46.5024C190.19 46.4024 189.19 46.7024 188.69 46.2024C188.19 45.0024 185.29 37.3024 184.19 34.4024C183.69 33.2024 183.49 32.2024 183.39 32.6024C183.09 33.8024 180.99 45.2024 180.59 46.7024C180.39 47.1024 179.99 47.0024 179.39 47.0024C178.39 47.0024 177.19 47.1024 176.49 47.0024ZM213.79 47.5024C203.19 47.2024 202.49 31.2024 212.89 29.6024C224.79 28.6024 225.79 46.8024 213.99 47.5024H213.79ZM213.99 43.3024C219.99 43.0024 219.39 33.1024 213.29 33.7024C208.09 34.5024 208.49 43.1024 213.79 43.3024H213.99ZM240.59 36.1024C240.59 37.6024 240.59 45.2024 240.59 46.7024C240.49 47.1024 240.19 47.0024 239.79 47.0024C239.19 47.0024 238.19 47.0024 237.49 47.0024C236.89 47.0024 236.69 47.0024 236.59 46.8024C236.39 45.1024 236.59 41.6024 236.49 39.5024C236.49 37.6024 236.79 36.7024 235.69 35.2024C234.09 32.9024 230.19 33.5024 229.49 36.2024C228.89 38.7024 229.49 43.6024 229.19 46.7024C228.89 47.1024 228.29 46.9024 227.29 47.0024C226.39 47.0024 225.69 47.0024 225.39 47.0024C225.29 47.0024 225.19 46.9024 225.19 46.8024C225.19 46.4024 225.19 45.2024 225.19 43.5024C225.19 39.0024 225.19 31.4024 225.19 30.2024C225.29 29.9024 225.49 30.0024 225.79 29.9024C226.49 29.9024 227.99 29.9024 228.69 29.9024C229.39 30.0024 229.29 31.0024 229.79 30.9024C234.19 27.6024 240.39 30.3024 240.79 35.9024L240.59 36.1024ZM251.09 47.5024C245.69 47.5024 241.69 41.9024 242.89 36.7024C243.89 30.5024 251.59 27.2024 256.49 31.4024C258.69 33.2024 260.29 37.0024 259.49 39.7024C259.39 39.8024 259.29 39.8024 259.19 39.9024C257.59 39.9024 249.59 39.9024 247.69 39.9024C246.89 39.9024 247.59 40.9024 247.89 41.4024C248.89 43.0024 251.29 43.7024 252.99 42.8024C253.79 42.5024 254.19 41.6024 255.09 41.5024C255.79 41.5024 257.79 42.0024 258.39 42.3024C258.69 42.5024 258.59 42.9024 258.39 43.2024C256.99 45.6024 254.19 47.5024 251.29 47.4024L251.09 47.5024ZM246.99 36.8024C248.49 36.9024 254.29 36.8024 255.29 36.8024C254.49 32.1024 248.09 31.9024 246.99 36.8024ZM273.09 30.1024C274.09 30.0024 275.99 30.1024 276.89 30.1024C277.69 30.1024 277.09 30.5024 276.89 31.2024C275.09 36.1024 268.79 53.4024 267.99 55.4024C267.29 55.7024 265.99 55.5024 265.09 55.5024C264.59 55.5024 264.19 55.5024 263.99 55.5024C263.69 55.5024 263.59 55.4024 263.69 55.2024C263.99 54.2024 265.89 49.3024 266.39 47.7024C266.69 46.8024 266.59 47.0024 266.29 46.2024C264.89 42.3024 261.19 32.2024 260.59 30.4024C260.49 30.0024 260.79 30.1024 261.29 30.1024C261.99 30.1024 263.29 30.1024 264.09 30.1024C264.59 30.1024 264.79 30.0024 265.09 30.3024C265.69 31.7024 266.99 36.2024 267.99 39.1024C268.49 40.6024 268.69 41.5024 268.79 41.2024C269.29 40.2024 272.29 31.2024 273.09 30.1024Z" fill="#1E293B"/>
</svg>
