<svg width="150" height="111" viewBox="0 0 150 111" fill="none" xmlns="http://www.w3.org/2000/svg">
<path d="M78.1494 5.22434C80.6498 7.55295 82.0924 10.2228 82.3527 13.6754C82.3525 14.1161 82.3523 14.5568 82.3521 15.0109C82.353 15.2589 82.3539 15.5068 82.3549 15.7623C82.357 16.5864 82.3537 17.4104 82.3504 18.2345C82.3508 18.8291 82.3516 19.4237 82.3526 20.0184C82.3545 21.6338 82.3515 23.2492 82.3476 24.8646C82.3442 26.5757 82.3449 28.2868 82.3451 29.9978C82.3447 32.8882 82.3414 35.7786 82.3361 38.669C82.3308 41.5977 82.328 44.5264 82.3282 47.4551C82.3297 74.5867 82.3297 74.5867 82.1508 85.7017C82.1389 86.4637 82.1285 87.2257 82.1199 87.9877C81.9569 101.526 81.9569 101.526 77.7291 106.626C73.4654 110.767 66.8092 110.943 61.2147 110.917C60.7434 110.915 60.2721 110.913 59.7865 110.911C54.3576 110.841 49.3779 110.453 45.0726 106.833C39.527 100.209 40.2464 91.0619 40.3059 82.9006C40.3095 82.0251 40.3127 81.1496 40.3156 80.2741C40.3245 77.9722 40.3388 75.6703 40.3549 73.3684C40.3643 72.0012 40.3728 70.6339 40.3809 69.2667C40.4137 63.8262 40.4574 58.3858 40.5076 52.9454C40.5246 51.102 40.5406 49.2585 40.5556 47.415C40.6278 38.5978 40.7017 29.7799 40.8856 20.9642C40.8993 20.2937 40.9119 19.6231 40.9233 18.9525C41.0134 13.7911 41.2484 9.31953 44.7123 5.20032C52.8218 -1.58906 69.9944 -1.41767 78.1494 5.22434ZM53.4319 12.0223C51.8058 14.0763 51.4617 15.557 51.464 18.1224C51.4635 18.5837 51.4629 19.045 51.4624 19.5203C51.4638 20.0251 51.4652 20.5299 51.4666 21.05C51.4667 21.5879 51.4666 22.1258 51.4664 22.6638C51.4663 24.1231 51.4686 25.5825 51.4712 27.0419C51.4736 28.5674 51.4739 30.0929 51.4743 31.6184C51.4755 34.5067 51.4787 37.395 51.4825 40.2834C51.4868 43.5718 51.4889 46.8602 51.4909 50.1487C51.4949 56.9129 51.5016 63.6771 51.5102 70.4412C51.8609 70.3243 51.8609 70.3243 52.2187 70.2051C59.1719 67.8874 64.2786 68.0856 71.1113 70.8256C71.1472 63.5492 71.1743 56.2728 71.191 48.9964C71.1989 45.6178 71.2097 42.2392 71.2273 38.8606C71.2426 35.9157 71.2525 32.9708 71.256 30.0258C71.258 28.4666 71.2627 26.9075 71.2738 25.3483C71.2843 23.8802 71.2875 22.4122 71.2852 20.944C71.2856 20.4057 71.2887 19.8675 71.2946 19.3293C71.4167 15.5339 71.4167 15.5339 69.574 12.4066C66.995 10.1346 64.9691 10.39 61.623 10.3648C61.1358 10.3537 60.6485 10.3425 60.1465 10.331C57.449 10.3127 55.5874 10.3254 53.4319 12.0223Z" fill="#6ABD45"/>
<path d="M117.835 62.6481C121.545 62.698 121.545 62.698 123.119 63.7143C124.531 65.2774 125.285 67.1644 126.05 69.1057C126.688 70.6009 127.583 71.8902 128.497 73.2277C128.845 73.7583 129.191 74.2898 129.536 74.8221C129.717 75.1004 129.898 75.3787 130.085 75.6655C131.503 77.8584 132.899 80.0657 134.298 82.2705C134.517 82.6147 134.735 82.9589 134.96 83.3135C135.155 83.6201 135.349 83.9267 135.55 84.2426C136.447 85.7859 136.447 85.7859 137.986 86.5834C138.112 78.8467 138.239 71.11 138.37 63.1389C142.048 63.1389 145.726 63.1389 149.516 63.1389C150.138 63.761 149.95 64.4406 149.951 65.3006C149.954 65.877 149.954 65.877 149.956 66.465C149.956 67.1026 149.956 67.1026 149.956 67.7531C149.957 68.198 149.958 68.6429 149.96 69.1013C149.963 70.5804 149.964 72.0594 149.965 73.5385C149.965 74.3032 149.966 75.0679 149.967 75.8326C149.971 78.2386 149.971 80.6445 149.971 83.0505C149.971 85.5356 149.975 88.0207 149.981 90.5058C149.986 92.6365 149.988 94.7672 149.988 96.898C149.988 98.1718 149.989 99.4457 149.993 100.72C149.997 102.14 149.996 103.56 149.993 104.98C149.995 105.404 149.998 105.828 150 106.265C149.998 106.651 149.997 107.036 149.995 107.433C149.995 107.769 149.995 108.105 149.996 108.451C149.9 109.259 149.9 109.259 149.131 110.028C147.387 110.278 145.63 110.277 143.871 110.316C143.383 110.345 142.896 110.374 142.394 110.403C138.882 110.469 138.882 110.469 137.515 109.29C136.806 108.289 136.242 107.274 135.68 106.184C135.269 105.538 134.852 104.895 134.429 104.257C134.004 103.587 133.58 102.916 133.157 102.245C132.689 101.506 132.222 100.768 131.754 100.029C131.515 99.6523 131.277 99.2755 131.032 98.8873C129.814 96.962 128.591 95.0395 127.368 93.1171C127.146 92.7662 126.923 92.4153 126.693 92.0538C126.283 91.4084 125.872 90.7639 125.458 90.1204C125.121 89.5918 124.789 89.0598 124.465 88.523C124.044 87.819 124.044 87.819 123.381 86.9677C123 86.9677 122.62 86.9677 122.228 86.9677C122.222 87.3925 122.222 87.3925 122.216 87.826C122.178 90.4898 122.139 93.1536 122.097 95.8174C122.076 97.1871 122.056 98.5567 122.037 99.9263C122.015 101.499 121.99 103.073 121.965 104.646C121.955 105.387 121.955 105.387 121.946 106.143C121.938 106.597 121.93 107.051 121.922 107.518C121.916 107.92 121.91 108.322 121.904 108.736C121.843 109.643 121.843 109.643 121.459 110.028C120.667 110.066 119.874 110.078 119.081 110.079C118.599 110.079 118.116 110.08 117.619 110.08C117.366 110.08 117.114 110.079 116.854 110.078C116.082 110.076 115.31 110.078 114.538 110.08C114.056 110.08 113.573 110.079 113.076 110.079C112.629 110.078 112.183 110.078 111.723 110.078C110.698 110.028 110.698 110.028 110.313 109.643C110.276 109.046 110.265 108.447 110.265 107.849C110.264 107.461 110.262 107.073 110.261 106.673C110.262 106.244 110.263 105.815 110.264 105.372C110.263 104.923 110.262 104.474 110.262 104.011C110.26 102.775 110.261 101.54 110.262 100.304C110.263 99.0138 110.262 97.7234 110.261 96.433C110.261 94.2656 110.261 92.0983 110.263 89.9309C110.265 87.4218 110.265 84.9127 110.263 82.4036C110.261 80.2529 110.261 78.1023 110.262 75.9516C110.262 74.6656 110.262 73.3795 110.261 72.0934C110.26 70.6604 110.262 69.2275 110.264 67.7945C110.263 67.3652 110.262 66.9359 110.261 66.4936C110.262 66.1056 110.264 65.7176 110.265 65.3178C110.265 64.9785 110.265 64.6393 110.265 64.2897C110.41 61.9946 115.913 62.6723 117.835 62.6481Z" fill="#6ABD45"/>
<path d="M117.835 4.22909C121.545 4.279 121.545 4.279 123.119 5.29531C124.531 6.85838 125.285 8.74545 126.05 10.6867C126.688 12.1819 127.583 13.4712 128.497 14.8087C128.845 15.3393 129.191 15.8708 129.536 16.4031C129.717 16.6814 129.898 16.9597 130.085 17.2465C131.503 19.4394 132.899 21.6468 134.298 23.8515C134.517 24.1957 134.735 24.5399 134.96 24.8945C135.155 25.2011 135.349 25.5077 135.55 25.8237C135.97 26.4805 136.4 27.1312 136.833 27.78C137.213 27.6532 137.594 27.5264 137.986 27.3957C138.112 19.9127 138.239 12.4297 138.37 4.71993C142.048 4.71993 145.726 4.71993 149.516 4.71993C150.138 5.34199 149.95 6.02162 149.951 6.88162C149.954 7.45799 149.954 7.45799 149.956 8.046C149.956 8.68362 149.956 8.68362 149.956 9.33411C149.957 9.77902 149.958 10.2239 149.96 10.6823C149.963 12.1614 149.964 13.6404 149.965 15.1195C149.965 15.8842 149.966 16.6489 149.967 17.4136C149.971 19.8196 149.971 22.2256 149.971 24.6315C149.971 27.1166 149.975 29.6017 149.981 32.0868C149.986 34.2175 149.988 36.3483 149.988 38.479C149.988 39.7529 149.989 41.0267 149.993 42.3005C149.997 43.7206 149.996 45.1405 149.993 46.5606C149.995 46.9849 149.998 47.4092 150 47.8463C149.998 48.2317 149.997 48.617 149.995 49.014C149.995 49.3501 149.995 49.6861 149.996 50.0324C149.9 50.8402 149.9 50.8402 149.131 51.6088C147.387 51.8593 145.63 51.8583 143.871 51.8971C143.383 51.9258 142.896 51.9546 142.394 51.9842C138.875 52.0504 138.875 52.0504 137.5 50.8485C136.796 49.8533 136.233 48.8505 135.68 47.7655C135.333 47.2169 134.982 46.6717 134.624 46.1306C134.278 45.5791 133.934 45.0271 133.59 44.4746C133.194 43.8439 132.798 43.2133 132.402 42.583C132.085 42.078 132.085 42.078 131.761 41.5628C130.45 39.4849 129.125 37.4159 127.801 35.3466C127.538 34.9364 127.276 34.5261 127.006 34.1035C126.52 33.3441 126.032 32.5856 125.543 31.8281C125.168 31.2439 124.798 30.6564 124.438 30.063C124.022 29.3661 124.022 29.3661 123.381 28.5487C123 28.5487 122.62 28.5487 122.228 28.5487C122.222 28.9736 122.222 28.9736 122.216 29.407C122.178 32.0708 122.139 34.7347 122.097 37.3985C122.076 38.7681 122.056 40.1377 122.037 41.5074C122.015 43.0805 121.99 44.6536 121.965 46.2266C121.955 46.9677 121.955 46.9677 121.946 47.7237C121.938 48.1776 121.93 48.6316 121.922 49.0993C121.916 49.5013 121.91 49.9033 121.904 50.3174C121.844 51.2245 121.844 51.2245 121.459 51.6088C120.7 51.6472 119.939 51.6591 119.179 51.6599C118.483 51.6606 118.483 51.6606 117.774 51.6614C117.286 51.6599 116.798 51.6584 116.295 51.6569C115.808 51.6584 115.321 51.6598 114.82 51.6614C114.356 51.6609 113.892 51.6604 113.414 51.6599C112.985 51.6594 112.557 51.659 112.116 51.6586C111.082 51.6088 111.082 51.6088 110.313 51.2245C110.304 45.2178 110.298 39.2111 110.294 33.2044C110.292 30.4156 110.289 27.6268 110.284 24.8379C110.281 22.4081 110.278 19.9782 110.277 17.5483C110.277 16.2609 110.276 14.9735 110.273 13.6862C110.27 12.2513 110.27 10.8165 110.27 9.38159C110.268 8.95171 110.267 8.52184 110.266 8.07893C110.266 7.69034 110.267 7.30175 110.267 6.90138C110.267 6.56163 110.267 6.22188 110.266 5.87183C110.408 3.57553 115.913 4.25334 117.835 4.22909Z" fill="#6ABD45"/>
<path d="M70.4146 70.3211C70.7714 70.6144 71.1281 70.9077 71.4956 71.2099C71.7953 71.4556 72.0951 71.7013 72.4039 71.9545C76.1247 75.1296 79.1633 79.2359 79.5666 84.2773C79.826 87.7657 79.2638 90.6207 78.0293 93.8856C77.8695 94.3129 77.8695 94.3129 77.7065 94.7489C76.0443 98.5559 72.8562 101.321 69.1896 103.11C68.8884 103.268 68.5871 103.427 68.2768 103.59C64.1415 105.451 58.7201 105.354 54.4888 103.83C52.5096 102.928 50.8224 101.868 49.2041 100.419C48.9485 100.208 48.6929 99.9962 48.4295 99.7783C45.5069 97.1625 43.2853 93.1965 42.9967 89.2476C42.7806 85.0528 42.8071 81.4681 44.9765 77.7436C45.2336 77.2791 45.2336 77.2791 45.4959 76.8052C46.8534 74.5643 48.63 72.7597 50.7415 71.2099C50.9951 71.2099 51.2488 71.2099 51.5102 71.2099C51.5102 70.9562 51.5102 70.7025 51.5102 70.4412C52.2378 70.1267 52.9667 69.8149 53.6961 69.5044C54.3047 69.2435 54.3047 69.2435 54.9256 68.9774C59.9194 67.0664 65.7711 67.8627 70.4146 70.3211Z" fill="#F9CE26"/>
<path d="M21.388 60.3285C21.9352 60.3301 21.9352 60.3301 22.4935 60.3317C30.173 60.4441 30.173 60.4441 33.0622 62.3703C32.8906 65.5045 32.635 68.536 31.9092 71.5943C30.4751 71.4222 29.0475 71.2445 27.6215 71.0133C21.4984 69.8841 21.4984 69.8841 15.7671 71.5943C14.7862 72.9527 14.4643 73.9334 14.4175 75.5983C14.4037 76.011 14.3898 76.4237 14.3756 76.8488C14.3629 77.5177 14.3629 77.5177 14.3499 78.2001C14.3385 78.6646 14.327 79.1291 14.3152 79.6077C14.2928 80.6191 14.273 81.6302 14.2574 82.6417C14.2397 83.7714 14.2151 84.9007 14.1857 86.0302C14.1473 87.5171 14.1197 89.0039 14.0995 90.4912C14.0903 91.0704 14.078 91.6495 14.0626 92.2286C14.0419 93.0449 14.0337 93.8604 14.0286 94.677C14.021 95.1459 14.0134 95.6148 14.0055 96.0979C14.2945 97.7045 14.8952 98.2591 16.1515 99.2665C17.7363 99.7948 19.2228 99.7406 20.8836 99.7469C21.227 99.7484 21.5703 99.7499 21.9241 99.7515C24.5028 99.7291 26.7846 99.394 29.2774 98.7125C30.4291 98.4866 31.1722 98.5703 32.2936 98.8821C32.7486 101.966 33.1719 104.979 33.0622 108.106C26.353 109.896 26.353 109.896 23.0695 110.028C22.7539 110.048 22.4383 110.067 22.1132 110.088C17.0991 110.266 11.6535 109.299 7.62404 106.185C3.23255 102.055 2.51439 95.3851 2.31541 89.6581C1.79967 70.6023 1.79967 70.6023 7.21418 64.7153C11.0639 61.0438 16.2552 60.2983 21.388 60.3285Z" fill="#6ABD45"/>
<path d="M7.49387 4.67358C7.91633 4.67444 8.33879 4.67529 8.77406 4.67617C9.2511 4.6762 9.72814 4.67623 10.2196 4.67626C10.7441 4.67822 11.2686 4.68023 11.7931 4.68227C12.3268 4.68299 12.8605 4.68353 13.3942 4.68392C14.8013 4.68539 16.2084 4.68917 17.6155 4.69341C19.0504 4.69734 20.4853 4.6991 21.9202 4.70104C24.7374 4.70516 27.5546 4.71172 30.3718 4.7198C30.3986 9.61441 30.419 14.509 30.4315 19.4037C30.4376 21.6767 30.4457 23.9497 30.4588 26.2227C30.4714 28.4181 30.4782 30.6135 30.4812 32.809C30.4833 33.6447 30.4875 34.4804 30.4937 35.3161C30.5021 36.4907 30.5032 37.6652 30.5027 38.8399C30.5068 39.1819 30.511 39.5238 30.5153 39.8762C30.4999 43.0388 29.8765 46.2063 27.8736 48.7397C24.7987 51.7426 19.9246 51.7268 15.9112 51.7108C15.5004 51.7115 15.0897 51.7123 14.6665 51.713C13.8061 51.7135 12.9457 51.7122 12.0853 51.7089C10.7638 51.7048 9.44242 51.7089 8.1209 51.7138C7.28266 51.7133 6.44443 51.7123 5.6062 51.7108C5.21029 51.7124 4.81438 51.7139 4.40647 51.7155C3.8596 51.7119 3.8596 51.7119 3.30169 51.7082C2.98043 51.7076 2.65918 51.7069 2.32819 51.7063C1.54666 51.6087 1.54666 51.6087 0.77799 50.84C0.534778 49.7095 0.534778 49.7095 0.345613 48.3178C0.249004 47.6393 0.249004 47.6393 0.150443 46.9471C0.0436424 45.8212 -0.00556985 44.7629 0.000499362 43.6368C0.00177278 43.3292 0.0030462 43.0216 0.0043582 42.7047C0.00599545 42.4722 0.00763269 42.2398 0.00931956 42.0003C0.49989 41.9987 0.990461 41.9972 1.4959 41.9955C3.31896 41.9872 5.1417 41.9663 6.96461 41.9417C7.75301 41.9328 8.54146 41.9272 9.32992 41.9252C10.4645 41.9216 11.5984 41.9058 12.7329 41.8877C13.0845 41.8892 13.4361 41.8907 13.7983 41.8923C15.3669 41.8565 16.3334 41.7288 17.72 40.9557C18.9049 38.9289 18.7159 36.9185 18.6856 34.6139C18.6856 34.1178 18.6856 33.6218 18.6857 33.1107C18.685 32.0626 18.6779 31.0148 18.6657 29.9668C18.6505 28.6265 18.6488 27.2867 18.6517 25.9465C18.6531 24.6639 18.6451 23.3815 18.6376 22.099C18.6375 21.6189 18.6374 21.1388 18.6373 20.6442C18.6312 20.1966 18.6251 19.749 18.6188 19.2878C18.6156 18.895 18.6123 18.5022 18.609 18.0976C18.4324 16.8402 18.0553 16.1136 17.3044 15.0969C15.3339 14.1086 13.1737 14.162 11.0109 14.088C10.6547 14.0731 10.2985 14.0582 9.93147 14.0429C9.05829 14.0069 8.1851 13.974 7.31169 13.9438C7.10809 12.479 6.90917 11.0136 6.71117 9.54801C6.65295 9.12962 6.59474 8.71123 6.53476 8.28016C6.4815 7.88257 6.42824 7.48499 6.37337 7.07536C6.32305 6.70703 6.27274 6.33871 6.22089 5.95923C6.20037 5.67705 6.17984 5.39487 6.15868 5.10414C6.54302 4.7198 6.54302 4.7198 7.49387 4.67358Z" fill="#6ABD45"/>
<path d="M89.9438 63.1388C91.5241 63.1294 93.1044 63.1224 94.6847 63.1177C95.2226 63.1158 95.7606 63.1132 96.2986 63.1099C97.0703 63.1052 97.8421 63.1032 98.6139 63.1013C99.3113 63.0983 99.3113 63.0983 100.023 63.0952C101.09 63.1388 101.09 63.1388 101.474 63.5232C101.512 64.1147 101.522 64.7079 101.523 65.3005C101.524 65.6848 101.525 66.069 101.526 66.4649C101.525 66.89 101.524 67.3151 101.524 67.753C101.524 68.1979 101.525 68.6428 101.526 69.1012C101.527 70.5803 101.526 72.0594 101.525 73.5384C101.525 74.5614 101.526 75.5845 101.526 76.6075C101.527 78.7551 101.526 80.9028 101.524 83.0504C101.522 85.5355 101.523 88.0206 101.525 90.5057C101.526 92.6364 101.527 94.7672 101.526 96.8979C101.525 98.1718 101.525 99.4456 101.526 100.719C101.527 102.139 101.526 103.559 101.524 104.979C101.524 105.404 101.525 105.828 101.526 106.265C101.524 106.843 101.524 106.843 101.523 107.433C101.523 107.769 101.522 108.105 101.522 108.451C101.474 109.259 101.474 109.259 101.09 110.028C99.564 110.037 98.0385 110.044 96.5129 110.049C95.9936 110.051 95.4742 110.053 94.9549 110.057C94.2099 110.061 93.4648 110.063 92.7197 110.065C92.0465 110.068 92.0465 110.068 91.3596 110.071C90.3282 110.028 90.3282 110.028 89.9438 109.643C89.907 109.04 89.897 108.436 89.8976 107.832C89.8968 107.244 89.8968 107.244 89.896 106.644C89.8974 106.211 89.8988 105.777 89.9002 105.331C89.9001 104.877 89.9001 104.424 89.9 103.956C89.9002 102.709 89.9022 101.461 89.9048 100.214C89.9072 98.9115 89.9075 97.6091 89.9079 96.3067C89.9091 93.8389 89.9123 91.3712 89.9161 88.9034C89.9204 86.0946 89.9225 83.2858 89.9245 80.477C89.9285 74.6976 89.9353 68.9182 89.9438 63.1388Z" fill="#6ABD45"/>
<path d="M89.9438 4.7199C91.5241 4.71042 93.1044 4.70344 94.6847 4.69879C95.2226 4.69685 95.7606 4.69423 96.2986 4.69091C97.0703 4.68626 97.8421 4.68427 98.6139 4.68237C99.3113 4.67935 99.3113 4.67935 100.023 4.67627C101.09 4.7199 101.09 4.7199 101.474 5.10424C101.512 5.69568 101.524 6.28889 101.525 6.88159C101.527 7.26584 101.529 7.65009 101.53 8.04598C101.53 8.47105 101.53 8.89613 101.53 9.33408C101.531 9.77899 101.532 10.2239 101.534 10.6823C101.537 12.1614 101.538 13.6404 101.538 15.1195C101.539 15.8842 101.54 16.6489 101.541 17.4136C101.544 19.8196 101.545 22.2255 101.545 24.6315C101.545 27.1166 101.549 29.6017 101.555 32.0868C101.56 34.2175 101.562 36.3482 101.562 38.479C101.562 39.7528 101.563 41.0267 101.567 42.3005C101.571 43.7206 101.57 45.1405 101.567 46.5606C101.569 46.9849 101.572 47.4092 101.574 47.8463C101.572 48.2316 101.571 48.617 101.569 49.014C101.569 49.35 101.569 49.6861 101.57 50.0324C101.474 50.8401 101.474 50.8401 100.705 51.6088C99.6715 51.7022 99.6715 51.7022 98.3737 51.6974C97.9097 51.6966 97.4457 51.6959 96.9677 51.6951C96.4809 51.6904 95.9942 51.6857 95.4927 51.6809C95.0044 51.6806 94.5162 51.6804 94.0131 51.6801C90.382 51.6627 90.382 51.6627 89.9438 51.2245C89.907 50.6215 89.897 50.0169 89.8976 49.4128C89.8968 48.825 89.8968 48.825 89.896 48.2254C89.8974 47.7919 89.8988 47.3585 89.9002 46.9119C89.9001 46.4582 89.9001 46.0046 89.9 45.5372C89.9002 44.2897 89.9022 43.0423 89.9048 41.7949C89.9072 40.4925 89.9075 39.1901 89.9079 37.8878C89.9091 35.42 89.9123 32.9522 89.9161 30.4845C89.9204 27.6757 89.9225 24.8668 89.9245 22.058C89.9285 16.2787 89.9353 10.4993 89.9438 4.7199Z" fill="#6ABD45"/>
<path d="M70.4146 70.3211C70.7714 70.6144 71.1281 70.9077 71.4956 71.2099C71.7953 71.4556 72.0951 71.7013 72.4039 71.9545C76.1247 75.1296 79.1633 79.2359 79.5666 84.2773C79.826 87.7657 79.2638 90.6207 78.0293 93.8856C77.8695 94.3129 77.8695 94.3129 77.7065 94.7489C76.0443 98.5559 72.8562 101.321 69.1896 103.11C68.8884 103.268 68.5871 103.427 68.2768 103.59C64.1415 105.451 58.7201 105.354 54.4888 103.83C52.5096 102.928 50.8224 101.868 49.2041 100.419C48.9485 100.208 48.6929 99.9962 48.4295 99.7783C45.5069 97.1625 43.2853 93.1965 42.9967 89.2476C42.7806 85.0528 42.8071 81.4681 44.9765 77.7436C45.2336 77.2791 45.2336 77.2791 45.4959 76.8052C46.8534 74.5643 48.63 72.7597 50.7415 71.2099C50.9951 71.2099 51.2488 71.2099 51.5102 71.2099C51.5102 70.9562 51.5102 70.7025 51.5102 70.4412C52.2378 70.1267 52.9667 69.8149 53.6961 69.5044C54.3047 69.2435 54.3047 69.2435 54.9256 68.9774C59.9194 67.0664 65.7711 67.8627 70.4146 70.3211ZM48.8318 76.3158C45.8028 80.3652 44.8973 84.2426 45.3608 89.2736C45.6115 90.5089 45.9914 91.5884 46.5138 92.7326C46.6676 93.1206 46.6676 93.1206 46.8246 93.5163C48.6283 97.6688 52.4805 100.202 56.541 101.91C60.4682 103.097 64.7684 102.535 68.4209 100.804C72.8248 98.2721 75.2276 94.909 76.7036 90.1249C77.6565 85.427 76.6731 81.1853 74.0658 77.2391C71.6061 73.9525 68.3284 71.5631 64.1932 70.8255C58.1143 70.3747 52.9898 71.4896 48.8318 76.3158Z" fill="#F7E576"/>
<path d="M63.4247 79.6653C65.5808 79.6653 67.737 79.6653 69.9584 79.6653C69.9584 81.853 69.8602 83.7083 69.454 85.8146C69.4028 86.0918 69.3516 86.369 69.2989 86.6545C69.137 87.5281 68.9713 88.4009 68.8054 89.2737C68.6941 89.8706 68.583 90.4677 68.4721 91.0647C68.2022 92.5182 67.9272 93.9705 67.6524 95.423C65.3695 95.423 63.0865 95.423 60.7344 95.423C61.2704 91.8485 61.869 88.2904 62.5119 84.7337C62.6001 84.243 62.6883 83.7523 62.7792 83.2467C62.9938 82.0528 63.2092 80.859 63.4247 79.6653Z" fill="#FCFDF9"/>
<path d="M69.4328 72.9513C71.7678 74.4446 71.7678 74.4446 72.2643 75.4375C71.3011 75.054 70.3396 74.6676 69.3818 74.271C69.0647 74.1407 68.7476 74.0104 68.4209 73.8762C68.1038 73.7449 67.7868 73.6136 67.4601 73.4783C63.3767 72.0045 59.2866 72.6449 55.3535 74.2845C51.5883 76.3699 48.8888 79.8031 47.6668 83.8929C47.3431 85.0024 47.3431 85.0024 47.2825 86.1989C47.2537 86.5254 47.225 86.8519 47.1954 87.1883C47.0527 90.0618 47.661 92.1788 48.8213 94.8014C48.9477 95.1333 49.074 95.4653 49.2042 95.8073C49.0139 96.1878 49.0139 96.1878 48.8198 96.576C47.2654 94.6014 46.4352 92.8324 45.7451 90.4266C45.5549 89.8559 45.5549 89.8559 45.3608 89.2736C44.9865 84.266 45.785 80.389 48.8318 76.3158C54.1197 70.1781 62.509 68.9245 69.4328 72.9513Z" fill="#E3B925"/>
<path d="M54.585 79.6653C56.868 79.6653 59.1509 79.6653 61.5031 79.6653C61.5031 80.2994 61.5031 80.9336 61.5031 81.587C60.7421 81.8406 59.9811 82.0943 59.197 82.3556C59.1682 82.574 59.1393 82.7923 59.1095 83.0172C58.5496 87.2043 57.9615 91.3308 56.891 95.423C56.0032 95.423 55.1154 95.423 54.2007 95.423C54.7837 91.0167 55.3802 86.6617 56.5067 82.3556C55.8725 82.3556 55.2384 82.3556 54.585 82.3556C54.585 81.4678 54.585 80.58 54.585 79.6653Z" fill="#FDFCF5"/>
<path d="M76.8763 83.5085C78.0906 85.33 77.8411 87.1411 77.645 89.2736C76.9989 92.4672 75.933 94.8971 73.8016 97.3446C73.4687 97.844 73.4687 97.844 73.129 98.3535C70.9989 100.602 67.5763 102.499 64.4519 102.816C63.5301 102.838 62.6166 102.827 61.6951 102.797C61.379 102.792 61.0629 102.787 60.7372 102.782C59.9675 102.768 59.1978 102.748 58.4282 102.725C58.4282 102.598 58.4282 102.472 58.4282 102.341C58.7631 102.331 59.098 102.321 59.4431 102.311C64.5921 102.066 68.8137 100.95 72.6486 97.3446C76.1003 93.1231 76.6723 88.7856 76.8763 83.5085Z" fill="#F9EE92"/>
<path d="M65.7308 81.9712C66.2381 81.9712 66.7454 81.9712 67.2681 81.9712C66.7938 89.8378 66.7938 89.8378 65.3464 92.7326C64.8391 92.7326 64.3318 92.7326 63.8091 92.7326C63.982 91.443 64.1594 90.1541 64.3375 88.8652C64.3861 88.5028 64.4346 88.1404 64.4847 87.767C64.7627 85.7723 65.1185 83.8906 65.7308 81.9712Z" fill="#F6D249"/>
<path d="M64.9155 78.8093C65.2014 78.8134 65.4872 78.8174 65.7816 78.8215C66.2461 78.8252 66.2461 78.8252 66.7199 78.829C67.2052 78.8387 67.2052 78.8387 67.7003 78.8485C68.19 78.8537 68.19 78.8537 68.6897 78.8591C69.4969 78.8681 70.3041 78.8819 71.1113 78.8966C70.7903 80.8319 70.4689 82.7672 70.1471 84.7024C70.0378 85.3604 69.9286 86.0183 69.8195 86.6763C69.6624 87.6237 69.5048 88.571 69.3472 89.5184C69.2988 89.8111 69.2503 90.1038 69.2004 90.4054C68.9635 91.8269 68.7148 93.2434 68.4209 94.6543C68.1673 94.6543 67.9136 94.6543 67.6522 94.6543C68.4209 89.658 69.1896 84.6616 69.9583 79.6653C67.8021 79.6653 65.646 79.6653 63.4246 79.6653C64.1932 78.8966 64.1932 78.8966 64.9155 78.8093Z" fill="#8EC65F"/>
<path d="M65.3464 82.3557C65.6001 82.3557 65.8537 82.3557 66.1151 82.3557C66.202 84.7242 65.9004 86.7832 65.3464 89.0816C65.2731 89.3977 65.1998 89.7138 65.1242 90.0394C64.9451 90.8098 64.7618 91.5792 64.5778 92.3484C64.8314 92.4753 65.0851 92.6021 65.3464 92.7328C64.8391 92.7328 64.3318 92.7328 63.8091 92.7328C63.9928 91.4356 64.1771 90.1385 64.3616 88.8414C64.4392 88.2929 64.4392 88.2929 64.5185 87.7334C64.7742 85.937 65.0364 84.1438 65.3464 82.3557Z" fill="#8FC253"/>
<path d="M57.2422 78.8215C57.8458 78.8266 58.4493 78.8358 59.0528 78.8486C59.361 78.852 59.6691 78.8555 59.9866 78.8591C60.7483 78.8681 61.51 78.8819 62.2716 78.8966C62.1448 79.7844 62.0179 80.6722 61.8873 81.5869C61.7604 81.5869 61.6336 81.5869 61.5029 81.5869C61.5029 80.9528 61.5029 80.3186 61.5029 79.6653C59.3468 79.6653 57.1907 79.6653 54.9692 79.6653C55.7379 78.8966 55.7379 78.8966 57.2422 78.8215Z" fill="#8ECB6B"/>
<path d="M65.3463 86.9675C65.6 86.9675 65.8536 86.9675 66.115 86.9675C65.9881 88.6163 65.8613 90.2651 65.7306 91.9639C65.3502 92.0907 64.9697 92.2175 64.5776 92.3482C64.948 88.7316 64.948 88.7316 65.3463 86.9675Z" fill="#EFCB2F"/>
</svg>
