<svg width="69" height="67" viewBox="0 0 69 67" fill="none" xmlns="http://www.w3.org/2000/svg">
<path d="M5.25341 59.1648V64.4398C5.25341 65.2566 5.02385 65.8854 4.56305 66.3262C4.10392 66.7671 3.48342 66.9883 2.70323 66.9883C1.88644 66.9883 1.23267 66.7571 0.738605 66.293C0.246202 65.8288 0 65.1717 0 64.3183H1.87646C1.87646 64.6427 1.943 64.8873 2.07442 65.052C2.2075 65.2167 2.39881 65.2998 2.64833 65.2998C2.87624 65.2998 3.05257 65.2266 3.17733 65.0786C3.3021 64.9322 3.36531 64.7176 3.36531 64.4381V59.1631H5.25341V59.1648Z" fill="#4EA847"/>
<path d="M7.95177 66.6124C7.46935 66.3545 7.09173 65.9869 6.81558 65.5095C6.53944 65.032 6.40137 64.4714 6.40137 63.8326C6.40137 63.2005 6.5411 62.6432 6.82057 62.1608C7.10005 61.6784 7.48266 61.3091 7.96841 61.0512C8.45416 60.7934 8.99813 60.6653 9.60199 60.6653C10.2058 60.6653 10.7498 60.7934 11.2356 61.0512C11.7213 61.3091 12.1039 61.6784 12.3834 62.1608C12.6629 62.6432 12.8026 63.2005 12.8026 63.8326C12.8026 64.4648 12.6612 65.022 12.3784 65.5045C12.0956 65.9869 11.7097 66.3562 11.2206 66.614C10.7315 66.8719 10.1859 67 9.58203 67C8.9765 67 8.4342 66.8702 7.95177 66.6124ZM10.5003 64.9688C10.7548 64.7043 10.8812 64.325 10.8812 63.8326C10.8812 63.3402 10.7581 62.9609 10.5119 62.6964C10.2657 62.4319 9.96131 62.2989 9.60199 62.2989C9.23435 62.2989 8.92826 62.4303 8.68539 62.6898C8.44251 62.951 8.32108 63.3319 8.32108 63.8326C8.32108 64.325 8.44085 64.7043 8.6804 64.9688C8.91995 65.2333 9.21938 65.3664 9.58036 65.3664C9.93968 65.3664 10.2474 65.2333 10.5003 64.9688Z" fill="#4EA847"/>
<path d="M13.9438 59.8218C13.7342 59.6272 13.6294 59.386 13.6294 59.0982C13.6294 58.8037 13.7342 58.5592 13.9438 58.3646C14.1534 58.1699 14.4246 58.0718 14.7556 58.0718C15.08 58.0718 15.3461 58.1699 15.5558 58.3646C15.7654 58.5592 15.8702 58.8037 15.8702 59.0982C15.8702 59.386 15.7654 59.6255 15.5558 59.8218C15.3461 60.0164 15.08 60.1146 14.7556 60.1146C14.4229 60.1146 14.1534 60.0164 13.9438 59.8218ZM15.6922 60.7534V66.9101H13.8057V60.7534H15.6922Z" fill="#4EA847"/>
<path d="M22.5393 61.3888C22.9702 61.8563 23.1848 62.4984 23.1848 63.3152V66.9117H21.3083V63.568C21.3083 63.1555 21.2018 62.8361 20.9889 62.6082C20.776 62.3803 20.4882 62.2655 20.1289 62.2655C19.7679 62.2655 19.4818 62.3803 19.2688 62.6082C19.0559 62.8361 18.9494 63.1572 18.9494 63.568V66.9117H17.063V60.755H18.9494V61.5718C19.1407 61.299 19.3986 61.0844 19.7213 60.9264C20.0457 60.7683 20.4083 60.6885 20.8142 60.6885C21.5329 60.6868 22.1085 60.9214 22.5393 61.3888Z" fill="#4EA847"/>
<path d="M32.409 59.1648V60.6769H30.3562V66.9118H28.4698V60.6769H26.417V59.1648H32.409Z" fill="#4EA847"/>
<path d="M34.5333 66.6124C34.0509 66.3545 33.6733 65.9869 33.3971 65.5095C33.121 65.032 32.9829 64.4714 32.9829 63.8326C32.9829 63.2005 33.1226 62.6432 33.4021 62.1608C33.6816 61.6784 34.0642 61.3091 34.5499 61.0512C35.0357 60.7934 35.5797 60.6653 36.1835 60.6653C36.7857 60.6653 37.3314 60.7934 37.8171 61.0512C38.3029 61.3091 38.6855 61.6784 38.9649 62.1608C39.2444 62.6432 39.3842 63.2005 39.3842 63.8326C39.3842 64.4648 39.2428 65.022 38.96 65.5045C38.6772 65.9869 38.2912 66.3562 37.8021 66.614C37.3131 66.8719 36.7674 67 36.1636 67C35.5564 67 35.0141 66.8702 34.5333 66.6124ZM37.0818 64.9688C37.3364 64.7043 37.4628 64.325 37.4628 63.8326C37.4628 63.3402 37.3397 62.9609 37.0935 62.6964C36.8473 62.4319 36.5429 62.2989 36.1835 62.2989C35.8159 62.2989 35.5098 62.4303 35.2669 62.6898C35.0241 62.951 34.9026 63.3319 34.9026 63.8326C34.9026 64.325 35.0224 64.7043 35.2619 64.9688C35.5015 65.2333 35.8009 65.3664 36.1619 65.3664C36.5212 65.3664 36.8273 65.2333 37.0818 64.9688Z" fill="#4EA847"/>
<path d="M42.9025 60.9797C43.2335 60.3809 43.6943 59.9134 44.2865 59.579C44.8788 59.2447 45.5492 59.0767 46.3011 59.0767C47.221 59.0767 48.0078 59.3195 48.6616 59.8053C49.317 60.291 49.7545 60.9531 49.9741 61.7915H47.8997C47.745 61.4671 47.5271 61.2209 47.2426 61.0529C46.9598 60.8832 46.6371 60.7984 46.2778 60.7984C45.6972 60.7984 45.2264 61.0014 44.8654 61.4056C44.5045 61.8098 44.3248 62.3505 44.3248 63.0275C44.3248 63.7046 44.5045 64.2452 44.8654 64.6495C45.2264 65.0537 45.6972 65.2567 46.2778 65.2567C46.6388 65.2567 46.9598 65.1718 47.2426 65.0021C47.5254 64.8325 47.745 64.5863 47.8997 64.2635H49.9741C49.7529 65.102 49.3154 65.7624 48.6616 66.2448C48.0062 66.7272 47.2193 66.9668 46.3011 66.9668C45.5508 66.9668 44.8788 66.7987 44.2865 66.4644C43.6943 66.13 43.2335 65.6642 42.9025 65.0687C42.5714 64.4731 42.4068 63.7928 42.4068 63.0275C42.4051 62.2623 42.5714 61.5803 42.9025 60.9797Z" fill="#4EA847"/>
<path d="M52.3077 66.6124C51.8253 66.3545 51.4477 65.9869 51.1715 65.5095C50.8954 65.032 50.7573 64.4714 50.7573 63.8326C50.7573 63.2005 50.8971 62.6432 51.1765 62.1608C51.456 61.6784 51.8386 61.3091 52.3244 61.0512C52.8101 60.7934 53.3541 60.6653 53.9579 60.6653C54.5601 60.6653 55.1058 60.7934 55.5915 61.0512C56.0773 61.3091 56.4599 61.6784 56.7394 62.1608C57.0188 62.6432 57.1586 63.2005 57.1586 63.8326C57.1586 64.4648 57.0172 65.022 56.7344 65.5045C56.4516 65.9869 56.0656 66.3562 55.5766 66.614C55.0875 66.8719 54.5418 67 53.938 67C53.3325 67 52.7902 66.8702 52.3077 66.6124ZM54.8563 64.9688C55.1108 64.7043 55.2372 64.325 55.2372 63.8326C55.2372 63.3402 55.1141 62.9609 54.8679 62.6964C54.6217 62.4319 54.3173 62.2989 53.9579 62.2989C53.5903 62.2989 53.2842 62.4303 53.0414 62.6898C52.7985 62.951 52.677 63.3319 52.677 63.8326C52.677 64.325 52.7968 64.7043 53.0364 64.9688C53.2759 65.2333 53.5753 65.3664 53.9363 65.3664C54.2956 65.3664 54.6034 65.2333 54.8563 64.9688Z" fill="#4EA847"/>
<path d="M58.2998 59.8218C58.0902 59.6272 57.9854 59.386 57.9854 59.0982C57.9854 58.8037 58.0902 58.5592 58.2998 58.3646C58.5094 58.1699 58.7789 58.0718 59.1099 58.0718C59.4343 58.0718 59.7004 58.1699 59.9101 58.3646C60.1197 58.5592 60.2245 58.8037 60.2245 59.0982C60.2245 59.386 60.1197 59.6255 59.9101 59.8218C59.7004 60.0164 59.4343 60.1146 59.1099 60.1146C58.7789 60.1146 58.5094 60.0164 58.2998 59.8218ZM60.0481 60.7534V66.9101H58.1617V60.7534H60.0481Z" fill="#4EA847"/>
<path d="M66.8953 61.3888C67.3261 61.8563 67.5407 62.4984 67.5407 63.3152V66.9117H65.6643V63.568C65.6643 63.1555 65.5578 62.8361 65.3449 62.6082C65.1319 62.3803 64.8441 62.2655 64.4848 62.2655C64.1238 62.2655 63.8377 62.3803 63.6248 62.6082C63.4118 62.8361 63.3054 63.1572 63.3054 63.568V66.9117H61.4189V60.755H63.3054V61.5718C63.4967 61.299 63.7545 61.0844 64.0773 60.9264C64.4 60.7683 64.7643 60.6885 65.1702 60.6885C65.8888 60.6868 66.4644 60.9214 66.8953 61.3888Z" fill="#4EA847"/>
<path fill-rule="evenodd" clip-rule="evenodd" d="M65.2484 4.77593L49.3867 9.02624H62.0761H67.7587H67.7703H68.3875L67.614 6.14169C67.3395 5.11529 66.2748 4.50145 65.2484 4.77593Z" fill="#4EA847"/>
<path fill-rule="evenodd" clip-rule="evenodd" d="M60.4876 0.25772L46.2661 8.46888L58.5246 5.18509L64.0126 3.71452L64.0226 3.7112L64.6198 3.5515L63.1276 0.966383C62.5953 0.0447903 61.4092 -0.274608 60.4876 0.25772Z" fill="#4EA847"/>
<path fill-rule="evenodd" clip-rule="evenodd" d="M47.8664 11.1638C36.0271 12.5462 33.5118 28.7007 44.5959 33.3752C44.1035 32.5435 43.8207 31.5753 43.8207 30.5422C43.8207 30.2345 43.8456 29.9334 43.8939 29.639C44.3364 26.9507 46.6786 24.9528 49.4101 24.9528H68.4974V23.1163V11.1023H49.4085L47.8664 11.1638ZM57.242 13.6591C54.8299 13.6591 52.8736 15.6154 52.8736 18.0276C52.8736 20.4397 54.8299 22.396 57.242 22.396C59.6541 22.396 61.6104 20.4397 61.6104 18.0276C61.6104 15.6154 59.6558 13.6591 57.242 13.6591ZM54.9064 19.4449L55.8264 18.9608C55.9644 19.2685 56.0692 19.4183 56.4169 19.5796C56.9326 19.8192 57.6479 19.8491 58.1636 19.5929C58.5329 19.4083 58.6477 18.8477 58.1353 18.6264C57.2487 18.2438 56.2472 18.515 55.4753 17.7797C54.9164 17.2474 54.8133 15.5689 56.8145 15.2711V14.6107H57.8525V15.2728C58.636 15.3975 59.0103 15.662 59.378 16.3191L58.4963 16.7899C58.3599 16.557 58.2784 16.4472 57.9956 16.3258C57.3435 16.0446 56.2006 16.1711 56.2073 16.8315C56.2106 17.1775 56.5866 17.2706 56.8677 17.3289C57.7677 17.5119 58.9554 17.4902 59.4345 18.4351C59.7273 19.0107 59.5876 19.8192 59.017 20.2617C58.6726 20.5295 58.2734 20.6726 57.8459 20.7225V21.4494H56.8145V20.7491C56.0526 20.6559 55.2874 20.3049 54.958 19.5647L54.9064 19.4449ZM47.4788 20.8106V15.2445C49.1556 15.3343 50.6012 14.1765 50.9323 12.5912H63.5551C63.8845 14.1765 65.3301 15.3343 67.0086 15.2445V20.8106C65.3317 20.7208 63.8861 21.8786 63.5551 23.4639H50.9323C50.6012 21.8786 49.1556 20.7208 47.4788 20.8106Z" fill="#4EA847"/>
<path fill-rule="evenodd" clip-rule="evenodd" d="M38.3076 15.9497C25.2606 24.2058 35.6759 41.0373 48.2288 41.0373H67.4974V38.1478H48.2338C40.9027 38.1478 34.9057 32.1491 34.9057 24.8196C34.9057 21.421 36.1949 18.3102 38.3076 15.9497ZM48.2288 42.6443C38.5588 42.6443 30.6238 34.8424 30.4075 25.2222C29.4809 27.4829 28.9702 29.9549 28.9702 32.54C28.9702 43.2332 37.7187 51.9817 48.4118 51.9817H67.4991V42.646H48.2288V42.6443Z" fill="#F5D60B"/>
<path fill-rule="evenodd" clip-rule="evenodd" d="M33.9043 0.209473V8.95628H25.8096V34.3783C25.8096 36.7887 25.4054 39.0478 24.5969 41.1555C23.7884 43.2648 22.6955 45.123 21.3197 46.7283C19.9423 48.3352 18.3138 49.6029 16.434 50.5311C14.5558 51.461 12.5446 51.9235 10.4037 51.9235H0.0449219V41.4582H10.4037C11.277 41.4582 12.0855 41.2686 12.8291 40.8926C13.5727 40.515 14.2281 40.001 14.7954 39.3489C15.3627 38.6968 15.8018 37.9432 16.1063 37.0898C16.4123 36.2364 16.567 35.3331 16.567 34.3783L16.4439 9.0012H8.28602L8.27771 0.209473H33.9043Z" fill="#4EA847"/>
</svg>
