<?xml version="1.0" encoding="UTF-8"?>
<svg version="1.1" xmlns="http://www.w3.org/2000/svg" width="1080" height="1080">
<path d="M0 0 C6.50564532 6.05879291 10.25913048 13.00549412 10.93638897 21.98882866 C10.9358442 23.13550074 10.93529943 24.28217281 10.93473816 25.46359253 C10.93715257 26.10878692 10.93956699 26.75398131 10.94205457 27.41872704 C10.94765156 29.56294847 10.93905726 31.70686656 10.93041992 33.85107422 C10.93149425 35.39819926 10.93343516 36.94532391 10.93617249 38.4924469 C10.94101692 42.69564137 10.93335647 46.89872943 10.92321944 51.10191107 C10.91436571 55.55395204 10.91619824 60.00599035 10.9165802 64.45803833 C10.91564257 71.97855368 10.90696907 79.4990288 10.89331055 87.01953125 C10.87951736 94.63965658 10.87228913 102.25974483 10.87280273 109.87988281 C10.87658657 180.47363446 10.87658657 180.47363446 10.41121864 209.39358902 C10.38007551 211.37617948 10.35299787 213.35883948 10.33067894 215.34154892 C9.90668512 250.56786883 9.90668512 250.56786883 -1.09375 263.8359375 C-12.18745312 274.61137865 -29.50621837 275.06907251 -44.0625 275 C-45.28880127 274.99508545 -46.51510254 274.9901709 -47.77856445 274.98510742 C-61.90400755 274.80306649 -74.86050291 273.79486119 -86.0625 264.375 C-100.49145525 247.14041456 -98.61974192 223.34014012 -98.46484375 202.10546875 C-98.45568261 199.8274922 -98.44731479 197.54951234 -98.43968201 195.27153015 C-98.41643633 189.28218213 -98.37943811 183.29300789 -98.33748627 177.30376434 C-98.31290643 173.74632198 -98.29095546 170.18887314 -98.26983643 166.63140869 C-98.184433 152.47579207 -98.07069604 138.32055122 -97.94018555 124.1652832 C-97.89599523 119.36875187 -97.85438159 114.5722095 -97.81518555 109.77563477 C-97.62743333 86.83417092 -97.43513716 63.89107873 -96.95664787 40.95348167 C-96.92103712 39.2088099 -96.88826973 37.46407727 -96.85864449 35.71929359 C-96.62397765 22.28968239 -96.01264219 10.65523666 -87 -0.0625 C-65.89983948 -17.72775067 -21.21846658 -17.28183085 0 0 Z M-64.3125 17.6875 C-68.54350322 23.03192512 -69.43865111 26.88444021 -69.43275452 33.55938721 C-69.43412918 34.75969574 -69.43550385 35.96000427 -69.43692017 37.19668579 C-69.43332489 38.51010956 -69.42972961 39.82353333 -69.42602539 41.17675781 C-69.42574326 42.57634479 -69.42590176 43.97593191 -69.4264679 45.3755188 C-69.42675487 49.17269446 -69.42087427 52.96983855 -69.41389394 56.76700687 C-69.40764378 60.73616946 -69.40705528 64.70533276 -69.40586853 68.67449951 C-69.40276013 76.18964154 -69.39455333 83.70476903 -69.38451904 91.21990466 C-69.37334269 99.77605995 -69.36784361 108.33221594 -69.36282361 116.88837671 C-69.35237033 134.48809272 -69.33478036 152.08779519 -69.3125 169.6875 C-68.3999646 169.38332153 -68.3999646 169.38332153 -67.46899414 169.07299805 C-49.37760237 163.04253412 -36.09039799 163.5584342 -18.3125 170.6875 C-18.21903961 151.75513352 -18.14851245 132.82281388 -18.10525131 113.89026451 C-18.08463009 105.09945334 -18.05651795 96.30878555 -18.01074219 87.51806641 C-17.97086089 79.85565743 -17.94506398 72.1933523 -17.93614602 64.53084242 C-17.93093343 60.47392587 -17.91869135 56.41730638 -17.88957977 52.36048508 C-17.86239007 48.54046523 -17.85406206 44.72086426 -17.86006927 40.90075684 C-17.85897061 39.50032905 -17.85103751 38.09988698 -17.8356781 36.699543 C-17.51788086 26.82431082 -17.51788086 26.82431082 -22.3125 18.6875 C-29.02281415 12.77603277 -34.29380067 13.44039459 -43 13.375 C-44.26779297 13.34599609 -45.53558594 13.31699219 -46.84179688 13.28710938 C-53.86043888 13.23936351 -58.70406387 13.27234816 -64.3125 17.6875 Z " fill="#6ABD45" transform="translate(546.3125,408.3125)"/>
<path d="M0 0 C9.65342286 0.12985324 9.65342286 0.12985324 13.74926758 2.77416992 C17.42361707 6.84112682 19.38502343 11.75106905 21.37475586 16.80200195 C23.03408692 20.69245022 25.36385889 24.04693334 27.74291992 27.52709961 C28.64757553 28.90755052 29.5485152 30.29044257 30.44604492 31.67553711 C30.91719727 32.39966797 31.38834961 33.12379883 31.8737793 33.86987305 C35.56338701 39.5755713 39.19444539 45.31894831 42.8359375 51.05541992 C43.40465576 51.95099609 43.97337402 52.84657227 44.55932617 53.76928711 C45.06536377 54.56705566 45.57140137 55.36482422 46.09277344 56.18676758 C48.42613856 60.20208729 48.42613856 60.20208729 52.43041992 62.27709961 C52.76041992 42.14709961 53.09041992 22.01709961 53.43041992 1.27709961 C63.00041992 1.27709961 72.57041992 1.27709961 82.43041992 1.27709961 C84.04896176 2.89564145 83.55984231 4.66396946 83.56413269 6.90159607 C83.57053017 8.40124908 83.57053017 8.40124908 83.57705688 9.93119812 C83.57637711 11.5901989 83.57637711 11.5901989 83.57568359 13.28271484 C83.57904221 14.44032318 83.58240082 15.59793152 83.58586121 16.7906189 C83.59540447 20.6389878 83.59731599 24.48731335 83.59838867 28.33569336 C83.60078827 30.32538538 83.60318934 32.31507741 83.60584909 34.3047691 C83.61400104 40.56483628 83.61643265 46.82488906 83.61572266 53.08496094 C83.6151217 59.55094465 83.62567539 66.01684497 83.64146632 72.48280758 C83.65452505 78.02676616 83.65990726 83.57069744 83.65926725 89.11467129 C83.65901176 92.42911174 83.66280237 95.74346116 83.6724453 99.05788994 C83.68218824 102.75269462 83.67938975 106.44728204 83.67333984 110.14208984 C83.67895935 111.24606613 83.68457886 112.35004242 83.69036865 113.48747253 C83.68617416 114.49006104 83.68197968 115.49264954 83.67765808 116.52561951 C83.67820285 117.40002402 83.67874762 118.27442854 83.67930889 119.17533016 C83.43041992 121.27709961 83.43041992 121.27709961 81.43041992 123.27709961 C76.89288874 123.92867639 72.3212494 123.92622505 67.74291992 124.02709961 C66.47512695 124.10186523 65.20733398 124.17663086 63.90112305 124.25366211 C54.7622664 124.42582267 54.7622664 124.42582267 51.20556641 121.3581543 C49.36259551 118.75288337 47.89257918 116.1120626 46.43041992 113.27709961 C45.36121214 111.59531641 44.27657598 109.92323961 43.17651367 108.26147461 C42.07135925 106.51813243 40.96856984 104.77328918 39.86791992 103.02709961 C38.65051616 101.10519664 37.43306683 99.18332253 36.21557617 97.26147461 C35.59569824 96.28114258 34.97582031 95.30081055 34.3371582 94.29077148 C31.16767217 89.2812791 27.98665685 84.27913453 24.80541992 79.27709961 C24.22590576 78.36412109 23.6463916 77.45114258 23.04931641 76.51049805 C21.98196714 74.8312815 20.91103767 73.15433251 19.83569336 71.48022461 C18.95840859 70.10485669 18.09461742 68.72067459 17.25170898 67.32397461 C16.15617102 65.49198807 16.15617102 65.49198807 14.43041992 63.27709961 C13.44041992 63.27709961 12.45041992 63.27709961 11.43041992 63.27709961 C11.41495872 64.38250343 11.41495872 64.38250343 11.39918518 65.51023865 C11.30137349 72.44131037 11.19888276 79.37229863 11.09108067 86.3032217 C11.03581965 89.86682929 10.98239474 93.43044504 10.93310547 96.99414062 C10.8764146 101.08725206 10.81184675 105.18020571 10.74682617 109.27319336 C10.72175743 111.2012809 10.72175743 111.2012809 10.69618225 113.1683197 C10.67623703 114.34946854 10.65629181 115.53061737 10.63574219 116.74755859 C10.62019791 117.79346664 10.60465363 118.83937469 10.58863831 119.91697693 C10.43041992 122.27709961 10.43041992 122.27709961 9.43041992 123.27709961 C7.36986682 123.37703493 5.30589402 123.40790867 3.24291992 123.40991211 C1.98737305 123.41120117 0.73182617 123.41249023 -0.56176758 123.41381836 C-1.21886719 123.41172363 -1.8759668 123.40962891 -2.55297852 123.4074707 C-4.56119342 123.40212195 -6.56918467 123.40741652 -8.57739258 123.41381836 C-9.83293945 123.4125293 -11.08848633 123.41124023 -12.38208008 123.40991211 C-13.54352539 123.40878418 -14.7049707 123.40765625 -15.90161133 123.40649414 C-18.56958008 123.27709961 -18.56958008 123.27709961 -19.56958008 122.27709961 C-19.66762872 120.72321798 -19.6958987 119.16488197 -19.69656372 117.60791016 C-19.69938354 116.59828217 -19.70220337 115.58865417 -19.70510864 114.5484314 C-19.70308441 113.43150909 -19.70106018 112.31458679 -19.69897461 111.16381836 C-19.70072693 109.99485016 -19.70247925 108.82588196 -19.70428467 107.62149048 C-19.70794272 104.40669521 -19.70706983 101.19194083 -19.70390558 97.97714615 C-19.7013815 94.61969158 -19.70371966 91.26223983 -19.70529175 87.90478516 C-19.7071133 82.2655386 -19.70470751 76.62630512 -19.69995117 70.98706055 C-19.69450858 64.45859701 -19.69627124 57.9301647 -19.70177758 51.40170193 C-19.70630911 45.80595602 -19.70695906 40.21021954 -19.70433891 34.61447239 C-19.70277636 31.26823477 -19.70258177 27.92201184 -19.7058754 24.57577515 C-19.70840022 20.84728856 -19.70456372 17.11886288 -19.69897461 13.39038086 C-19.70099884 12.27345856 -19.70302307 11.15653625 -19.70510864 10.00576782 C-19.70228882 8.99613983 -19.69946899 7.98651184 -19.69656372 6.94628906 C-19.6961867 6.06358841 -19.69580967 5.18088776 -19.69542122 4.2714386 C-19.31861138 -1.70026952 -5.00046832 0.06308658 0 0 Z " fill="#6ABD45" transform="translate(649.569580078125,557.722900390625)"/>
<path d="M0 0 C9.65342286 0.12985324 9.65342286 0.12985324 13.74926758 2.77416992 C17.42361707 6.84112682 19.38502343 11.75106905 21.37475586 16.80200195 C23.03408692 20.69245022 25.36385889 24.04693334 27.74291992 27.52709961 C28.64757553 28.90755052 29.5485152 30.29044257 30.44604492 31.67553711 C30.91719727 32.39966797 31.38834961 33.12379883 31.8737793 33.86987305 C35.56338701 39.5755713 39.19444539 45.31894831 42.8359375 51.05541992 C43.40465576 51.95099609 43.97337402 52.84657227 44.55932617 53.76928711 C45.06536377 54.56705566 45.57140137 55.36482422 46.09277344 56.18676758 C47.18641407 57.89579315 48.30493633 59.58887423 49.43041992 61.27709961 C50.42041992 60.94709961 51.41041992 60.61709961 52.43041992 60.27709961 C52.76041992 40.80709961 53.09041992 21.33709961 53.43041992 1.27709961 C63.00041992 1.27709961 72.57041992 1.27709961 82.43041992 1.27709961 C84.04896176 2.89564145 83.55984231 4.66396946 83.56413269 6.90159607 C83.57053017 8.40124908 83.57053017 8.40124908 83.57705688 9.93119812 C83.57637711 11.5901989 83.57637711 11.5901989 83.57568359 13.28271484 C83.57904221 14.44032318 83.58240082 15.59793152 83.58586121 16.7906189 C83.59540447 20.6389878 83.59731599 24.48731335 83.59838867 28.33569336 C83.60078827 30.32538538 83.60318934 32.31507741 83.60584909 34.3047691 C83.61400104 40.56483628 83.61643265 46.82488906 83.61572266 53.08496094 C83.6151217 59.55094465 83.62567539 66.01684497 83.64146632 72.48280758 C83.65452505 78.02676616 83.65990726 83.57069744 83.65926725 89.11467129 C83.65901176 92.42911174 83.66280237 95.74346116 83.6724453 99.05788994 C83.68218824 102.75269462 83.67938975 106.44728204 83.67333984 110.14208984 C83.67895935 111.24606613 83.68457886 112.35004242 83.69036865 113.48747253 C83.68617416 114.49006104 83.68197968 115.49264954 83.67765808 116.52561951 C83.67820285 117.40002402 83.67874762 118.27442854 83.67930889 119.17533016 C83.43041992 121.27709961 83.43041992 121.27709961 81.43041992 123.27709961 C76.89288874 123.92867639 72.3212494 123.92622505 67.74291992 124.02709961 C66.47512695 124.10186523 65.20733398 124.17663086 63.90112305 124.25366211 C54.74565005 124.4261357 54.74565005 124.4261357 51.16601562 121.29882812 C49.33616672 118.70939105 47.86973047 116.10013912 46.43041992 113.27709961 C45.52962764 111.84982915 44.61499398 110.43116535 43.68432617 109.02319336 C42.78494749 107.58839916 41.88789115 106.15214714 40.99291992 104.71459961 C39.96369696 103.07351972 38.93370537 101.43292172 37.90307617 99.79272461 C37.07767334 98.47884766 37.07767334 98.47884766 36.2355957 97.13842773 C32.82462025 91.73179637 29.37683855 86.34867224 25.93041992 80.96459961 C25.24794189 79.89717529 24.56546387 78.82975098 23.86230469 77.72998047 C22.59723002 75.75409777 21.32854098 73.78052223 20.05541992 71.80981445 C19.08008567 70.28966458 18.11735507 68.76115405 17.18041992 67.21704102 C16.09744327 65.40371683 16.09744327 65.40371683 14.43041992 63.27709961 C13.44041992 63.27709961 12.45041992 63.27709961 11.43041992 63.27709961 C11.41495872 64.38250343 11.41495872 64.38250343 11.39918518 65.51023865 C11.30137349 72.44131037 11.19888276 79.37229863 11.09108067 86.3032217 C11.03581965 89.86682929 10.98239474 93.43044504 10.93310547 96.99414062 C10.8764146 101.08725206 10.81184675 105.18020571 10.74682617 109.27319336 C10.72175743 111.2012809 10.72175743 111.2012809 10.69618225 113.1683197 C10.67623703 114.34946854 10.65629181 115.53061737 10.63574219 116.74755859 C10.62019791 117.79346664 10.60465363 118.83937469 10.58863831 119.91697693 C10.43041992 122.27709961 10.43041992 122.27709961 9.43041992 123.27709961 C7.45458164 123.37695603 5.47518514 123.40790755 3.49682617 123.40991211 C1.68794922 123.4118457 1.68794922 123.4118457 -0.1574707 123.41381836 C-1.4278418 123.40995117 -2.69821289 123.40608398 -4.00708008 123.40209961 C-5.27358398 123.4059668 -6.54008789 123.40983398 -7.8449707 123.41381836 C-9.05217773 123.4125293 -10.25938477 123.41124023 -11.50317383 123.40991211 C-12.61748779 123.40878418 -13.73180176 123.40765625 -14.87988281 123.40649414 C-17.56958008 123.27709961 -17.56958008 123.27709961 -19.56958008 122.27709961 C-19.59290946 106.648316 -19.61055945 91.01953708 -19.62139225 75.39074039 C-19.62655512 68.13451112 -19.63359766 60.87829265 -19.64501953 53.62207031 C-19.65496663 47.29976105 -19.66143357 40.9774596 -19.66366857 34.65514272 C-19.66497564 31.30553211 -19.6680612 27.95594387 -19.67531013 24.60634041 C-19.68251628 20.87296316 -19.6835712 17.13963303 -19.68310547 13.40625 C-19.68670074 12.28775665 -19.69029602 11.16926331 -19.69400024 10.01687622 C-19.69262558 9.00580307 -19.69125092 7.99472992 -19.68983459 6.95301819 C-19.69075639 6.06901872 -19.69167818 5.18501925 -19.69262791 4.27423191 C-19.32451123 -1.70049932 -5.00012105 0.0630822 0 0 Z " fill="#6ABD45" transform="translate(649.569580078125,405.722900390625)"/>
<path d="M0 0 C0.928125 0.763125 1.85625 1.52625 2.8125 2.3125 C3.59238281 2.951875 4.37226562 3.59125 5.17578125 4.25 C14.85704398 12.5113442 22.76313914 23.19548931 23.8125 36.3125 C24.48739776 45.38918619 23.02467199 52.81759219 19.8125 61.3125 C19.39677734 62.42431641 19.39677734 62.42431641 18.97265625 63.55859375 C14.64770664 73.46412349 6.35267998 80.65875367 -3.1875 85.3125 C-3.97125 85.725 -4.755 86.1375 -5.5625 86.5625 C-16.32208585 91.40431363 -30.42802134 91.1524521 -41.4375 87.1875 C-46.58710944 84.83959378 -50.97697913 82.08217574 -55.1875 78.3125 C-55.85265625 77.76207031 -56.5178125 77.21164062 -57.203125 76.64453125 C-64.80737763 69.83843491 -70.58766077 59.51934721 -71.33862305 49.24487305 C-71.90101892 38.33035195 -71.83182005 29.00340929 -66.1875 19.3125 C-65.51847656 18.10400391 -65.51847656 18.10400391 -64.8359375 16.87109375 C-61.30401034 11.04045422 -56.68146807 6.34507256 -51.1875 2.3125 C-50.5275 2.3125 -49.8675 2.3125 -49.1875 2.3125 C-49.1875 1.6525 -49.1875 0.9925 -49.1875 0.3125 C-47.29417466 -0.50582722 -45.39772267 -1.31692268 -43.5 -2.125 C-41.91638672 -2.80369141 -41.91638672 -2.80369141 -40.30078125 -3.49609375 C-27.30766157 -8.46836665 -12.08196364 -6.39633369 0 0 Z " fill="#F9CE26" transform="translate(526.1875,577.6875)"/>
<path d="M0 0 C1.42372925 0.00410889 1.42372925 0.00410889 2.8762207 0.00830078 C22.85757464 0.30088309 22.85757464 0.30088309 30.375 5.3125 C29.92848122 13.46734303 29.26349677 21.35514468 27.375 29.3125 C23.64354974 28.86472597 19.92912961 28.40234032 16.21875 27.80078125 C0.28713649 24.86264574 0.28713649 24.86264574 -14.625 29.3125 C-17.1773778 32.84673674 -18.0148121 35.39846896 -18.13671875 39.73046875 C-18.17265137 40.80417725 -18.20858398 41.87788574 -18.24560547 42.98413086 C-18.27871826 44.72448608 -18.27871826 44.72448608 -18.3125 46.5 C-18.34230957 47.70857666 -18.37211914 48.91715332 -18.40283203 50.16235352 C-18.46119052 52.79398779 -18.51254658 55.4247691 -18.55322266 58.05664062 C-18.59919859 60.99601841 -18.66314355 63.93430876 -18.73974609 66.87304688 C-18.83961445 70.74188891 -18.91144382 74.61036775 -18.96401978 78.48013306 C-18.98790708 79.98710001 -19.0198835 81.49396156 -19.06015015 83.00057983 C-19.1140054 85.12454968 -19.13515144 87.24653278 -19.1484375 89.37109375 C-19.16825684 90.59111084 -19.18807617 91.81112793 -19.20849609 93.06811523 C-18.45667699 97.24841818 -16.89380723 98.69150218 -13.625 101.3125 C-9.50145221 102.68701593 -5.6338202 102.54615703 -1.3125 102.5625 C-0.41909912 102.56644775 0.47430176 102.57039551 1.39477539 102.57446289 C8.10427529 102.51609848 14.04129582 101.64431463 20.52734375 99.87109375 C23.52396475 99.28327921 25.45725755 99.50112042 28.375 100.3125 C29.55896883 108.33600304 30.66045428 116.17705314 30.375 124.3125 C12.91835801 128.96904842 12.91835801 128.96904842 4.375 129.3125 C3.55386719 129.3640625 2.73273438 129.415625 1.88671875 129.46875 C-11.15935027 129.93261023 -25.32827226 127.41663101 -35.8125 119.3125 C-47.23870017 108.56914048 -49.10726551 91.21354584 -49.625 76.3125 C-50.96690153 26.73121173 -50.96690153 26.73121173 -36.87890625 11.4140625 C-26.86247304 1.86116644 -13.35519437 -0.07872134 0 0 Z " fill="#6ABD45" transform="translate(398.625,551.6875)"/>
<path d="M0 0 C1.09920273 0.00222061 2.19840546 0.00444122 3.33091736 0.00672913 C4.57212845 0.00680466 5.81333954 0.00688019 7.09216309 0.00695801 C8.45682311 0.01206541 9.82148274 0.01728142 11.18614197 0.02259827 C12.57476755 0.02446251 13.96339379 0.02588638 15.35202026 0.02688599 C19.01319686 0.03071065 22.67433402 0.04054048 26.335495 0.05158997 C30.06890835 0.06180519 33.80232805 0.06638384 37.53575134 0.07142639 C44.86584748 0.08216281 52.19591108 0.0992386 59.52598572 0.12025452 C59.59563682 12.85550896 59.64887371 25.59071774 59.68142223 38.32612419 C59.69704749 44.24031703 59.71822844 50.15437911 59.75230408 56.0684967 C59.78500941 61.78083194 59.80286234 67.49304174 59.81061745 73.20546341 C59.81614091 75.3798482 59.82692673 77.55422649 59.84317589 79.72855759 C59.86509854 82.78489015 59.86794644 85.84071088 59.86656189 88.89710999 C59.87734772 89.78688034 59.88813354 90.6766507 59.89924622 91.59338379 C59.85916786 99.82236629 58.23723481 108.06380105 53.02598572 114.65541077 C45.0253492 122.46853237 32.34341439 122.42757455 21.90098572 122.38587952 C20.83227234 122.38779297 19.76355896 122.38970642 18.66246033 122.39167786 C16.42376975 122.39302962 14.18507107 122.38940427 11.94639587 122.3809967 C8.50790622 122.37019774 5.06992899 122.38096961 1.63145447 122.39369202 C-0.54953627 122.3923719 -2.73052669 122.38981258 -4.91151428 122.38587952 C-5.94163635 122.38992798 -6.97175842 122.39397644 -8.03309631 122.39814758 C-9.45597961 122.3886911 -9.45597961 122.3886911 -10.90760803 122.37904358 C-11.7434845 122.37745239 -12.57936096 122.37586121 -13.44056702 122.3742218 C-15.47401428 122.12025452 -15.47401428 122.12025452 -17.47401428 120.12025452 C-18.10682678 117.17884827 -18.10682678 117.17884827 -18.59901428 113.55775452 C-18.85038147 111.79238342 -18.85038147 111.79238342 -19.10682678 109.99134827 C-19.38470982 107.0617516 -19.51275496 104.30829856 -19.4969635 101.37831116 C-19.49365021 100.57792923 -19.49033691 99.7775473 -19.48692322 98.95291138 C-19.48266327 98.34813461 -19.47840332 97.74335785 -19.47401428 97.12025452 C-18.19760071 97.11614563 -16.92118713 97.11203674 -15.60609436 97.10780334 C-10.86268434 97.08600373 -6.12010284 97.03170506 -1.37709045 96.96766663 C0.67426096 96.94449392 2.72573122 96.93009262 4.77720642 96.92469788 C7.72937522 96.91540308 10.67967658 96.87440087 13.63145447 96.82728577 C14.54622055 96.83121841 15.46098663 96.83515106 16.4034729 96.83920288 C20.48473194 96.74603937 22.99951101 96.41379722 26.60728455 94.40223694 C29.69026426 89.12872934 29.19844479 83.89789782 29.11973572 77.90150452 C29.119776 76.61087097 29.11981628 75.32023743 29.11985779 73.99049377 C29.11820755 71.26339085 29.09956706 68.53711296 29.06797791 65.81019592 C29.02829971 62.32309342 29.02393416 58.83707028 29.03144073 55.34978485 C29.0352568 52.01272772 29.01442091 48.67600836 28.99473572 45.33900452 C28.9945343 44.08994324 28.99433289 42.84088196 28.99412537 41.55397034 C28.9782135 40.38926208 28.96230164 39.22455383 28.94590759 38.02455139 C28.9374884 37.00260681 28.92906921 35.98066223 28.9203949 34.92774963 C28.46079844 31.6562365 27.47964004 29.76578851 25.52598572 27.12025452 C20.39898901 24.54886848 14.77832197 24.68791653 9.15098572 24.49525452 C8.22414978 24.45658264 7.29731384 24.41791077 6.34239197 24.37806702 C4.07044802 24.28437861 1.79849976 24.19866103 -0.47401428 24.12025452 C-1.00377083 20.30893816 -1.52132368 16.4960649 -2.03651428 12.68275452 C-2.18797913 11.59414124 -2.33944397 10.50552795 -2.49549866 9.38392639 C-2.63407288 8.34945374 -2.77264709 7.31498108 -2.91542053 6.24916077 C-3.04634094 5.29082336 -3.17726135 4.33248596 -3.31214905 3.34510803 C-3.36556458 2.61090637 -3.4189801 1.87670471 -3.47401428 1.12025452 C-2.47401428 0.12025452 -2.47401428 0.12025452 0 0 Z " fill="#6ABD45" transform="translate(362.47401428222656,406.87974548339844)"/>
<path d="M0 0 C4.1117256 -0.02465746 8.22342278 -0.04283959 12.33520508 -0.05493164 C13.73495228 -0.0599708 15.1346942 -0.06680216 16.53442383 -0.07543945 C18.54245777 -0.0875232 20.55052957 -0.09269807 22.55859375 -0.09765625 C24.37315063 -0.10551147 24.37315063 -0.10551147 26.22436523 -0.11352539 C29 0 29 0 30 1 C30.09801202 2.53896196 30.12631844 4.08241675 30.12698364 5.62449646 C30.12980347 6.62426514 30.13262329 7.62403381 30.13552856 8.65409851 C30.13350433 9.76009903 30.1314801 10.86609955 30.12939453 12.00561523 C30.13114685 13.16322357 30.13289917 14.32083191 30.13470459 15.51351929 C30.13912631 19.36189244 30.13618379 23.21022008 30.1328125 27.05859375 C30.13348549 29.72038328 30.13445379 32.3821714 30.13571167 35.04396057 C30.13753334 40.63193256 30.13512739 46.21989134 30.13037109 51.80786133 C30.12493113 58.27382098 30.1266892 64.73974909 30.1321975 71.20570797 C30.13673187 76.74966529 30.1373775 82.2936131 30.13475883 87.83757168 C30.1331975 91.15198407 30.13338924 94.46637833 30.13629532 97.78079033 C30.13882332 101.47554559 30.13497897 105.17023956 30.12939453 108.86499023 C30.13141876 109.96896652 30.13344299 111.07294281 30.13552856 112.21037292 C30.13129883 113.71425568 30.13129883 113.71425568 30.12698364 115.2485199 C30.12660662 116.12292441 30.12622959 116.99732893 30.12584114 117.89823055 C30 120 30 120 29 122 C25.03069011 122.02465881 21.06140966 122.04284023 17.09204102 122.05493164 C15.74079614 122.05997057 14.38955674 122.06680177 13.03833008 122.07543945 C11.09979566 122.08752419 9.161222 122.09269828 7.22265625 122.09765625 C5.47094116 122.10551147 5.47094116 122.10551147 3.68383789 122.11352539 C1 122 1 122 0 121 C-0.09591199 119.43112365 -0.12187996 117.85792208 -0.12025452 116.28611755 C-0.12231651 114.7568866 -0.12231651 114.7568866 -0.12442017 113.19676208 C-0.12082489 112.068918 -0.11722961 110.94107391 -0.11352539 109.77905273 C-0.11367142 108.59872467 -0.11381744 107.41839661 -0.1139679 106.20230103 C-0.11338895 102.95657892 -0.10835986 99.71089945 -0.10139394 96.46518588 C-0.09515962 93.07656968 -0.09455654 89.68795272 -0.09336853 86.29933167 C-0.09025544 79.87844196 -0.08204236 73.45756919 -0.07201904 67.03668696 C-0.0608572 59.72846175 -0.05534727 52.42023576 -0.05032361 45.11200416 C-0.03985973 30.07465998 -0.02226073 15.03733168 0 0 Z " fill="#6ABD45" transform="translate(577,559)"/>
<path d="M0 0 C4.1117256 -0.02465746 8.22342278 -0.04283959 12.33520508 -0.05493164 C13.73495228 -0.0599708 15.1346942 -0.06680216 16.53442383 -0.07543945 C18.54245777 -0.0875232 20.55052957 -0.09269807 22.55859375 -0.09765625 C24.37315063 -0.10551147 24.37315063 -0.10551147 26.22436523 -0.11352539 C29 0 29 0 30 1 C30.10018263 2.53888551 30.1307559 4.08235625 30.13371277 5.62449646 C30.13797775 6.62426514 30.14224274 7.62403381 30.14663696 8.65409851 C30.14618378 9.76009903 30.14573059 10.86609955 30.14526367 12.00561523 C30.14862228 13.16322357 30.1519809 14.32083191 30.15544128 15.51351929 C30.16498455 19.36188819 30.16689606 23.21021374 30.16796875 27.05859375 C30.17036834 29.04828577 30.17276942 31.0379778 30.17542917 33.02766949 C30.18358112 39.28773667 30.18601273 45.54778945 30.18530273 51.80786133 C30.18470177 58.27384504 30.19525547 64.73974537 30.2110464 71.20570797 C30.22410512 76.74966655 30.22948733 82.29359783 30.22884732 87.83757168 C30.22859184 91.15201213 30.23238245 94.46636155 30.24202538 97.78079033 C30.25176832 101.47559501 30.24896983 105.17018243 30.24291992 108.86499023 C30.24853943 109.96896652 30.25415894 111.07294281 30.25994873 112.21037292 C30.25575424 113.21296143 30.25155975 114.21554993 30.24723816 115.2485199 C30.24778293 116.12292441 30.24832769 116.99732893 30.24888897 117.89823055 C30 120 30 120 28 122 C25.31030273 122.24291992 25.31030273 122.24291992 21.93359375 122.23046875 C20.72638672 122.22853516 19.51917969 122.22660156 18.27539062 122.22460938 C17.00888672 122.21236328 15.74238281 122.20011719 14.4375 122.1875 C13.16712891 122.18685547 11.89675781 122.18621094 10.58789062 122.18554688 C1.14010053 122.14010053 1.14010053 122.14010053 0 121 C-0.09591199 119.43112365 -0.12187996 117.85792208 -0.12025452 116.28611755 C-0.12231651 114.7568866 -0.12231651 114.7568866 -0.12442017 113.19676208 C-0.12082489 112.068918 -0.11722961 110.94107391 -0.11352539 109.77905273 C-0.11367142 108.59872467 -0.11381744 107.41839661 -0.1139679 106.20230103 C-0.11338895 102.95657892 -0.10835986 99.71089945 -0.10139394 96.46518588 C-0.09515962 93.07656968 -0.09455654 89.68795272 -0.09336853 86.29933167 C-0.09025544 79.87844196 -0.08204236 73.45756919 -0.07201904 67.03668696 C-0.0608572 59.72846175 -0.05534727 52.42023576 -0.05032361 45.11200416 C-0.03985973 30.07465998 -0.02226073 15.03733168 0 0 Z " fill="#6ABD45" transform="translate(577,407)"/>
<path d="M0 0 C0.928125 0.763125 1.85625 1.52625 2.8125 2.3125 C3.59238281 2.951875 4.37226562 3.59125 5.17578125 4.25 C14.85704398 12.5113442 22.76313914 23.19548931 23.8125 36.3125 C24.48739776 45.38918619 23.02467199 52.81759219 19.8125 61.3125 C19.39677734 62.42431641 19.39677734 62.42431641 18.97265625 63.55859375 C14.64770664 73.46412349 6.35267998 80.65875367 -3.1875 85.3125 C-3.97125 85.725 -4.755 86.1375 -5.5625 86.5625 C-16.32208585 91.40431363 -30.42802134 91.1524521 -41.4375 87.1875 C-46.58710944 84.83959378 -50.97697913 82.08217574 -55.1875 78.3125 C-55.85265625 77.76207031 -56.5178125 77.21164062 -57.203125 76.64453125 C-64.80737763 69.83843491 -70.58766077 59.51934721 -71.33862305 49.24487305 C-71.90101892 38.33035195 -71.83182005 29.00340929 -66.1875 19.3125 C-65.51847656 18.10400391 -65.51847656 18.10400391 -64.8359375 16.87109375 C-61.30401034 11.04045422 -56.68146807 6.34507256 -51.1875 2.3125 C-50.5275 2.3125 -49.8675 2.3125 -49.1875 2.3125 C-49.1875 1.6525 -49.1875 0.9925 -49.1875 0.3125 C-47.29417466 -0.50582722 -45.39772267 -1.31692268 -43.5 -2.125 C-41.91638672 -2.80369141 -41.91638672 -2.80369141 -40.30078125 -3.49609375 C-27.30766157 -8.46836665 -12.08196364 -6.39633369 0 0 Z M-56.15625 15.59765625 C-64.03737518 26.13365199 -66.39336981 36.22227472 -65.1875 49.3125 C-64.53528751 52.52664069 -63.54661596 55.33538885 -62.1875 58.3125 C-61.78724609 59.32183594 -61.78724609 59.32183594 -61.37890625 60.3515625 C-56.68586956 71.15597585 -46.66272019 77.74815506 -36.09765625 82.19140625 C-25.87950739 85.28061404 -14.69107271 83.81620113 -5.1875 79.3125 C6.27105076 72.72573043 12.52273197 63.97508148 16.36328125 51.52734375 C18.84242893 39.30406781 16.28388392 28.26749998 9.5 18 C3.09996036 9.44857283 -5.42814386 3.2317365 -16.1875 1.3125 C-32.00432063 0.13964254 -45.33768487 3.04039315 -56.15625 15.59765625 Z " fill="#F7E576" transform="translate(526.1875,577.6875)"/>
<path d="M0 0 C5.61 0 11.22 0 17 0 C17 5.69232664 16.74439539 10.51958544 15.6875 16 C15.55432373 16.7211499 15.42114746 17.4422998 15.28393555 18.18530273 C14.86263137 20.45817335 14.43150531 22.72904646 14 25 C13.7102822 26.55326333 13.42121375 28.10664793 13.1328125 29.66015625 C12.43055974 33.44182774 11.71501546 37.22063258 11 41 C5.06 41 -0.88 41 -7 41 C-5.60524711 31.69947489 -4.04786466 22.44174839 -2.375 13.1875 C-2.14554687 11.91068359 -1.91609375 10.63386719 -1.6796875 9.31835938 C-1.12123716 6.21197937 -0.5608266 3.10595187 0 0 Z " fill="#FCFDF9" transform="translate(508,602)"/>
<path d="M0 0 C6.07542483 3.88522465 6.07542483 3.88522465 7.3671875 6.46875 C4.86118833 5.47082533 2.3594046 4.46552739 -0.1328125 3.43359375 C-0.9578125 3.09457031 -1.7828125 2.75554688 -2.6328125 2.40625 C-3.4578125 2.06464844 -4.2828125 1.72304688 -5.1328125 1.37109375 C-15.75726162 -2.46366835 -26.39946073 -0.79736158 -36.6328125 3.46875 C-46.42946346 8.89484119 -53.45331355 17.82753674 -56.6328125 28.46875 C-57.47521222 31.35570186 -57.47521222 31.35570186 -57.6328125 34.46875 C-57.70757812 35.31824219 -57.78234375 36.16773438 -57.859375 37.04296875 C-58.23076579 44.51965173 -56.64801956 50.0278755 -53.62890625 56.8515625 C-53.30019531 57.71523438 -52.97148437 58.57890625 -52.6328125 59.46875 C-53.1278125 60.45875 -53.1278125 60.45875 -53.6328125 61.46875 C-57.67722417 56.33125409 -59.83740183 51.72842505 -61.6328125 45.46875 C-62.1278125 43.98375 -62.1278125 43.98375 -62.6328125 42.46875 C-63.60680882 29.4395533 -61.52914291 19.35200633 -53.6015625 8.75390625 C-39.8431706 -7.21565578 -18.01491811 -10.47751914 0 0 Z " fill="#E3B925" transform="translate(523.6328125,584.53125)"/>
<path d="M0 0 C5.94 0 11.88 0 18 0 C18 1.65 18 3.3 18 5 C16.02 5.66 14.04 6.32 12 7 C11.92483154 7.56807373 11.84966309 8.13614746 11.7722168 8.72143555 C10.31531921 19.61568186 8.78532865 30.35253799 6 41 C3.69 41 1.38 41 -1 41 C0.51704173 29.53519698 2.06907041 18.20405001 5 7 C3.35 7 1.7 7 0 7 C0 4.69 0 2.38 0 0 Z " fill="#FDFCF5" transform="translate(485,602)"/>
<path d="M0 0 C3.15949418 4.73924127 2.51020372 9.45153453 2 15 C0.31898002 23.3095874 -2.45443289 29.63173887 -8 36 C-8.86625 37.299375 -8.86625 37.299375 -9.75 38.625 C-15.29235164 44.47526006 -24.19777168 49.41076825 -32.32714844 50.23632812 C-34.72549778 50.29312856 -37.10232396 50.26364769 -39.5 50.1875 C-40.32242187 50.17396484 -41.14484375 50.16042969 -41.9921875 50.14648438 C-43.99508221 50.11155016 -45.99763356 50.05776057 -48 50 C-48 49.67 -48 49.34 -48 49 C-47.12859375 48.97421875 -46.2571875 48.9484375 -45.359375 48.921875 C-31.96233067 48.28392051 -20.97818501 45.38106528 -11 36 C-2.01920035 25.01617008 -0.53090565 13.73031861 0 0 Z " fill="#F9EE92" transform="translate(543,612)"/>
<path d="M0 0 C1.32 0 2.64 0 4 0 C2.76595745 20.46808511 2.76595745 20.46808511 -1 28 C-2.32 28 -3.64 28 -5 28 C-4.54997651 24.64466456 -4.088474 21.29100181 -3.625 17.9375 C-3.49867188 16.99455078 -3.37234375 16.05160156 -3.2421875 15.08007812 C-2.51883702 9.89003845 -1.59315069 4.99418108 0 0 Z " fill="#F6D249" transform="translate(514,608)"/>
<path d="M0 0 C0.74362793 0.01047363 1.48725586 0.02094727 2.25341797 0.03173828 C3.46191406 0.04140625 3.46191406 0.04140625 4.69482422 0.05126953 C5.95746094 0.07640625 5.95746094 0.07640625 7.24560547 0.10205078 C8.51984375 0.11558594 8.51984375 0.11558594 9.81982422 0.12939453 C11.9202043 0.15299431 14.02043991 0.18886595 16.12060547 0.22705078 C15.28547225 5.26262581 14.44925993 10.29802002 13.61206055 15.33325195 C13.32758622 17.04511708 13.04340341 18.75703068 12.75952148 20.46899414 C12.35070767 22.93404836 11.94083526 25.3989246 11.53076172 27.86376953 C11.40468033 28.62541916 11.27859894 29.38706879 11.1486969 30.17179871 C10.53231497 33.87047811 9.88528312 37.55596347 9.12060547 41.22705078 C8.46060547 41.22705078 7.80060547 41.22705078 7.12060547 41.22705078 C9.12060547 28.22705078 11.12060547 15.22705078 13.12060547 2.22705078 C7.51060547 2.22705078 1.90060547 2.22705078 -3.87939453 2.22705078 C-1.87939453 0.22705078 -1.87939453 0.22705078 0 0 Z " fill="#8EC65F" transform="translate(511.87939453125,599.77294921875)"/>
<path d="M0 0 C0.66 0 1.32 0 2 0 C2.22615016 6.16259181 1.44149898 11.51972719 0 17.5 C-0.19078125 18.32242188 -0.3815625 19.14484375 -0.578125 19.9921875 C-1.04427304 21.99662407 -1.52102976 23.99858863 -2 26 C-1.34 26.33 -0.68 26.66 0 27 C-1.32 27 -2.64 27 -4 27 C-3.52200865 23.62483247 -3.0423961 20.24989719 -2.5625 16.875 C-2.36043945 15.44800781 -2.36043945 15.44800781 -2.15429688 13.9921875 C-1.48888877 9.3181013 -0.8067161 4.65232392 0 0 Z " fill="#8FC253" transform="translate(513,609)"/>
<path d="M0 0 C1.57043101 0.01330874 3.14079971 0.03717648 4.7109375 0.0703125 C5.51273437 0.07933594 6.31453125 0.08835937 7.140625 0.09765625 C9.12252273 0.12125027 11.10426731 0.15712185 13.0859375 0.1953125 C12.7559375 2.5053125 12.4259375 4.8153125 12.0859375 7.1953125 C11.7559375 7.1953125 11.4259375 7.1953125 11.0859375 7.1953125 C11.0859375 5.5453125 11.0859375 3.8953125 11.0859375 2.1953125 C5.4759375 2.1953125 -0.1340625 2.1953125 -5.9140625 2.1953125 C-3.9140625 0.1953125 -3.9140625 0.1953125 0 0 Z " fill="#8ECB6B" transform="translate(491.9140625,599.8046875)"/>
<path d="M0 0 C0.66 0 1.32 0 2 0 C1.67 4.29 1.34 8.58 1 13 C0.01 13.33 -0.98 13.66 -2 14 C-1.03644647 4.58997722 -1.03644647 4.58997722 0 0 Z " fill="#EFCB2F" transform="translate(513,621)"/>
</svg>
