<svg width="109" height="178" viewBox="0 0 109 178" fill="none" xmlns="http://www.w3.org/2000/svg">
<path d="M77.0712 66.4167C85.1199 66.1622 92.3435 65.8461 97.5572 65.5388C102.771 65.2316 105.966 64.9331 105.957 64.7312C105.948 64.5293 102.736 64.4239 97.5221 64.3712L77.0361 64.301C60.9562 64.301 41.6288 64.143 28.5947 64.0201C15.5605 63.8972 9.79391 63.9411 7.26608 64.1693H7.00274C7.24851 63.8445 7.56449 63.4846 7.88046 63.1246C8.41587 62.5189 8.95129 61.9482 9.47792 61.4215C10.5224 60.3505 11.5318 59.4375 12.392 58.6737C14.1474 57.1549 15.2709 56.2331 15.0778 55.9259C14.8847 55.6186 13.3838 56.0751 11.2422 57.3217C10.0021 58.063 8.82749 58.9089 7.73127 59.8501C7.11686 60.3768 6.50243 60.9562 5.89681 61.6059C5.58961 61.9307 5.30873 62.2204 5.01909 62.6154C4.64433 63.0368 4.34717 63.5213 4.14137 64.0464C3.8955 64.7 3.8955 65.4207 4.14137 66.0744C4.36765 66.6253 4.71226 67.1199 5.15077 67.5229C5.51941 67.8741 5.80904 68.1199 6.12502 68.4008L7.00274 69.1821C8.19644 70.1917 9.2936 71.0784 10.2415 71.8158C12.1374 73.2555 13.4452 74.0281 13.6998 73.7911C13.9543 73.554 13.1205 72.3513 11.5581 70.6043C10.7857 69.7264 9.80267 68.7168 8.72307 67.6195L7.39773 66.3026C10.0309 66.6099 15.7887 66.8996 28.5683 67.0137C41.62 67.1366 60.9826 66.9435 77.0712 66.4167Z" fill="#E3E3E3"/>
<path d="M107.77 121.161C107.399 120.808 107.099 120.561 106.791 120.279L105.909 119.495C104.71 118.481 103.608 117.582 102.656 116.85C100.751 115.414 99.446 114.638 99.1815 114.876C98.917 115.114 99.7634 116.313 101.333 118.076C102.118 118.957 103.096 119.971 104.181 121.073L105.574 122.448C102.7 122.174 96.4922 121.954 83.2927 121.928C69.4055 121.928 48.7995 122.192 31.6852 122.809C23.1236 123.1 15.4438 123.426 9.89772 123.761C4.35165 124.096 0.94817 124.378 0.956987 124.59C0.965805 124.801 4.37811 124.889 9.933 124.925H31.7293C48.8436 124.925 69.4144 124.925 83.2839 124.925C96.8537 124.925 103.017 124.872 105.794 124.634C105.565 124.925 105.292 125.233 105.019 125.515C104.481 126.123 103.943 126.696 103.414 127.234C102.365 128.3 101.359 129.226 100.486 129.984C98.723 131.509 97.6032 132.443 97.7972 132.743C97.9912 133.043 99.4989 132.602 101.641 131.342C102.891 130.606 104.071 129.759 105.168 128.812C105.786 128.283 106.403 127.701 107.011 127.049C107.32 126.723 107.602 126.423 107.893 126.035C108.264 125.608 108.562 125.123 108.775 124.598C109.018 123.941 109.018 123.219 108.775 122.562C108.547 122.011 108.204 121.516 107.77 121.108" fill="#E3E3E3"/>
<path d="M17.325 159.833L20.349 148.777H23.117L26.125 159.833H24.845L24.061 157.033H19.389L18.605 159.833H17.325ZM19.661 155.897H23.789L22.141 149.865H21.309L19.661 155.897ZM30.0588 159.993C29.7388 159.993 29.4348 159.956 29.1468 159.881C28.8588 159.817 28.5922 159.7 28.3468 159.529C28.1122 159.359 27.9042 159.124 27.7228 158.825C27.5415 158.516 27.4028 158.121 27.3068 157.641C27.2108 157.161 27.1628 156.58 27.1628 155.897C27.1628 154.948 27.2748 154.164 27.4988 153.545C27.7228 152.916 28.0802 152.447 28.5708 152.137C29.0615 151.828 29.7122 151.673 30.5228 151.673C30.7255 151.673 30.9495 151.684 31.1948 151.705C31.4402 151.727 31.6748 151.753 31.8988 151.785C32.1335 151.817 32.3202 151.849 32.4588 151.881V148.361H33.7068V159.833H32.4748V159.305C32.3042 159.401 32.0802 159.503 31.8028 159.609C31.5362 159.716 31.2482 159.807 30.9388 159.881C30.6402 159.956 30.3468 159.993 30.0588 159.993ZM30.2188 158.873C30.4962 158.873 30.7735 158.841 31.0508 158.777C31.3388 158.713 31.6055 158.639 31.8508 158.553C32.0962 158.457 32.2988 158.372 32.4588 158.297V152.937C32.3308 152.916 32.1548 152.895 31.9308 152.873C31.7068 152.841 31.4722 152.815 31.2268 152.793C30.9922 152.772 30.7788 152.761 30.5868 152.761C30.0428 152.761 29.6162 152.879 29.3068 153.113C28.9975 153.348 28.7735 153.7 28.6348 154.169C28.5068 154.628 28.4428 155.204 28.4428 155.897C28.4428 156.537 28.4908 157.055 28.5868 157.449C28.6828 157.833 28.8108 158.132 28.9708 158.345C29.1415 158.548 29.3335 158.687 29.5468 158.761C29.7602 158.836 29.9842 158.873 30.2188 158.873ZM37.4872 159.833L35.2472 151.833H36.5912L38.4152 158.761H39.0232L40.9112 151.833H42.1912L39.9512 159.833H37.4872ZM46.441 159.993C45.641 159.993 45.0063 159.839 44.537 159.529C44.0783 159.22 43.7476 158.761 43.545 158.153C43.3423 157.545 43.241 156.788 43.241 155.881C43.241 154.868 43.3796 154.057 43.657 153.449C43.9343 152.831 44.3236 152.383 44.825 152.105C45.3263 151.817 45.9183 151.673 46.601 151.673C47.6676 151.673 48.473 151.972 49.017 152.569C49.561 153.156 49.833 154.105 49.833 155.417L49.769 156.361H44.505C44.5156 157.193 44.6703 157.823 44.969 158.249C45.2676 158.676 45.8063 158.889 46.585 158.889C46.8836 158.889 47.209 158.884 47.561 158.873C47.9236 158.852 48.281 158.831 48.633 158.809C48.985 158.788 49.2836 158.767 49.529 158.745L49.561 159.721C49.305 159.764 48.9903 159.807 48.617 159.849C48.2543 159.892 47.881 159.924 47.497 159.945C47.113 159.977 46.761 159.993 46.441 159.993ZM44.505 155.353H48.585C48.585 154.372 48.425 153.689 48.105 153.305C47.7956 152.911 47.2943 152.713 46.601 152.713C46.153 152.713 45.7743 152.804 45.465 152.985C45.1556 153.156 44.9156 153.433 44.745 153.817C44.585 154.201 44.505 154.713 44.505 155.353ZM51.6871 159.833V151.833H52.9191V152.905C53.1218 152.767 53.3778 152.617 53.6871 152.457C53.9964 152.287 54.3378 152.127 54.7111 151.977C55.0844 151.828 55.4578 151.721 55.8311 151.657V152.921C55.4684 152.996 55.1004 153.097 54.7271 153.225C54.3538 153.343 54.0071 153.471 53.6871 153.609C53.3778 153.748 53.1218 153.871 52.9191 153.977V159.833H51.6871ZM59.858 160.009C59.3033 160.009 58.8606 159.924 58.53 159.753C58.21 159.583 57.9806 159.289 57.842 158.873C57.7033 158.447 57.634 157.849 57.634 157.081V152.905H56.498V151.833H57.634V149.385H58.866V151.833H61.378V152.905H58.866V156.713C58.866 157.279 58.8873 157.721 58.93 158.041C58.9833 158.351 59.09 158.569 59.25 158.697C59.41 158.825 59.6606 158.889 60.002 158.889C60.1086 158.889 60.2473 158.884 60.418 158.873C60.5886 158.863 60.7593 158.852 60.93 158.841C61.1113 158.82 61.2713 158.804 61.41 158.793L61.49 159.833C61.3406 159.855 61.1646 159.876 60.962 159.897C60.7593 159.929 60.5566 159.956 60.354 159.977C60.162 159.999 59.9966 160.009 59.858 160.009ZM62.8433 159.833V151.833H64.0753V159.833H62.8433ZM62.8433 150.073V148.633H64.0753V150.073H62.8433ZM68.8706 159.993C68.6253 159.993 68.3266 159.977 67.9746 159.945C67.6333 159.913 67.2919 159.876 66.9506 159.833C66.6093 159.78 66.3053 159.732 66.0386 159.689L66.1026 158.617C66.3693 158.649 66.6679 158.687 66.9986 158.729C67.3399 158.772 67.6706 158.809 67.9906 158.841C68.3106 158.863 68.5666 158.873 68.7586 158.873C69.1959 158.873 69.5586 158.836 69.8466 158.761C70.1346 158.676 70.3533 158.537 70.5026 158.345C70.6519 158.153 70.7266 157.881 70.7266 157.529C70.7266 157.263 70.6679 157.055 70.5506 156.905C70.4439 156.756 70.2359 156.633 69.9266 156.537C69.6279 156.441 69.1906 156.351 68.6146 156.265C68.0173 156.169 67.5159 156.052 67.1106 155.913C66.7159 155.764 66.4226 155.545 66.2306 155.257C66.0386 154.969 65.9426 154.559 65.9426 154.025C65.9426 153.428 66.0813 152.959 66.3586 152.617C66.6359 152.276 66.9933 152.036 67.4306 151.897C67.8786 151.748 68.3426 151.673 68.8226 151.673C69.1213 151.673 69.4466 151.689 69.7986 151.721C70.1613 151.753 70.5133 151.796 70.8546 151.849C71.1959 151.892 71.4893 151.935 71.7346 151.977L71.7026 153.049C71.4466 153.007 71.1479 152.969 70.8066 152.937C70.4653 152.895 70.1239 152.863 69.7826 152.841C69.4413 152.809 69.1426 152.793 68.8866 152.793C68.5666 152.793 68.2786 152.831 68.0226 152.905C67.7666 152.969 67.5639 153.087 67.4146 153.257C67.2653 153.428 67.1906 153.668 67.1906 153.977C67.1906 154.212 67.2439 154.404 67.3506 154.553C67.4573 154.692 67.6599 154.809 67.9586 154.905C68.2573 155.001 68.6893 155.097 69.2546 155.193C69.9159 155.3 70.4439 155.433 70.8386 155.593C71.2439 155.753 71.5373 155.977 71.7186 156.265C71.8999 156.553 71.9906 156.959 71.9906 157.481C71.9906 158.1 71.8626 158.596 71.6066 158.969C71.3613 159.332 71.0039 159.593 70.5346 159.753C70.0759 159.913 69.5213 159.993 68.8706 159.993ZM76.6597 159.993C75.8597 159.993 75.2251 159.839 74.7557 159.529C74.2971 159.22 73.9664 158.761 73.7637 158.153C73.5611 157.545 73.4597 156.788 73.4597 155.881C73.4597 154.868 73.5984 154.057 73.8757 153.449C74.1531 152.831 74.5424 152.383 75.0437 152.105C75.5451 151.817 76.1371 151.673 76.8197 151.673C77.8864 151.673 78.6917 151.972 79.2357 152.569C79.7797 153.156 80.0517 154.105 80.0517 155.417L79.9877 156.361H74.7237C74.7344 157.193 74.8891 157.823 75.1877 158.249C75.4864 158.676 76.0251 158.889 76.8037 158.889C77.1024 158.889 77.4277 158.884 77.7797 158.873C78.1424 158.852 78.4997 158.831 78.8517 158.809C79.2037 158.788 79.5024 158.767 79.7477 158.745L79.7797 159.721C79.5237 159.764 79.2091 159.807 78.8357 159.849C78.4731 159.892 78.0997 159.924 77.7157 159.945C77.3317 159.977 76.9797 159.993 76.6597 159.993ZM74.7237 155.353H78.8037C78.8037 154.372 78.6437 153.689 78.3237 153.305C78.0144 152.911 77.5131 152.713 76.8197 152.713C76.3717 152.713 75.9931 152.804 75.6837 152.985C75.3744 153.156 75.1344 153.433 74.9637 153.817C74.8037 154.201 74.7237 154.713 74.7237 155.353ZM81.9058 159.833V151.833H83.1378V152.905C83.3405 152.767 83.5965 152.617 83.9058 152.457C84.2152 152.287 84.5565 152.127 84.9298 151.977C85.3032 151.828 85.6765 151.721 86.0498 151.657V152.921C85.6872 152.996 85.3192 153.097 84.9458 153.225C84.5725 153.343 84.2258 153.471 83.9058 153.609C83.5965 153.748 83.3405 153.871 83.1378 153.977V159.833H81.9058ZM89.9487 159.993C89.7034 159.993 89.4047 159.977 89.0527 159.945C88.7114 159.913 88.3701 159.876 88.0287 159.833C87.6874 159.78 87.3834 159.732 87.1167 159.689L87.1807 158.617C87.4474 158.649 87.7461 158.687 88.0767 158.729C88.4181 158.772 88.7487 158.809 89.0687 158.841C89.3887 158.863 89.6447 158.873 89.8367 158.873C90.2741 158.873 90.6367 158.836 90.9247 158.761C91.2127 158.676 91.4314 158.537 91.5807 158.345C91.7301 158.153 91.8047 157.881 91.8047 157.529C91.8047 157.263 91.7461 157.055 91.6287 156.905C91.5221 156.756 91.3141 156.633 91.0047 156.537C90.7061 156.441 90.2687 156.351 89.6927 156.265C89.0954 156.169 88.5941 156.052 88.1887 155.913C87.7941 155.764 87.5007 155.545 87.3087 155.257C87.1167 154.969 87.0207 154.559 87.0207 154.025C87.0207 153.428 87.1594 152.959 87.4367 152.617C87.7141 152.276 88.0714 152.036 88.5087 151.897C88.9567 151.748 89.4207 151.673 89.9007 151.673C90.1994 151.673 90.5247 151.689 90.8767 151.721C91.2394 151.753 91.5914 151.796 91.9327 151.849C92.2741 151.892 92.5674 151.935 92.8127 151.977L92.7807 153.049C92.5247 153.007 92.2261 152.969 91.8847 152.937C91.5434 152.895 91.2021 152.863 90.8607 152.841C90.5194 152.809 90.2207 152.793 89.9647 152.793C89.6447 152.793 89.3567 152.831 89.1007 152.905C88.8447 152.969 88.6421 153.087 88.4927 153.257C88.3434 153.428 88.2687 153.668 88.2687 153.977C88.2687 154.212 88.3221 154.404 88.4287 154.553C88.5354 154.692 88.7381 154.809 89.0367 154.905C89.3354 155.001 89.7674 155.097 90.3327 155.193C90.9941 155.3 91.5221 155.433 91.9167 155.593C92.3221 155.753 92.6154 155.977 92.7967 156.265C92.9781 156.553 93.0687 156.959 93.0687 157.481C93.0687 158.1 92.9407 158.596 92.6847 158.969C92.4394 159.332 92.0821 159.593 91.6127 159.753C91.1541 159.913 90.5994 159.993 89.9487 159.993Z" fill="#8C8C8A"/>
<path d="M28.1291 18.8334V7.77737H32.1771C32.9878 7.77737 33.6544 7.91071 34.1771 8.17737C34.6998 8.43337 35.0891 8.82804 35.3451 9.36137C35.6011 9.88404 35.7291 10.5507 35.7291 11.3614C35.7291 12.1614 35.6011 12.844 35.3451 13.4094C35.0891 13.964 34.6998 14.3907 34.1771 14.6894C33.6544 14.9774 32.9878 15.1214 32.1771 15.1214H29.4091V18.8334H28.1291ZM29.4091 14.0014H32.1771C32.9664 14.0014 33.5371 13.772 33.8891 13.3134C34.2411 12.8547 34.4171 12.204 34.4171 11.3614C34.4171 10.508 34.2411 9.88404 33.8891 9.48937C33.5371 9.09471 32.9664 8.89737 32.1771 8.89737H29.4091V14.0014ZM37.5018 18.8334V7.36137H38.7338V18.8334H37.5018ZM42.8842 18.9934C42.1482 18.9934 41.5882 18.7854 41.2042 18.3694C40.8202 17.9534 40.6282 17.3454 40.6282 16.5454C40.6282 16.0227 40.7189 15.596 40.9002 15.2654C41.0816 14.9347 41.3536 14.684 41.7162 14.5134C42.0896 14.332 42.5482 14.22 43.0922 14.1774L45.5562 13.9374V13.2494C45.5562 12.7054 45.4336 12.3214 45.1882 12.0974C44.9536 11.8734 44.6016 11.7614 44.1322 11.7614C43.8656 11.7614 43.5456 11.772 43.1722 11.7934C42.8096 11.8147 42.4469 11.8414 42.0842 11.8734C41.7216 11.9054 41.4016 11.9374 41.1242 11.9694L41.0602 11.0254C41.3162 10.972 41.6256 10.9187 41.9882 10.8654C42.3509 10.812 42.7296 10.7694 43.1242 10.7374C43.5189 10.6947 43.8816 10.6734 44.2122 10.6734C44.8202 10.6734 45.3162 10.7694 45.7002 10.9614C46.0842 11.1427 46.3616 11.4254 46.5322 11.8094C46.7136 12.1827 46.8042 12.6627 46.8042 13.2494V17.2974C46.8256 17.532 46.9162 17.7027 47.0762 17.8094C47.2469 17.916 47.4602 17.9854 47.7162 18.0174L47.6682 18.9934C47.5189 18.9934 47.3749 18.988 47.2362 18.9774C47.0976 18.9667 46.9642 18.9454 46.8362 18.9134C46.7189 18.892 46.6016 18.8654 46.4842 18.8334C46.3456 18.78 46.2122 18.716 46.0842 18.6414C45.9669 18.5667 45.8496 18.476 45.7322 18.3694C45.5296 18.4547 45.2682 18.5454 44.9482 18.6414C44.6389 18.7374 44.3029 18.8174 43.9402 18.8814C43.5882 18.956 43.2362 18.9934 42.8842 18.9934ZM43.0922 17.9534C43.3802 17.9534 43.6789 17.9267 43.9882 17.8734C44.2976 17.82 44.5909 17.756 44.8682 17.6814C45.1456 17.6067 45.3749 17.5374 45.5562 17.4734V14.8654L43.2362 15.0894C42.7562 15.132 42.4096 15.2707 42.1962 15.5054C41.9936 15.74 41.8922 16.076 41.8922 16.5134C41.8922 16.9614 41.9936 17.3134 42.1962 17.5694C42.3989 17.8254 42.6976 17.9534 43.0922 17.9534ZM52.1315 18.9934C51.2888 18.9934 50.6275 18.8547 50.1475 18.5774C49.6675 18.2894 49.3261 17.8307 49.1235 17.2014C48.9315 16.572 48.8355 15.74 48.8355 14.7054C48.8355 13.7347 48.9421 12.956 49.1555 12.3694C49.3795 11.772 49.7368 11.34 50.2275 11.0734C50.7181 10.8067 51.3581 10.6734 52.1475 10.6734C52.3288 10.6734 52.5475 10.6894 52.8035 10.7214C53.0701 10.7427 53.3421 10.7747 53.6195 10.8174C53.8968 10.8494 54.1368 10.8814 54.3395 10.9134L54.2915 11.9374C54.1101 11.916 53.9021 11.8947 53.6675 11.8734C53.4328 11.852 53.2035 11.836 52.9795 11.8254C52.7555 11.804 52.5688 11.7934 52.4195 11.7934C51.8115 11.7934 51.3368 11.8894 50.9955 12.0814C50.6648 12.2734 50.4301 12.5827 50.2915 13.0094C50.1635 13.4254 50.0995 13.9907 50.0995 14.7054C50.0995 15.484 50.1581 16.108 50.2755 16.5774C50.3928 17.036 50.6168 17.3667 50.9475 17.5694C51.2781 17.772 51.7688 17.8734 52.4195 17.8734C52.5688 17.8734 52.7555 17.868 52.9795 17.8574C53.2141 17.836 53.4488 17.8147 53.6835 17.7934C53.9288 17.772 54.1421 17.756 54.3235 17.7454L54.3555 18.7694C54.1421 18.8014 53.8968 18.8334 53.6195 18.8654C53.3421 18.8974 53.0701 18.924 52.8035 18.9454C52.5368 18.9774 52.3128 18.9934 52.1315 18.9934ZM58.8785 18.9934C58.0785 18.9934 57.4438 18.8387 56.9745 18.5294C56.5158 18.22 56.1851 17.7614 55.9825 17.1534C55.7798 16.5454 55.6785 15.788 55.6785 14.8814C55.6785 13.868 55.8171 13.0574 56.0945 12.4494C56.3718 11.8307 56.7611 11.3827 57.2625 11.1054C57.7638 10.8174 58.3558 10.6734 59.0385 10.6734C60.1051 10.6734 60.9105 10.972 61.4545 11.5694C61.9985 12.156 62.2705 13.1054 62.2705 14.4174L62.2065 15.3614H56.9425C56.9531 16.1934 57.1078 16.8227 57.4065 17.2494C57.7051 17.676 58.2438 17.8894 59.0225 17.8894C59.3211 17.8894 59.6465 17.884 59.9985 17.8734C60.3611 17.852 60.7185 17.8307 61.0705 17.8094C61.4225 17.788 61.7211 17.7667 61.9665 17.7454L61.9985 18.7214C61.7425 18.764 61.4278 18.8067 61.0545 18.8494C60.6918 18.892 60.3185 18.924 59.9345 18.9454C59.5505 18.9774 59.1985 18.9934 58.8785 18.9934ZM56.9425 14.3534H61.0225C61.0225 13.372 60.8625 12.6894 60.5425 12.3054C60.2331 11.9107 59.7318 11.7134 59.0385 11.7134C58.5905 11.7134 58.2118 11.804 57.9025 11.9854C57.5931 12.156 57.3531 12.4334 57.1825 12.8174C57.0225 13.2014 56.9425 13.7134 56.9425 14.3534ZM69.3842 18.9934C68.6482 18.9934 68.0882 18.7854 67.7042 18.3694C67.3202 17.9534 67.1282 17.3454 67.1282 16.5454C67.1282 16.0227 67.2189 15.596 67.4002 15.2654C67.5816 14.9347 67.8536 14.684 68.2162 14.5134C68.5896 14.332 69.0482 14.22 69.5922 14.1774L72.0562 13.9374V13.2494C72.0562 12.7054 71.9336 12.3214 71.6882 12.0974C71.4536 11.8734 71.1016 11.7614 70.6322 11.7614C70.3656 11.7614 70.0456 11.772 69.6722 11.7934C69.3096 11.8147 68.9469 11.8414 68.5842 11.8734C68.2216 11.9054 67.9016 11.9374 67.6242 11.9694L67.5602 11.0254C67.8162 10.972 68.1256 10.9187 68.4882 10.8654C68.8509 10.812 69.2296 10.7694 69.6242 10.7374C70.0189 10.6947 70.3816 10.6734 70.7122 10.6734C71.3202 10.6734 71.8162 10.7694 72.2002 10.9614C72.5842 11.1427 72.8616 11.4254 73.0322 11.8094C73.2136 12.1827 73.3042 12.6627 73.3042 13.2494V17.2974C73.3256 17.532 73.4162 17.7027 73.5762 17.8094C73.7469 17.916 73.9602 17.9854 74.2162 18.0174L74.1682 18.9934C74.0189 18.9934 73.8749 18.988 73.7362 18.9774C73.5976 18.9667 73.4642 18.9454 73.3362 18.9134C73.2189 18.892 73.1016 18.8654 72.9842 18.8334C72.8456 18.78 72.7122 18.716 72.5842 18.6414C72.4669 18.5667 72.3496 18.476 72.2322 18.3694C72.0296 18.4547 71.7682 18.5454 71.4482 18.6414C71.1389 18.7374 70.8029 18.8174 70.4402 18.8814C70.0882 18.956 69.7362 18.9934 69.3842 18.9934ZM69.5922 17.9534C69.8802 17.9534 70.1789 17.9267 70.4882 17.8734C70.7976 17.82 71.0909 17.756 71.3682 17.6814C71.6456 17.6067 71.8749 17.5374 72.0562 17.4734V14.8654L69.7362 15.0894C69.2562 15.132 68.9096 15.2707 68.6962 15.5054C68.4936 15.74 68.3922 16.076 68.3922 16.5134C68.3922 16.9614 68.4936 17.3134 68.6962 17.5694C68.8989 17.8254 69.1976 17.9534 69.5922 17.9534ZM75.6715 18.8334V10.8334H76.9035V11.3934C77.0848 11.2867 77.3088 11.18 77.5755 11.0734C77.8528 10.9667 78.1461 10.876 78.4555 10.8014C78.7648 10.716 79.0635 10.6734 79.3515 10.6734C79.9061 10.6734 80.3595 10.748 80.7115 10.8974C81.0635 11.036 81.3355 11.2654 81.5275 11.5854C81.7301 11.8947 81.8688 12.3 81.9435 12.8014C82.0288 13.292 82.0715 13.8894 82.0715 14.5934V18.8334H80.8235V14.6414C80.8235 13.948 80.7808 13.3934 80.6955 12.9774C80.6208 12.5614 80.4608 12.2627 80.2155 12.0814C79.9808 11.8894 79.6181 11.7934 79.1275 11.7934C78.8608 11.7934 78.5835 11.8254 78.2955 11.8894C78.0181 11.9427 77.7568 12.0174 77.5115 12.1134C77.2661 12.1987 77.0635 12.284 76.9035 12.3694V18.8334H75.6715ZM5.11078 42.9934C4.37478 42.9934 3.81478 42.7854 3.43078 42.3694C3.04678 41.9534 2.85478 41.3454 2.85478 40.5454C2.85478 40.0227 2.94545 39.596 3.12678 39.2654C3.30812 38.9347 3.58012 38.684 3.94278 38.5134C4.31612 38.332 4.77478 38.22 5.31878 38.1774L7.78278 37.9374V37.2494C7.78278 36.7054 7.66012 36.3214 7.41478 36.0974C7.18012 35.8734 6.82812 35.7614 6.35878 35.7614C6.09212 35.7614 5.77212 35.772 5.39878 35.7934C5.03612 35.8147 4.67345 35.8414 4.31078 35.8734C3.94812 35.9054 3.62812 35.9374 3.35078 35.9694L3.28678 35.0254C3.54278 34.972 3.85212 34.9187 4.21478 34.8654C4.57745 34.812 4.95612 34.7694 5.35078 34.7374C5.74545 34.6947 6.10812 34.6734 6.43878 34.6734C7.04678 34.6734 7.54278 34.7694 7.92678 34.9614C8.31078 35.1427 8.58812 35.4254 8.75878 35.8094C8.94012 36.1827 9.03078 36.6627 9.03078 37.2494V41.2974C9.05212 41.532 9.14278 41.7027 9.30278 41.8094C9.47345 41.916 9.68678 41.9854 9.94278 42.0174L9.89478 42.9934C9.74545 42.9934 9.60145 42.988 9.46278 42.9774C9.32412 42.9667 9.19078 42.9454 9.06278 42.9134C8.94545 42.892 8.82812 42.8654 8.71078 42.8334C8.57212 42.78 8.43878 42.716 8.31078 42.6414C8.19345 42.5667 8.07612 42.476 7.95878 42.3694C7.75612 42.4547 7.49478 42.5454 7.17478 42.6414C6.86545 42.7374 6.52945 42.8174 6.16678 42.8814C5.81478 42.956 5.46278 42.9934 5.11078 42.9934ZM5.31878 41.9534C5.60678 41.9534 5.90545 41.9267 6.21478 41.8734C6.52412 41.82 6.81745 41.756 7.09478 41.6814C7.37212 41.6067 7.60145 41.5374 7.78278 41.4734V38.8654L5.46278 39.0894C4.98278 39.132 4.63612 39.2707 4.42278 39.5054C4.22012 39.74 4.11878 40.076 4.11878 40.5134C4.11878 40.9614 4.22012 41.3134 4.42278 41.5694C4.62545 41.8254 4.92412 41.9534 5.31878 41.9534ZM13.926 42.9934C13.606 42.9934 13.302 42.956 13.014 42.8814C12.726 42.8174 12.4594 42.7 12.214 42.5294C11.9794 42.3587 11.7714 42.124 11.59 41.8254C11.4087 41.516 11.27 41.1214 11.174 40.6414C11.078 40.1614 11.03 39.58 11.03 38.8974C11.03 37.948 11.142 37.164 11.366 36.5454C11.59 35.916 11.9474 35.4467 12.438 35.1374C12.9287 34.828 13.5794 34.6734 14.39 34.6734C14.5927 34.6734 14.8167 34.684 15.062 34.7054C15.3074 34.7267 15.542 34.7534 15.766 34.7854C16.0007 34.8174 16.1874 34.8494 16.326 34.8814V31.3614H17.574V42.8334H16.342V42.3054C16.1714 42.4014 15.9474 42.5027 15.67 42.6094C15.4034 42.716 15.1154 42.8067 14.806 42.8814C14.5074 42.956 14.214 42.9934 13.926 42.9934ZM14.086 41.8734C14.3634 41.8734 14.6407 41.8414 14.918 41.7774C15.206 41.7134 15.4727 41.6387 15.718 41.5534C15.9634 41.4574 16.166 41.372 16.326 41.2974V35.9374C16.198 35.916 16.022 35.8947 15.798 35.8734C15.574 35.8414 15.3394 35.8147 15.094 35.7934C14.8594 35.772 14.646 35.7614 14.454 35.7614C13.91 35.7614 13.4834 35.8787 13.174 36.1134C12.8647 36.348 12.6407 36.7 12.502 37.1694C12.374 37.628 12.31 38.204 12.31 38.8974C12.31 39.5374 12.358 40.0547 12.454 40.4494C12.55 40.8334 12.678 41.132 12.838 41.3454C13.0087 41.548 13.2007 41.6867 13.414 41.7614C13.6274 41.836 13.8514 41.8734 14.086 41.8734ZM21.3544 42.8334L19.1144 34.8334H20.4584L22.2824 41.7614H22.8904L24.7784 34.8334H26.0584L23.8184 42.8334H21.3544ZM30.3082 42.9934C29.5082 42.9934 28.8735 42.8387 28.4042 42.5294C27.9455 42.22 27.6148 41.7614 27.4122 41.1534C27.2095 40.5454 27.1082 39.788 27.1082 38.8814C27.1082 37.868 27.2468 37.0574 27.5242 36.4494C27.8015 35.8307 28.1908 35.3827 28.6922 35.1054C29.1935 34.8174 29.7855 34.6734 30.4682 34.6734C31.5348 34.6734 32.3402 34.972 32.8842 35.5694C33.4282 36.156 33.7002 37.1054 33.7002 38.4174L33.6362 39.3614H28.3722C28.3828 40.1934 28.5375 40.8227 28.8362 41.2494C29.1348 41.676 29.6735 41.8894 30.4522 41.8894C30.7508 41.8894 31.0762 41.884 31.4282 41.8734C31.7908 41.852 32.1482 41.8307 32.5002 41.8094C32.8522 41.788 33.1508 41.7667 33.3962 41.7454L33.4282 42.7214C33.1722 42.764 32.8575 42.8067 32.4842 42.8494C32.1215 42.892 31.7482 42.924 31.3642 42.9454C30.9802 42.9774 30.6282 42.9934 30.3082 42.9934ZM28.3722 38.3534H32.4522C32.4522 37.372 32.2922 36.6894 31.9722 36.3054C31.6628 35.9107 31.1615 35.7134 30.4682 35.7134C30.0202 35.7134 29.6415 35.804 29.3322 35.9854C29.0228 36.156 28.7828 36.4334 28.6122 36.8174C28.4522 37.2014 28.3722 37.7134 28.3722 38.3534ZM35.5543 42.8334V34.8334H36.7863V35.9054C36.9889 35.7667 37.2449 35.6174 37.5543 35.4574C37.8636 35.2867 38.2049 35.1267 38.5783 34.9774C38.9516 34.828 39.3249 34.7214 39.6983 34.6574V35.9214C39.3356 35.996 38.9676 36.0974 38.5943 36.2254C38.2209 36.3427 37.8743 36.4707 37.5543 36.6094C37.2449 36.748 36.9889 36.8707 36.7863 36.9774V42.8334H35.5543ZM43.7252 43.0094C43.1705 43.0094 42.7278 42.924 42.3972 42.7534C42.0772 42.5827 41.8478 42.2894 41.7092 41.8734C41.5705 41.4467 41.5012 40.8494 41.5012 40.0814V35.9054H40.3652V34.8334H41.5012V32.3854H42.7332V34.8334H45.2452V35.9054H42.7332V39.7134C42.7332 40.2787 42.7545 40.7214 42.7972 41.0414C42.8505 41.3507 42.9572 41.5694 43.1172 41.6974C43.2772 41.8254 43.5278 41.8894 43.8692 41.8894C43.9758 41.8894 44.1145 41.884 44.2852 41.8734C44.4558 41.8627 44.6265 41.852 44.7972 41.8414C44.9785 41.82 45.1385 41.804 45.2772 41.7934L45.3572 42.8334C45.2078 42.8547 45.0318 42.876 44.8292 42.8974C44.6265 42.9294 44.4238 42.956 44.2212 42.9774C44.0292 42.9987 43.8638 43.0094 43.7252 43.0094ZM46.7105 42.8334V34.8334H47.9425V42.8334H46.7105ZM46.7105 33.0734V31.6334H47.9425V33.0734H46.7105ZM52.7378 42.9934C52.4924 42.9934 52.1938 42.9774 51.8418 42.9454C51.5004 42.9134 51.1591 42.876 50.8178 42.8334C50.4764 42.78 50.1724 42.732 49.9058 42.6894L49.9698 41.6174C50.2364 41.6494 50.5351 41.6867 50.8658 41.7294C51.2071 41.772 51.5378 41.8094 51.8578 41.8414C52.1778 41.8627 52.4338 41.8734 52.6258 41.8734C53.0631 41.8734 53.4258 41.836 53.7138 41.7614C54.0018 41.676 54.2204 41.5374 54.3698 41.3454C54.5191 41.1534 54.5938 40.8814 54.5938 40.5294C54.5938 40.2627 54.5351 40.0547 54.4178 39.9054C54.3111 39.756 54.1031 39.6334 53.7938 39.5374C53.4951 39.4414 53.0578 39.3507 52.4818 39.2654C51.8844 39.1694 51.3831 39.052 50.9778 38.9134C50.5831 38.764 50.2898 38.5454 50.0978 38.2574C49.9058 37.9694 49.8098 37.5587 49.8098 37.0254C49.8098 36.428 49.9484 35.9587 50.2258 35.6174C50.5031 35.276 50.8604 35.036 51.2978 34.8974C51.7458 34.748 52.2098 34.6734 52.6898 34.6734C52.9884 34.6734 53.3138 34.6894 53.6658 34.7214C54.0284 34.7534 54.3804 34.796 54.7218 34.8494C55.0631 34.892 55.3564 34.9347 55.6018 34.9774L55.5698 36.0494C55.3138 36.0067 55.0151 35.9694 54.6738 35.9374C54.3324 35.8947 53.9911 35.8627 53.6498 35.8414C53.3084 35.8094 53.0098 35.7934 52.7538 35.7934C52.4338 35.7934 52.1458 35.8307 51.8898 35.9054C51.6338 35.9694 51.4311 36.0867 51.2818 36.2574C51.1324 36.428 51.0578 36.668 51.0578 36.9774C51.0578 37.212 51.1111 37.404 51.2178 37.5534C51.3244 37.692 51.5271 37.8094 51.8258 37.9054C52.1244 38.0014 52.5564 38.0974 53.1218 38.1934C53.7831 38.3 54.3111 38.4334 54.7058 38.5934C55.1111 38.7534 55.4044 38.9774 55.5858 39.2654C55.7671 39.5534 55.8578 39.9587 55.8578 40.4814C55.8578 41.1 55.7298 41.596 55.4738 41.9694C55.2284 42.332 54.8711 42.5934 54.4018 42.7534C53.9431 42.9134 53.3884 42.9934 52.7378 42.9934ZM60.5269 42.9934C59.7269 42.9934 59.0922 42.8387 58.6229 42.5294C58.1642 42.22 57.8336 41.7614 57.6309 41.1534C57.4282 40.5454 57.3269 39.788 57.3269 38.8814C57.3269 37.868 57.4656 37.0574 57.7429 36.4494C58.0202 35.8307 58.4096 35.3827 58.9109 35.1054C59.4122 34.8174 60.0042 34.6734 60.6869 34.6734C61.7536 34.6734 62.5589 34.972 63.1029 35.5694C63.6469 36.156 63.9189 37.1054 63.9189 38.4174L63.8549 39.3614H58.5909C58.6016 40.1934 58.7562 40.8227 59.0549 41.2494C59.3536 41.676 59.8922 41.8894 60.6709 41.8894C60.9696 41.8894 61.2949 41.884 61.6469 41.8734C62.0096 41.852 62.3669 41.8307 62.7189 41.8094C63.0709 41.788 63.3696 41.7667 63.6149 41.7454L63.6469 42.7214C63.3909 42.764 63.0762 42.8067 62.7029 42.8494C62.3402 42.892 61.9669 42.924 61.5829 42.9454C61.1989 42.9774 60.8469 42.9934 60.5269 42.9934ZM58.5909 38.3534H62.6709C62.6709 37.372 62.5109 36.6894 62.1909 36.3054C61.8816 35.9107 61.3802 35.7134 60.6869 35.7134C60.2389 35.7134 59.8602 35.804 59.5509 35.9854C59.2416 36.156 59.0016 36.4334 58.8309 36.8174C58.6709 37.2014 58.5909 37.7134 58.5909 38.3534ZM65.773 42.8334V34.8334H67.005V35.3934C67.1757 35.2867 67.389 35.18 67.645 35.0734C67.901 34.9667 68.173 34.876 68.461 34.8014C68.7597 34.716 69.0424 34.6734 69.309 34.6734C69.8424 34.6734 70.269 34.7374 70.589 34.8654C70.9197 34.9934 71.1864 35.2014 71.389 35.4894C71.6024 35.372 71.8637 35.2494 72.173 35.1214C72.4824 34.9934 72.813 34.8867 73.165 34.8014C73.5277 34.716 73.8797 34.6734 74.221 34.6734C74.765 34.6734 75.213 34.7427 75.565 34.8814C75.917 35.02 76.189 35.244 76.381 35.5534C76.5837 35.8627 76.7224 36.268 76.797 36.7694C76.8824 37.26 76.925 37.868 76.925 38.5934V42.8334H75.693V38.6414C75.693 37.948 75.6504 37.3934 75.565 36.9774C75.4904 36.5614 75.3357 36.2627 75.101 36.0814C74.8664 35.8894 74.509 35.7934 74.029 35.7934C73.7517 35.7934 73.469 35.8254 73.181 35.8894C72.9037 35.9427 72.6424 36.0174 72.397 36.1134C72.1624 36.1987 71.9704 36.284 71.821 36.3694C71.8957 36.6467 71.9437 36.9934 71.965 37.4094C71.997 37.8147 72.013 38.236 72.013 38.6734V42.8334H70.781V38.7054C70.781 37.98 70.7437 37.4094 70.669 36.9934C70.5944 36.5667 70.4344 36.2627 70.189 36.0814C69.9544 35.8894 69.597 35.7934 69.117 35.7934C68.8504 35.7934 68.5784 35.8254 68.301 35.8894C68.0344 35.9427 67.789 36.0174 67.565 36.1134C67.341 36.1987 67.1544 36.284 67.005 36.3694V42.8334H65.773ZM81.98 42.9934C81.18 42.9934 80.5454 42.8387 80.076 42.5294C79.6174 42.22 79.2867 41.7614 79.084 41.1534C78.8814 40.5454 78.78 39.788 78.78 38.8814C78.78 37.868 78.9187 37.0574 79.196 36.4494C79.4734 35.8307 79.8627 35.3827 80.364 35.1054C80.8654 34.8174 81.4574 34.6734 82.14 34.6734C83.2067 34.6734 84.012 34.972 84.556 35.5694C85.1 36.156 85.372 37.1054 85.372 38.4174L85.308 39.3614H80.044C80.0547 40.1934 80.2094 40.8227 80.508 41.2494C80.8067 41.676 81.3454 41.8894 82.124 41.8894C82.4227 41.8894 82.748 41.884 83.1 41.8734C83.4627 41.852 83.82 41.8307 84.172 41.8094C84.524 41.788 84.8227 41.7667 85.068 41.7454L85.1 42.7214C84.844 42.764 84.5294 42.8067 84.156 42.8494C83.7934 42.892 83.42 42.924 83.036 42.9454C82.652 42.9774 82.3 42.9934 81.98 42.9934ZM80.044 38.3534H84.124C84.124 37.372 83.964 36.6894 83.644 36.3054C83.3347 35.9107 82.8334 35.7134 82.14 35.7134C81.692 35.7134 81.3134 35.804 81.004 35.9854C80.6947 36.156 80.4547 36.4334 80.284 36.8174C80.124 37.2014 80.044 37.7134 80.044 38.3534ZM87.2262 42.8334V34.8334H88.4582V35.3934C88.6395 35.2867 88.8635 35.18 89.1302 35.0734C89.4075 34.9667 89.7008 34.876 90.0102 34.8014C90.3195 34.716 90.6182 34.6734 90.9062 34.6734C91.4608 34.6734 91.9142 34.748 92.2662 34.8974C92.6182 35.036 92.8902 35.2654 93.0822 35.5854C93.2848 35.8947 93.4235 36.3 93.4982 36.8014C93.5835 37.292 93.6262 37.8894 93.6262 38.5934V42.8334H92.3782V38.6414C92.3782 37.948 92.3355 37.3934 92.2502 36.9774C92.1755 36.5614 92.0155 36.2627 91.7702 36.0814C91.5355 35.8894 91.1728 35.7934 90.6822 35.7934C90.4155 35.7934 90.1382 35.8254 89.8502 35.8894C89.5728 35.9427 89.3115 36.0174 89.0662 36.1134C88.8208 36.1987 88.6182 36.284 88.4582 36.3694V42.8334H87.2262ZM98.4127 43.0094C97.858 43.0094 97.4153 42.924 97.0847 42.7534C96.7647 42.5827 96.5353 42.2894 96.3967 41.8734C96.258 41.4467 96.1887 40.8494 96.1887 40.0814V35.9054H95.0527V34.8334H96.1887V32.3854H97.4207V34.8334H99.9327V35.9054H97.4207V39.7134C97.4207 40.2787 97.442 40.7214 97.4847 41.0414C97.538 41.3507 97.6447 41.5694 97.8047 41.6974C97.9647 41.8254 98.2153 41.8894 98.5567 41.8894C98.6633 41.8894 98.802 41.884 98.9727 41.8734C99.1433 41.8627 99.314 41.852 99.4847 41.8414C99.666 41.82 99.826 41.804 99.9647 41.7934L100.045 42.8334C99.8953 42.8547 99.7193 42.876 99.5167 42.8974C99.314 42.9294 99.1113 42.956 98.9087 42.9774C98.7167 42.9987 98.5513 43.0094 98.4127 43.0094ZM103.894 42.9934C103.649 42.9934 103.35 42.9774 102.998 42.9454C102.657 42.9134 102.315 42.876 101.974 42.8334C101.633 42.78 101.329 42.732 101.062 42.6894L101.126 41.6174C101.393 41.6494 101.691 41.6867 102.022 41.7294C102.363 41.772 102.694 41.8094 103.014 41.8414C103.334 41.8627 103.59 41.8734 103.782 41.8734C104.219 41.8734 104.582 41.836 104.87 41.7614C105.158 41.676 105.377 41.5374 105.526 41.3454C105.675 41.1534 105.75 40.8814 105.75 40.5294C105.75 40.2627 105.691 40.0547 105.574 39.9054C105.467 39.756 105.259 39.6334 104.95 39.5374C104.651 39.4414 104.214 39.3507 103.638 39.2654C103.041 39.1694 102.539 39.052 102.134 38.9134C101.739 38.764 101.446 38.5454 101.254 38.2574C101.062 37.9694 100.966 37.5587 100.966 37.0254C100.966 36.428 101.105 35.9587 101.382 35.6174C101.659 35.276 102.017 35.036 102.454 34.8974C102.902 34.748 103.366 34.6734 103.846 34.6734C104.145 34.6734 104.47 34.6894 104.822 34.7214C105.185 34.7534 105.537 34.796 105.878 34.8494C106.219 34.892 106.513 34.9347 106.758 34.9774L106.726 36.0494C106.47 36.0067 106.171 35.9694 105.83 35.9374C105.489 35.8947 105.147 35.8627 104.806 35.8414C104.465 35.8094 104.166 35.7934 103.91 35.7934C103.59 35.7934 103.302 35.8307 103.046 35.9054C102.79 35.9694 102.587 36.0867 102.438 36.2574C102.289 36.428 102.214 36.668 102.214 36.9774C102.214 37.212 102.267 37.404 102.374 37.5534C102.481 37.692 102.683 37.8094 102.982 37.9054C103.281 38.0014 103.713 38.0974 104.278 38.1934C104.939 38.3 105.467 38.4334 105.862 38.5934C106.267 38.7534 106.561 38.9774 106.742 39.2654C106.923 39.5534 107.014 39.9587 107.014 40.4814C107.014 41.1 106.886 41.596 106.63 41.9694C106.385 42.332 106.027 42.5934 105.558 42.7534C105.099 42.9134 104.545 42.9934 103.894 42.9934Z" fill="#8C8C8A"/>
</svg>
