<svg width="320" height="213" viewBox="0 0 320 213" fill="none" xmlns="http://www.w3.org/2000/svg">
<path d="M271.996 37.8801C272.721 37.4437 273.501 37.1048 274.314 36.8721L274.791 34.5795L278.666 34.5115L279.223 36.787C280.044 36.9884 280.836 37.2989 281.575 37.71L283.531 36.434L286.317 39.1306L285.105 41.1339C285.543 41.8582 285.882 42.6378 286.113 43.452L288.406 43.9284L288.474 47.8031L286.198 48.3603C285.994 49.1798 285.684 49.9691 285.275 50.7082L286.551 52.669L283.863 55.4549L281.86 54.2427C281.135 54.6786 280.356 55.0161 279.542 55.2465L279.065 57.539L275.191 57.6071L274.633 55.3315C273.813 55.1308 273.023 54.8204 272.286 54.4086L270.325 55.6846L267.539 52.9922L268.751 50.9889C268.314 50.2665 267.976 49.4881 267.747 48.6751L265.455 48.1987L265.387 44.3239L267.658 43.7667C267.861 42.9449 268.173 42.1539 268.585 41.4146L267.309 39.4581L270.002 36.6722L272.001 37.8844L271.996 37.8801ZM274.064 43.0394C273.493 43.6307 273.11 44.3779 272.964 45.1866C272.818 45.9952 272.915 46.829 273.243 47.5826C273.571 48.3362 274.114 48.9756 274.806 49.4202C275.497 49.8647 276.304 50.0944 277.126 50.0801C277.947 50.0658 278.746 49.8083 279.422 49.34C280.097 48.8717 280.618 48.2138 280.92 47.4493C281.221 46.6848 281.289 45.8481 281.115 45.045C280.941 44.2419 280.532 43.5084 279.942 42.9373C279.148 42.172 278.084 41.7529 276.981 41.7721C275.879 41.7912 274.83 42.247 274.064 43.0394Z" fill="#EBEBEB"/>
<path d="M145.294 47.0929C145.877 46.7402 146.505 46.467 147.161 46.2805L147.544 44.4346L150.67 44.3793L151.117 46.2125C151.779 46.3752 152.417 46.6255 153.014 46.9568L154.592 45.9232L156.837 48.0924L155.859 49.7087C156.214 50.2912 156.487 50.9194 156.672 51.5759L158.522 51.9587L158.577 55.0849L156.744 55.5315C156.58 56.1943 156.328 56.8322 155.995 57.4285L157.033 59.0065L154.86 61.248L153.248 60.2697C152.664 60.6227 152.036 60.896 151.38 61.0821L150.993 62.9323L147.871 62.9876L147.421 61.1544C146.758 60.9882 146.122 60.7335 145.528 60.3973L143.946 61.4351L141.7 59.2617L142.678 57.6497C142.327 57.0655 142.054 56.4377 141.866 55.7825L140.02 55.3954L139.964 52.2735L141.798 51.8226C141.96 51.1612 142.21 50.5245 142.542 49.9299L141.508 48.3476L143.678 46.1019L145.294 47.0801V47.0929ZM146.957 51.2527C146.496 51.7293 146.187 52.3318 146.069 52.9841C145.95 53.6364 146.028 54.3092 146.292 54.9173C146.556 55.5254 146.995 56.0415 147.552 56.4004C148.109 56.7593 148.761 56.9448 149.424 56.9335C150.086 56.9222 150.731 56.7146 151.276 56.3369C151.821 55.9592 152.241 55.4284 152.484 54.8117C152.728 54.1949 152.782 53.5199 152.642 52.872C152.501 52.2241 152.172 51.6325 151.695 51.1718C151.055 50.5555 150.197 50.2178 149.309 50.233C148.421 50.2481 147.575 50.6148 146.957 51.2527Z" fill="#F5F5F5"/>
<path d="M146.957 51.2527C147.133 51.0373 147.345 50.8532 147.582 50.7082C148.229 50.2876 149.002 50.1042 149.768 50.1893C150.339 50.2512 150.885 50.4564 151.355 50.7858C151.825 51.1153 152.204 51.5583 152.456 52.0736C152.604 52.3696 152.706 52.6866 152.758 53.0135C152.823 53.353 152.83 53.701 152.78 54.0428C152.692 54.7749 152.368 55.4585 151.858 55.9909C151.348 56.5232 150.679 56.8755 149.951 56.9947C149.609 57.0519 149.26 57.0519 148.918 56.9947C148.589 56.9554 148.269 56.8649 147.969 56.7267C147.408 56.4724 146.925 56.073 146.57 55.5698C146.266 55.1323 146.07 54.6297 145.996 54.1024C145.877 53.3409 146.027 52.5617 146.421 51.8992C146.558 51.6562 146.735 51.4378 146.944 51.2527C146.944 51.2527 146.744 51.4738 146.485 51.9332C146.126 52.5883 145.996 53.3439 146.115 54.0811C146.2 54.6217 146.421 55.1321 146.755 55.5654C147.09 55.9986 147.527 56.3409 148.029 56.5608C148.618 56.8205 149.27 56.9004 149.904 56.7905C150.588 56.6741 151.216 56.3422 151.698 55.8432C152.179 55.3443 152.488 54.7045 152.58 54.0173C152.631 53.6947 152.631 53.366 152.58 53.0433C152.532 52.7325 152.436 52.4311 152.295 52.1501C152.056 51.6565 151.698 51.2307 151.252 50.9118C150.806 50.593 150.287 50.3914 149.743 50.3254C149.004 50.2337 148.256 50.3908 147.616 50.772C147.17 51.04 146.974 51.2739 146.957 51.2527Z" fill="#F5F5F5"/>
<path d="M145.294 47.0928C145.257 47.0782 145.221 47.0597 145.188 47.0375L144.877 46.8589L143.661 46.1401H143.699L141.542 48.3986V48.3391L142.58 49.9128L142.601 49.9426V49.9723C142.275 50.5656 142.028 51.1991 141.866 51.8566V51.8906H141.832L139.998 52.3457L140.049 52.2777C140.066 53.2588 140.086 54.2994 140.109 55.3996L140.049 55.3273L141.9 55.7058H141.946V55.7526C142.135 56.4002 142.407 57.0207 142.755 57.5986L142.78 57.6411L142.755 57.6836L141.776 59.2999V59.1936C142.482 59.8741 143.244 60.6099 144.026 61.3585H143.916L145.494 60.3207L145.541 60.2909L145.587 60.3164C146.175 60.6443 146.805 60.8918 147.459 61.0523H147.514V61.1076C147.659 61.6818 147.812 62.3113 147.965 62.9408L147.876 62.8727L150.998 62.8132L150.904 62.8897C151.027 62.307 151.159 61.6775 151.291 61.0438V60.9842H151.351C151.997 60.7983 152.616 60.5281 153.192 60.1803L153.243 60.1506L153.294 60.1803L154.906 61.1586H154.787L156.956 58.9128V59.0277L155.923 57.4497L155.889 57.4029L155.919 57.3519C156.247 56.764 156.495 56.1345 156.654 55.4804V55.4251H156.706L158.543 54.9998L158.471 55.0891C158.454 54.0229 158.437 52.9823 158.42 51.9672L158.492 52.0522L156.642 51.6652H156.591V51.6141C156.404 50.9638 156.131 50.3415 155.778 49.7639L155.753 49.7214L155.778 49.6746L156.757 48.0626V48.1647L154.515 45.987H154.609L153.026 47.0205H152.992H152.954C152.363 46.6929 151.733 46.4427 151.078 46.2762H151.04V46.2379C150.878 45.5744 150.734 44.9619 150.615 44.4047L150.67 44.4473L147.544 44.4898L147.586 44.4558C147.429 45.1916 147.297 45.7956 147.191 46.3017C146.698 46.439 146.22 46.6227 145.762 46.8504L145.426 47.029C145.391 47.0522 145.354 47.0708 145.315 47.0843L145.417 47.012C145.489 46.9695 145.596 46.9057 145.749 46.8249C146.203 46.582 146.68 46.3868 147.174 46.2422L147.153 46.2677C147.255 45.7615 147.374 45.1533 147.523 44.4175V44.3835H147.557L150.679 44.3112H150.725V44.3579L151.18 46.1869L151.134 46.1443C151.802 46.3066 152.445 46.5569 153.048 46.8887H152.975C153.477 46.5569 153.996 46.2124 154.553 45.8509L154.6 45.8168L154.643 45.8594L156.893 48.0243L156.939 48.0669L156.905 48.1221L155.931 49.7384V49.6491C156.288 50.24 156.565 50.8748 156.757 51.5376L156.689 51.478L158.539 51.8608H158.607V51.9331C158.607 52.9497 158.645 53.9917 158.662 55.0551V55.1274L158.59 55.1487L156.757 55.5995L156.825 55.5314C156.658 56.2009 156.405 56.8458 156.072 57.4497V57.3519L157.105 58.9299L157.148 58.9937L157.097 59.049L154.928 61.2947L154.872 61.35L154.809 61.3117L153.192 60.3335H153.29C152.7 60.6893 152.065 60.9653 151.402 61.1544L151.47 61.082C151.338 61.7158 151.206 62.358 151.083 62.928V63.0046H151.006L147.88 63.0598H147.808L147.786 62.9875C147.633 62.3538 147.48 61.7115 147.34 61.1544L147.408 61.2224C146.738 61.0555 146.093 60.801 145.489 60.4653H145.57L143.992 61.4989L143.933 61.5372L143.882 61.4904L141.636 59.3169L141.589 59.2701L141.623 59.2106L142.601 57.5986V57.6836C142.248 57.0925 141.973 56.4576 141.785 55.7952L141.849 55.8504L139.998 55.4634H139.939V55.4038C139.939 54.3065 139.905 53.2772 139.892 52.2777V52.2224H139.947L141.781 51.797L141.738 51.8438C141.904 51.1762 142.158 50.5339 142.495 49.9341V49.9936L141.466 48.4114L141.445 48.3773L141.474 48.3518L143.656 46.1146L144.843 46.8547C144.975 46.9355 145.077 46.9993 145.149 47.0503L145.294 47.0928Z" fill="#F5F5F5"/>
<path d="M57.9133 36.2384C57.8377 35.9077 57.7992 35.5696 57.7985 35.2303C57.7811 34.8236 57.7356 34.4186 57.6624 34.0181C57.5959 33.4695 57.4893 32.9264 57.3434 32.3934C56.9889 30.921 56.4154 29.5102 55.6421 28.2081C54.641 26.4804 53.3202 24.959 51.7503 23.7251C49.7172 22.1188 47.3143 21.0473 44.7608 20.6082C42.2072 20.1691 39.5844 20.3765 37.1316 21.2114C35.718 21.678 34.3841 22.3579 33.176 23.2274C32.5552 23.6687 31.9641 24.1504 31.4066 24.6693C30.8493 25.2185 30.3306 25.8054 29.8541 26.4259C27.846 29.0217 26.7214 32.1921 26.6448 35.4731C26.5683 38.754 27.5439 41.9734 29.4288 44.66C29.878 45.3006 30.3682 45.9115 30.8962 46.4889C31.4283 47.0382 31.9967 47.5512 32.5975 48.0244C33.7543 48.9499 35.045 49.6942 36.4255 50.2318C39.7846 51.5475 43.4956 51.6597 46.9281 50.5494C50.3605 49.4391 53.3028 47.1748 55.255 44.1411C56.0838 42.8762 56.7216 41.496 57.1477 40.0451C57.316 39.5174 57.4481 38.9788 57.5433 38.4331C57.6361 38.037 57.7001 37.6347 57.7347 37.2294C57.7532 36.8911 57.8088 36.556 57.9006 36.2299C57.9398 36.5676 57.9398 36.9087 57.9006 37.2464C57.8982 37.6587 57.8597 38.07 57.7857 38.4756C57.7201 39.0363 57.6106 39.5909 57.4582 40.1344C57.0827 41.6376 56.4742 43.0728 55.6548 44.3878C54.4561 46.3431 52.8528 48.0193 50.9528 49.3038C49.0528 50.5884 46.8999 51.4515 44.6387 51.8354C41.7781 52.3173 38.8406 52.0235 36.132 50.9847C34.6639 50.431 33.2896 49.6549 32.0573 48.6836C31.4186 48.1882 30.8133 47.6511 30.2454 47.0759C29.6843 46.4715 29.1656 45.8291 28.6929 45.1534C26.6966 42.3193 25.6644 38.9185 25.7487 35.4529C25.8329 31.9874 27.0292 28.6407 29.1608 25.907C29.6664 25.2546 30.2164 24.6378 30.8069 24.0611C31.4074 23.513 32.044 23.0057 32.7123 22.5426C33.9889 21.6337 35.3976 20.9264 36.8891 20.4458C39.6456 19.5333 42.5963 19.3761 45.4341 19.9906C47.6718 20.4856 49.778 21.4527 51.6118 22.8273C53.4456 24.2019 54.9647 25.9523 56.0674 27.9614C56.8281 29.3231 57.3706 30.7956 57.6752 32.3253C57.7976 32.8758 57.88 33.4345 57.9218 33.9969C57.9742 34.4058 57.9913 34.8185 57.9729 35.2303C57.992 35.5675 57.972 35.9058 57.9133 36.2384Z" fill="#EBEBEB"/>
<path d="M54.7404 26.3282C54.7744 26.3792 54.4894 26.6259 53.9365 27.0385L52.9157 27.77C52.7115 27.9104 52.4903 28.0678 52.2649 28.1954L51.4866 28.6207C48.6517 30.2406 45.4272 31.0527 42.1633 30.9686L40.7511 30.909L39.3943 30.6963C39.1732 30.6581 38.969 30.6283 38.7351 30.5858L38.1056 30.4156C37.6802 30.3008 37.2549 30.203 36.8849 30.0796C35.5055 29.6131 34.1795 29.0014 32.9293 28.2549C30.8026 26.9789 29.769 25.8008 29.8499 25.7029C29.9307 25.6051 31.0918 26.5834 33.2313 27.6977C34.4742 28.3485 35.7723 28.8879 37.1103 29.3098C37.4888 29.4203 37.8844 29.5054 38.2842 29.6075L38.8924 29.7564L39.5219 29.8542L40.8192 30.0456L42.1633 30.0966C45.2985 30.1666 48.4037 29.4717 51.2101 28.072L51.997 27.7275C52.2394 27.6042 52.4563 27.4681 52.669 27.349L53.7493 26.7535C54.3533 26.4345 54.7063 26.2814 54.7404 26.3282Z" fill="#EBEBEB"/>
<path d="M29.3692 45.6127C29.3309 45.5616 29.6202 45.3149 30.1689 44.9024L31.1897 44.1708C31.3938 44.0347 31.615 43.8773 31.8404 43.7455L32.623 43.3201C35.4584 41.7016 38.6826 40.8897 41.9463 40.9723L43.3584 41.0361L44.711 41.2487C44.9322 41.287 45.1363 41.3125 45.3703 41.3593L45.9998 41.5252C46.4251 41.6401 46.8292 41.7379 47.2205 41.8655C48.5997 42.3307 49.9256 42.9409 51.1761 43.6859C53.3027 44.9619 54.3363 46.1401 54.2555 46.2379C54.1747 46.3357 53.0135 45.3575 50.8528 44.2473C49.605 43.6022 48.3027 43.0684 46.961 42.6523C46.5782 42.5418 46.1827 42.4609 45.7828 42.3546L45.1916 42.1845L44.5664 42.1079L43.2904 41.9165L41.9421 41.8612C38.8137 41.7967 35.7164 42.493 32.9165 43.8901L32.1254 44.2303C31.8829 44.3579 31.666 44.494 31.4576 44.6089L30.373 45.2043C29.7563 45.5106 29.4033 45.6637 29.3692 45.6127Z" fill="#EBEBEB"/>
<path d="M57.9048 36.6084C57.9048 36.8465 50.7933 36.8721 42.0357 36.6594C33.278 36.4467 26.1835 36.0767 26.192 35.8385C26.2005 35.6003 33.2993 35.5748 42.0569 35.7875C50.8145 36.0001 57.9091 36.3659 57.9048 36.6084Z" fill="#EBEBEB"/>
<path d="M41.3168 51.6949C41.0744 51.6949 41.0531 44.5876 41.2658 35.8343C41.4785 27.0809 41.8443 19.9906 42.0867 19.9906C42.3291 19.9906 42.3504 27.0937 42.1377 35.8513C41.9251 44.6089 41.555 51.6992 41.3168 51.6949Z" fill="#EBEBEB"/>
<path d="M41.3168 51.6695C41.2573 51.763 39.5092 50.5806 37.4888 47.8968C36.3124 46.3197 35.3591 44.5879 34.6561 42.7502C33.802 40.4799 33.3863 38.0682 33.4312 35.6429C33.4909 33.2144 34.0361 30.8224 35.0347 28.6079C35.8374 26.8143 36.879 25.1375 38.1311 23.623C40.2578 21.0412 42.0271 19.8971 42.0867 19.9906C42.1462 20.0842 40.5768 21.3857 38.616 24.0015C37.4749 25.5228 36.5197 27.1748 35.7705 28.9226C34.8586 31.0551 34.3606 33.3414 34.3031 35.6599C34.2619 37.9766 34.638 40.2818 35.4132 42.4653C36.0602 44.2545 36.9274 45.9561 37.995 47.531C39.8324 50.2446 41.4062 51.5759 41.3168 51.6695Z" fill="#EBEBEB"/>
<path d="M42.4397 19.9906C42.4993 19.897 44.2474 21.0837 46.2677 23.7633C47.4468 25.3433 48.4002 27.0797 49.1004 28.9226C49.9566 31.1924 50.3723 33.6045 50.3254 36.0299C50.267 38.4581 49.7232 40.8501 48.7262 43.0649C47.917 44.8619 46.8714 46.5427 45.617 48.0626C43.4903 50.6444 41.7167 51.7885 41.6571 51.6949C41.5976 51.6014 43.167 50.2998 45.1278 47.684C46.2692 46.1615 47.2245 44.508 47.9733 42.7587C48.8905 40.6233 49.3901 38.332 49.445 36.0086C49.4882 33.6918 49.1121 31.3863 48.3348 29.2033C47.6879 27.4141 46.8206 25.7124 45.7531 24.1376C43.9156 21.424 42.3547 20.0927 42.4397 19.9906Z" fill="#EBEBEB"/>
<path d="M76.9513 52.6818C78.2688 51.8866 79.6863 51.2701 81.1663 50.8486L82.017 46.6804L89.0605 46.557L90.0728 50.6955C91.5676 51.0681 93.0054 51.6403 94.3474 52.3968L97.9074 50.0618L102.977 54.9573L100.77 58.5982C101.565 59.9142 102.182 61.3303 102.603 62.809L106.771 63.6597L106.895 70.7032L102.756 71.7197C102.388 73.2059 101.823 74.6363 101.076 75.9731L103.411 79.5331L98.5327 84.6413L94.8918 82.4339C93.5756 83.2277 92.1596 83.8428 90.681 84.2628L89.8304 88.4311L82.7868 88.5587L81.7703 84.3989C80.2764 84.0236 78.8389 83.4515 77.4957 82.6976L73.9186 85.0667L68.8487 80.1753L71.0561 76.5345C70.2605 75.2177 69.6454 73.8 69.2272 72.3194L65.059 71.4688L64.9314 64.4253L69.0698 63.413C69.4442 61.9255 70.0165 60.495 70.7712 59.1596L68.4404 55.5996L73.3317 50.5296L76.9725 52.7371L76.9513 52.6818ZM80.707 62.0647C79.6688 63.1401 78.9728 64.4992 78.7071 65.9702C78.4413 67.4412 78.6177 68.9579 79.2139 70.3286C79.8101 71.6994 80.7994 72.8625 82.0566 73.6711C83.3138 74.4796 84.7826 74.8972 86.2771 74.871C87.7717 74.8449 89.2249 74.3761 90.4531 73.5241C91.6813 72.672 92.6292 71.4749 93.1771 70.0842C93.7249 68.6934 93.8481 67.1714 93.531 65.7107C93.2139 64.2499 92.4708 62.916 91.3956 61.8775C90.6815 61.1879 89.8386 60.6456 88.915 60.2818C87.9913 59.9179 87.0051 59.7396 86.0125 59.757C85.0199 59.7744 84.0405 59.9871 83.1302 60.3831C82.2198 60.779 81.3964 61.3504 80.707 62.0647Z" fill="#E0E0E0"/>
<path d="M80.707 62.0646C81.105 61.5786 81.5807 61.1618 82.1148 60.8311C83.5732 59.8829 85.3158 59.471 87.0444 59.6657C88.2402 59.7917 89.3889 60.1999 90.3961 60.8566C91.5577 61.6121 92.4938 62.6672 93.1054 63.9105C93.4457 64.5787 93.6783 65.2964 93.7945 66.0372C93.9346 66.8067 93.949 67.5939 93.837 68.368C93.623 70.0078 92.8871 71.5353 91.7383 72.7248C90.5894 73.9142 89.0884 74.7026 87.457 74.9735C86.6888 75.1127 85.9032 75.1271 85.1304 75.016C84.3946 74.9206 83.6776 74.7141 83.0038 74.4035C81.7406 73.8331 80.6537 72.9341 79.8563 71.8005C79.1657 70.8157 78.7169 69.682 78.5463 68.4914C78.2916 66.7701 78.6434 65.0138 79.5415 63.5235C79.853 62.9781 80.2526 62.4881 80.724 62.0731C80.7665 62.1071 80.2689 62.5707 79.6862 63.6085C78.8701 65.0802 78.5706 66.7828 78.8355 68.4446C79.0321 69.6627 79.53 70.8125 80.284 71.7892C81.0379 72.766 82.024 73.5389 83.1526 74.0377C84.4882 74.6266 85.968 74.8071 87.406 74.5566C88.9457 74.2934 90.3611 73.5453 91.446 72.4214C92.5309 71.2975 93.2285 69.8566 93.4372 68.3085C93.5466 67.5773 93.5365 66.8332 93.4074 66.1053C93.2983 65.4061 93.0832 64.7277 92.7694 64.0934C92.2321 62.9787 91.423 62.0169 90.4166 61.2967C89.4102 60.5765 88.2389 60.1209 87.0104 59.9719C85.3407 59.7613 83.6485 60.1162 82.2041 60.98C81.1876 61.5925 80.7452 62.0986 80.707 62.0646Z" fill="#E0E0E0"/>
<path d="M76.9513 52.6817C76.9513 52.6817 76.8747 52.6434 76.7173 52.5584L76.0198 52.1543L73.2636 50.5338H73.3487L68.4829 55.6378V55.5017L70.8307 59.049L70.8733 59.1128L70.835 59.1808C70.0992 60.5198 69.5429 61.9499 69.1804 63.4342V63.515L69.0954 63.5362L64.9611 64.5613L65.0802 64.4124C65.1227 66.6284 65.1695 68.9848 65.2206 71.4559L65.0845 71.2901L69.2527 72.1407H69.3591L69.3888 72.2471C69.8081 73.7097 70.4203 75.11 71.2093 76.4111L71.2688 76.5089L71.2093 76.6067C70.5245 77.7339 69.7716 78.9801 69.006 80.2476L68.9763 80.0094L74.0505 84.8965L73.7995 84.8752L77.3596 82.5359L77.4617 82.4678L77.5723 82.5274C78.9002 83.2654 80.3206 83.8232 81.7958 84.1862L81.9192 84.2159L81.9489 84.3393C82.2679 85.6366 82.6167 87.0487 82.9655 88.4778L82.7571 88.3162L89.8006 88.1886L89.5922 88.3587C89.8686 87.0402 90.1621 85.6195 90.4428 84.1904L90.4684 84.0628L90.596 84.0245C92.0548 83.6098 93.4521 83.0034 94.7515 82.2211L94.8663 82.1531L94.9769 82.2211L98.6135 84.4286L98.3498 84.4626L103.241 79.3969L103.216 79.6649L100.91 76.1048L100.842 75.9985L100.902 75.8837C101.643 74.5581 102.202 73.1389 102.565 71.6644L102.599 71.541L102.722 71.5112L106.856 70.4989L106.699 70.7031C106.662 68.3014 106.624 65.9535 106.584 63.6596L106.742 63.851L102.573 62.9791L102.459 62.9535L102.429 62.8429C102.014 61.378 101.406 59.9748 100.621 58.6704L100.566 58.5726L100.621 58.479L102.837 54.8424L102.867 55.0636L97.8054 50.1595H98.0138L94.4452 52.4818L94.3687 52.5371L94.2836 52.4903C92.9475 51.7423 91.5169 51.1773 90.0303 50.8103L89.9452 50.789V50.7039C89.5794 49.2025 89.2519 47.8457 88.9457 46.5654L89.069 46.6633L82.0255 46.7568L82.1191 46.6803C81.7618 48.3433 81.4683 49.7086 81.2259 50.8443V50.8868H81.1876C80.076 51.1937 78.9975 51.6097 77.9678 52.1288L77.2065 52.5244C77.1261 52.573 77.0422 52.6157 76.9555 52.652C76.9555 52.652 77.0363 52.5924 77.1895 52.4903C77.3426 52.3883 77.6148 52.2436 77.9338 52.065C78.9558 51.5149 80.0338 51.0757 81.1493 50.755L81.1025 50.806C81.3279 49.6661 81.6044 48.3008 81.9532 46.6292V46.5569H82.0298L89.0733 46.4038H89.1754L89.2009 46.5059C89.5199 47.7819 89.8559 49.1344 90.2302 50.6401L90.1238 50.5338C91.6323 50.9061 93.0841 51.4782 94.441 52.2351H94.2794L97.8351 49.8958L97.9457 49.8192L98.0393 49.9128L103.118 54.7956L103.224 54.8977L103.148 55.0211L100.949 58.6619V58.4705C101.754 59.7991 102.378 61.2296 102.803 62.7239L102.658 62.5835L106.827 63.4342L106.984 63.4682V63.6256C107.027 65.9167 107.069 68.2659 107.112 70.6733V70.835L106.95 70.8775L102.816 71.894L102.969 71.7409C102.597 73.2523 102.025 74.7071 101.268 76.0666V75.8454C102.039 77.025 102.817 78.2117 103.603 79.4054L103.696 79.55L103.577 79.6734L98.6858 84.7434L98.5667 84.8667L98.4178 84.7774L94.777 82.5699H94.9982C93.6686 83.3723 92.2383 83.9945 90.7448 84.4201L90.898 84.2585C90.596 85.6876 90.3025 87.1082 90.0473 88.4267L90.0133 88.5926H89.8431L82.7954 88.7117H82.621L82.5784 88.5458C82.2297 87.121 81.8851 85.7046 81.5661 84.4116L81.7193 84.5647C80.2103 84.1901 78.7573 83.618 77.3979 82.8634H77.6105L74.0462 85.1942L73.9101 85.2835L73.7953 85.1687L68.7338 80.2689L68.6232 80.1625L68.7041 80.0307C69.4739 78.7547 70.2267 77.5212 70.9158 76.3941V76.5897C70.1147 75.26 69.494 73.8297 69.0698 72.3364L69.206 72.464L65.0377 71.5878L64.9058 71.558V71.4559C64.8718 68.9848 64.8335 66.6284 64.7995 64.4124V64.2891L64.9186 64.2593L69.0571 63.2555L68.955 63.3619C69.3283 61.8578 69.9005 60.4103 70.6563 59.0575V59.1893L68.3383 55.6208L68.2915 55.5442L68.351 55.4847L73.2636 50.4275L73.3062 50.3849L73.353 50.4147L76.0325 52.082L76.7216 52.5073C76.8031 52.5587 76.8799 52.6171 76.9513 52.6817Z" fill="#E0E0E0"/>
<path d="M114.338 24.4992C115.325 23.9023 116.388 23.4403 117.498 23.1254L118.153 19.9907L123.453 19.9014L124.214 23.0063C125.337 23.2873 126.417 23.7164 127.426 24.2823L130.097 22.5299L133.903 26.2048L132.24 28.9227C132.838 29.9114 133.3 30.9757 133.614 32.0872L136.745 32.7507L136.838 38.0418L133.733 38.8032C133.451 39.9249 133.022 41.0046 132.457 42.0144L134.21 44.6855L130.548 48.488L127.813 46.8335C126.824 47.4307 125.76 47.8928 124.648 48.2073L123.997 51.3377L118.706 51.4313L117.945 48.3264C116.823 48.0438 115.743 47.6148 114.734 47.0504L112.063 48.8028L108.235 45.1279L109.889 42.393C109.292 41.4043 108.83 40.34 108.515 39.2285L105.385 38.5778L105.291 33.2866L108.396 32.5253C108.677 31.403 109.106 30.3231 109.672 29.314L107.92 26.6429L111.595 22.8362L114.33 24.4907L114.338 24.4992ZM117.158 31.547C116.378 32.3547 115.854 33.3758 115.654 34.481C115.454 35.5863 115.586 36.726 116.034 37.7562C116.481 38.7863 117.225 39.6605 118.169 40.2682C119.114 40.8758 120.218 41.1897 121.341 41.1701C122.464 41.1504 123.556 40.7982 124.478 40.1578C125.401 39.5175 126.113 38.6178 126.525 37.5727C126.936 36.5275 127.028 35.3838 126.79 34.2863C126.551 33.1887 125.992 32.1866 125.184 31.4066C124.101 30.3614 122.647 29.7891 121.142 29.8154C119.637 29.8417 118.204 30.4646 117.158 31.547Z" fill="#EBEBEB"/>
<path d="M53.6983 166.471C53.7921 166.338 53.9006 166.215 54.0216 166.105L54.9488 165.174C55.7357 164.396 56.8373 163.328 58.0622 162.158L58.092 162.133V162.29C56.8585 161.146 55.7484 160.1 54.953 159.334L54.0216 158.42C53.9019 158.313 53.7936 158.195 53.6983 158.067C53.8368 158.147 53.9641 158.246 54.0768 158.36L55.0594 159.211C55.8803 159.947 57.0031 160.972 58.2366 162.12L58.3217 162.197L58.2366 162.277L58.2111 162.303C56.9861 163.473 55.8675 164.519 55.0509 165.28L54.0768 166.165C53.9627 166.281 53.8357 166.384 53.6983 166.471Z" fill="#E0E0E0"/>
<path d="M44.1836 158.067C44.0876 158.197 43.9793 158.318 43.8603 158.428L42.9331 159.36C42.1463 160.138 41.0446 161.206 39.8197 162.375L39.7899 162.401V162.243C41.0234 163.392 42.1335 164.434 42.9289 165.199L43.8603 166.114C43.9821 166.22 44.0906 166.34 44.1836 166.471C44.047 166.386 43.9201 166.286 43.8051 166.174C43.5371 165.94 43.2096 165.655 42.8225 165.323C42.0016 164.591 40.8788 163.562 39.6453 162.414L39.5602 162.337L39.6453 162.256L39.6708 162.231C40.8958 161.061 42.0144 160.015 42.831 159.253L43.8051 158.373C43.9177 158.255 44.0449 158.152 44.1836 158.067Z" fill="#E0E0E0"/>
<path d="M46.625 168.432C46.5697 168.411 47.5692 165.599 48.858 162.154C50.1468 158.709 51.2399 155.931 51.2952 155.953C51.3505 155.974 50.3509 158.785 49.0622 162.231C47.7734 165.676 46.6846 168.47 46.625 168.432Z" fill="#E0E0E0"/>
<path d="M64.5358 174.463C64.5358 174.463 64.5358 174.302 64.5358 173.991C64.5358 173.681 64.5358 173.23 64.5358 172.643C64.5358 171.452 64.5358 169.725 64.5103 167.539C64.5103 163.128 64.4848 156.829 64.4677 149.228L64.5571 149.322H33.5715L33.6779 149.211C33.6779 158.343 33.6779 166.96 33.6779 174.463L33.58 174.365L55.9568 174.416L62.2985 174.442H63.9999H62.3326L56.0121 174.467L33.5758 174.518H33.478V174.421C33.478 166.918 33.478 158.3 33.478 149.169V149.062H33.5885H64.5741H64.6634V149.152C64.6421 156.774 64.6251 163.094 64.6166 167.517C64.6166 169.712 64.6166 171.435 64.5911 172.621C64.5911 173.2 64.5911 173.647 64.5911 173.957C64.5911 174.268 64.5358 174.463 64.5358 174.463Z" fill="#E0E0E0"/>
<path d="M64.7782 152.958C64.7782 153.018 57.7815 153.069 49.1557 153.069C40.53 153.069 33.5332 153.018 33.5332 152.958C33.5332 152.899 40.5257 152.852 49.1557 152.852C57.7858 152.852 64.7782 152.899 64.7782 152.958Z" fill="#E0E0E0"/>
<path d="M36.0767 151.117C36.0767 151.23 36.0319 151.338 35.9522 151.417C35.8724 151.497 35.7642 151.542 35.6514 151.542C35.5386 151.542 35.4304 151.497 35.3507 151.417C35.2709 151.338 35.2261 151.23 35.2261 151.117C35.2261 151.004 35.2709 150.896 35.3507 150.816C35.4304 150.736 35.5386 150.691 35.6514 150.691C35.7642 150.691 35.8724 150.736 35.9522 150.816C36.0319 150.896 36.0767 151.004 36.0767 151.117Z" fill="#E0E0E0"/>
<path d="M37.1783 151.533C37.4086 151.533 37.5952 151.347 37.5952 151.117C37.5952 150.886 37.4086 150.7 37.1783 150.7C36.9481 150.7 36.7615 150.886 36.7615 151.117C36.7615 151.347 36.9481 151.533 37.1783 151.533Z" fill="#E0E0E0"/>
<path d="M39.1179 151.117C39.1179 151.201 39.0929 151.283 39.0462 151.353C38.9995 151.423 38.933 151.477 38.8553 151.51C38.7776 151.542 38.6921 151.55 38.6096 151.534C38.5271 151.517 38.4513 151.477 38.3918 151.417C38.3323 151.358 38.2918 151.282 38.2754 151.2C38.259 151.117 38.2674 151.032 38.2996 150.954C38.3318 150.876 38.3863 150.81 38.4562 150.763C38.5262 150.716 38.6084 150.691 38.6925 150.691C38.8054 150.691 38.9135 150.736 38.9933 150.816C39.0731 150.896 39.1179 151.004 39.1179 151.117Z" fill="#E0E0E0"/>
<path d="M311.025 191.004C311.025 191.068 246.166 191.115 166.178 191.115C86.1895 191.115 21.3219 191.068 21.3219 191.004C21.3219 190.941 86.164 190.894 166.178 190.894C246.191 190.894 311.025 190.945 311.025 191.004Z" fill="#051509"/>
<path d="M266.246 190.273H299.826V87.4017H266.246V190.273Z" fill="#EBEBEB"/>
<path d="M239.752 190.273H266.246L266.293 87.4017H239.752V190.273Z" fill="#E0E0E0"/>
<path d="M269.483 111.884H297.967V103.862H269.483V111.884Z" fill="#051509"/>
<path d="M295.577 111.012H297.172V104.874H295.577V111.012Z" fill="#455A64"/>
<path d="M293.697 106.163C293.696 106.264 293.725 106.364 293.781 106.448C293.837 106.533 293.917 106.599 294.01 106.638C294.103 106.677 294.206 106.688 294.306 106.668C294.405 106.649 294.497 106.6 294.568 106.528C294.64 106.457 294.689 106.365 294.708 106.266C294.728 106.167 294.717 106.064 294.678 105.97C294.639 105.877 294.573 105.797 294.488 105.741C294.404 105.685 294.304 105.656 294.203 105.657C294.069 105.658 293.941 105.712 293.846 105.806C293.752 105.901 293.698 106.029 293.697 106.163Z" fill="white"/>
<path d="M293.697 108.332C293.696 108.434 293.725 108.533 293.781 108.617C293.837 108.702 293.917 108.768 294.01 108.807C294.103 108.846 294.206 108.857 294.306 108.837C294.405 108.818 294.497 108.769 294.568 108.697C294.64 108.626 294.689 108.535 294.708 108.435C294.728 108.336 294.717 108.233 294.678 108.139C294.639 108.046 294.573 107.966 294.488 107.91C294.404 107.855 294.304 107.825 294.203 107.826C294.137 107.826 294.071 107.839 294.009 107.865C293.948 107.89 293.892 107.927 293.845 107.974C293.798 108.021 293.761 108.077 293.735 108.139C293.71 108.2 293.697 108.266 293.697 108.332Z" fill="white"/>
<path d="M290.103 110.374H291.672V105.657H290.103V110.374Z" fill="#455A64"/>
<path d="M287.836 110.374H289.405V105.657H287.836V110.374Z" fill="#455A64"/>
<path d="M285.573 110.374H287.143V105.657H285.573V110.374Z" fill="#455A64"/>
<path d="M283.31 110.374H284.88V105.657H283.31V110.374Z" fill="#455A64"/>
<path d="M281.043 110.374H282.613V105.657H281.043V110.374Z" fill="#455A64"/>
<path d="M278.78 110.374H280.35V105.657H278.78V110.374Z" fill="#455A64"/>
<path d="M276.518 110.374H278.087V105.657H276.518V110.374Z" fill="#455A64"/>
<path d="M274.251 110.374H275.82V105.657H274.251V110.374Z" fill="#455A64"/>
<path d="M271.988 110.374H273.557V105.657H271.988V110.374Z" fill="#455A64"/>
<path d="M269.725 110.374H271.295V105.657H269.725V110.374Z" fill="#455A64"/>
<path d="M269.483 123.406H297.967V115.384H269.483V123.406Z" fill="#051509"/>
<path d="M295.577 122.53H297.172V116.392H295.577V122.53Z" fill="#455A64"/>
<path d="M293.697 117.685C293.696 117.787 293.725 117.886 293.781 117.971C293.837 118.055 293.917 118.121 294.01 118.16C294.103 118.2 294.206 118.21 294.306 118.191C294.405 118.171 294.497 118.122 294.568 118.051C294.64 117.979 294.689 117.888 294.708 117.788C294.728 117.689 294.717 117.586 294.678 117.492C294.639 117.399 294.573 117.319 294.488 117.264C294.404 117.208 294.304 117.178 294.203 117.179C294.137 117.179 294.071 117.192 294.009 117.218C293.948 117.243 293.892 117.281 293.845 117.328C293.798 117.375 293.761 117.43 293.735 117.492C293.71 117.553 293.697 117.619 293.697 117.685Z" fill="white"/>
<path d="M293.697 119.855C293.696 119.956 293.725 120.055 293.781 120.14C293.837 120.224 293.917 120.29 294.01 120.33C294.103 120.369 294.206 120.379 294.306 120.36C294.405 120.34 294.497 120.291 294.568 120.22C294.64 120.148 294.689 120.057 294.708 119.957C294.728 119.858 294.717 119.755 294.678 119.662C294.639 119.568 294.573 119.489 294.488 119.433C294.404 119.377 294.304 119.348 294.203 119.349C294.137 119.349 294.071 119.362 294.009 119.387C293.948 119.412 293.892 119.45 293.845 119.497C293.798 119.544 293.761 119.6 293.735 119.661C293.71 119.722 293.697 119.788 293.697 119.855Z" fill="white"/>
<path d="M290.103 121.892H291.672V117.179H290.103V121.892Z" fill="#455A64"/>
<path d="M287.836 121.892H289.405V117.179H287.836V121.892Z" fill="#455A64"/>
<path d="M285.573 121.892H287.143V117.179H285.573V121.892Z" fill="#455A64"/>
<path d="M283.31 121.892H284.88V117.179H283.31V121.892Z" fill="#455A64"/>
<path d="M281.043 121.892H282.613V117.179H281.043V121.892Z" fill="#455A64"/>
<path d="M278.78 121.892H280.35V117.179H278.78V121.892Z" fill="#455A64"/>
<path d="M276.518 121.892H278.087V117.179H276.518V121.892Z" fill="#455A64"/>
<path d="M274.251 121.892H275.82V117.179H274.251V121.892Z" fill="#455A64"/>
<path d="M271.988 121.892H273.557V117.179H271.988V121.892Z" fill="#455A64"/>
<path d="M269.725 121.892H271.295V117.179H269.725V121.892Z" fill="#455A64"/>
<path d="M269.483 135.022H297.967V127H269.483V135.022Z" fill="#051509"/>
<path d="M295.577 134.146H297.172V128.008H295.577V134.146Z" fill="#455A64"/>
<path d="M293.697 129.301C293.697 129.402 293.727 129.501 293.783 129.585C293.839 129.669 293.919 129.735 294.013 129.773C294.106 129.812 294.209 129.822 294.308 129.802C294.408 129.782 294.498 129.733 294.57 129.661C294.641 129.589 294.689 129.498 294.708 129.398C294.728 129.299 294.717 129.196 294.678 129.103C294.638 129.01 294.572 128.93 294.488 128.875C294.403 128.819 294.304 128.79 294.203 128.791C294.068 128.792 293.94 128.846 293.845 128.942C293.75 129.038 293.697 129.167 293.697 129.301Z" fill="white"/>
<path d="M293.697 131.466C293.696 131.568 293.725 131.667 293.781 131.751C293.837 131.836 293.917 131.902 294.01 131.941C294.103 131.98 294.206 131.991 294.306 131.971C294.405 131.952 294.497 131.903 294.568 131.831C294.64 131.76 294.689 131.668 294.708 131.569C294.728 131.47 294.717 131.367 294.678 131.273C294.639 131.18 294.573 131.1 294.488 131.044C294.404 130.989 294.304 130.959 294.203 130.96C294.069 130.961 293.941 131.015 293.846 131.11C293.752 131.204 293.698 131.332 293.697 131.466Z" fill="white"/>
<path d="M290.103 133.508H291.672V128.795H290.103V133.508Z" fill="#455A64"/>
<path d="M287.836 133.508H289.405V128.795H287.836V133.508Z" fill="#455A64"/>
<path d="M285.573 133.508H287.143V128.795H285.573V133.508Z" fill="#455A64"/>
<path d="M283.31 133.508H284.88V128.795H283.31V133.508Z" fill="#455A64"/>
<path d="M281.043 133.508H282.613V128.795H281.043V133.508Z" fill="#455A64"/>
<path d="M278.78 133.508H280.35V128.795H278.78V133.508Z" fill="#455A64"/>
<path d="M276.518 133.508H278.087V128.795H276.518V133.508Z" fill="#455A64"/>
<path d="M274.251 133.508H275.82V128.795H274.251V133.508Z" fill="#455A64"/>
<path d="M271.988 133.508H273.557V128.795H271.988V133.508Z" fill="#455A64"/>
<path d="M269.725 133.508H271.295V128.795H269.725V133.508Z" fill="#455A64"/>
<path d="M269.483 147.565H297.967V139.543H269.483V147.565Z" fill="#051509"/>
<path d="M295.577 146.689H297.172V140.551H295.577V146.689Z" fill="#455A64"/>
<path d="M293.697 141.844C293.696 141.946 293.725 142.045 293.781 142.13C293.837 142.214 293.917 142.28 294.01 142.319C294.103 142.359 294.206 142.369 294.306 142.349C294.405 142.33 294.497 142.281 294.568 142.21C294.64 142.138 294.689 142.047 294.708 141.947C294.728 141.848 294.717 141.745 294.678 141.651C294.639 141.558 294.573 141.478 294.488 141.423C294.404 141.367 294.304 141.337 294.203 141.338C294.137 141.338 294.071 141.351 294.009 141.377C293.948 141.402 293.892 141.44 293.845 141.487C293.798 141.534 293.761 141.589 293.735 141.651C293.71 141.712 293.697 141.778 293.697 141.844Z" fill="white"/>
<path d="M293.697 144.014C293.696 144.115 293.725 144.214 293.781 144.299C293.837 144.383 293.917 144.449 294.01 144.489C294.103 144.528 294.206 144.538 294.306 144.519C294.405 144.499 294.497 144.45 294.568 144.379C294.64 144.307 294.689 144.216 294.708 144.116C294.728 144.017 294.717 143.914 294.678 143.821C294.639 143.727 294.573 143.647 294.488 143.592C294.404 143.536 294.304 143.507 294.203 143.507C294.137 143.507 294.071 143.521 294.009 143.546C293.948 143.571 293.892 143.609 293.845 143.656C293.798 143.703 293.761 143.759 293.735 143.82C293.71 143.881 293.697 143.947 293.697 144.014Z" fill="white"/>
<path d="M290.103 146.051H291.672V141.338H290.103V146.051Z" fill="#455A64"/>
<path d="M287.836 146.051H289.405V141.338H287.836V146.051Z" fill="#455A64"/>
<path d="M285.573 146.051H287.143V141.338H285.573V146.051Z" fill="#455A64"/>
<path d="M283.31 146.051H284.88V141.338H283.31V146.051Z" fill="#455A64"/>
<path d="M281.043 146.051H282.613V141.338H281.043V146.051Z" fill="#455A64"/>
<path d="M278.78 146.051H280.35V141.338H278.78V146.051Z" fill="#455A64"/>
<path d="M276.518 146.051H278.087V141.338H276.518V146.051Z" fill="#455A64"/>
<path d="M274.251 146.051H275.82V141.338H274.251V146.051Z" fill="#455A64"/>
<path d="M271.988 146.051H273.557V141.338H271.988V146.051Z" fill="#455A64"/>
<path d="M269.725 146.051H271.295V141.338H269.725V146.051Z" fill="#455A64"/>
<path d="M269.483 160.236H297.967V152.214H269.483V160.236Z" fill="#051509"/>
<path d="M295.577 159.364H297.172V153.226H295.577V159.364Z" fill="#455A64"/>
<path d="M293.697 154.515C293.696 154.616 293.725 154.716 293.781 154.8C293.837 154.885 293.917 154.951 294.01 154.99C294.103 155.029 294.206 155.04 294.306 155.02C294.405 155.001 294.497 154.952 294.568 154.88C294.64 154.809 294.689 154.717 294.708 154.618C294.728 154.518 294.717 154.415 294.678 154.322C294.639 154.229 294.573 154.149 294.488 154.093C294.404 154.037 294.304 154.008 294.203 154.009C294.137 154.009 294.071 154.022 294.009 154.047C293.948 154.073 293.892 154.11 293.845 154.157C293.798 154.204 293.761 154.26 293.735 154.321C293.71 154.383 293.697 154.449 293.697 154.515Z" fill="white"/>
<path d="M293.697 156.684C293.696 156.786 293.725 156.885 293.781 156.969C293.837 157.054 293.917 157.12 294.01 157.159C294.103 157.198 294.206 157.209 294.306 157.189C294.405 157.17 294.497 157.121 294.568 157.049C294.64 156.978 294.689 156.886 294.708 156.787C294.728 156.688 294.717 156.585 294.678 156.491C294.639 156.398 294.573 156.318 294.488 156.262C294.404 156.207 294.304 156.177 294.203 156.178C294.137 156.178 294.071 156.191 294.009 156.217C293.948 156.242 293.892 156.279 293.845 156.326C293.798 156.373 293.761 156.429 293.735 156.491C293.71 156.552 293.697 156.618 293.697 156.684Z" fill="white"/>
<path d="M290.103 158.722H291.672V154.009H290.103V158.722Z" fill="#455A64"/>
<path d="M287.836 158.722H289.405V154.009H287.836V158.722Z" fill="#455A64"/>
<path d="M285.573 158.722H287.143V154.009H285.573V158.722Z" fill="#455A64"/>
<path d="M283.31 158.722H284.88V154.009H283.31V158.722Z" fill="#455A64"/>
<path d="M281.043 158.722H282.613V154.009H281.043V158.722Z" fill="#455A64"/>
<path d="M278.78 158.722H280.35V154.009H278.78V158.722Z" fill="#455A64"/>
<path d="M276.518 158.722H278.087V154.009H276.518V158.722Z" fill="#455A64"/>
<path d="M274.251 158.722H275.82V154.009H274.251V158.722Z" fill="#455A64"/>
<path d="M271.988 158.722H273.557V154.009H271.988V158.722Z" fill="#455A64"/>
<path d="M269.725 158.722H271.295V154.009H269.725V158.722Z" fill="#455A64"/>
<path d="M269.483 185.45H297.967V177.428H269.483V185.45Z" fill="#051509"/>
<path d="M295.577 184.573H297.172V178.436H295.577V184.573Z" fill="#455A64"/>
<path d="M293.697 179.729C293.696 179.83 293.725 179.929 293.781 180.014C293.837 180.099 293.917 180.165 294.01 180.204C294.103 180.243 294.206 180.253 294.306 180.234C294.405 180.214 294.497 180.166 294.568 180.094C294.64 180.022 294.689 179.931 294.708 179.832C294.728 179.732 294.717 179.629 294.678 179.536C294.639 179.442 294.573 179.363 294.488 179.307C294.404 179.251 294.304 179.222 294.203 179.223C294.137 179.223 294.071 179.236 294.009 179.261C293.948 179.287 293.892 179.324 293.845 179.371C293.798 179.418 293.761 179.474 293.735 179.535C293.71 179.597 293.697 179.662 293.697 179.729Z" fill="white"/>
<path d="M293.697 181.898C293.696 181.999 293.725 182.099 293.781 182.183C293.837 182.268 293.917 182.334 294.01 182.373C294.103 182.412 294.206 182.423 294.306 182.403C294.405 182.383 294.497 182.335 294.568 182.263C294.64 182.192 294.689 182.1 294.708 182.001C294.728 181.901 294.717 181.798 294.678 181.705C294.639 181.612 294.573 181.532 294.488 181.476C294.404 181.42 294.304 181.391 294.203 181.392C294.137 181.392 294.071 181.405 294.009 181.43C293.948 181.456 293.892 181.493 293.845 181.54C293.798 181.587 293.761 181.643 293.735 181.704C293.71 181.766 293.697 181.832 293.697 181.898Z" fill="white"/>
<path d="M290.103 183.935H291.672V179.223H290.103V183.935Z" fill="#455A64"/>
<path d="M287.836 183.935H289.405V179.223H287.836V183.935Z" fill="#455A64"/>
<path d="M285.573 183.935H287.143V179.223H285.573V183.935Z" fill="#455A64"/>
<path d="M283.31 183.935H284.88V179.223H283.31V183.935Z" fill="#455A64"/>
<path d="M281.043 183.935H282.613V179.223H281.043V183.935Z" fill="#455A64"/>
<path d="M278.78 183.935H280.35V179.223H278.78V183.935Z" fill="#455A64"/>
<path d="M276.518 183.935H278.087V179.223H276.518V183.935Z" fill="#455A64"/>
<path d="M274.251 183.935H275.82V179.223H274.251V183.935Z" fill="#455A64"/>
<path d="M271.988 183.935H273.557V179.223H271.988V183.935Z" fill="#455A64"/>
<path d="M269.725 183.935H271.295V179.223H269.725V183.935Z" fill="#455A64"/>
<path d="M269.483 172.855H297.967V164.834H269.483V172.855Z" fill="#051509"/>
<path d="M295.577 171.979H297.172V165.842H295.577V171.979Z" fill="#455A64"/>
<path d="M293.697 167.156C293.697 167.257 293.727 167.356 293.783 167.44C293.839 167.524 293.919 167.589 294.013 167.628C294.106 167.666 294.209 167.676 294.308 167.656C294.408 167.636 294.498 167.587 294.57 167.515C294.641 167.444 294.689 167.352 294.708 167.253C294.728 167.154 294.717 167.051 294.678 166.958C294.638 166.864 294.572 166.785 294.488 166.729C294.403 166.674 294.304 166.645 294.203 166.646C294.068 166.647 293.94 166.701 293.845 166.797C293.75 166.892 293.697 167.021 293.697 167.156Z" fill="white"/>
<path d="M293.697 169.283C293.696 169.384 293.725 169.483 293.781 169.568C293.837 169.652 293.917 169.718 294.01 169.758C294.103 169.797 294.206 169.807 294.306 169.788C294.405 169.768 294.497 169.719 294.568 169.648C294.64 169.576 294.689 169.485 294.708 169.385C294.728 169.286 294.717 169.183 294.678 169.09C294.639 168.996 294.573 168.917 294.488 168.861C294.404 168.805 294.304 168.776 294.203 168.777C294.069 168.778 293.941 168.831 293.846 168.926C293.752 169.021 293.698 169.149 293.697 169.283Z" fill="white"/>
<path d="M290.103 171.341H291.672V166.629H290.103V171.341Z" fill="#455A64"/>
<path d="M287.836 171.341H289.405V166.629H287.836V171.341Z" fill="#455A64"/>
<path d="M285.573 171.341H287.143V166.629H285.573V171.341Z" fill="#455A64"/>
<path d="M283.31 171.341H284.88V166.629H283.31V171.341Z" fill="#455A64"/>
<path d="M281.043 171.341H282.613V166.629H281.043V171.341Z" fill="#455A64"/>
<path d="M278.78 171.341H280.35V166.629H278.78V171.341Z" fill="#455A64"/>
<path d="M276.518 171.341H278.087V166.629H276.518V171.341Z" fill="#455A64"/>
<path d="M274.251 171.341H275.82V166.629H274.251V171.341Z" fill="#455A64"/>
<path d="M271.988 171.341H273.557V166.629H271.988V171.341Z" fill="#455A64"/>
<path d="M269.725 171.341H271.295V166.629H269.725V171.341Z" fill="#455A64"/>
<path d="M280.35 103.866C280.37 103.786 280.38 103.703 280.38 103.62C280.38 103.452 280.388 103.214 280.405 102.905C280.405 102.595 280.405 102.216 280.443 101.778C280.457 101.285 280.521 100.795 280.635 100.315C280.798 99.7419 281.056 99.2001 281.396 98.7113C281.784 98.1458 282.326 97.703 282.957 97.4353C283.669 97.1757 284.416 97.0238 285.173 96.9845L287.627 96.7718C290.988 96.4826 294.037 96.2954 296.249 96.2529C297.355 96.2529 298.248 96.2529 298.865 96.2529H299.579C299.661 96.2621 299.744 96.2621 299.826 96.2529L299.579 96.2274L298.869 96.1848C298.248 96.1593 297.355 96.1338 296.245 96.138C294.033 96.138 290.975 96.3124 287.61 96.6059L285.156 96.8228C284.382 96.863 283.619 97.0223 282.893 97.2949C282.236 97.5692 281.673 98.0288 281.273 98.6177C280.926 99.123 280.668 99.6841 280.512 100.277C280.402 100.767 280.345 101.267 280.341 101.769C280.341 102.195 280.341 102.586 280.341 102.897C280.341 103.207 280.341 103.428 280.341 103.607C280.337 103.693 280.34 103.78 280.35 103.866Z" fill="#051509"/>
<path d="M288.993 103.866C289 103.789 289 103.71 288.993 103.632C288.993 103.458 288.993 103.237 288.993 102.96C288.993 102.684 288.993 102.314 289.022 101.906C289.044 101.444 289.164 100.993 289.375 100.583C289.682 100.123 290.13 99.7752 290.651 99.5917C291.25 99.3616 291.899 99.2955 292.531 99.4004C292.869 99.4594 293.195 99.5714 293.497 99.7321C293.812 99.8906 294.073 100.137 294.25 100.442C294.337 100.596 294.382 100.77 294.382 100.946C294.382 101.123 294.337 101.297 294.25 101.45C294.159 101.61 294.037 101.749 293.891 101.859C293.744 101.97 293.577 102.049 293.399 102.093C293.222 102.132 293.037 102.126 292.862 102.076C292.688 102.025 292.529 101.932 292.4 101.803C292.138 101.559 291.978 101.226 291.949 100.87C291.921 100.513 292.027 100.159 292.246 99.8767C292.442 99.5982 292.702 99.3706 293.004 99.2132C293.3 99.0771 293.618 98.995 293.944 98.9708C294.267 98.9197 294.577 98.8772 294.879 98.8474C295.488 98.7794 296.053 98.7368 296.581 98.7156C297.618 98.6773 298.461 98.6943 299.043 98.6943H299.711C299.789 98.6998 299.867 98.6998 299.945 98.6943C299.87 98.6742 299.793 98.6656 299.715 98.6688L299.043 98.6347C298.465 98.6135 297.618 98.5795 296.576 98.6007C296.057 98.6007 295.483 98.6475 294.875 98.7071C294.569 98.7411 294.254 98.7794 293.931 98.8262C293.765 98.8517 293.608 98.8687 293.437 98.9027C293.263 98.9371 293.094 98.9958 292.936 99.0771C292.608 99.2454 292.326 99.4906 292.115 99.7917C291.871 100.108 291.753 100.504 291.784 100.903C291.816 101.301 291.994 101.674 292.285 101.948C292.436 102.095 292.621 102.202 292.824 102.26C293.026 102.318 293.24 102.325 293.446 102.28C293.65 102.232 293.842 102.143 294.01 102.017C294.178 101.891 294.317 101.731 294.42 101.548C294.521 101.369 294.573 101.167 294.573 100.961C294.573 100.756 294.521 100.554 294.42 100.374C294.225 100.04 293.939 99.7684 293.595 99.5917C293.274 99.4223 292.928 99.3073 292.57 99.2515C291.909 99.1443 291.231 99.2178 290.609 99.4642C290.055 99.661 289.582 100.037 289.265 100.532C289.055 100.962 288.94 101.432 288.929 101.91C288.903 102.335 288.929 102.684 288.929 102.973C288.929 103.262 288.929 103.471 288.954 103.645C288.959 103.72 288.972 103.794 288.993 103.866Z" fill="#051509"/>
<path d="M278.023 103.866C278.051 103.779 278.071 103.689 278.083 103.598C278.113 103.424 278.164 103.173 278.232 102.837C278.429 101.906 278.714 100.996 279.082 100.119C279.6 98.8107 280.456 97.6629 281.562 96.7931C282.232 96.3131 283.017 96.0195 283.838 95.9425C284.725 95.8436 285.616 95.7953 286.509 95.7978C290.188 95.7255 293.527 95.7425 295.938 95.649C297.146 95.6064 298.12 95.5511 298.797 95.5044L299.571 95.4363C299.661 95.4337 299.751 95.4223 299.839 95.4023C299.748 95.3967 299.657 95.3967 299.566 95.4023L298.792 95.432C298.116 95.4576 297.142 95.4959 295.934 95.5214C293.523 95.5809 290.188 95.5469 286.504 95.6149C285.605 95.6122 284.706 95.6619 283.812 95.7638C282.963 95.853 282.152 96.1672 281.464 96.674C280.857 97.1394 280.328 97.6978 279.895 98.3286C279.525 98.8802 279.215 99.4689 278.968 100.085C278.609 100.972 278.343 101.895 278.176 102.837C278.117 103.169 278.079 103.428 278.057 103.607C278.042 103.693 278.03 103.779 278.023 103.866Z" fill="#051509"/>
<path d="M269.874 92.7014H297.576V88.682H269.874V92.7014Z" fill="#051509"/>
<path d="M276.403 92.7057H291.485V90.6939H276.403V92.7057Z" fill="#455A64"/>
<path d="M258.569 172.086C258.569 172.107 258.875 172.137 259.419 172.29C260.167 172.517 260.874 172.863 261.512 173.315C261.953 173.623 262.349 173.991 262.69 174.408C262.876 174.639 263.037 174.888 263.171 175.152C263.3 175.44 263.401 175.739 263.473 176.045C263.792 177.321 263.694 178.772 263.63 180.299C263.566 181.826 263.668 183.323 264.264 184.552C264.536 185.126 264.92 185.64 265.395 186.062C265.808 186.426 266.276 186.724 266.782 186.942C267.198 187.126 267.635 187.257 268.083 187.334C268.421 187.384 268.763 187.398 269.104 187.376C269.318 187.362 269.53 187.328 269.738 187.274C269.812 187.261 269.885 187.239 269.955 187.21C269.955 187.189 269.653 187.283 269.104 187.304C268.769 187.314 268.434 187.29 268.105 187.232C267.664 187.15 267.236 187.014 266.829 186.828C266.341 186.604 265.889 186.308 265.489 185.951C265.033 185.539 264.665 185.039 264.408 184.48C263.839 183.302 263.741 181.83 263.804 180.324C263.868 178.819 263.962 177.347 263.626 176.037C263.55 175.72 263.443 175.411 263.307 175.114C263.166 174.839 262.995 174.581 262.796 174.344C262.444 173.922 262.035 173.551 261.58 173.242C260.933 172.793 260.214 172.458 259.453 172.251C259.245 172.198 259.033 172.158 258.82 172.132C258.738 172.108 258.654 172.093 258.569 172.086Z" fill="#051509"/>
<path d="M269.066 188.699H271.341V185.934H269.066V188.699Z" fill="#051509"/>
<path d="M245.821 179.07H258.573V165.097H245.821V179.07Z" fill="#455A64"/>
<path d="M256.083 173.75C256.965 171.605 255.942 169.152 253.798 168.27C251.654 167.388 249.201 168.411 248.319 170.556C247.437 172.7 248.46 175.153 250.604 176.035C252.748 176.917 255.201 175.894 256.083 173.75Z" fill="#051509"/>
<path d="M250.096 172.141C250.095 172.557 250.218 172.964 250.448 173.31C250.679 173.656 251.007 173.926 251.391 174.085C251.775 174.245 252.198 174.287 252.606 174.206C253.014 174.125 253.389 173.925 253.683 173.631C253.977 173.337 254.177 172.962 254.258 172.554C254.339 172.146 254.297 171.723 254.137 171.339C253.978 170.955 253.708 170.627 253.362 170.396C253.016 170.166 252.609 170.043 252.193 170.044C251.637 170.045 251.104 170.266 250.711 170.659C250.318 171.052 250.097 171.585 250.096 172.141Z" fill="#455A64"/>
<path d="M256.455 167.271C256.455 167.348 256.478 167.424 256.521 167.488C256.564 167.553 256.625 167.603 256.696 167.632C256.768 167.662 256.846 167.67 256.922 167.655C256.998 167.64 257.068 167.602 257.123 167.548C257.177 167.493 257.215 167.423 257.23 167.347C257.245 167.271 257.237 167.193 257.208 167.121C257.178 167.05 257.128 166.988 257.063 166.945C256.999 166.902 256.923 166.88 256.846 166.88C256.742 166.88 256.643 166.921 256.569 166.994C256.496 167.068 256.455 167.167 256.455 167.271Z" fill="#051509"/>
<path d="M247.769 167.662C247.986 167.662 248.161 167.487 248.161 167.271C248.161 167.055 247.986 166.88 247.769 166.88C247.553 166.88 247.378 167.055 247.378 167.271C247.378 167.487 247.553 167.662 247.769 167.662Z" fill="#051509"/>
<path d="M247.684 177.976C247.9 177.976 248.076 177.801 248.076 177.585C248.076 177.369 247.9 177.194 247.684 177.194C247.468 177.194 247.293 177.369 247.293 177.585C247.293 177.801 247.468 177.976 247.684 177.976Z" fill="#051509"/>
<path d="M256.455 177.747C256.455 177.824 256.478 177.9 256.521 177.964C256.564 178.029 256.625 178.079 256.696 178.108C256.768 178.138 256.846 178.146 256.922 178.131C256.998 178.115 257.068 178.078 257.123 178.023C257.177 177.969 257.215 177.899 257.23 177.823C257.245 177.747 257.237 177.669 257.208 177.597C257.178 177.526 257.128 177.464 257.063 177.421C256.999 177.378 256.923 177.355 256.846 177.355C256.742 177.355 256.643 177.397 256.569 177.47C256.496 177.543 256.455 177.643 256.455 177.747Z" fill="#051509"/>
<path d="M244.788 179.07H245.817V165.097H244.788V179.07Z" fill="#051509"/>
<path d="M60.04 68.6062H236.494C237.254 68.6062 237.983 68.9082 238.521 69.4458C239.059 69.9835 239.361 70.7126 239.361 71.4729V183.174C239.361 183.988 239.2 184.794 238.889 185.546C238.577 186.297 238.121 186.981 237.545 187.556C236.97 188.131 236.287 188.588 235.535 188.899C234.783 189.211 233.977 189.371 233.163 189.371H62.9408C61.2972 189.371 59.721 188.718 58.5588 187.556C57.3966 186.394 56.7437 184.818 56.7437 183.174V71.9025C56.7437 71.0283 57.091 70.1899 57.7092 69.5717C58.3274 68.9535 59.1658 68.6062 60.04 68.6062Z" fill="#455A64"/>
<path d="M49.109 180.439H246.961V185.169C246.961 185.935 246.81 186.694 246.517 187.402C246.224 188.11 245.794 188.753 245.252 189.295C244.71 189.837 244.067 190.267 243.359 190.56C242.651 190.853 241.892 191.004 241.126 191.004H54.9445C54.1782 191.004 53.4194 190.853 52.7114 190.56C52.0034 190.267 51.36 189.837 50.8182 189.295C50.2763 188.753 49.8464 188.11 49.5532 187.402C49.2599 186.694 49.109 185.935 49.109 185.169V180.439Z" fill="#455A64"/>
<path d="M233.95 73.4039H61.6478V175.386H233.95V73.4039Z" fill="#E0E0E0"/>
<path d="M130.05 180.439L132.508 184.344H167.054L169.334 180.439H130.05Z" fill="#051509"/>
<path d="M229.255 79.3119H66.7603V175.386H229.255V79.3119Z" fill="#051509"/>
<path d="M79.2183 172.57C79.1332 172.57 79.0652 152.108 79.0652 126.873C79.0652 101.638 79.1332 81.1705 79.2183 81.1705C79.3034 81.1705 79.3714 101.629 79.3714 126.873C79.3714 152.116 79.3119 172.57 79.2183 172.57Z" fill="#E0E0E0"/>
<path d="M75.9475 89.4561C75.9475 89.5369 74.7651 89.605 73.3104 89.605C71.8558 89.605 70.6691 89.5369 70.6691 89.4561C70.6691 89.3753 71.8515 89.303 73.3104 89.303C74.7693 89.303 75.9475 89.371 75.9475 89.4561Z" fill="#E0E0E0"/>
<path d="M76.1517 84.267C76.1517 84.3521 74.9692 84.4201 73.5103 84.4201C72.0514 84.4201 70.8733 84.3521 70.8733 84.267C70.8733 84.1819 72.0557 84.1139 73.5103 84.1139C74.965 84.1139 76.1517 84.1819 76.1517 84.267Z" fill="#E0E0E0"/>
<path d="M75.9475 95.045C75.9475 95.13 74.7651 95.1981 73.3104 95.1981C71.8558 95.1981 70.6691 95.13 70.6691 95.045C70.6691 94.9599 71.8515 94.8918 73.3104 94.8918C74.7693 94.8918 75.9475 94.9599 75.9475 95.045Z" fill="#E0E0E0"/>
<path d="M75.9475 100.634C75.9475 100.719 74.7651 100.787 73.3104 100.787C71.8558 100.787 70.6691 100.719 70.6691 100.634C70.6691 100.549 71.8515 100.481 73.3104 100.481C74.7693 100.481 75.9475 100.549 75.9475 100.634Z" fill="#E0E0E0"/>
<path d="M75.9475 106.223C75.9475 106.308 74.7651 106.376 73.3104 106.376C71.8558 106.376 70.6691 106.308 70.6691 106.223C70.6691 106.138 71.8515 106.074 73.3104 106.074C74.7693 106.074 75.9475 106.142 75.9475 106.223Z" fill="#E0E0E0"/>
<path d="M75.9475 111.816C75.9475 111.901 74.7651 111.969 73.3104 111.969C71.8558 111.969 70.6691 111.901 70.6691 111.816C70.6691 111.731 71.8515 111.663 73.3104 111.663C74.7693 111.663 75.9475 111.731 75.9475 111.816Z" fill="#E0E0E0"/>
<path d="M75.9475 117.392C75.9475 117.477 74.7651 117.545 73.3104 117.545C71.8558 117.545 70.6691 117.477 70.6691 117.392C70.6691 117.307 71.8515 117.239 73.3104 117.239C74.7693 117.239 75.9475 117.32 75.9475 117.392Z" fill="#E0E0E0"/>
<path d="M75.9475 122.994C75.9475 123.079 74.7651 123.147 73.3104 123.147C71.8558 123.147 70.6691 123.079 70.6691 122.994C70.6691 122.909 71.8515 122.845 73.3104 122.845C74.7693 122.845 75.9475 122.921 75.9475 122.994Z" fill="#E0E0E0"/>
<path d="M75.9475 128.587C75.9475 128.668 74.7651 128.736 73.3104 128.736C71.8558 128.736 70.6691 128.668 70.6691 128.587C70.6691 128.506 71.8515 128.434 73.3104 128.434C74.7693 128.434 75.9475 128.502 75.9475 128.587Z" fill="#E0E0E0"/>
<path d="M75.9475 134.176C75.9475 134.261 74.7651 134.329 73.3104 134.329C71.8558 134.329 70.6691 134.261 70.6691 134.176C70.6691 134.091 71.8515 134.022 73.3104 134.022C74.7693 134.022 75.9475 134.091 75.9475 134.176Z" fill="#E0E0E0"/>
<path d="M75.9475 139.764C75.9475 139.85 74.7651 139.918 73.3104 139.918C71.8558 139.918 70.6691 139.85 70.6691 139.764C70.6691 139.679 71.8515 139.611 73.3104 139.611C74.7693 139.611 75.9475 139.679 75.9475 139.764Z" fill="#E0E0E0"/>
<path d="M75.9475 145.358C75.9475 145.438 74.7651 145.506 73.3104 145.506C71.8558 145.506 70.6691 145.438 70.6691 145.358C70.6691 145.277 71.8515 145.204 73.3104 145.204C74.7693 145.204 75.9475 145.273 75.9475 145.358Z" fill="#E0E0E0"/>
<path d="M75.9475 150.946C75.9475 151.032 74.7651 151.1 73.3104 151.1C71.8558 151.1 70.6691 151.032 70.6691 150.946C70.6691 150.861 71.8515 150.793 73.3104 150.793C74.7693 150.793 75.9475 150.861 75.9475 150.946Z" fill="#E0E0E0"/>
<path d="M75.9475 156.523C75.9475 156.608 74.7651 156.676 73.3104 156.676C71.8558 156.676 70.6691 156.608 70.6691 156.523C70.6691 156.438 71.8515 156.37 73.3104 156.37C74.7693 156.37 75.9475 156.45 75.9475 156.523Z" fill="#E0E0E0"/>
<path d="M75.9475 162.124C75.9475 162.209 74.7651 162.277 73.3104 162.277C71.8558 162.277 70.6691 162.209 70.6691 162.124C70.6691 162.039 71.8515 161.975 73.3104 161.975C74.7693 161.975 75.9475 162.052 75.9475 162.124Z" fill="#E0E0E0"/>
<path d="M75.9475 167.717C75.9475 167.802 74.7651 167.87 73.3104 167.87C71.8558 167.87 70.6691 167.802 70.6691 167.717C70.6691 167.632 71.8515 167.564 73.3104 167.564C74.7693 167.564 75.9475 167.632 75.9475 167.717Z" fill="#E0E0E0"/>
<path d="M97.1078 167.717C97.1078 167.802 94.0412 167.87 90.2557 167.87C86.4702 167.87 83.4078 167.802 83.4078 167.717C83.4078 167.632 86.4745 167.564 90.2557 167.564C94.0369 167.564 97.1078 167.632 97.1078 167.717Z" fill="#28A746"/>
<path d="M101.842 88.6181C101.842 88.7032 98.7751 88.7712 94.9939 88.7712C91.2127 88.7712 88.1418 88.7032 88.1418 88.6181C88.1418 88.533 91.2085 88.465 94.9939 88.465C98.7794 88.465 101.842 88.533 101.842 88.6181Z" fill="#28A746"/>
<path d="M116.188 100.634C116.188 100.719 110.446 100.787 103.373 100.787C96.2997 100.787 90.5534 100.719 90.5534 100.634C90.5534 100.549 96.2912 100.481 103.373 100.481C110.455 100.481 116.188 100.549 116.188 100.634Z" fill="#28A746"/>
<path d="M145.826 100.634C145.826 100.719 140.088 100.787 133.01 100.787C125.933 100.787 120.195 100.719 120.195 100.634C120.195 100.549 125.933 100.481 133.01 100.481C140.088 100.481 145.826 100.549 145.826 100.634Z" fill="#E0E0E0"/>
<path d="M134.512 106.223C134.512 106.308 126.056 106.376 115.623 106.376C105.189 106.376 96.7335 106.308 96.7335 106.223C96.7335 106.138 105.189 106.074 115.623 106.074C126.056 106.074 134.512 106.142 134.512 106.223Z" fill="#E0E0E0"/>
<path d="M134.512 111.816C134.512 111.901 126.056 111.969 115.623 111.969C105.189 111.969 96.7335 111.901 96.7335 111.816C96.7335 111.731 105.189 111.663 115.623 111.663C126.056 111.663 134.512 111.731 134.512 111.816Z" fill="#E0E0E0"/>
<path d="M160.504 128.587C160.504 128.668 152.044 128.736 141.615 128.736C131.186 128.736 122.726 128.668 122.726 128.587C122.726 128.506 131.181 128.434 141.615 128.434C152.048 128.434 160.504 128.502 160.504 128.587Z" fill="#E0E0E0"/>
<path d="M149.283 117.392C149.283 117.477 140.824 117.545 130.394 117.545C119.965 117.545 111.505 117.477 111.505 117.392C111.505 117.307 119.961 117.239 130.394 117.239C140.828 117.239 149.283 117.32 149.283 117.392Z" fill="#E0E0E0"/>
<path d="M195.445 117.392C195.445 117.477 186.989 117.545 176.556 117.545C166.122 117.545 157.667 117.477 157.667 117.392C157.667 117.307 166.122 117.239 176.556 117.239C186.989 117.239 195.445 117.32 195.445 117.392Z" fill="#E0E0E0"/>
<path d="M179.393 106.223C179.393 106.308 170.933 106.376 160.504 106.376C150.075 106.376 141.615 106.308 141.615 106.223C141.615 106.138 150.07 106.074 160.504 106.074C170.937 106.074 179.393 106.142 179.393 106.223Z" fill="#FAFAFA"/>
<path d="M205.487 128.587C205.487 128.668 197.027 128.736 186.598 128.736C176.169 128.736 167.709 128.668 167.709 128.587C167.709 128.506 176.165 128.434 186.598 128.434C197.031 128.434 205.487 128.502 205.487 128.587Z" fill="#FAFAFA"/>
<path d="M200.277 111.816C200.277 111.901 187.142 111.969 170.929 111.969C154.715 111.969 141.581 111.901 141.581 111.816C141.581 111.731 154.711 111.663 170.929 111.663C187.147 111.663 200.277 111.731 200.277 111.816Z" fill="#455A64"/>
<path d="M97.1078 162.124C97.1078 162.209 94.0412 162.277 90.2557 162.277C86.4702 162.277 83.4078 162.209 83.4078 162.124C83.4078 162.039 86.4745 161.975 90.2557 161.975C94.0369 161.975 97.1078 162.052 97.1078 162.124Z" fill="#FAFAFA"/>
<path d="M103.888 117.392C103.888 117.477 100.821 117.545 97.0355 117.545C93.2501 117.545 90.1877 117.477 90.1877 117.392C90.1877 117.307 93.2543 117.239 97.0355 117.239C100.817 117.239 103.888 117.32 103.888 117.392Z" fill="#FAFAFA"/>
<path d="M213.696 117.392C213.696 117.477 210.629 117.545 206.848 117.545C203.067 117.545 200.013 117.49 200.013 117.392C200.013 117.294 203.08 117.239 206.865 117.239C210.651 117.239 213.696 117.32 213.696 117.392Z" fill="#28A746"/>
<path d="M116.188 139.735C116.188 139.815 110.446 139.884 103.373 139.884C96.2997 139.884 90.5534 139.815 90.5534 139.735C90.5534 139.654 96.2912 139.582 103.373 139.582C110.455 139.582 116.188 139.65 116.188 139.735Z" fill="#28A746"/>
<path d="M145.826 139.735C145.826 139.815 140.088 139.884 133.01 139.884C125.933 139.884 120.195 139.815 120.195 139.735C120.195 139.654 125.933 139.582 133.01 139.582C140.088 139.582 145.826 139.65 145.826 139.735Z" fill="#E0E0E0"/>
<path d="M134.512 145.324C134.512 145.409 126.056 145.477 115.623 145.477C105.189 145.477 96.7335 145.409 96.7335 145.324C96.7335 145.238 105.189 145.17 115.623 145.17C126.056 145.17 134.512 145.238 134.512 145.324Z" fill="#E0E0E0"/>
<path d="M134.512 150.912C134.512 150.997 126.056 151.066 115.623 151.066C105.189 151.066 96.7335 150.997 96.7335 150.912C96.7335 150.827 105.189 150.759 115.623 150.759C126.056 150.759 134.512 150.827 134.512 150.912Z" fill="#E0E0E0"/>
<path d="M149.283 156.523C149.283 156.608 140.824 156.676 130.394 156.676C119.965 156.676 111.505 156.608 111.505 156.523C111.505 156.438 119.961 156.374 130.394 156.374C140.828 156.374 149.283 156.421 149.283 156.523Z" fill="#E0E0E0"/>
<path d="M195.445 156.523C195.445 156.608 186.989 156.676 176.556 156.676C166.122 156.676 157.667 156.608 157.667 156.523C157.667 156.438 166.122 156.374 176.556 156.374C186.989 156.374 195.445 156.421 195.445 156.523Z" fill="#E0E0E0"/>
<path d="M141.283 161.984C141.283 162.069 132.827 162.137 122.398 162.137C111.969 162.137 103.505 162.069 103.505 161.984C103.505 161.899 111.96 161.831 122.398 161.831C132.836 161.831 141.283 161.899 141.283 161.984Z" fill="#E0E0E0"/>
<path d="M128.212 93.5733C128.212 93.6584 119.753 93.7264 109.323 93.7264C98.8942 93.7264 90.4343 93.6584 90.4343 93.5733C90.4343 93.4882 98.89 93.4202 109.323 93.4202C119.757 93.4202 128.212 93.501 128.212 93.5733Z" fill="#E0E0E0"/>
<path d="M179.393 145.324C179.393 145.409 170.933 145.477 160.504 145.477C150.075 145.477 141.615 145.409 141.615 145.324C141.615 145.238 150.07 145.17 160.504 145.17C170.937 145.17 179.393 145.238 179.393 145.324Z" fill="#FAFAFA"/>
<path d="M200.277 150.912C200.277 150.997 187.142 151.066 170.929 151.066C154.715 151.066 141.581 150.997 141.581 150.912C141.581 150.827 154.711 150.759 170.929 150.759C187.147 150.759 200.277 150.827 200.277 150.912Z" fill="#455A64"/>
<path d="M103.888 156.523C103.888 156.608 100.821 156.676 97.0355 156.676C93.2501 156.676 90.1877 156.608 90.1877 156.523C90.1877 156.438 93.2543 156.374 97.0355 156.374C100.817 156.374 103.888 156.421 103.888 156.523Z" fill="#FAFAFA"/>
<path d="M213.696 156.523C213.696 156.608 210.629 156.676 206.848 156.676C203.067 156.676 200.013 156.586 200.013 156.523C200.013 156.459 203.08 156.374 206.865 156.374C210.651 156.374 213.696 156.421 213.696 156.523Z" fill="#28A746"/>
<path d="M161.703 52.5372C161.703 52.5372 161.703 52.4011 161.703 52.1119C161.703 51.8226 161.703 51.4313 161.703 50.9039C161.703 50.3765 161.703 49.713 161.703 48.9389C161.687 48.5146 161.76 48.0917 161.916 47.6969C162.104 47.2496 162.406 46.8595 162.792 46.5655C163.221 46.2304 163.742 46.0331 164.285 45.9998C164.851 45.9998 165.433 45.9998 166.05 45.9998H170.044H179.776L236.107 45.936H267.156H274.957C275.241 45.9257 275.526 45.9428 275.807 45.9871C276.369 46.0908 276.886 46.3627 277.289 46.7668C277.692 47.1709 277.963 47.6882 278.066 48.2498C278.108 48.5213 278.125 48.7961 278.117 49.0707V49.8704C278.117 54.1237 278.117 58.058 278.117 61.6691C278.117 68.8998 278.091 74.7098 278.083 78.7505C278.083 80.7623 278.083 82.3275 278.083 83.3951C278.083 83.9225 278.083 84.3266 278.083 84.6031C278.083 84.8795 278.083 85.0284 278.083 85.0284C278.083 85.0284 278.083 84.8881 278.083 84.6031C278.083 84.3181 278.083 83.9225 278.083 83.3951C278.083 82.3275 278.083 80.7623 278.062 78.7505C278.062 74.7098 278.062 68.8785 278.028 61.6691C278.028 58.058 278.028 54.1109 278.028 49.8704V49.0707C278.038 48.8075 278.022 48.544 277.981 48.2839C277.886 47.7546 277.631 47.2672 277.251 46.887C276.871 46.5068 276.383 46.2521 275.854 46.1572C275.584 46.1157 275.311 46.1 275.038 46.1104H267.143H236.094L179.729 46.0764H169.997H166.003C165.391 46.0764 164.8 46.0764 164.247 46.0764C163.72 46.1083 163.215 46.2964 162.796 46.6166C162.424 46.9018 162.131 47.2782 161.946 47.7097C161.793 48.0949 161.72 48.5075 161.733 48.9219C161.733 49.696 161.733 50.351 161.733 50.8869C161.733 51.4143 161.733 51.8141 161.733 52.0949C161.733 52.3756 161.703 52.5372 161.703 52.5372Z" fill="#051509"/>
<path d="M279.125 85.037C279.125 85.2531 279.061 85.4645 278.941 85.6443C278.821 85.824 278.65 85.9641 278.45 86.0469C278.25 86.1296 278.031 86.1512 277.819 86.1091C277.607 86.0669 277.412 85.9628 277.259 85.8099C277.106 85.657 277.002 85.4622 276.96 85.2502C276.918 85.0382 276.939 84.8184 277.022 84.6186C277.105 84.4189 277.245 84.2482 277.425 84.1281C277.604 84.008 277.816 83.9438 278.032 83.9438C278.322 83.9438 278.6 84.059 278.805 84.264C279.01 84.469 279.125 84.747 279.125 85.037Z" fill="#051509"/>
<path d="M162.796 52.5372C162.797 52.7536 162.734 52.9654 162.614 53.1457C162.495 53.326 162.324 53.4668 162.124 53.5501C161.925 53.6335 161.705 53.6558 161.493 53.6141C161.28 53.5724 161.085 53.4686 160.932 53.3159C160.778 53.1632 160.674 52.9685 160.631 52.7563C160.589 52.5441 160.61 52.3241 160.693 52.1241C160.776 51.9242 160.916 51.7532 161.095 51.6329C161.275 51.5126 161.487 51.4484 161.703 51.4484C161.992 51.4484 162.27 51.5629 162.475 51.767C162.68 51.9711 162.795 52.248 162.796 52.5372Z" fill="#051509"/>
<path d="M105.381 57.1776V150.662H189.392H199.843H260.249V57.1776H105.381Z" fill="#FAFAFA"/>
<path d="M260.249 57.1776H105.381V64.0893H260.249V57.1776Z" fill="#E0E0E0"/>
<path d="M109.353 61.6521C109.849 61.6521 110.251 61.2503 110.251 60.7546C110.251 60.259 109.849 59.8572 109.353 59.8572C108.858 59.8572 108.456 60.259 108.456 60.7546C108.456 61.2503 108.858 61.6521 109.353 61.6521Z" fill="#051509"/>
<path d="M113.589 60.7546C113.589 60.9321 113.537 61.1056 113.438 61.2532C113.34 61.4008 113.199 61.5158 113.035 61.5838C112.871 61.6517 112.691 61.6695 112.517 61.6348C112.343 61.6002 112.183 61.5147 112.057 61.3892C111.932 61.2637 111.846 61.1038 111.812 60.9297C111.777 60.7556 111.795 60.5752 111.863 60.4112C111.931 60.2472 112.046 60.107 112.193 60.0084C112.341 59.9098 112.515 59.8572 112.692 59.8572C112.81 59.8572 112.927 59.8804 113.035 59.9255C113.144 59.9706 113.243 60.0367 113.327 60.12C113.41 60.2034 113.476 60.3023 113.521 60.4112C113.566 60.5201 113.589 60.6368 113.589 60.7546Z" fill="#051509"/>
<path d="M116.031 61.6521C116.527 61.6521 116.928 61.2503 116.928 60.7546C116.928 60.259 116.527 59.8572 116.031 59.8572C115.535 59.8572 115.133 60.259 115.133 60.7546C115.133 61.2503 115.535 61.6521 116.031 61.6521Z" fill="#051509"/>
<path d="M180.448 72.0515C180.448 72.1025 177.287 72.145 173.391 72.145C169.495 72.145 166.331 72.1025 166.331 72.0515C166.331 72.0004 169.491 71.9579 173.391 71.9579C177.292 71.9579 180.448 72.0004 180.448 72.0515Z" fill="#051509"/>
<path d="M199.226 72.0515C199.226 72.1025 196.066 72.145 192.166 72.145C188.265 72.145 185.109 72.1025 185.109 72.0515C185.109 72.0004 188.27 71.9579 192.166 71.9579C196.062 71.9579 199.226 72.0004 199.226 72.0515Z" fill="#28A746"/>
<path d="M218 72.0515C218 72.1025 214.84 72.145 210.944 72.145C207.048 72.145 203.888 72.1025 203.888 72.0515C203.888 72.0004 207.044 71.9579 210.944 71.9579C214.844 71.9579 218 72.0004 218 72.0515Z" fill="#051509"/>
<path d="M236.945 72.0515C236.945 72.1025 233.784 72.145 229.888 72.145C225.992 72.145 222.828 72.1025 222.828 72.0515C222.828 72.0004 225.988 71.9579 229.888 71.9579C233.789 71.9579 236.945 72.0004 236.945 72.0515Z" fill="#051509"/>
<path d="M253.401 74.2973C253.401 74.2973 253.52 74.2973 253.737 74.2377C254.053 74.1611 254.337 73.987 254.549 73.7401C254.702 73.5729 254.815 73.3739 254.881 73.1574C254.937 72.8776 254.955 72.5913 254.932 72.3067C254.894 71.7155 255.072 70.9457 254.536 70.3842C254.277 70.0977 253.918 69.9212 253.533 69.8908C253.107 69.8908 252.682 69.8908 252.257 69.8908H249.381H242.767C242.495 69.8932 242.228 69.9697 241.996 70.1121C241.764 70.2544 241.575 70.4573 241.449 70.699C241.329 70.9403 241.274 71.2083 241.287 71.4773V72.328C241.267 72.5928 241.284 72.8591 241.338 73.1191C241.402 73.3647 241.53 73.5892 241.708 73.7699C241.882 73.9475 242.097 74.079 242.334 74.1527C242.574 74.2108 242.822 74.2323 243.069 74.2165L248.446 74.2377L252.074 74.2675H253.056H253.316C253.344 74.2623 253.373 74.2623 253.401 74.2675H253.316H253.056H252.074L248.446 74.2973H243.069C242.805 74.3147 242.539 74.2903 242.283 74.225C242.017 74.144 241.776 73.9978 241.581 73.7996C241.28 73.491 241.109 73.0782 241.104 72.647C241.104 72.5109 241.104 72.3705 241.104 72.2217V71.371C241.094 71.0766 241.156 70.7842 241.287 70.5203C241.43 70.249 241.643 70.0211 241.904 69.8609C242.166 69.7007 242.465 69.614 242.772 69.6101H249.356H252.231C252.682 69.6101 253.107 69.6101 253.537 69.6101C253.959 69.6447 254.352 69.8432 254.63 70.163C254.892 70.4446 255.044 70.8119 255.055 71.1966C255.055 71.5411 255.055 71.8686 255.055 72.1706C255.072 72.4559 255.049 72.7422 254.987 73.0213C254.92 73.2568 254.799 73.4736 254.634 73.655C254.41 73.9032 254.112 74.0731 253.784 74.1399C253.666 74.2134 253.536 74.2666 253.401 74.2973Z" fill="#051509"/>
<path d="M151.457 89.0095H118.519V120.875H151.457V89.0095Z" fill="#28A746"/>
<g opacity="0.3">
<path d="M121.075 118.149L130.186 101.748L137.642 112.233L142.168 106.665L148.905 118.149H121.075Z" fill="#051509"/>
</g>
<g opacity="0.3">
<path d="M140.815 98.5582C140.816 99.028 140.677 99.4874 140.417 99.8784C140.156 100.269 139.786 100.574 139.352 100.754C138.918 100.934 138.441 100.982 137.98 100.89C137.519 100.799 137.096 100.573 136.763 100.241C136.431 99.9085 136.205 99.4852 136.114 99.0244C136.022 98.5636 136.07 98.0861 136.25 97.6522C136.43 97.2184 136.735 96.8478 137.126 96.5873C137.517 96.3268 137.976 96.1882 138.446 96.1891C139.074 96.1902 139.676 96.4402 140.12 96.8842C140.564 97.3283 140.814 97.9302 140.815 98.5582Z" fill="#051509"/>
</g>
<path opacity="0.3" d="M148.905 91.5105L121.08 91.4893L120.918 91.6509V98.805C120.918 101.147 120.918 103.437 120.918 105.674C120.918 110.136 120.918 114.355 120.918 118.238V118.375H121.054L141.266 118.302L146.91 118.268H148.386H148.765H148.884C148.839 118.262 148.793 118.262 148.748 118.268H148.356H146.851L141.177 118.234L121.186 118.166C121.186 114.338 121.186 110.149 121.186 105.738V98.805C121.186 97.6367 121.186 96.4543 121.186 95.2577V91.804L148.726 91.7827C148.752 99.6812 148.777 106.244 148.794 110.889C148.794 113.211 148.82 115.036 148.828 116.299C148.828 116.916 148.828 117.396 148.828 117.737C148.828 117.89 148.828 118.009 148.828 118.107C148.828 118.204 148.828 118.234 148.828 118.238C148.832 118.199 148.832 118.159 148.828 118.119C148.828 118.03 148.828 117.911 148.828 117.762C148.828 117.43 148.828 116.962 148.828 116.354C148.828 115.1 148.828 113.283 148.867 110.974C148.867 106.295 148.905 99.6429 148.935 91.6466V91.5105H148.905Z" fill="#051509"/>
<path d="M147.331 125.771C147.331 125.831 141.802 125.882 134.962 125.882C128.123 125.882 122.602 125.831 122.602 125.771C122.602 125.712 128.132 125.661 134.971 125.661C141.81 125.661 147.331 125.707 147.331 125.771Z" fill="#051509"/>
<path d="M152.286 129.459C152.286 129.523 144.728 129.574 135.409 129.574C126.09 129.574 118.536 129.523 118.536 129.459C118.536 129.395 126.09 129.348 135.409 129.348C144.728 129.348 152.286 129.399 152.286 129.459Z" fill="#051509"/>
<path d="M152.286 133.036C152.286 133.095 144.728 133.146 135.409 133.146C126.09 133.146 118.536 133.095 118.536 133.036C118.536 132.976 126.09 132.925 135.409 132.925C144.728 132.925 152.286 132.972 152.286 133.036Z" fill="#051509"/>
<path d="M152.286 136.609C152.286 136.668 144.728 136.719 135.409 136.719C126.09 136.719 118.536 136.668 118.536 136.609C118.536 136.549 126.09 136.498 135.409 136.498C144.728 136.498 152.286 136.532 152.286 136.609Z" fill="#051509"/>
<path d="M132.466 140.181C132.466 140.241 129.344 140.292 125.499 140.292C121.654 140.292 118.536 140.241 118.536 140.181C118.536 140.122 121.654 140.071 125.499 140.071C129.344 140.071 132.466 140.118 132.466 140.181Z" fill="#051509"/>
<path d="M199.379 89.0095H166.441V120.875H199.379V89.0095Z" fill="#28A746"/>
<g opacity="0.3">
<path d="M168.998 118.149L178.108 101.748L185.56 112.233L190.09 106.665L196.827 118.149H168.998Z" fill="#051509"/>
</g>
<g opacity="0.3">
<path d="M188.737 98.5582C188.738 99.028 188.6 99.4874 188.339 99.8784C188.079 100.269 187.708 100.574 187.274 100.754C186.84 100.934 186.363 100.982 185.902 100.89C185.441 100.799 185.018 100.573 184.686 100.241C184.354 99.9085 184.128 99.4852 184.036 99.0244C183.945 98.5636 183.992 98.0861 184.172 97.6522C184.352 97.2184 184.657 96.8478 185.048 96.5873C185.439 96.3268 185.899 96.1882 186.368 96.1891C186.996 96.1902 187.598 96.4402 188.042 96.8842C188.486 97.3283 188.736 97.9302 188.737 98.5582Z" fill="#051509"/>
</g>
<path opacity="0.3" d="M196.827 91.5105L169.002 91.4893L168.84 91.6509V98.805C168.84 101.147 168.84 103.437 168.84 105.674C168.84 110.136 168.84 114.355 168.84 118.238V118.375H168.976L189.188 118.302L194.832 118.268H196.308H196.687H196.806C196.761 118.262 196.715 118.262 196.67 118.268H196.279H194.773L189.099 118.234L169.108 118.166C169.108 114.338 169.108 110.149 169.108 105.738V98.805C169.108 97.6367 169.108 96.4543 169.108 95.2577V91.804L196.649 91.7827C196.674 99.6812 196.7 106.244 196.717 110.889C196.717 113.211 196.742 115.036 196.751 116.299C196.751 116.916 196.751 117.396 196.751 117.737C196.751 117.89 196.751 118.009 196.751 118.107C196.751 118.204 196.751 118.234 196.751 118.238C196.754 118.199 196.754 118.159 196.751 118.119C196.751 118.03 196.751 117.911 196.751 117.762C196.751 117.43 196.751 116.962 196.751 116.354C196.751 115.1 196.772 113.283 196.789 110.974C196.789 106.295 196.827 99.6429 196.857 91.6466V91.5105H196.827Z" fill="#051509"/>
<path d="M195.253 125.771C195.253 125.831 189.724 125.882 182.885 125.882C176.045 125.882 170.516 125.831 170.516 125.771C170.516 125.712 176.045 125.661 182.885 125.661C189.724 125.661 195.253 125.707 195.253 125.771Z" fill="#051509"/>
<path d="M200.209 129.459C200.209 129.523 192.65 129.574 183.331 129.574C174.012 129.574 166.458 129.523 166.458 129.459C166.458 129.395 174.012 129.348 183.331 129.348C192.65 129.348 200.209 129.399 200.209 129.459Z" fill="#051509"/>
<path d="M200.209 133.036C200.209 133.095 192.65 133.146 183.331 133.146C174.012 133.146 166.458 133.095 166.458 133.036C166.458 132.976 174.012 132.925 183.331 132.925C192.65 132.925 200.209 132.972 200.209 133.036Z" fill="#051509"/>
<path d="M200.209 136.609C200.209 136.668 192.65 136.719 183.331 136.719C174.012 136.719 166.458 136.668 166.458 136.609C166.458 136.549 174.012 136.498 183.331 136.498C192.65 136.498 200.209 136.532 200.209 136.609Z" fill="#051509"/>
<path d="M180.388 140.181C180.388 140.241 177.266 140.292 173.421 140.292C169.576 140.292 166.458 140.241 166.458 140.181C166.458 140.122 169.576 140.071 173.421 140.071C177.266 140.071 180.388 140.118 180.388 140.181Z" fill="#051509"/>
<path d="M246.413 89.0095H213.475V120.875H246.413V89.0095Z" fill="#28A746"/>
<g opacity="0.3">
<path d="M216.027 118.149L225.142 101.748L232.593 112.233L237.123 106.665L243.861 118.149H216.027Z" fill="#051509"/>
</g>
<g opacity="0.3">
<path d="M235.766 98.5583C235.766 99.0269 235.628 99.4849 235.367 99.8745C235.107 100.264 234.737 100.568 234.304 100.747C233.871 100.926 233.395 100.973 232.935 100.882C232.476 100.79 232.053 100.565 231.722 100.234C231.391 99.9022 231.165 99.4801 231.074 99.0205C230.982 98.5609 231.029 98.0846 231.209 97.6517C231.388 97.2188 231.692 96.8488 232.081 96.5885C232.471 96.3282 232.929 96.1892 233.397 96.1892C234.026 96.1892 234.628 96.4388 235.073 96.8831C235.517 97.3274 235.766 97.93 235.766 98.5583Z" fill="#051509"/>
</g>
<path opacity="0.3" d="M243.861 91.5105L216.031 91.4893L215.874 91.6509V98.805C215.874 101.147 215.874 103.437 215.874 105.674C215.874 110.136 215.874 114.355 215.874 118.238V118.375H216.01L236.222 118.302L241.866 118.268H243.346H243.72H243.844C243.798 118.263 243.753 118.263 243.707 118.268H243.316H241.81L236.166 118.17L216.176 118.102C216.176 114.274 216.176 110.085 216.176 105.674C216.176 103.443 216.176 101.153 216.176 98.805V91.804L243.716 91.7827C243.746 99.6812 243.767 106.244 243.784 110.889C243.784 113.211 243.814 115.036 243.822 116.299C243.822 116.916 243.822 117.396 243.822 117.737C243.822 117.89 243.822 118.009 243.822 118.107C243.819 118.151 243.819 118.195 243.822 118.238C243.822 118.238 243.822 118.2 243.822 118.119C243.822 118.039 243.822 117.911 243.822 117.762C243.822 117.43 243.822 116.962 243.822 116.354C243.822 115.1 243.844 113.283 243.856 110.974C243.856 106.295 243.899 99.6429 243.929 91.6466V91.5105H243.861Z" fill="#051509"/>
<path d="M242.283 125.771C242.283 125.831 236.753 125.882 229.918 125.882C223.083 125.882 217.549 125.831 217.549 125.771C217.549 125.712 223.079 125.661 229.918 125.661C236.757 125.661 242.283 125.707 242.283 125.771Z" fill="#051509"/>
<path d="M247.225 129.459C247.225 129.523 239.671 129.574 230.352 129.574C221.033 129.574 213.479 129.523 213.479 129.459C213.479 129.395 221.033 129.348 230.352 129.348C239.671 129.348 247.225 129.399 247.225 129.459Z" fill="#051509"/>
<path d="M247.225 133.036C247.225 133.095 239.671 133.146 230.352 133.146C221.033 133.146 213.479 133.095 213.479 133.036C213.479 132.976 221.033 132.925 230.352 132.925C239.671 132.925 247.225 132.972 247.225 133.036Z" fill="#051509"/>
<path d="M247.225 136.609C247.225 136.668 239.671 136.719 230.352 136.719C221.033 136.719 213.479 136.668 213.479 136.609C213.479 136.549 221.033 136.498 230.352 136.498C239.671 136.498 247.225 136.532 247.225 136.609Z" fill="#051509"/>
<path d="M227.417 140.181C227.417 140.241 224.299 140.292 220.454 140.292C216.609 140.292 213.492 140.241 213.492 140.181C213.492 140.122 216.605 140.071 220.454 140.071C224.304 140.071 227.417 140.118 227.417 140.181Z" fill="#051509"/>
<path d="M260.249 79.4098C260.249 79.4693 225.605 79.5204 182.885 79.5204C140.164 79.5204 105.512 79.4693 105.512 79.4098C105.512 79.3502 140.147 79.2992 182.885 79.2992C225.622 79.2992 260.249 79.3502 260.249 79.4098Z" fill="#E0E0E0"/>
<path d="M105.381 57.1776L260.249 57.0713H260.351V57.1776C260.351 85.9344 260.351 117.537 260.351 150.649V150.772H260.24L105.372 150.747H105.287V150.662C105.338 93.3905 105.372 57.8752 105.372 57.1776C105.372 57.8752 105.406 93.3905 105.461 150.662L105.372 150.572L260.249 150.568L260.138 150.679C260.138 117.566 260.138 85.9642 260.138 57.2074L260.24 57.3095L105.381 57.1776Z" fill="#051509"/>
<path d="M37.9907 105.057H18.3063C17.9815 105.057 17.6598 104.993 17.3599 104.868C17.06 104.743 16.7878 104.561 16.5589 104.33C16.33 104.1 16.149 103.826 16.0262 103.525C15.9034 103.225 15.8414 102.903 15.8436 102.578V75.3308C15.8436 74.6777 16.1031 74.0513 16.5649 73.5895C17.0268 73.1276 17.6532 72.8682 18.3063 72.8682H30.7899L40.4534 82.8295V102.578C40.4557 102.903 40.3936 103.225 40.2709 103.525C40.1481 103.826 39.9671 104.1 39.7382 104.33C39.5093 104.561 39.237 104.743 38.9371 104.868C38.6372 104.993 38.3156 105.057 37.9907 105.057Z" fill="#28A746"/>
<g opacity="0.2">
<path d="M15.8436 95.2747H40.4534V101.2C40.4534 102.215 40.0501 103.188 39.3322 103.906C38.6143 104.624 37.6407 105.028 36.6254 105.028H19.7354C18.7055 105.028 17.7175 104.619 16.988 103.892C16.2585 103.165 15.847 102.178 15.8436 101.149V95.2747Z" fill="#051509"/>
</g>
<g opacity="0.2">
<path d="M30.7899 72.8682V80.5242C30.7899 81.1322 31.0314 81.7153 31.4613 82.1452C31.8913 82.5752 32.4744 82.8167 33.0824 82.8167H40.4534L30.7899 72.8682Z" fill="white"/>
</g>
<g opacity="0.2">
<path d="M30.8919 81.209C30.8919 81.209 30.7941 83.0677 32.9123 83.6802C32.9916 83.7046 33.0726 83.7231 33.1547 83.7355C34.116 83.9056 40.4534 85.037 40.4534 84.8881V82.8295H33.0824C33.0824 82.8295 31.2407 82.7657 30.8919 81.209Z" fill="#051509"/>
</g>
<path d="M22.8914 99.528C22.9295 99.1227 23.0831 98.7369 23.334 98.4163C23.5849 98.0957 23.9226 97.8539 24.3068 97.7195C24.6911 97.5852 25.1059 97.5639 25.5019 97.6583C25.8979 97.7527 26.2584 97.9588 26.5408 98.252L25.9751 98.7752C25.8571 98.6341 25.7093 98.5209 25.5424 98.4437C25.3754 98.3665 25.1935 98.3272 25.0096 98.3286C24.6847 98.3286 24.3731 98.4576 24.1434 98.6874C23.9137 98.9171 23.7846 99.2287 23.7846 99.5535C23.7846 99.8784 23.9137 100.19 24.1434 100.42C24.3731 100.649 24.6847 100.778 25.0096 100.778C25.1944 100.78 25.3773 100.74 25.5445 100.662C25.7117 100.583 25.8589 100.467 25.9751 100.323L26.5408 100.851C26.2595 101.155 25.8947 101.37 25.4919 101.468C25.0891 101.566 24.6664 101.543 24.2767 101.402C23.887 101.26 23.5477 101.007 23.3012 100.674C23.0548 100.341 22.9122 99.942 22.8914 99.528Z" fill="#FAFAFA"/>
<path d="M26.8045 101.068L27.1022 100.4C27.4766 100.661 27.922 100.8 28.3782 100.8C28.9056 100.8 29.1183 100.625 29.1183 100.374C29.1183 99.6557 26.8938 100.149 26.8938 98.7284C26.8938 98.0777 27.417 97.5375 28.5058 97.5375C28.9703 97.5283 29.4287 97.6443 29.8328 97.8735L29.5606 98.5455C29.2387 98.3578 28.8742 98.2553 28.5016 98.2478C27.9741 98.2478 27.7742 98.4435 27.7742 98.6731C27.7742 99.3749 29.9987 98.8901 29.9987 100.294C29.9987 100.936 29.4671 101.48 28.374 101.48C27.8209 101.507 27.273 101.363 26.8045 101.068Z" fill="#FAFAFA"/>
<path d="M30.305 101.068L30.607 100.4C30.9814 100.661 31.4267 100.8 31.883 100.8C32.4104 100.8 32.623 100.625 32.623 100.374C32.623 99.6556 30.3943 100.149 30.3943 98.7284C30.3943 98.0776 30.9217 97.5375 32.0106 97.5375C32.475 97.5286 32.9333 97.6447 33.3376 97.8735L33.0654 98.5455C32.7421 98.3572 32.3761 98.2548 32.0021 98.2478C31.4789 98.2478 31.2747 98.4434 31.2747 98.6731C31.2747 99.3749 33.5035 98.89 33.5035 100.294C33.5035 100.936 32.9718 101.48 31.8787 101.48C31.3244 101.506 30.7753 101.362 30.305 101.068Z" fill="#FAFAFA"/>
<path d="M24.1376 87.1466C24.563 87.2699 24.7288 87.5209 24.7288 88.1291V89.5369C24.72 89.6231 24.7306 89.7101 24.7599 89.7916C24.7891 89.8731 24.8363 89.947 24.898 90.0079C24.9596 90.0687 25.0341 90.1149 25.116 90.1431C25.1979 90.1713 25.2851 90.1807 25.3711 90.1707H25.5285V91.2425H25.0181C23.9207 91.2425 23.355 90.6811 23.355 89.6688V88.0781C23.355 87.7973 23.2062 87.6527 22.9722 87.6527H22.6787V86.5766H22.9722C23.2062 86.5766 23.355 86.4448 23.355 86.1513V84.5605C23.355 83.5483 23.9207 82.9868 25.0181 82.9868H25.5285V84.0587H25.3711C25.2835 84.0482 25.1946 84.0578 25.1113 84.0869C25.028 84.1161 24.9525 84.1639 24.8905 84.2267C24.8285 84.2895 24.7817 84.3656 24.7537 84.4493C24.7257 84.533 24.7172 84.6219 24.7288 84.7094V86.1173C24.7288 86.768 24.546 87.0232 24.1376 87.1466Z" fill="#FAFAFA"/>
<path d="M33.6183 86.6065V87.6826H33.3291C33.2737 87.6777 33.2178 87.6857 33.166 87.706C33.1142 87.7263 33.0677 87.7582 33.0303 87.7994C32.9928 87.8406 32.9654 87.8898 32.9501 87.9433C32.9347 87.9968 32.932 88.0532 32.942 88.1079V89.6986C32.942 90.7109 32.3806 91.2724 31.279 91.2724H30.7686V90.1708H30.9302C31.0169 90.1822 31.105 90.1738 31.188 90.1462C31.271 90.1187 31.3466 90.0727 31.4092 90.0117C31.4719 89.9507 31.5199 89.8763 31.5496 89.7941C31.5794 89.7119 31.5901 89.624 31.581 89.537V88.1292C31.581 87.5209 31.7639 87.2785 32.1679 87.1466C31.7426 87.0233 31.581 86.7681 31.581 86.1599V84.752C31.5926 84.6645 31.5841 84.5756 31.5561 84.4919C31.5281 84.4082 31.4813 84.3321 31.4193 84.2693C31.3573 84.2065 31.2818 84.1587 31.1985 84.1296C31.1152 84.1004 31.0263 84.0907 30.9387 84.1013H30.7771V83.0294H31.2875C32.3891 83.0294 32.9505 83.5909 32.9505 84.6032V86.1939C32.9405 86.2486 32.9433 86.305 32.9586 86.3585C32.9739 86.412 33.0013 86.4612 33.0388 86.5024C33.0762 86.5436 33.1227 86.5755 33.1745 86.5958C33.2263 86.616 33.2822 86.6241 33.3376 86.6192L33.6183 86.6065Z" fill="#FAFAFA"/>
<path d="M53.3708 111.348C53.2306 111.374 53.0879 111.384 52.9455 111.378L51.7418 111.399L47.3821 111.437H47.3183V111.344C47.3183 108.932 47.3183 105.934 47.3183 102.684C47.3183 100.664 47.3183 98.7369 47.3183 96.9802C47.3183 96.1083 47.3183 95.2789 47.3183 94.492C47.3338 94.317 47.308 94.1408 47.243 93.9775C47.178 93.8143 47.0756 93.6685 46.944 93.5521C46.8181 93.4465 46.6723 93.3673 46.5152 93.3191C46.3581 93.2709 46.193 93.2546 46.0295 93.2713L42.8906 93.2373L42.0399 93.216C41.941 93.2279 41.8411 93.2279 41.7422 93.216C41.8402 93.1971 41.9402 93.1899 42.0399 93.1948H42.8906L46.0295 93.1608C46.2126 93.1402 46.3979 93.1563 46.5746 93.2082C46.7513 93.26 46.9159 93.3466 47.0589 93.4627C47.2063 93.5975 47.3212 93.764 47.3949 93.9497C47.4686 94.1354 47.4991 94.3354 47.4842 94.5346C47.4842 95.3172 47.4842 96.1508 47.4842 97.0228C47.4842 98.7794 47.4842 100.706 47.4842 102.727C47.4842 105.976 47.4842 108.975 47.4842 111.386L47.3949 111.297L51.7545 111.335L52.9582 111.361C53.0952 111.346 53.2332 111.342 53.3708 111.348Z" fill="#051509"/>
<path d="M41.3892 129.233C41.4681 129.221 41.5484 129.221 41.6273 129.233L42.3079 129.212L44.8173 129.178C45.3448 129.144 45.953 129.267 46.4676 128.957C46.7409 128.798 46.9623 128.563 47.105 128.28C47.2476 127.998 47.3055 127.681 47.2715 127.366C47.2715 125.962 47.2715 124.423 47.2715 122.811C47.2715 119.591 47.297 116.677 47.3055 114.534C47.3055 113.496 47.3311 112.645 47.3396 112.024C47.3396 111.748 47.3396 111.522 47.3396 111.344C47.3332 111.265 47.3332 111.185 47.3396 111.106C47.359 111.183 47.3676 111.264 47.3651 111.344C47.3651 111.522 47.3651 111.748 47.3651 112.024C47.3651 112.645 47.3651 113.496 47.3991 114.534C47.3991 116.66 47.4204 119.591 47.4289 122.811C47.4289 124.423 47.4289 125.962 47.4289 127.366C47.4364 127.545 47.425 127.725 47.3949 127.902C47.3616 128.076 47.3013 128.244 47.2162 128.4C47.0618 128.691 46.829 128.933 46.5442 129.099C46.2594 129.266 45.9338 129.349 45.6042 129.34H44.7535L42.2441 129.306L41.5635 129.284C41.5037 129.274 41.4452 129.257 41.3892 129.233Z" fill="#051509"/>
<path d="M55.1061 111.348C55.1061 111.516 55.0563 111.681 54.9628 111.821C54.8693 111.961 54.7365 112.07 54.581 112.134C54.4256 112.198 54.2545 112.215 54.0895 112.182C53.9245 112.15 53.7729 112.069 53.654 111.95C53.535 111.831 53.454 111.679 53.4212 111.514C53.3883 111.349 53.4052 111.178 53.4696 111.023C53.534 110.867 53.643 110.734 53.7829 110.641C53.9228 110.547 54.0872 110.497 54.2555 110.497C54.4811 110.497 54.6975 110.587 54.857 110.747C55.0165 110.906 55.1061 111.122 55.1061 111.348Z" fill="#051509"/>
<path d="M37.9269 144.813H18.8635C18.2307 144.813 17.6237 144.562 17.1763 144.114C16.7288 143.667 16.4774 143.06 16.4774 142.427V116.057C16.4774 115.424 16.7288 114.817 17.1763 114.369C17.6237 113.922 18.2307 113.67 18.8635 113.67H30.9515L40.3088 123.317V142.457C40.301 143.084 40.0467 143.683 39.601 144.123C39.1553 144.564 38.5539 144.812 37.9269 144.813Z" fill="#28A746"/>
<g opacity="0.2">
<path d="M16.4774 135.358H40.2961V141.313C40.2961 142.239 39.9281 143.127 39.2733 143.782C38.6184 144.437 37.7302 144.805 36.8041 144.805H19.9183C19.0057 144.805 18.1305 144.442 17.4852 143.797C16.8399 143.152 16.4774 142.276 16.4774 141.364V135.358Z" fill="#051509"/>
</g>
<path d="M24.9245 141.457L25.5242 140.739C25.6138 140.886 25.7382 141.01 25.8864 141.099C26.0346 141.188 26.2023 141.239 26.3749 141.249C26.8002 141.249 27.0384 140.99 27.0384 140.479V138.259H25.4094V137.408H28.123V140.432C28.123 141.585 27.5403 142.155 26.4429 142.155C26.1532 142.163 25.8655 142.105 25.6022 141.984C25.3388 141.863 25.1069 141.683 24.9245 141.457Z" fill="#FAFAFA"/>
<path d="M28.7653 141.721L29.114 140.977C29.4903 141.204 29.921 141.324 30.3603 141.326C30.8409 141.326 31.0195 141.198 31.0195 140.998C31.0195 140.411 28.8546 140.998 28.8546 139.577C28.8546 138.897 29.4671 138.416 30.5134 138.416C30.9915 138.408 31.4645 138.516 31.8915 138.731L31.5469 139.471C31.232 139.292 30.8755 139.2 30.5134 139.203C30.0455 139.203 29.8456 139.352 29.8456 139.539C29.8456 140.152 32.0106 139.539 32.0106 140.968C32.0106 141.636 31.3938 142.108 30.3092 142.108C29.7695 142.117 29.2371 141.983 28.7653 141.721Z" fill="#FAFAFA"/>
<path d="M21.5261 130.395L22.2747 129.518C22.4736 129.839 22.7502 130.104 23.0788 130.289C23.4075 130.474 23.7775 130.573 24.1547 130.577C25.1712 130.577 25.7029 129.956 25.7029 128.748V123.696H22.4406V122.573H26.9746V128.697C26.9746 130.705 25.9963 131.696 24.1547 131.696C23.6437 131.709 23.1373 131.597 22.6792 131.371C22.2212 131.144 21.8254 130.809 21.5261 130.395Z" fill="#FAFAFA"/>
<path d="M28.5611 130.871L29.08 129.893C29.7923 130.357 30.6244 130.604 31.4746 130.603C32.623 130.603 33.0994 130.254 33.0994 129.676C33.0994 128.14 28.7823 129.467 28.7823 126.749C28.7823 125.524 29.8754 124.699 31.6278 124.699C32.503 124.682 33.3672 124.896 34.133 125.32L33.6056 126.298C33.0147 125.929 32.3286 125.741 31.632 125.758C30.5517 125.758 30.0243 126.158 30.0243 126.698C30.0243 128.31 34.3542 126.996 34.3542 129.65C34.3542 130.888 33.2185 131.67 31.4023 131.67C30.3957 131.702 29.4037 131.423 28.5611 130.871Z" fill="#FAFAFA"/>
<g opacity="0.3">
<path d="M30.9515 113.653V121.08C30.9515 121.668 31.1854 122.233 31.6018 122.65C32.0181 123.066 32.5829 123.3 33.1717 123.3H40.3131L30.9515 113.653Z" fill="white"/>
</g>
<g opacity="0.2">
<path d="M31.0493 121.73C31.0536 122.293 31.25 122.837 31.6058 123.272C31.9616 123.708 32.4556 124.009 33.0058 124.125L33.2398 124.18C34.1712 124.346 40.3131 125.456 40.3131 125.295V123.3H33.1717C33.1717 123.3 31.3896 123.24 31.0493 121.73Z" fill="#051509"/>
</g>
<path fill-rule="evenodd" clip-rule="evenodd" d="M123.272 65.4968C121.143 65.9503 119.304 67.6026 118.497 69.6275C118.175 70.3403 118.191 71.1016 118.191 71.8792C118.175 72.9645 118.288 73.5801 118.707 74.3901C121.304 79.9301 129.03 79.1364 130.724 73.4505C130.82 73.2399 131.208 73.2885 131.417 73.1589C131.482 73.1103 131.498 73.0617 131.482 73.0131C131.337 72.673 130.643 71.863 130.304 71.4742C130.014 71.1502 129.885 70.9235 129.756 70.8425C129.595 70.8587 128.224 72.3814 127.901 72.8835C127.869 72.9321 127.836 72.9807 127.836 73.0455C127.853 73.1913 128.078 73.2399 128.207 73.2723C128.304 73.2885 128.353 73.3695 128.336 73.4667C126.578 77.5651 120.385 76.2529 120.368 71.7496C120.336 69.5303 122.207 67.5055 124.465 67.5864C125.207 67.6026 126.546 67.8294 126.482 68.0886C126.207 68.445 125.24 69.4007 124.836 69.8219C124.611 70.0487 123.481 71.1664 123.32 71.3284C123.288 71.3932 123.336 71.4094 123.401 71.4904C123.481 71.5714 123.627 71.7172 123.74 71.8306C123.901 72.0088 124.046 72.106 124.24 72.2194C124.433 72.3328 124.627 72.4462 124.804 72.5596C124.917 72.6244 125.03 72.6244 125.127 72.5272C126.094 71.6038 127.062 70.6643 127.998 69.6923C128.062 69.6275 128.095 69.5627 128.095 69.4655C128.111 69.2064 128.127 68.4774 128.127 68.2344C128.143 67.8618 128.143 67.3273 128.111 66.9547C128.078 66.6631 128.078 66.4687 127.869 66.2905C127.127 65.6264 124.514 65.2052 123.288 65.4806L123.272 65.4968Z" fill="#28A746"/>
<path d="M125.562 71.3447C125.094 71.0045 123.223 70.6643 123.933 69.8058C124.449 69.4332 125.143 69.6438 125.691 69.8382C125.756 69.8706 125.852 69.8868 125.917 69.8868C126.159 69.7896 126.159 69.4332 126.24 69.2226C126.498 68.5908 125.562 68.5746 125.159 68.4451C124.949 68.4127 124.933 68.2183 124.933 68.0401C124.917 67.9105 124.933 67.7647 124.869 67.6675C124.707 67.5541 124.272 67.6027 124.046 67.6189C123.869 67.6189 123.885 67.7809 123.885 67.8943C123.869 68.0725 123.917 68.3479 123.788 68.4937C123.61 68.6232 123.272 68.7042 123.078 68.85C122.61 69.1416 122.32 69.5952 122.272 70.2108C122.143 71.6363 123.61 72.0088 124.627 72.4948C125.143 72.754 125.256 73.4182 124.659 73.6774C124.062 73.9203 123.352 73.6936 122.788 73.4506C122.352 73.2562 122.352 73.9365 122.239 74.1957C122.191 74.3739 122.239 74.5521 122.417 74.6169C122.804 74.8437 123.256 74.8599 123.675 75.0057C123.852 75.1353 123.772 75.4592 123.804 75.6536C123.804 75.7994 123.869 75.8804 123.998 75.9128C124.207 75.9452 124.401 75.9614 124.61 75.9452C124.707 75.9452 124.836 75.929 124.852 75.8318C124.885 75.6374 124.869 75.4754 124.885 75.2325C124.869 74.9895 124.998 74.8599 125.223 74.7951C125.433 74.7141 125.643 74.6169 125.82 74.4873C126.917 73.7097 126.788 71.9927 125.594 71.3609L125.562 71.3447Z" fill="#FFD700"/>
</svg>
