<svg width="249" height="147" viewBox="0 0 249 147" fill="none" xmlns="http://www.w3.org/2000/svg">
<path d="M211.564 26.506C212.13 26.2064 212.738 25.9737 213.373 25.814L213.745 24.2401L216.77 24.1934L217.204 25.7556C217.846 25.8938 218.463 26.107 219.04 26.3892L220.568 25.5132L222.742 27.3645L221.796 28.7398C222.138 29.237 222.403 29.7722 222.583 30.3312L224.372 30.6582L224.425 33.3184L222.649 33.7009C222.49 34.2635 222.248 34.8053 221.929 35.3127L222.925 36.6588L220.827 38.5715L219.263 37.7393C218.697 38.0385 218.089 38.2702 217.453 38.4284L217.082 40.0023L214.057 40.049L213.622 38.4868C212.982 38.349 212.365 38.1358 211.79 37.8531L210.259 38.7291L208.084 36.8808L209.031 35.5054C208.689 35.0095 208.426 34.4751 208.247 33.917L206.458 33.5899L206.405 30.9298L208.177 30.5473C208.336 29.9831 208.579 29.44 208.901 28.9325L207.905 27.5893L210.007 25.6767L211.567 26.5089L211.564 26.506ZM213.177 30.048C212.732 30.4539 212.433 30.9669 212.319 31.522C212.205 32.0772 212.281 32.6496 212.537 33.167C212.793 33.6843 213.217 34.1233 213.757 34.4285C214.296 34.7337 214.926 34.8913 215.568 34.8815C216.209 34.8717 216.833 34.6949 217.36 34.3735C217.887 34.052 218.294 33.6003 218.529 33.0754C218.764 32.5506 218.817 31.9762 218.681 31.4248C218.545 30.8735 218.227 30.37 217.766 29.9779C217.146 29.4525 216.315 29.1648 215.455 29.1779C214.595 29.1911 213.775 29.504 213.177 30.048Z" fill="#EBEBEB"/>
<path d="M112.664 32.8307C113.12 32.5886 113.61 32.401 114.122 32.273L114.421 31.0057L116.861 30.9678L117.209 32.2263C117.727 32.338 118.225 32.5099 118.69 32.7373L119.922 32.0277L121.675 33.5169L120.911 34.6265C121.188 35.0264 121.401 35.4577 121.545 35.9084L122.99 36.1712L123.033 38.3174L121.602 38.624C121.474 39.079 121.277 39.517 121.017 39.9263L121.828 41.0097L120.131 42.5485L118.873 41.8769C118.417 42.1192 117.927 42.3068 117.415 42.4346L117.113 43.7048L114.676 43.7428L114.324 42.4843C113.808 42.3701 113.311 42.1953 112.847 41.9645L111.612 42.677L109.859 41.1849L110.623 40.0782C110.348 39.6771 110.135 39.2461 109.988 38.7963L108.548 38.5306L108.504 36.3873L109.935 36.0778C110.062 35.6237 110.257 35.1866 110.516 34.7784L109.71 33.6921L111.403 32.1504L112.664 32.822V32.8307ZM113.962 35.6865C113.603 36.0137 113.361 36.4274 113.269 36.8752C113.177 37.323 113.237 37.7849 113.444 38.2023C113.65 38.6198 113.992 38.9741 114.427 39.2205C114.862 39.4669 115.37 39.5943 115.888 39.5865C116.405 39.5788 116.908 39.4362 117.334 39.1769C117.759 38.9176 118.087 38.5532 118.277 38.1298C118.467 37.7064 118.51 37.243 118.4 36.7982C118.29 36.3534 118.033 35.9472 117.661 35.631C117.162 35.2079 116.492 34.9761 115.799 34.9865C115.105 34.9969 114.445 35.2486 113.962 35.6865Z" fill="#F5F5F5"/>
<path d="M113.962 35.6864C114.1 35.5385 114.265 35.4121 114.45 35.3126C114.955 35.0238 115.558 34.8979 116.157 34.9564C116.602 34.9988 117.028 35.1397 117.395 35.3659C117.762 35.5921 118.058 35.8962 118.255 36.2499C118.371 36.4532 118.45 36.6708 118.491 36.8953C118.541 37.1283 118.547 37.3672 118.507 37.6019C118.439 38.1045 118.186 38.5738 117.788 38.9393C117.39 39.3047 116.868 39.5466 116.3 39.6284C116.033 39.6677 115.76 39.6677 115.493 39.6284C115.237 39.6014 114.987 39.5393 114.753 39.4444C114.315 39.2698 113.938 38.9957 113.66 38.6502C113.423 38.3498 113.27 38.0048 113.212 37.6428C113.119 37.12 113.237 36.5851 113.544 36.1302C113.651 35.9634 113.789 35.8135 113.952 35.6864C113.952 35.6864 113.796 35.8382 113.594 36.1536C113.314 36.6033 113.213 37.1221 113.305 37.6282C113.372 37.9993 113.544 38.3497 113.805 38.6471C114.066 38.9446 114.408 39.1796 114.799 39.3305C115.259 39.5088 115.768 39.5637 116.263 39.4882C116.797 39.4083 117.287 39.1804 117.663 38.8379C118.038 38.4954 118.28 38.0561 118.351 37.5844C118.391 37.3629 118.391 37.1372 118.351 36.9157C118.314 36.7023 118.239 36.4954 118.129 36.3025C117.943 35.9636 117.663 35.6713 117.315 35.4524C116.967 35.2335 116.562 35.0951 116.137 35.0498C115.56 34.9868 114.976 35.0947 114.477 35.3564C114.128 35.5404 113.976 35.701 113.962 35.6864Z" fill="#F5F5F5"/>
<path d="M112.664 32.8306C112.635 32.8205 112.607 32.8078 112.581 32.7926L112.339 32.67L111.39 32.1765H111.419L109.736 33.727V33.6861L110.546 34.7665L110.563 34.787V34.8074C110.308 35.2147 110.115 35.6496 109.988 36.101V36.1243H109.962L108.531 36.4368L108.571 36.3901C108.584 37.0636 108.6 37.778 108.617 38.5333L108.571 38.4837L110.015 38.7436H110.052V38.7757C110.199 39.2203 110.411 39.6462 110.682 40.043L110.702 40.0722L110.682 40.1014L109.919 41.211V41.138C110.47 41.6052 111.064 42.1103 111.675 42.6243H111.589L112.82 41.9118L112.857 41.8913L112.893 41.9089C113.353 42.1339 113.844 42.3038 114.354 42.414H114.397V42.452C114.51 42.8462 114.63 43.2783 114.749 43.7105L114.68 43.6638L117.117 43.6229L117.043 43.6755C117.14 43.2754 117.243 42.8433 117.346 42.4082V42.3673H117.392C117.897 42.2397 118.38 42.0541 118.83 41.8154L118.869 41.795L118.909 41.8154L120.168 42.487H120.075L121.768 40.9453V41.0241L120.961 39.9408L120.935 39.9087L120.958 39.8736C121.214 39.47 121.407 39.0379 121.532 38.5888V38.5509H121.572L123.006 38.2589L122.95 38.3202C122.936 37.5882 122.923 36.8738 122.91 36.1769L122.966 36.2353L121.522 35.9696H121.482V35.9345C121.337 35.4881 121.123 35.0609 120.848 34.6643L120.828 34.6351L120.848 34.603L121.612 33.4963V33.5664L119.862 32.0714H119.935L118.7 32.7809H118.674H118.644C118.183 32.556 117.691 32.3843 117.18 32.2699H117.15V32.2437C117.024 31.7881 116.911 31.3677 116.818 30.9851L116.861 31.0143L114.421 31.0435L114.454 31.0202C114.331 31.5253 114.228 31.94 114.145 32.2875C113.761 32.3817 113.387 32.5078 113.03 32.6641L112.767 32.7868C112.741 32.8027 112.712 32.8154 112.681 32.8247L112.761 32.7751C112.817 32.7459 112.9 32.7021 113.02 32.6466C113.374 32.4799 113.746 32.3458 114.132 32.2466L114.115 32.2641C114.195 31.9166 114.288 31.4991 114.404 30.9939V30.9705H114.431L116.868 30.9209H116.904V30.953L117.259 32.2086L117.223 32.1794C117.744 32.2908 118.247 32.4626 118.717 32.6904H118.66C119.052 32.4627 119.457 32.2261 119.892 31.9779L119.929 31.9546L119.962 31.9838L121.718 33.4701L121.755 33.4993L121.728 33.5372L120.968 34.6468V34.5855C121.246 34.9911 121.462 35.427 121.612 35.882L121.559 35.8411L123.003 36.1039H123.056V36.1535C123.056 36.8514 123.086 37.5668 123.099 38.2968V38.3465L123.043 38.3611L121.612 38.6706L121.665 38.6239C121.535 39.0835 121.338 39.5262 121.077 39.9408V39.8736L121.884 40.9569L121.917 41.0007L121.877 41.0387L120.184 42.5805L120.141 42.6184L120.091 42.5921L118.83 41.9205H118.906C118.445 42.1648 117.949 42.3543 117.432 42.4841L117.485 42.4345C117.382 42.8695 117.279 43.3105 117.183 43.7017V43.7543H117.123L114.683 43.7923H114.627L114.61 43.7426C114.49 43.3075 114.371 42.8666 114.261 42.4841L114.314 42.5308C113.792 42.4163 113.288 42.2415 112.817 42.0111H112.88L111.648 42.7206L111.602 42.7469L111.562 42.7148L109.809 41.2227L109.773 41.1905L109.799 41.1497L110.563 40.043V40.1014C110.287 39.6956 110.073 39.2597 109.925 38.8049L109.975 38.8429L108.531 38.5771H108.485V38.5363C108.485 37.7829 108.458 37.0763 108.448 36.3901V36.3521H108.491L109.922 36.0601L109.889 36.0922C110.018 35.6339 110.217 35.1929 110.48 34.7811V34.822L109.676 33.7358L109.66 33.7124L109.683 33.6949L111.386 32.159L112.312 32.6671C112.415 32.7225 112.495 32.7663 112.552 32.8014L112.664 32.8306Z" fill="#F5F5F5"/>
<path d="M44.4582 25.3788C44.3992 25.1517 44.3691 24.9196 44.3686 24.6867C44.355 24.4075 44.3195 24.1295 44.2623 23.8545C44.2104 23.4779 44.1272 23.1051 44.0133 22.7391C43.7366 21.7283 43.289 20.7597 42.6853 19.8658C41.9039 18.6797 40.873 17.6352 39.6475 16.7881C38.0606 15.6854 36.185 14.9498 34.1918 14.6483C32.1986 14.3469 30.1513 14.4892 28.2367 15.0624C27.1334 15.3828 26.0922 15.8495 25.1491 16.4465C24.6645 16.7495 24.2032 17.0801 23.768 17.4364C23.333 17.8134 22.9281 18.2163 22.5562 18.6423C20.9887 20.4244 20.1109 22.6009 20.0511 24.8534C19.9914 27.1058 20.7529 29.316 22.2242 31.1604C22.5748 31.6002 22.9574 32.0196 23.3696 32.416C23.7849 32.7931 24.2286 33.1453 24.6976 33.4701C25.6005 34.1055 26.608 34.6165 27.6856 34.9856C30.3076 35.8888 33.2043 35.9658 35.8835 35.2036C38.5628 34.4413 40.8594 32.8868 42.3832 30.8041C43.0302 29.9358 43.528 28.9883 43.8606 27.9922C43.9919 27.6299 44.0951 27.2601 44.1694 26.8855C44.2418 26.6136 44.2918 26.3374 44.3188 26.0591C44.3332 25.8269 44.3766 25.5968 44.4483 25.3729C44.4788 25.6048 44.4788 25.839 44.4483 26.0708C44.4464 26.3539 44.4164 26.6362 44.3586 26.9147C44.3074 27.2996 44.2219 27.6804 44.103 28.0535C43.8098 29.0855 43.3349 30.0707 42.6953 30.9735C41.7596 32.3159 40.5082 33.4666 39.0251 34.3485C37.542 35.2303 35.8615 35.8229 34.0965 36.0864C31.8636 36.4173 29.5707 36.2156 27.4565 35.5024C26.3106 35.1223 25.2378 34.5895 24.2759 33.9227C23.7774 33.5826 23.3049 33.2139 22.8616 32.8189C22.4237 32.404 22.0188 31.963 21.6498 31.4991C20.0916 29.5535 19.2859 27.2187 19.3516 24.8396C19.4174 22.4604 20.3511 20.1628 22.015 18.2861C22.4097 17.8382 22.839 17.4148 23.2999 17.0188C23.7686 16.6425 24.2655 16.2943 24.7872 15.9764C25.7836 15.3523 26.8832 14.8668 28.0475 14.5368C30.1991 13.9104 32.5022 13.8025 34.7173 14.2244C36.464 14.5642 38.1081 15.2281 39.5395 16.1718C40.9709 17.1155 42.1566 18.3172 43.0173 19.6965C43.6111 20.6313 44.0346 21.6422 44.2723 22.6924C44.3679 23.0703 44.4322 23.4538 44.4649 23.8399C44.5057 24.1207 44.5191 24.404 44.5047 24.6867C44.5196 24.9182 44.504 25.1504 44.4582 25.3788Z" fill="#EBEBEB"/>
<path d="M41.9816 18.5755C42.0082 18.6105 41.7858 18.7799 41.3542 19.0631L40.5574 19.5654C40.398 19.6617 40.2254 19.7698 40.0494 19.8574L39.4418 20.1494C37.2291 21.2615 34.7121 21.8189 32.1644 21.7612L31.0622 21.7203L30.0031 21.5743C29.8304 21.548 29.6711 21.5276 29.4885 21.4984L28.9971 21.3816C28.6651 21.3028 28.3331 21.2356 28.0443 21.1509C26.9676 20.8306 25.9326 20.4107 24.9567 19.8982C23.2967 19.0222 22.4899 18.2134 22.553 18.1462C22.6161 18.0791 23.5224 18.7507 25.1924 19.5157C26.1626 19.9625 27.1758 20.3328 28.2202 20.6224C28.5157 20.6983 28.8245 20.7567 29.1366 20.8268L29.6113 20.929L30.1027 20.9962L31.1153 21.1276L32.1644 21.1626C34.6117 21.2106 37.0354 20.7336 39.226 19.7727L39.8402 19.5362C40.0295 19.4515 40.1988 19.358 40.3648 19.2763L41.2081 18.8675C41.6795 18.6485 41.9551 18.5434 41.9816 18.5755Z" fill="#EBEBEB"/>
<path d="M22.1777 31.8147C22.1478 31.7796 22.3736 31.6103 22.8018 31.327L23.5986 30.8248C23.758 30.7313 23.9306 30.6233 24.1066 30.5328L24.7175 30.2408C26.9307 29.1296 29.4473 28.5722 31.9949 28.6289L33.0972 28.6727L34.1529 28.8187C34.3256 28.845 34.4849 28.8625 34.6675 28.8947L35.1589 29.0085C35.4909 29.0874 35.8063 29.1545 36.1117 29.2421C37.1883 29.5615 38.2233 29.9805 39.1993 30.4919C40.8593 31.3679 41.6661 32.1767 41.603 32.2439C41.5399 32.3111 40.6335 31.6395 38.947 30.8773C37.973 30.4344 36.9565 30.068 35.9092 29.7823C35.6104 29.7064 35.3016 29.6509 34.9896 29.5779L34.5281 29.4611L34.04 29.4086L33.044 29.2772L31.9916 29.2392C29.5497 29.1949 27.132 29.6729 24.9466 30.6321L24.329 30.8657C24.1398 30.9533 23.9705 31.0467 23.8078 31.1255L22.9612 31.5343C22.4798 31.7446 22.2042 31.8497 22.1777 31.8147Z" fill="#EBEBEB"/>
<path d="M44.4517 25.6327C44.4517 25.7962 38.9006 25.8137 32.0648 25.6677C25.2289 25.5217 19.6911 25.2677 19.6978 25.1042C19.7044 24.9406 25.2455 24.9231 32.0814 25.0691C38.9172 25.2151 44.455 25.4662 44.4517 25.6327Z" fill="#EBEBEB"/>
<path d="M31.5036 35.9903C31.3143 35.9903 31.2977 31.111 31.4637 25.1016C31.6297 19.0922 31.9153 14.2246 32.1045 14.2246C32.2937 14.2246 32.3103 19.101 32.1443 25.1133C31.9783 31.1256 31.6895 35.9932 31.5036 35.9903Z" fill="#EBEBEB"/>
<path d="M31.5035 35.9725C31.4571 36.0367 30.0925 35.225 28.5155 33.3825C27.5972 32.2998 26.8532 31.1108 26.3044 29.8493C25.6377 28.2906 25.3133 26.6349 25.3483 24.9699C25.3949 23.3027 25.8205 21.6606 26.5999 20.1403C27.2265 18.9089 28.0395 17.7577 29.0169 16.718C30.6769 14.9456 32.058 14.1601 32.1045 14.2243C32.1509 14.2886 30.9259 15.1821 29.3953 16.9779C28.5047 18.0222 27.759 19.1564 27.1743 20.3563C26.4625 21.8203 26.0738 23.3899 26.0289 24.9816C25.9967 26.5721 26.2903 28.1546 26.8954 29.6536C27.4004 30.882 28.0773 32.0502 28.9106 33.1313C30.3449 34.9943 31.5733 35.9083 31.5035 35.9725Z" fill="#EBEBEB"/>
<path d="M32.38 14.2242C32.4265 14.16 33.791 14.9747 35.368 16.8143C36.2883 17.8989 37.0325 19.091 37.5791 20.3562C38.2474 21.9145 38.5719 23.5704 38.5353 25.2355C38.4897 26.9026 38.0652 28.5447 37.2869 30.0652C36.6554 31.2989 35.8392 32.4528 34.86 33.4962C33.2 35.2687 31.8156 36.0541 31.7691 35.9899C31.7226 35.9257 32.9477 35.0321 34.4782 33.2363C35.3691 32.1911 36.1148 31.0559 36.6993 29.855C37.4152 28.389 37.8052 26.816 37.848 25.2209C37.8817 23.6304 37.5882 22.0476 36.9815 20.5489C36.4765 19.3206 35.7996 18.1524 34.9663 17.0712C33.532 15.2083 32.3136 14.2943 32.38 14.2242Z" fill="#EBEBEB"/>
<path d="M59.3186 36.6677C60.347 36.1218 61.4534 35.6985 62.6087 35.4092L63.2727 32.5476L68.7706 32.4629L69.5608 35.3041C70.7276 35.5598 71.8499 35.9527 72.8974 36.4721L75.6762 34.869L79.6337 38.2299L77.9106 40.7294C78.5313 41.6329 79.0125 42.605 79.3415 43.6202L82.5951 44.2042L82.6914 49.0397L79.461 49.7376C79.1734 50.7579 78.7324 51.7399 78.1496 52.6576L79.9723 55.1016L76.1643 58.6086L73.3224 57.0931C72.295 57.6381 71.1897 58.0603 70.0356 58.3487L69.3716 61.2103L63.8736 61.2979L63.0802 58.4421C61.914 58.1845 60.792 57.7917 59.7436 57.2741L56.9514 58.9006L52.994 55.5426L54.7171 53.043C54.096 52.139 53.6159 51.1658 53.2895 50.1493L50.0359 49.5653L49.9363 44.7298L53.1666 44.0348C53.4589 43.0137 53.9055 42.0316 54.4946 41.1148L52.6753 38.6708L56.4933 35.1902L59.3352 36.7056L59.3186 36.6677ZM62.2502 43.1092C61.4398 43.8475 60.8966 44.7806 60.6891 45.7904C60.4817 46.8003 60.6193 47.8416 61.0847 48.7826C61.5501 49.7236 62.3223 50.5222 63.3036 51.0773C64.285 51.6323 65.4314 51.919 66.598 51.901C67.7646 51.8831 68.899 51.5613 69.8576 50.9763C70.8163 50.3914 71.5562 49.5696 71.9839 48.6148C72.4115 47.66 72.5076 46.6151 72.2601 45.6123C72.0126 44.6094 71.4326 43.6936 70.5933 42.9807C70.036 42.5073 69.378 42.135 68.6571 41.8852C67.9361 41.6354 67.1662 41.513 66.3915 41.5249C65.6167 41.5369 64.8522 41.6829 64.1416 41.9548C63.4311 42.2266 62.7883 42.6189 62.2502 43.1092Z" fill="#E0E0E0"/>
<path d="M62.2501 43.109C62.5608 42.7753 62.9321 42.4892 63.349 42.2622C64.4874 41.6112 65.8476 41.3284 67.1969 41.4621C68.1302 41.5486 69.0269 41.8288 69.8131 42.2797C70.7198 42.7983 71.4504 43.5226 71.9279 44.3762C72.1935 44.8349 72.375 45.3277 72.4657 45.8362C72.5751 46.3645 72.5863 46.9049 72.4989 47.4364C72.3319 48.5622 71.7575 49.6108 70.8607 50.4274C69.964 51.244 68.7923 51.7852 67.5189 51.9712C66.9193 52.0668 66.3061 52.0766 65.7029 52.0004C65.1286 51.9349 64.5689 51.7931 64.0429 51.5799C63.0569 51.1883 62.2085 50.5711 61.5861 49.7928C61.0471 49.1167 60.6968 48.3385 60.5635 47.5211C60.3647 46.3394 60.6394 45.1337 61.3404 44.1105C61.5835 43.7361 61.8954 43.3997 62.2634 43.1148C62.2966 43.1382 61.9081 43.4564 61.4533 44.1689C60.8163 45.1792 60.5825 46.3481 60.7893 47.489C60.9428 48.3252 61.3314 49.1145 61.9199 49.7851C62.5084 50.4557 63.2781 50.9863 64.1591 51.3288C65.2016 51.733 66.3567 51.857 67.4791 51.685C68.681 51.5043 69.7858 50.9907 70.6326 50.2191C71.4794 49.4475 72.0239 48.4583 72.1868 47.3955C72.2722 46.8935 72.2644 46.3827 72.1636 45.883C72.0785 45.403 71.9105 44.9372 71.6656 44.5018C71.2462 43.7365 70.6146 43.0762 69.8291 42.5818C69.0436 42.0874 68.1293 41.7746 67.1703 41.6723C65.867 41.5277 64.5462 41.7713 63.4187 42.3644C62.6253 42.7848 62.28 43.1323 62.2501 43.109Z" fill="#E0E0E0"/>
<path d="M59.3185 36.6673C59.3185 36.6673 59.2587 36.6411 59.1359 36.5827L58.5914 36.3053L56.4401 35.1927H56.5065L52.7084 38.6967V38.6033L54.541 41.0386L54.5742 41.0824L54.5443 41.1291C53.97 42.0484 53.5358 43.0301 53.2528 44.0491V44.1046L53.1864 44.1192L49.9594 44.8229L50.0524 44.7207C50.0856 46.242 50.1221 47.8597 50.1619 49.5562L50.0557 49.4424L53.3093 50.0264H53.3923L53.4155 50.0994C53.7428 51.1035 54.2207 52.0648 54.8365 52.958L54.883 53.0252L54.8365 53.0924C54.302 53.8662 53.7143 54.7217 53.1167 55.5919L53.0935 55.4284L57.0543 58.7834L56.8584 58.7688L59.6372 57.1628L59.7169 57.1161L59.8032 57.157C60.8398 57.6636 61.9484 58.0466 63.1 58.2958L63.1963 58.3162L63.2195 58.4009C63.4685 59.2915 63.7407 60.261 64.013 61.2421L63.8503 61.1311L69.3482 61.0435L69.1855 61.1603C69.4013 60.2551 69.6304 59.2798 69.8495 58.2987L69.8695 58.2111L69.9691 58.1848C71.1078 57.9001 72.1985 57.4838 73.2127 56.9468L73.3023 56.9L73.3887 56.9468L76.2273 58.4622L76.0214 58.4856L79.8394 55.0079L79.8195 55.1918L78.0201 52.7478L77.9669 52.6748L78.0134 52.596C78.5917 51.6859 79.0283 50.7116 79.3115 49.6993L79.3381 49.6146L79.4344 49.5942L82.6614 48.8992L82.5386 49.0394C82.5098 47.3906 82.4799 45.7787 82.4489 44.2039L82.5718 44.3353L79.3182 43.7367L79.2285 43.7191L79.2053 43.6432C78.8818 42.6375 78.4073 41.6742 77.7943 40.7787L77.7511 40.7115L77.7943 40.6473L79.524 38.1507L79.5473 38.3025L75.5965 34.9358H75.7591L72.9737 36.5301L72.9139 36.5681L72.8475 36.5359C71.8046 36.0224 70.6879 35.6345 69.5275 35.3825L69.4611 35.3679V35.3095C69.1756 34.2788 68.9199 33.3473 68.6809 32.4684L68.7772 32.5355L63.2793 32.5998L63.3523 32.5472C63.0734 33.6889 62.8443 34.6263 62.6551 35.4059V35.4351H62.6252C61.7576 35.6458 60.9157 35.9314 60.112 36.2877L59.5177 36.5593C59.4549 36.5927 59.3895 36.622 59.3218 36.6469C59.3218 36.6469 59.3849 36.606 59.5044 36.5359C59.6239 36.4659 59.8364 36.3666 60.0854 36.2439C60.8832 35.8663 61.7246 35.5648 62.5953 35.3446L62.5588 35.3796C62.7348 34.5971 62.9506 33.6597 63.2228 32.5122V32.4625H63.2826L68.7805 32.3574H68.8602L68.8801 32.4275C69.1291 33.3035 69.3914 34.2321 69.6835 35.2657L69.6005 35.1927C70.7779 35.4483 71.9112 35.8411 72.9703 36.3607H72.8442L75.6197 34.7547L75.706 34.7022L75.7791 34.7664L79.7431 38.1186L79.8261 38.1887L79.7664 38.2733L78.0499 40.7729V40.6415C78.6786 41.5535 79.1655 42.5356 79.4975 43.5615L79.3846 43.4651L82.6382 44.0491L82.761 44.0725V44.1805C82.7942 45.7534 82.8274 47.3662 82.8606 49.019V49.1299L82.7345 49.1591L79.5074 49.857L79.6269 49.7519C79.3369 50.7894 78.8903 51.7882 78.2989 52.7215V52.5697C78.901 53.3795 79.5085 54.1942 80.1216 55.0137L80.1947 55.113L80.1017 55.1977L76.2837 58.6783L76.1907 58.763L76.0745 58.7017L73.2326 57.1862H73.4053C72.3675 57.7371 71.251 58.1642 70.0853 58.4564L70.2048 58.3454C69.9691 59.3266 69.74 60.3018 69.5408 61.207L69.5142 61.3209H69.3814L63.8802 61.4027H63.7441L63.7109 61.2888C63.4386 60.3106 63.1697 59.3382 62.9207 58.4506L63.0402 58.5557C61.8623 58.2985 60.7282 57.9058 59.6671 57.3877H59.8331L57.0509 58.9878L56.9447 59.0492L56.8551 58.9703L52.9043 55.6065L52.8179 55.5335L52.881 55.443C53.4819 54.567 54.0696 53.7202 54.6074 52.9464V53.0807C53.9821 52.1678 53.4976 51.1859 53.1665 50.1607L53.2728 50.2483L50.0192 49.6467L49.9163 49.6263V49.5562C49.8897 47.8597 49.8598 46.242 49.8333 44.7207V44.636L49.9262 44.6156L53.1566 43.9265L53.0769 43.9995C53.3683 42.9669 53.8149 41.9732 54.4049 41.0444V41.1349L52.5955 38.6851L52.559 38.6325L52.6054 38.5916L56.4401 35.1197L56.4733 35.0905L56.5098 35.111L58.6014 36.2556L59.1392 36.5476C59.2028 36.5829 59.2628 36.6229 59.3185 36.6673Z" fill="#E0E0E0"/>
<path d="M88.5013 17.3196C89.2721 16.9098 90.1017 16.5926 90.9681 16.3764L91.4794 14.2244L95.6161 14.1631L96.2104 16.2947C97.0864 16.4876 97.9293 16.7822 98.717 17.1707L100.802 15.9676L103.773 18.4905L102.475 20.3564C102.941 21.0352 103.302 21.7658 103.548 22.5289L105.991 22.9844L106.064 26.6169L103.641 27.1396C103.42 27.9097 103.085 28.6509 102.645 29.3442L104.012 31.1779L101.154 33.7884L99.0191 32.6525C98.2473 33.0625 97.4166 33.3797 96.549 33.5957L96.0411 35.7448L91.911 35.809L91.3167 33.6774C90.4411 33.4834 89.5983 33.1889 88.8101 32.8014L86.7251 34.0045L83.7371 31.4816L85.0286 29.604C84.5624 28.9253 84.2018 28.1946 83.9563 27.4316L81.5127 26.9848L81.4397 23.3523L83.8633 22.8296C84.0826 22.0592 84.4175 21.3178 84.8593 20.625L83.4915 18.7913L86.3599 16.1779L88.4947 17.3138L88.5013 17.3196ZM90.7025 22.158C90.0933 22.7126 89.6847 23.4135 89.5285 24.1723C89.3722 24.9311 89.4754 25.7136 89.8249 26.4208C90.1744 27.128 90.7545 27.7281 91.4918 28.1453C92.2292 28.5625 93.0906 28.778 93.9672 28.7645C94.8438 28.751 95.6962 28.5092 96.4165 28.0696C97.1368 27.6299 97.6927 27.0123 98.0139 26.2948C98.335 25.5773 98.407 24.7921 98.2207 24.0386C98.0344 23.2851 97.5983 22.5971 96.9673 22.0617C96.1218 21.3441 94.987 20.9512 93.8122 20.9693C92.6375 20.9874 91.519 21.4149 90.7025 22.158Z" fill="#EBEBEB"/>
<path d="M41.1682 114.787C41.2415 114.695 41.3261 114.611 41.4205 114.535L42.1443 113.896C42.7585 113.362 43.6184 112.629 44.5745 111.826L44.5978 111.808V111.916C43.635 111.131 42.7685 110.412 42.1476 109.887L41.4205 109.259C41.3271 109.186 41.2426 109.105 41.1682 109.017C41.2763 109.072 41.3757 109.14 41.4637 109.218L42.2306 109.802C42.8714 110.307 43.7479 111.011 44.7107 111.799L44.7771 111.852L44.7107 111.907L44.6907 111.925C43.7346 112.728 42.8614 113.446 42.224 113.969L41.4637 114.576C41.3746 114.656 41.2754 114.727 41.1682 114.787Z" fill="#E0E0E0"/>
<path d="M33.7412 109.017C33.6662 109.106 33.5817 109.189 33.4888 109.265L32.7651 109.904C32.1509 110.439 31.291 111.172 30.3348 111.975L30.3116 111.992V111.884C31.2744 112.672 32.1409 113.388 32.7618 113.913L33.4888 114.541C33.5839 114.614 33.6686 114.696 33.7412 114.787C33.6346 114.728 33.5355 114.659 33.4457 114.582C33.2365 114.422 32.9809 114.226 32.6788 113.998C32.038 113.496 31.1615 112.789 30.1987 112.001L30.1323 111.948L30.1987 111.893L30.2186 111.875C31.1748 111.072 32.048 110.354 32.6854 109.831L33.4457 109.227C33.5336 109.146 33.6329 109.075 33.7412 109.017Z" fill="#E0E0E0"/>
<path d="M35.647 116.133C35.6038 116.118 36.384 114.188 37.39 111.823C38.3959 109.458 39.2492 107.551 39.2923 107.566C39.3355 107.58 38.5553 109.51 37.5493 111.875C36.5434 114.241 35.6935 116.159 35.647 116.133Z" fill="#E0E0E0"/>
<path d="M49.6274 120.273C49.6274 120.273 49.6274 120.162 49.6274 119.949C49.6274 119.736 49.6274 119.426 49.6274 119.023C49.6274 118.206 49.6274 117.02 49.6075 115.519C49.6075 112.491 49.5876 108.167 49.5743 102.949L49.644 103.013H25.4578L25.5408 102.937C25.5408 109.206 25.5408 115.122 25.5408 120.273L25.4644 120.206L42.931 120.241L47.8811 120.259H49.2091H47.9077L42.9741 120.276L25.4611 120.311H25.3848V120.244C25.3848 115.093 25.3848 109.177 25.3848 102.908V102.835H25.4711H49.6573H49.727V102.896C49.7104 108.129 49.6971 112.468 49.6905 115.505C49.6905 117.012 49.6905 118.194 49.6706 119.009C49.6706 119.406 49.6706 119.713 49.6706 119.926C49.6706 120.139 49.6274 120.273 49.6274 120.273Z" fill="#E0E0E0"/>
<path d="M49.8167 105.51C49.8167 105.55 44.3553 105.585 37.6223 105.585C30.8894 105.585 25.428 105.55 25.428 105.51C25.428 105.469 30.8861 105.437 37.6223 105.437C44.3586 105.437 49.8167 105.469 49.8167 105.51Z" fill="#E0E0E0"/>
<path d="M27.4133 104.245C27.4133 104.323 27.3783 104.397 27.316 104.452C27.2538 104.506 27.1693 104.537 27.0813 104.537C26.9932 104.537 26.9088 104.506 26.8465 104.452C26.7842 104.397 26.7493 104.323 26.7493 104.245C26.7493 104.168 26.7842 104.093 26.8465 104.039C26.9088 103.984 26.9932 103.953 27.0813 103.953C27.1693 103.953 27.2538 103.984 27.316 104.039C27.3783 104.093 27.4133 104.168 27.4133 104.245Z" fill="#E0E0E0"/>
<path d="M28.2734 104.531C28.4531 104.531 28.5987 104.403 28.5987 104.245C28.5987 104.087 28.4531 103.959 28.2734 103.959C28.0937 103.959 27.948 104.087 27.948 104.245C27.948 104.403 28.0937 104.531 28.2734 104.531Z" fill="#E0E0E0"/>
<path d="M29.787 104.245C29.787 104.303 29.7676 104.359 29.7311 104.407C29.6946 104.455 29.6428 104.493 29.5821 104.515C29.5214 104.537 29.4547 104.543 29.3903 104.532C29.3259 104.52 29.2667 104.492 29.2203 104.452C29.1739 104.411 29.1422 104.359 29.1294 104.302C29.1166 104.245 29.1232 104.187 29.1483 104.133C29.1734 104.08 29.216 104.034 29.2706 104.002C29.3252 103.97 29.3894 103.953 29.455 103.953C29.5431 103.953 29.6275 103.984 29.6898 104.039C29.7521 104.093 29.787 104.168 29.787 104.245Z" fill="#E0E0E0"/>
<path d="M242.028 131.629C242.028 131.672 191.401 131.705 128.965 131.705C66.5296 131.705 15.8962 131.672 15.8962 131.629C15.8962 131.585 66.5096 131.553 128.965 131.553C191.421 131.553 242.028 131.588 242.028 131.629Z" fill="#051509"/>
<path d="M207.075 131.126H233.286V60.5028H207.075V131.126Z" fill="#EBEBEB"/>
<path d="M186.395 131.126H207.075L207.112 60.5029H186.395V131.126Z" fill="#E0E0E0"/>
<path d="M209.602 77.3105H231.836V71.8034H209.602V77.3105Z" fill="#051509"/>
<path d="M229.97 76.7119H231.215V72.4984H229.97V76.7119Z" fill="#455A64"/>
<path d="M228.502 73.3826C228.502 73.4522 228.525 73.5203 228.568 73.5784C228.612 73.6365 228.674 73.6818 228.747 73.7087C228.82 73.7356 228.9 73.7428 228.978 73.7294C229.055 73.7159 229.127 73.6825 229.183 73.6333C229.238 73.5841 229.276 73.5214 229.292 73.4532C229.307 73.385 229.299 73.3143 229.268 73.2501C229.238 73.186 229.186 73.1313 229.12 73.093C229.054 73.0547 228.977 73.0346 228.898 73.0352C228.793 73.0359 228.693 73.0728 228.619 73.1378C228.545 73.2028 228.503 73.2907 228.502 73.3826Z" fill="white"/>
<path d="M228.502 74.8719C228.502 74.9415 228.525 75.0096 228.568 75.0677C228.612 75.1257 228.674 75.1711 228.747 75.198C228.82 75.2249 228.9 75.2321 228.978 75.2186C229.055 75.2052 229.127 75.1718 229.183 75.1226C229.238 75.0734 229.276 75.0107 229.292 74.9425C229.307 74.8742 229.299 74.8035 229.268 74.7394C229.238 74.6752 229.186 74.6205 229.12 74.5823C229.054 74.544 228.977 74.5238 228.898 74.5244C228.846 74.5244 228.794 74.5334 228.746 74.5509C228.698 74.5683 228.655 74.5939 228.618 74.6262C228.581 74.6585 228.552 74.6968 228.533 74.7389C228.513 74.7811 228.502 74.8263 228.502 74.8719Z" fill="white"/>
<path d="M225.697 76.2734H226.922V73.0352H225.697V76.2734Z" fill="#455A64"/>
<path d="M223.927 76.2734H225.152V73.0352H223.927V76.2734Z" fill="#455A64"/>
<path d="M222.161 76.2734H223.386V73.0352H222.161V76.2734Z" fill="#455A64"/>
<path d="M220.395 76.2734H221.62V73.0352H220.395V76.2734Z" fill="#455A64"/>
<path d="M218.625 76.2734H219.85V73.0352H218.625V76.2734Z" fill="#455A64"/>
<path d="M216.859 76.2734H218.084V73.0352H216.859V76.2734Z" fill="#455A64"/>
<path d="M215.093 76.2734H216.318V73.0352H215.093V76.2734Z" fill="#455A64"/>
<path d="M213.323 76.2734H214.548V73.0352H213.323V76.2734Z" fill="#455A64"/>
<path d="M211.557 76.2734H212.782V73.0352H211.557V76.2734Z" fill="#455A64"/>
<path d="M209.791 76.2734H211.016V73.0352H209.791V76.2734Z" fill="#455A64"/>
<path d="M209.602 85.2207H231.836V79.7136H209.602V85.2207Z" fill="#051509"/>
<path d="M229.97 84.6191H231.215V80.4056H229.97V84.6191Z" fill="#455A64"/>
<path d="M228.502 81.2938C228.502 81.3633 228.525 81.4315 228.568 81.4895C228.612 81.5476 228.674 81.593 228.747 81.6199C228.82 81.6467 228.9 81.6539 228.978 81.6405C229.055 81.6271 229.127 81.5936 229.183 81.5445C229.238 81.4953 229.276 81.4326 229.292 81.3643C229.307 81.2961 229.299 81.2254 229.268 81.1613C229.238 81.0971 229.186 81.0424 229.12 81.0041C229.054 80.9659 228.977 80.9457 228.898 80.9463C228.846 80.9463 228.794 80.9553 228.746 80.9727C228.698 80.9902 228.655 81.0158 228.618 81.0481C228.581 81.0803 228.552 81.1187 228.533 81.1608C228.513 81.203 228.502 81.2482 228.502 81.2938Z" fill="white"/>
<path d="M228.502 82.783C228.502 82.8526 228.525 82.9207 228.568 82.9788C228.612 83.0369 228.674 83.0822 228.747 83.1091C228.82 83.136 228.9 83.1432 228.978 83.1298C229.055 83.1163 229.127 83.0829 229.183 83.0337C229.238 82.9845 229.276 82.9218 229.292 82.8536C229.307 82.7853 229.299 82.7147 229.268 82.6505C229.238 82.5864 229.186 82.5317 229.12 82.4934C229.054 82.4551 228.977 82.435 228.898 82.4356C228.846 82.4356 228.794 82.4445 228.746 82.462C228.698 82.4795 228.655 82.5051 228.618 82.5373C228.581 82.5696 228.552 82.6079 228.533 82.6501C228.513 82.6922 228.502 82.7374 228.502 82.783Z" fill="white"/>
<path d="M225.697 84.1816H226.922V80.9463H225.697V84.1816Z" fill="#455A64"/>
<path d="M223.927 84.1816H225.152V80.9463H223.927V84.1816Z" fill="#455A64"/>
<path d="M222.161 84.1816H223.386V80.9463H222.161V84.1816Z" fill="#455A64"/>
<path d="M220.395 84.1816H221.62V80.9463H220.395V84.1816Z" fill="#455A64"/>
<path d="M218.625 84.1816H219.85V80.9463H218.625V84.1816Z" fill="#455A64"/>
<path d="M216.859 84.1816H218.084V80.9463H216.859V84.1816Z" fill="#455A64"/>
<path d="M215.093 84.1816H216.318V80.9463H215.093V84.1816Z" fill="#455A64"/>
<path d="M213.323 84.1816H214.548V80.9463H213.323V84.1816Z" fill="#455A64"/>
<path d="M211.557 84.1816H212.782V80.9463H211.557V84.1816Z" fill="#455A64"/>
<path d="M209.791 84.1816H211.016V80.9463H209.791V84.1816Z" fill="#455A64"/>
<path d="M209.602 93.1953H231.836V87.6882H209.602V93.1953Z" fill="#051509"/>
<path d="M229.97 92.5938H231.215V88.3802H229.97V92.5938Z" fill="#455A64"/>
<path d="M228.502 89.2674C228.502 89.3368 228.526 89.4047 228.57 89.4624C228.614 89.5201 228.676 89.565 228.749 89.5914C228.822 89.6178 228.902 89.6246 228.98 89.6108C229.057 89.5971 229.128 89.5634 229.184 89.5141C229.239 89.4648 229.277 89.4021 229.292 89.334C229.307 89.2658 229.299 89.1953 229.268 89.1313C229.237 89.0673 229.186 89.0128 229.12 88.9746C229.054 88.9365 228.976 88.9164 228.898 88.917C228.792 88.9178 228.692 88.955 228.618 89.0207C228.544 89.0863 228.502 89.175 228.502 89.2674Z" fill="white"/>
<path d="M228.502 90.7537C228.502 90.8233 228.525 90.8914 228.568 90.9495C228.612 91.0076 228.674 91.0529 228.747 91.0798C228.82 91.1067 228.9 91.1139 228.978 91.1005C229.055 91.087 229.127 91.0536 229.183 91.0044C229.238 90.9552 229.276 90.8925 229.292 90.8243C229.307 90.7561 229.299 90.6854 229.268 90.6212C229.238 90.5571 229.186 90.5024 229.12 90.4641C229.054 90.4258 228.977 90.4057 228.898 90.4063C228.793 90.407 228.693 90.4439 228.619 90.5089C228.545 90.5739 228.503 90.6618 228.502 90.7537Z" fill="white"/>
<path d="M225.697 92.1562H226.922V88.9209H225.697V92.1562Z" fill="#455A64"/>
<path d="M223.927 92.1562H225.152V88.9209H223.927V92.1562Z" fill="#455A64"/>
<path d="M222.161 92.1562H223.386V88.9209H222.161V92.1562Z" fill="#455A64"/>
<path d="M220.395 92.1562H221.62V88.9209H220.395V92.1562Z" fill="#455A64"/>
<path d="M218.625 92.1562H219.85V88.9209H218.625V92.1562Z" fill="#455A64"/>
<path d="M216.859 92.1562H218.084V88.9209H216.859V92.1562Z" fill="#455A64"/>
<path d="M215.093 92.1562H216.318V88.9209H215.093V92.1562Z" fill="#455A64"/>
<path d="M213.323 92.1562H214.548V88.9209H213.323V92.1562Z" fill="#455A64"/>
<path d="M211.557 92.1562H212.782V88.9209H211.557V92.1562Z" fill="#455A64"/>
<path d="M209.791 92.1562H211.016V88.9209H209.791V92.1562Z" fill="#455A64"/>
<path d="M209.602 101.807H231.836V96.2995H209.602V101.807Z" fill="#051509"/>
<path d="M229.97 101.205H231.215V96.9915H229.97V101.205Z" fill="#455A64"/>
<path d="M228.502 97.8787C228.502 97.9483 228.525 98.0164 228.568 98.0745C228.612 98.1326 228.674 98.1779 228.747 98.2048C228.82 98.2317 228.9 98.2389 228.978 98.2255C229.055 98.212 229.127 98.1786 229.183 98.1294C229.238 98.0802 229.276 98.0175 229.292 97.9493C229.307 97.8811 229.299 97.8104 229.268 97.7462C229.238 97.6821 229.186 97.6274 229.12 97.5891C229.054 97.5508 228.977 97.5307 228.898 97.5313C228.846 97.5313 228.794 97.5403 228.746 97.5577C228.698 97.5752 228.655 97.6008 228.618 97.633C228.581 97.6653 228.552 97.7036 228.533 97.7458C228.513 97.7879 228.502 97.8331 228.502 97.8787Z" fill="white"/>
<path d="M228.502 99.368C228.502 99.4375 228.525 99.5057 228.568 99.5638C228.612 99.6218 228.674 99.6672 228.747 99.6941C228.82 99.721 228.9 99.7281 228.978 99.7147C229.055 99.7013 229.127 99.6679 229.183 99.6187C229.238 99.5695 229.276 99.5068 229.292 99.4386C229.307 99.3703 229.299 99.2996 229.268 99.2355C229.238 99.1713 229.186 99.1166 229.12 99.0784C229.054 99.0401 228.977 99.0199 228.898 99.0205C228.846 99.0205 228.794 99.0295 228.746 99.047C228.698 99.0644 228.655 99.09 228.618 99.1223C228.581 99.1546 228.552 99.1929 228.533 99.235C228.513 99.2772 228.502 99.3224 228.502 99.368Z" fill="white"/>
<path d="M225.697 100.767H226.922V97.5312H225.697V100.767Z" fill="#455A64"/>
<path d="M223.927 100.767H225.152V97.5312H223.927V100.767Z" fill="#455A64"/>
<path d="M222.161 100.767H223.386V97.5312H222.161V100.767Z" fill="#455A64"/>
<path d="M220.395 100.767H221.62V97.5312H220.395V100.767Z" fill="#455A64"/>
<path d="M218.625 100.767H219.85V97.5312H218.625V100.767Z" fill="#455A64"/>
<path d="M216.859 100.767H218.084V97.5312H216.859V100.767Z" fill="#455A64"/>
<path d="M215.093 100.767H216.318V97.5312H215.093V100.767Z" fill="#455A64"/>
<path d="M213.323 100.767H214.548V97.5312H213.323V100.767Z" fill="#455A64"/>
<path d="M211.557 100.767H212.782V97.5312H211.557V100.767Z" fill="#455A64"/>
<path d="M209.791 100.767H211.016V97.5312H209.791V100.767Z" fill="#455A64"/>
<path d="M209.602 110.505H231.836V104.998H209.602V110.505Z" fill="#051509"/>
<path d="M229.97 109.906H231.215V105.693H229.97V109.906Z" fill="#455A64"/>
<path d="M228.502 106.578C228.502 106.648 228.525 106.716 228.568 106.774C228.612 106.832 228.674 106.877 228.747 106.904C228.82 106.931 228.9 106.938 228.978 106.925C229.055 106.911 229.127 106.878 229.183 106.829C229.238 106.779 229.276 106.717 229.292 106.649C229.307 106.58 229.299 106.51 229.268 106.445C229.238 106.381 229.186 106.327 229.12 106.288C229.054 106.25 228.977 106.23 228.898 106.23C228.846 106.23 228.794 106.239 228.746 106.257C228.698 106.274 228.655 106.3 228.618 106.332C228.581 106.365 228.552 106.403 228.533 106.445C228.513 106.487 228.502 106.532 228.502 106.578Z" fill="white"/>
<path d="M228.502 108.067C228.502 108.137 228.525 108.205 228.568 108.263C228.612 108.321 228.674 108.366 228.747 108.393C228.82 108.42 228.9 108.427 228.978 108.414C229.055 108.401 229.127 108.367 229.183 108.318C229.238 108.269 229.276 108.206 229.292 108.138C229.307 108.07 229.299 107.999 229.268 107.935C229.238 107.871 229.186 107.816 229.12 107.778C229.054 107.739 228.977 107.719 228.898 107.72C228.846 107.72 228.794 107.729 228.746 107.746C228.698 107.764 228.655 107.789 228.618 107.822C228.581 107.854 228.552 107.892 228.533 107.934C228.513 107.976 228.502 108.022 228.502 108.067Z" fill="white"/>
<path d="M225.697 109.466H226.922V106.23H225.697V109.466Z" fill="#455A64"/>
<path d="M223.927 109.466H225.152V106.23H223.927V109.466Z" fill="#455A64"/>
<path d="M222.161 109.466H223.386V106.23H222.161V109.466Z" fill="#455A64"/>
<path d="M220.395 109.466H221.62V106.23H220.395V109.466Z" fill="#455A64"/>
<path d="M218.625 109.466H219.85V106.23H218.625V109.466Z" fill="#455A64"/>
<path d="M216.859 109.466H218.084V106.23H216.859V109.466Z" fill="#455A64"/>
<path d="M215.093 109.466H216.318V106.23H215.093V109.466Z" fill="#455A64"/>
<path d="M213.323 109.466H214.548V106.23H213.323V109.466Z" fill="#455A64"/>
<path d="M211.557 109.466H212.782V106.23H211.557V109.466Z" fill="#455A64"/>
<path d="M209.791 109.466H211.016V106.23H209.791V109.466Z" fill="#455A64"/>
<path d="M209.602 127.814H231.836V122.307H209.602V127.814Z" fill="#051509"/>
<path d="M229.97 127.213H231.215V122.999H229.97V127.213Z" fill="#455A64"/>
<path d="M228.502 123.888C228.502 123.957 228.525 124.025 228.568 124.083C228.612 124.141 228.674 124.187 228.747 124.214C228.82 124.24 228.9 124.248 228.978 124.234C229.055 124.221 229.127 124.187 229.183 124.138C229.238 124.089 229.276 124.026 229.292 123.958C229.307 123.89 229.299 123.819 229.268 123.755C229.238 123.691 229.186 123.636 229.12 123.598C229.054 123.56 228.977 123.539 228.898 123.54C228.846 123.54 228.794 123.549 228.746 123.566C228.698 123.584 228.655 123.61 228.618 123.642C228.581 123.674 228.552 123.712 228.533 123.755C228.513 123.797 228.502 123.842 228.502 123.888Z" fill="white"/>
<path d="M228.502 125.377C228.502 125.446 228.525 125.514 228.568 125.573C228.612 125.631 228.674 125.676 228.747 125.703C228.82 125.73 228.9 125.737 228.978 125.724C229.055 125.71 229.127 125.677 229.183 125.627C229.238 125.578 229.276 125.516 229.292 125.447C229.307 125.379 229.299 125.308 229.268 125.244C229.238 125.18 229.186 125.125 229.12 125.087C229.054 125.049 228.977 125.029 228.898 125.029C228.846 125.029 228.794 125.038 228.746 125.056C228.698 125.073 228.655 125.099 228.618 125.131C228.581 125.163 228.552 125.202 228.533 125.244C228.513 125.286 228.502 125.331 228.502 125.377Z" fill="white"/>
<path d="M225.697 126.775H226.922V123.54H225.697V126.775Z" fill="#455A64"/>
<path d="M223.927 126.775H225.152V123.54H223.927V126.775Z" fill="#455A64"/>
<path d="M222.161 126.775H223.386V123.54H222.161V126.775Z" fill="#455A64"/>
<path d="M220.395 126.775H221.62V123.54H220.395V126.775Z" fill="#455A64"/>
<path d="M218.625 126.775H219.85V123.54H218.625V126.775Z" fill="#455A64"/>
<path d="M216.859 126.775H218.084V123.54H216.859V126.775Z" fill="#455A64"/>
<path d="M215.093 126.775H216.318V123.54H215.093V126.775Z" fill="#455A64"/>
<path d="M213.323 126.775H214.548V123.54H213.323V126.775Z" fill="#455A64"/>
<path d="M211.557 126.775H212.782V123.54H211.557V126.775Z" fill="#455A64"/>
<path d="M209.791 126.775H211.016V123.54H209.791V126.775Z" fill="#455A64"/>
<path d="M209.602 119.169H231.836V113.662H209.602V119.169Z" fill="#051509"/>
<path d="M229.97 118.567H231.215V114.354H229.97V118.567Z" fill="#455A64"/>
<path d="M228.502 115.256C228.502 115.325 228.526 115.393 228.57 115.451C228.614 115.508 228.676 115.553 228.749 115.58C228.822 115.606 228.902 115.613 228.98 115.599C229.057 115.585 229.128 115.552 229.184 115.502C229.239 115.453 229.277 115.39 229.292 115.322C229.307 115.254 229.299 115.184 229.268 115.12C229.237 115.056 229.186 115.001 229.12 114.963C229.054 114.925 228.976 114.905 228.898 114.905C228.792 114.906 228.692 114.943 228.618 115.009C228.544 115.075 228.502 115.163 228.502 115.256Z" fill="white"/>
<path d="M228.502 116.716C228.502 116.785 228.525 116.853 228.568 116.911C228.612 116.969 228.674 117.015 228.747 117.042C228.82 117.069 228.9 117.076 228.978 117.062C229.055 117.049 229.127 117.016 229.183 116.966C229.238 116.917 229.276 116.854 229.292 116.786C229.307 116.718 229.299 116.647 229.268 116.583C229.238 116.519 229.186 116.464 229.12 116.426C229.054 116.388 228.977 116.368 228.898 116.368C228.793 116.369 228.693 116.406 228.619 116.471C228.545 116.536 228.503 116.624 228.502 116.716Z" fill="white"/>
<path d="M225.697 118.129H226.922V114.894H225.697V118.129Z" fill="#455A64"/>
<path d="M223.927 118.129H225.152V114.894H223.927V118.129Z" fill="#455A64"/>
<path d="M222.161 118.129H223.386V114.894H222.161V118.129Z" fill="#455A64"/>
<path d="M220.395 118.129H221.62V114.894H220.395V118.129Z" fill="#455A64"/>
<path d="M218.625 118.129H219.85V114.894H218.625V118.129Z" fill="#455A64"/>
<path d="M216.859 118.129H218.084V114.894H216.859V118.129Z" fill="#455A64"/>
<path d="M215.093 118.129H216.318V114.894H215.093V118.129Z" fill="#455A64"/>
<path d="M213.323 118.129H214.548V114.894H213.323V118.129Z" fill="#455A64"/>
<path d="M211.557 118.129H212.782V114.894H211.557V118.129Z" fill="#455A64"/>
<path d="M209.791 118.129H211.016V114.894H209.791V118.129Z" fill="#455A64"/>
<path d="M218.084 71.806C218.1 71.7505 218.107 71.6937 218.107 71.6366C218.107 71.5217 218.114 71.3582 218.127 71.146C218.127 70.9329 218.127 70.673 218.157 70.3722C218.167 70.0338 218.218 69.6971 218.307 69.3678C218.434 68.9744 218.635 68.6025 218.901 68.2669C219.204 67.8787 219.627 67.5747 220.119 67.3909C220.675 67.2127 221.258 67.1084 221.849 67.0814L223.765 66.9354C226.388 66.7368 228.768 66.6084 230.494 66.5792C231.358 66.5792 232.055 66.5792 232.536 66.5792H233.094C233.158 66.5855 233.223 66.5855 233.287 66.5792L233.094 66.5616L232.54 66.5324C232.055 66.5149 231.358 66.4974 230.491 66.5003C228.765 66.5003 226.378 66.62 223.752 66.8215L221.836 66.9704C221.232 66.9981 220.636 67.1074 220.07 67.2946C219.557 67.4828 219.117 67.7984 218.805 68.2027C218.534 68.5495 218.333 68.9347 218.21 69.3415C218.125 69.678 218.08 70.0216 218.078 70.3664C218.078 70.6584 218.078 70.927 218.078 71.1402C218.078 71.3534 218.078 71.5052 218.078 71.6278C218.074 71.6873 218.077 71.7468 218.084 71.806Z" fill="#051509"/>
<path d="M224.83 71.8061C224.836 71.7527 224.836 71.6989 224.83 71.6455C224.83 71.5258 224.83 71.3739 224.83 71.1841C224.83 70.9943 224.83 70.7403 224.854 70.46C224.871 70.1434 224.964 69.8337 225.129 69.5519C225.369 69.2362 225.718 68.9974 226.125 68.8715C226.592 68.7135 227.099 68.6681 227.593 68.7401C227.856 68.7807 228.11 68.8575 228.346 68.9679C228.592 69.0767 228.796 69.2462 228.934 69.4555C229.002 69.5611 229.037 69.6803 229.037 69.8015C229.037 69.9228 229.002 70.042 228.934 70.1475C228.863 70.2569 228.768 70.3524 228.654 70.4282C228.539 70.504 228.409 70.5585 228.27 70.5885C228.131 70.6155 227.987 70.6115 227.851 70.5768C227.715 70.5422 227.59 70.4779 227.49 70.3899C227.286 70.2223 227.16 69.9936 227.138 69.7489C227.116 69.5042 227.199 69.261 227.37 69.0671C227.523 68.8759 227.726 68.7197 227.961 68.6116C228.193 68.5182 228.441 68.4618 228.695 68.4452C228.947 68.4101 229.19 68.3809 229.425 68.3605C229.9 68.3138 230.342 68.2846 230.753 68.27C231.563 68.2437 232.221 68.2554 232.676 68.2554H233.197C233.258 68.2591 233.319 68.2591 233.379 68.2554C233.321 68.2416 233.261 68.2357 233.2 68.2379L232.676 68.2145C232.224 68.1999 231.563 68.1765 230.75 68.1911C230.345 68.1911 229.897 68.2233 229.422 68.2641C229.183 68.2875 228.937 68.3138 228.685 68.3459C228.555 68.3634 228.433 68.3751 228.3 68.3985C228.163 68.422 228.032 68.4623 227.908 68.5182C227.652 68.6337 227.433 68.802 227.267 69.0087C227.077 69.2261 226.985 69.4979 227.009 69.7715C227.034 70.045 227.173 70.3008 227.4 70.4892C227.518 70.59 227.663 70.6636 227.821 70.7033C227.979 70.7431 228.146 70.7478 228.306 70.7169C228.466 70.6843 228.616 70.6227 228.747 70.5362C228.878 70.4498 228.987 70.3403 229.067 70.2147C229.145 70.0916 229.186 69.9529 229.186 69.8117C229.186 69.6706 229.145 69.5319 229.067 69.4088C228.915 69.1792 228.691 68.9928 228.423 68.8715C228.172 68.7552 227.902 68.6762 227.623 68.6379C227.107 68.5643 226.578 68.6148 226.092 68.7839C225.66 68.9191 225.29 69.1769 225.043 69.5168C224.879 69.8119 224.789 70.1346 224.781 70.4629C224.761 70.7549 224.781 70.9943 224.781 71.1929C224.781 71.3915 224.781 71.5345 224.801 71.6543C224.804 71.7057 224.814 71.7566 224.83 71.8061Z" fill="#051509"/>
<path d="M216.268 71.8059C216.29 71.7459 216.305 71.6844 216.315 71.6219C216.338 71.5022 216.378 71.3299 216.431 71.0992C216.585 70.4603 216.807 69.8356 217.095 69.2334C217.499 68.335 218.167 67.5471 219.03 66.9499C219.553 66.6204 220.166 66.4188 220.807 66.3659C221.499 66.298 222.195 66.2649 222.891 66.2666C225.763 66.217 228.369 66.2287 230.252 66.1644C231.195 66.1352 231.955 66.0973 232.483 66.0652L233.087 66.0184C233.158 66.0167 233.228 66.0088 233.296 65.9951C233.226 65.9912 233.155 65.9912 233.084 65.9951L232.48 66.0155C231.952 66.033 231.191 66.0593 230.249 66.0768C228.366 66.1177 225.763 66.0944 222.888 66.1411C222.186 66.1392 221.484 66.1733 220.787 66.2433C220.123 66.3045 219.491 66.5202 218.954 66.8682C218.48 67.1876 218.067 67.571 217.729 68.004C217.44 68.3827 217.198 68.7869 217.005 69.21C216.725 69.8191 216.518 70.4523 216.388 71.0992C216.341 71.327 216.311 71.5051 216.295 71.6278C216.282 71.6867 216.273 71.7461 216.268 71.8059Z" fill="#051509"/>
<path d="M209.907 64.1416H231.53V61.3822H209.907V64.1416Z" fill="#051509"/>
<path d="M215.003 64.1445H226.776V62.7634H215.003V64.1445Z" fill="#455A64"/>
<path d="M201.083 118.641C201.083 118.655 201.322 118.676 201.747 118.781C202.33 118.937 202.882 119.174 203.38 119.485C203.724 119.696 204.034 119.949 204.3 120.235C204.444 120.393 204.57 120.565 204.675 120.746C204.776 120.943 204.855 121.149 204.91 121.359C205.159 122.235 205.083 123.231 205.033 124.279C204.984 125.327 205.063 126.355 205.528 127.199C205.74 127.593 206.041 127.946 206.411 128.236C206.734 128.486 207.099 128.69 207.493 128.84C207.818 128.966 208.16 129.056 208.509 129.109C208.773 129.143 209.04 129.153 209.306 129.138C209.473 129.128 209.639 129.105 209.801 129.068C209.859 129.059 209.916 129.044 209.97 129.024C209.97 129.01 209.734 129.074 209.306 129.088C209.045 129.096 208.783 129.079 208.526 129.039C208.182 128.983 207.848 128.889 207.53 128.761C207.149 128.608 206.797 128.405 206.484 128.16C206.128 127.877 205.841 127.533 205.641 127.15C205.196 126.341 205.12 125.33 205.169 124.297C205.219 123.263 205.292 122.253 205.03 121.353C204.971 121.135 204.887 120.923 204.781 120.72C204.671 120.531 204.537 120.354 204.383 120.191C204.108 119.902 203.788 119.647 203.433 119.435C202.928 119.126 202.367 118.896 201.773 118.755C201.61 118.718 201.445 118.691 201.278 118.673C201.215 118.656 201.149 118.645 201.083 118.641Z" fill="#051509"/>
<path d="M209.276 130.046H211.052V128.148H209.276V130.046Z" fill="#051509"/>
<path d="M191.132 123.435H201.086V113.842H191.132V123.435Z" fill="#455A64"/>
<path d="M199.143 119.782C199.831 118.31 199.033 116.626 197.359 116.021C195.685 115.415 193.77 116.118 193.082 117.59C192.393 119.062 193.192 120.746 194.866 121.351C196.539 121.957 198.454 121.254 199.143 119.782Z" fill="#051509"/>
<path d="M194.469 118.678C194.468 118.963 194.564 119.243 194.744 119.48C194.924 119.718 195.18 119.903 195.48 120.013C195.78 120.122 196.11 120.151 196.428 120.096C196.747 120.04 197.039 119.903 197.269 119.701C197.498 119.499 197.655 119.242 197.718 118.961C197.781 118.681 197.748 118.391 197.624 118.127C197.499 117.864 197.288 117.638 197.018 117.48C196.748 117.322 196.43 117.238 196.106 117.238C195.672 117.239 195.256 117.391 194.949 117.661C194.643 117.931 194.47 118.296 194.469 118.678Z" fill="#455A64"/>
<path d="M199.432 115.335C199.432 115.388 199.45 115.44 199.484 115.484C199.517 115.528 199.565 115.563 199.621 115.583C199.677 115.604 199.738 115.609 199.797 115.599C199.857 115.588 199.911 115.563 199.954 115.525C199.996 115.487 200.026 115.44 200.037 115.387C200.049 115.335 200.043 115.281 200.02 115.232C199.997 115.183 199.958 115.141 199.907 115.112C199.857 115.082 199.798 115.066 199.738 115.066C199.657 115.066 199.579 115.095 199.522 115.145C199.465 115.195 199.432 115.264 199.432 115.335Z" fill="#051509"/>
<path d="M192.653 115.604C192.822 115.604 192.958 115.483 192.958 115.335C192.958 115.187 192.822 115.066 192.653 115.066C192.484 115.066 192.347 115.187 192.347 115.335C192.347 115.483 192.484 115.604 192.653 115.604Z" fill="#051509"/>
<path d="M192.586 122.685C192.755 122.685 192.892 122.564 192.892 122.416C192.892 122.268 192.755 122.147 192.586 122.147C192.418 122.147 192.281 122.268 192.281 122.416C192.281 122.564 192.418 122.685 192.586 122.685Z" fill="#051509"/>
<path d="M199.432 122.526C199.432 122.58 199.45 122.632 199.484 122.676C199.517 122.72 199.565 122.754 199.621 122.775C199.677 122.795 199.738 122.8 199.797 122.79C199.857 122.78 199.911 122.754 199.954 122.716C199.996 122.679 200.026 122.631 200.037 122.579C200.049 122.527 200.043 122.473 200.02 122.424C199.997 122.375 199.958 122.333 199.907 122.303C199.857 122.274 199.798 122.258 199.738 122.258C199.657 122.258 199.579 122.286 199.522 122.336C199.465 122.387 199.432 122.455 199.432 122.526Z" fill="#051509"/>
<path d="M190.326 123.435H191.129V113.842H190.326V123.435Z" fill="#051509"/>
<path d="M46.1182 47.5996H183.852C184.445 47.5996 185.014 47.807 185.434 48.176C185.854 48.5451 186.089 49.0457 186.089 49.5677V126.253C186.089 126.811 185.964 127.365 185.721 127.881C185.478 128.397 185.122 128.866 184.673 129.261C184.223 129.656 183.69 129.97 183.103 130.183C182.516 130.397 181.887 130.507 181.252 130.507H48.3824C47.0995 130.507 45.8691 130.059 44.962 129.261C44.0548 128.463 43.5452 127.381 43.5452 126.253V49.8626C43.5452 49.2624 43.8162 48.6868 44.2988 48.2624C44.7813 47.838 45.4358 47.5996 46.1182 47.5996Z" fill="#455A64"/>
<path d="M37.5857 124.375H192.022V127.622C192.022 128.148 191.904 128.669 191.675 129.155C191.447 129.641 191.111 130.083 190.688 130.455C190.265 130.827 189.763 131.122 189.21 131.323C188.658 131.525 188.065 131.628 187.467 131.628H42.1407C41.5426 131.628 40.9502 131.525 40.3976 131.323C39.845 131.122 39.3428 130.827 38.9198 130.455C38.4969 130.083 38.1613 129.641 37.9324 129.155C37.7035 128.669 37.5857 128.148 37.5857 127.622V124.375Z" fill="#455A64"/>
<path d="M181.866 50.8936H47.373V120.906H181.866V50.8936Z" fill="#E0E0E0"/>
<path d="M100.765 124.375L102.684 127.056H129.649L131.429 124.375H100.765Z" fill="#051509"/>
<path d="M178.201 54.9492H51.3638V120.906H178.201V54.9492Z" fill="#051509"/>
<path d="M61.088 118.973C61.0216 118.973 60.9685 104.925 60.9685 87.601C60.9685 70.2766 61.0216 56.2256 61.088 56.2256C61.1544 56.2256 61.2075 70.2708 61.2075 87.601C61.2075 104.931 61.1611 118.973 61.088 118.973Z" fill="#E0E0E0"/>
<path d="M58.5349 61.9137C58.5349 61.9692 57.612 62.0159 56.4765 62.0159C55.3411 62.0159 54.4148 61.9692 54.4148 61.9137C54.4148 61.8582 55.3378 61.8086 56.4765 61.8086C57.6153 61.8086 58.5349 61.8553 58.5349 61.9137Z" fill="#E0E0E0"/>
<path d="M58.6943 58.3512C58.6943 58.4096 57.7714 58.4563 56.6326 58.4563C55.4939 58.4563 54.5742 58.4096 54.5742 58.3512C54.5742 58.2928 55.4972 58.2461 56.6326 58.2461C57.7681 58.2461 58.6943 58.2928 58.6943 58.3512Z" fill="#E0E0E0"/>
<path d="M58.5349 65.7506C58.5349 65.809 57.612 65.8557 56.4765 65.8557C55.3411 65.8557 54.4148 65.809 54.4148 65.7506C54.4148 65.6922 55.3378 65.6455 56.4765 65.6455C57.6153 65.6455 58.5349 65.6922 58.5349 65.7506Z" fill="#E0E0E0"/>
<path d="M58.5349 69.5875C58.5349 69.6459 57.612 69.6927 56.4765 69.6927C55.3411 69.6927 54.4148 69.6459 54.4148 69.5875C54.4148 69.5291 55.3378 69.4824 56.4765 69.4824C57.6153 69.4824 58.5349 69.5291 58.5349 69.5875Z" fill="#E0E0E0"/>
<path d="M58.5349 73.4245C58.5349 73.4829 57.612 73.5296 56.4765 73.5296C55.3411 73.5296 54.4148 73.4829 54.4148 73.4245C54.4148 73.3661 55.3378 73.3223 56.4765 73.3223C57.6153 73.3223 58.5349 73.369 58.5349 73.4245Z" fill="#E0E0E0"/>
<path d="M58.5349 77.2643C58.5349 77.3227 57.612 77.3694 56.4765 77.3694C55.3411 77.3694 54.4148 77.3227 54.4148 77.2643C54.4148 77.2059 55.3378 77.1592 56.4765 77.1592C57.6153 77.1592 58.5349 77.2059 58.5349 77.2643Z" fill="#E0E0E0"/>
<path d="M58.5349 81.0924C58.5349 81.1508 57.612 81.1975 56.4765 81.1975C55.3411 81.1975 54.4148 81.1508 54.4148 81.0924C54.4148 81.034 55.3378 80.9873 56.4765 80.9873C57.6153 80.9873 58.5349 81.0428 58.5349 81.0924Z" fill="#E0E0E0"/>
<path d="M58.5349 84.9381C58.5349 84.9965 57.612 85.0433 56.4765 85.0433C55.3411 85.0433 54.4148 84.9965 54.4148 84.9381C54.4148 84.8797 55.3378 84.8359 56.4765 84.8359C57.6153 84.8359 58.5349 84.8885 58.5349 84.9381Z" fill="#E0E0E0"/>
<path d="M58.5349 88.777C58.5349 88.8325 57.612 88.8792 56.4765 88.8792C55.3411 88.8792 54.4148 88.8325 54.4148 88.777C54.4148 88.7215 55.3378 88.6719 56.4765 88.6719C57.6153 88.6719 58.5349 88.7186 58.5349 88.777Z" fill="#E0E0E0"/>
<path d="M58.5349 92.6139C58.5349 92.6723 57.612 92.719 56.4765 92.719C55.3411 92.719 54.4148 92.6723 54.4148 92.6139C54.4148 92.5555 55.3378 92.5088 56.4765 92.5088C57.6153 92.5088 58.5349 92.5555 58.5349 92.6139Z" fill="#E0E0E0"/>
<path d="M58.5349 96.4508C58.5349 96.5092 57.612 96.5559 56.4765 96.5559C55.3411 96.5559 54.4148 96.5092 54.4148 96.4508C54.4148 96.3924 55.3378 96.3457 56.4765 96.3457C57.6153 96.3457 58.5349 96.3924 58.5349 96.4508Z" fill="#E0E0E0"/>
<path d="M58.5349 100.291C58.5349 100.346 57.612 100.393 56.4765 100.393C55.3411 100.393 54.4148 100.346 54.4148 100.291C54.4148 100.235 55.3378 100.186 56.4765 100.186C57.6153 100.186 58.5349 100.232 58.5349 100.291Z" fill="#E0E0E0"/>
<path d="M58.5349 104.128C58.5349 104.186 57.612 104.233 56.4765 104.233C55.3411 104.233 54.4148 104.186 54.4148 104.128C54.4148 104.069 55.3378 104.022 56.4765 104.022C57.6153 104.022 58.5349 104.069 58.5349 104.128Z" fill="#E0E0E0"/>
<path d="M58.5349 107.956C58.5349 108.014 57.612 108.061 56.4765 108.061C55.3411 108.061 54.4148 108.014 54.4148 107.956C54.4148 107.897 55.3378 107.851 56.4765 107.851C57.6153 107.851 58.5349 107.906 58.5349 107.956Z" fill="#E0E0E0"/>
<path d="M58.5349 111.801C58.5349 111.86 57.612 111.907 56.4765 111.907C55.3411 111.907 54.4148 111.86 54.4148 111.801C54.4148 111.743 55.3378 111.699 56.4765 111.699C57.6153 111.699 58.5349 111.752 58.5349 111.801Z" fill="#E0E0E0"/>
<path d="M58.5349 115.641C58.5349 115.7 57.612 115.746 56.4765 115.746C55.3411 115.746 54.4148 115.7 54.4148 115.641C54.4148 115.583 55.3378 115.536 56.4765 115.536C57.6153 115.536 58.5349 115.583 58.5349 115.641Z" fill="#E0E0E0"/>
<path d="M75.0519 115.641C75.0519 115.7 72.6581 115.746 69.7033 115.746C66.7486 115.746 64.3582 115.7 64.3582 115.641C64.3582 115.583 66.7519 115.536 69.7033 115.536C72.6548 115.536 75.0519 115.583 75.0519 115.641Z" fill="#28A746"/>
<path d="M78.7469 61.3385C78.7469 61.3969 76.3532 61.4436 73.4017 61.4436C70.4503 61.4436 68.0532 61.3969 68.0532 61.3385C68.0532 61.2801 70.4469 61.2334 73.4017 61.2334C76.3565 61.2334 78.7469 61.2801 78.7469 61.3385Z" fill="#28A746"/>
<path d="M89.9454 69.5875C89.9454 69.6459 85.4634 69.6927 79.9423 69.6927C74.4211 69.6927 69.9358 69.6459 69.9358 69.5875C69.9358 69.5291 74.4145 69.4824 79.9423 69.4824C85.4701 69.4824 89.9454 69.5291 89.9454 69.5875Z" fill="#28A746"/>
<path d="M113.079 69.5875C113.079 69.6459 108.6 69.6927 103.076 69.6927C97.5514 69.6927 93.0728 69.6459 93.0728 69.5875C93.0728 69.5291 97.5514 69.4824 103.076 69.4824C108.6 69.4824 113.079 69.5291 113.079 69.5875Z" fill="#E0E0E0"/>
<path d="M104.248 73.4245C104.248 73.4829 97.6478 73.5296 89.5039 73.5296C81.3599 73.5296 74.7598 73.4829 74.7598 73.4245C74.7598 73.3661 81.3599 73.3223 89.5039 73.3223C97.6478 73.3223 104.248 73.369 104.248 73.4245Z" fill="#E0E0E0"/>
<path d="M104.248 77.2643C104.248 77.3227 97.6478 77.3694 89.5039 77.3694C81.3599 77.3694 74.7598 77.3227 74.7598 77.2643C74.7598 77.2059 81.3599 77.1592 89.5039 77.1592C97.6478 77.1592 104.248 77.2059 104.248 77.2643Z" fill="#E0E0E0"/>
<path d="M124.537 88.777C124.537 88.8325 117.933 88.8792 109.792 88.8792C101.652 88.8792 95.0483 88.8325 95.0483 88.777C95.0483 88.7215 101.648 88.6719 109.792 88.6719C117.936 88.6719 124.537 88.7186 124.537 88.777Z" fill="#E0E0E0"/>
<path d="M115.778 81.0924C115.778 81.1508 109.175 81.1975 101.034 81.1975C92.8935 81.1975 86.29 81.1508 86.29 81.0924C86.29 81.034 92.8902 80.9873 101.034 80.9873C109.178 80.9873 115.778 81.0428 115.778 81.0924Z" fill="#E0E0E0"/>
<path d="M151.81 81.0924C151.81 81.1508 145.21 81.1975 137.066 81.1975C128.922 81.1975 122.322 81.1508 122.322 81.0924C122.322 81.034 128.922 80.9873 137.066 80.9873C145.21 80.9873 151.81 81.0428 151.81 81.0924Z" fill="#E0E0E0"/>
<path d="M139.281 73.4245C139.281 73.4829 132.677 73.5296 124.537 73.5296C116.396 73.5296 109.792 73.4829 109.792 73.4245C109.792 73.3661 116.393 73.3223 124.537 73.3223C132.681 73.3223 139.281 73.369 139.281 73.4245Z" fill="#FAFAFA"/>
<path d="M159.649 88.777C159.649 88.8325 153.045 88.8792 144.905 88.8792C136.764 88.8792 130.161 88.8325 130.161 88.777C130.161 88.7215 136.761 88.6719 144.905 88.6719C153.049 88.6719 159.649 88.7186 159.649 88.777Z" fill="#FAFAFA"/>
<path d="M155.582 77.2643C155.582 77.3227 145.33 77.3694 132.674 77.3694C120.018 77.3694 109.766 77.3227 109.766 77.2643C109.766 77.2059 120.015 77.1592 132.674 77.1592C145.333 77.1592 155.582 77.2059 155.582 77.2643Z" fill="#455A64"/>
<path d="M75.0519 111.801C75.0519 111.86 72.6581 111.907 69.7033 111.907C66.7486 111.907 64.3582 111.86 64.3582 111.801C64.3582 111.743 66.7519 111.699 69.7033 111.699C72.6548 111.699 75.0519 111.752 75.0519 111.801Z" fill="#FAFAFA"/>
<path d="M80.3439 81.0924C80.3439 81.1508 77.9501 81.1975 74.9953 81.1975C72.0405 81.1975 69.6501 81.1508 69.6501 81.0924C69.6501 81.034 72.0439 80.9873 74.9953 80.9873C77.9468 80.9873 80.3439 81.0428 80.3439 81.0924Z" fill="#FAFAFA"/>
<path d="M166.056 81.0924C166.056 81.1508 163.663 81.1975 160.711 81.1975C157.76 81.1975 155.376 81.1596 155.376 81.0924C155.376 81.0253 157.77 80.9873 160.724 80.9873C163.679 80.9873 166.056 81.0428 166.056 81.0924Z" fill="#28A746"/>
<path d="M89.9454 96.4303C89.9454 96.4858 85.4634 96.5325 79.9423 96.5325C74.4211 96.5325 69.9358 96.4858 69.9358 96.4303C69.9358 96.3748 74.4145 96.3252 79.9423 96.3252C85.4701 96.3252 89.9454 96.3719 89.9454 96.4303Z" fill="#28A746"/>
<path d="M113.079 96.4303C113.079 96.4858 108.6 96.5325 103.076 96.5325C97.5514 96.5325 93.0728 96.4858 93.0728 96.4303C93.0728 96.3748 97.5514 96.3252 103.076 96.3252C108.6 96.3252 113.079 96.3719 113.079 96.4303Z" fill="#E0E0E0"/>
<path d="M104.248 100.267C104.248 100.326 97.6478 100.372 89.5039 100.372C81.3599 100.372 74.7598 100.326 74.7598 100.267C74.7598 100.209 81.3599 100.162 89.5039 100.162C97.6478 100.162 104.248 100.209 104.248 100.267Z" fill="#E0E0E0"/>
<path d="M104.248 104.104C104.248 104.163 97.6478 104.209 89.5039 104.209C81.3599 104.209 74.7598 104.163 74.7598 104.104C74.7598 104.046 81.3599 103.999 89.5039 103.999C97.6478 103.999 104.248 104.046 104.248 104.104Z" fill="#E0E0E0"/>
<path d="M115.778 107.956C115.778 108.014 109.175 108.061 101.034 108.061C92.8935 108.061 86.29 108.014 86.29 107.956C86.29 107.897 92.8902 107.854 101.034 107.854C109.178 107.854 115.778 107.886 115.778 107.956Z" fill="#E0E0E0"/>
<path d="M151.81 107.956C151.81 108.014 145.21 108.061 137.066 108.061C128.922 108.061 122.322 108.014 122.322 107.956C122.322 107.897 128.922 107.854 137.066 107.854C145.21 107.854 151.81 107.886 151.81 107.956Z" fill="#E0E0E0"/>
<path d="M109.533 111.706C109.533 111.764 102.933 111.811 94.7926 111.811C86.652 111.811 80.0452 111.764 80.0452 111.706C80.0452 111.647 86.6453 111.601 94.7926 111.601C102.94 111.601 109.533 111.647 109.533 111.706Z" fill="#E0E0E0"/>
<path d="M99.331 64.7399C99.331 64.7983 92.7275 64.845 84.5869 64.845C76.4463 64.845 69.8428 64.7983 69.8428 64.7399C69.8428 64.6815 76.4429 64.6348 84.5869 64.6348C92.7309 64.6348 99.331 64.6902 99.331 64.7399Z" fill="#E0E0E0"/>
<path d="M139.281 100.267C139.281 100.326 132.677 100.372 124.537 100.372C116.396 100.372 109.792 100.326 109.792 100.267C109.792 100.209 116.393 100.162 124.537 100.162C132.681 100.162 139.281 100.209 139.281 100.267Z" fill="#FAFAFA"/>
<path d="M155.582 104.104C155.582 104.163 145.33 104.209 132.674 104.209C120.018 104.209 109.766 104.163 109.766 104.104C109.766 104.046 120.015 103.999 132.674 103.999C145.333 103.999 155.582 104.046 155.582 104.104Z" fill="#455A64"/>
<path d="M80.3439 107.956C80.3439 108.014 77.9501 108.061 74.9953 108.061C72.0405 108.061 69.6501 108.014 69.6501 107.956C69.6501 107.897 72.0439 107.854 74.9953 107.854C77.9468 107.854 80.3439 107.886 80.3439 107.956Z" fill="#FAFAFA"/>
<path d="M166.056 107.956C166.056 108.014 163.663 108.061 160.711 108.061C157.76 108.061 155.376 108 155.376 107.956C155.376 107.912 157.77 107.854 160.724 107.854C163.679 107.854 166.056 107.886 166.056 107.956Z" fill="#28A746"/>
<path d="M125.473 36.568C125.473 36.568 125.473 36.4746 125.473 36.276C125.473 36.0775 125.473 35.8088 125.473 35.4467C125.473 35.0847 125.473 34.6291 125.473 34.0977C125.46 33.8064 125.517 33.5161 125.639 33.2451C125.785 32.938 126.021 32.6702 126.323 32.4683C126.657 32.2382 127.064 32.1028 127.488 32.08C127.929 32.08 128.384 32.08 128.866 32.08H131.983H139.579L183.549 32.0362H207.785H213.874C214.096 32.0291 214.319 32.0408 214.538 32.0712C214.977 32.1424 215.38 32.3291 215.695 32.6065C216.01 32.884 216.221 33.2391 216.301 33.6247C216.334 33.8111 216.347 33.9997 216.341 34.1882V34.7372C216.341 37.6572 216.341 40.3582 216.341 42.8373C216.341 47.8013 216.321 51.79 216.314 54.564C216.314 55.9451 216.314 57.0197 216.314 57.7526C216.314 58.1147 216.314 58.3921 216.314 58.5819C216.314 58.7717 216.314 58.8739 216.314 58.8739C216.314 58.8739 216.314 58.7775 216.314 58.5819C216.314 58.3863 216.314 58.1147 216.314 57.7526C216.314 57.0197 216.314 55.9451 216.298 54.564C216.298 51.79 216.298 47.7867 216.271 42.8373C216.271 40.3582 216.271 37.6484 216.271 34.7372V34.1882C216.279 34.0075 216.267 33.8266 216.235 33.648C216.161 33.2847 215.962 32.95 215.665 32.689C215.368 32.428 214.988 32.2532 214.575 32.188C214.364 32.1595 214.151 32.1488 213.937 32.1559H207.775H183.539L139.543 32.1325H131.947H128.829C128.351 32.1325 127.89 32.1325 127.458 32.1325C127.047 32.1545 126.653 32.2836 126.326 32.5034C126.035 32.6992 125.806 32.9576 125.662 33.2538C125.542 33.5183 125.486 33.8016 125.496 34.086C125.496 34.6175 125.496 35.0671 125.496 35.4351C125.496 35.7971 125.496 36.0716 125.496 36.2643C125.496 36.4571 125.473 36.568 125.473 36.568Z" fill="#051509"/>
<path d="M217.128 58.8793C217.128 59.0278 217.078 59.1729 216.984 59.2963C216.89 59.4197 216.757 59.5159 216.601 59.5727C216.445 59.6295 216.274 59.6443 216.108 59.6154C215.943 59.5864 215.791 59.5149 215.671 59.41C215.552 59.305 215.471 59.1713 215.438 59.0257C215.405 58.8802 215.422 58.7293 215.486 58.5922C215.551 58.455 215.66 58.3378 215.801 58.2554C215.941 58.1729 216.106 58.1289 216.275 58.1289C216.501 58.1289 216.718 58.208 216.878 58.3487C217.038 58.4894 217.128 58.6803 217.128 58.8793Z" fill="#051509"/>
<path d="M126.326 36.5678C126.327 36.7164 126.277 36.8618 126.184 36.9855C126.09 37.1093 125.957 37.206 125.801 37.2632C125.646 37.3205 125.474 37.3358 125.308 37.3071C125.142 37.2785 124.99 37.2073 124.87 37.1024C124.751 36.9976 124.669 36.8639 124.636 36.7182C124.603 36.5726 124.62 36.4215 124.684 36.2843C124.748 36.147 124.858 36.0296 124.998 35.947C125.139 35.8644 125.304 35.8203 125.473 35.8203C125.698 35.8203 125.915 35.899 126.075 36.0391C126.235 36.1792 126.325 36.3693 126.326 36.5678Z" fill="#051509"/>
<path d="M81.5093 39.7539V103.933H147.086H155.243H202.394V39.7539H81.5093Z" fill="#FAFAFA"/>
<path d="M202.394 39.7539H81.5093V44.4989H202.394V39.7539Z" fill="#E0E0E0"/>
<path d="M84.6102 42.826C84.9971 42.826 85.3107 42.5501 85.3107 42.2099C85.3107 41.8696 84.9971 41.5938 84.6102 41.5938C84.2233 41.5938 83.9097 41.8696 83.9097 42.2099C83.9097 42.5501 84.2233 42.826 84.6102 42.826Z" fill="#051509"/>
<path d="M87.9169 42.2099C87.9169 42.3317 87.8758 42.4508 87.7989 42.5522C87.7219 42.6535 87.6125 42.7325 87.4845 42.7791C87.3565 42.8257 87.2156 42.8379 87.0797 42.8142C86.9438 42.7904 86.819 42.7317 86.721 42.6455C86.6231 42.5594 86.5564 42.4496 86.5293 42.3301C86.5023 42.2106 86.5162 42.0867 86.5692 41.9741C86.6222 41.8615 86.712 41.7653 86.8272 41.6976C86.9424 41.6299 87.0778 41.5938 87.2164 41.5938C87.3084 41.5938 87.3995 41.6097 87.4845 41.6406C87.5695 41.6716 87.6467 41.717 87.7117 41.7742C87.7768 41.8314 87.8284 41.8993 87.8636 41.9741C87.8988 42.0488 87.9169 42.129 87.9169 42.2099Z" fill="#051509"/>
<path d="M89.8226 42.826C90.2095 42.826 90.5231 42.5501 90.5231 42.2099C90.5231 41.8696 90.2095 41.5938 89.8226 41.5938C89.4357 41.5938 89.1221 41.8696 89.1221 42.2099C89.1221 42.5501 89.4357 42.826 89.8226 42.826Z" fill="#051509"/>
<path d="M140.104 49.9646C140.104 49.9997 137.637 50.0289 134.596 50.0289C131.555 50.0289 129.085 49.9997 129.085 49.9646C129.085 49.9296 131.552 49.9004 134.596 49.9004C137.641 49.9004 140.104 49.9296 140.104 49.9646Z" fill="#051509"/>
<path d="M154.762 49.9646C154.762 49.9997 152.295 50.0289 149.251 50.0289C146.206 50.0289 143.743 49.9997 143.743 49.9646C143.743 49.9296 146.209 49.9004 149.251 49.9004C152.292 49.9004 154.762 49.9296 154.762 49.9646Z" fill="#28A746"/>
<path d="M169.416 49.9646C169.416 49.9997 166.949 50.0289 163.908 50.0289C160.867 50.0289 158.4 49.9997 158.4 49.9646C158.4 49.9296 160.864 49.9004 163.908 49.9004C166.953 49.9004 169.416 49.9296 169.416 49.9646Z" fill="#051509"/>
<path d="M184.203 49.9646C184.203 49.9997 181.737 50.0289 178.696 50.0289C175.654 50.0289 173.184 49.9997 173.184 49.9646C173.184 49.9296 175.651 49.9004 178.696 49.9004C181.74 49.9004 184.203 49.9296 184.203 49.9646Z" fill="#051509"/>
<path d="M197.049 51.5069C197.049 51.5069 197.141 51.5069 197.311 51.466C197.558 51.4134 197.779 51.2939 197.945 51.1244C198.064 51.0096 198.152 50.873 198.204 50.7243C198.248 50.5322 198.261 50.3357 198.244 50.1403C198.214 49.7345 198.353 49.2059 197.935 48.8205C197.733 48.6238 197.452 48.5026 197.151 48.4818C196.819 48.4818 196.487 48.4818 196.155 48.4818H193.911H188.749C188.536 48.4834 188.328 48.5359 188.146 48.6337C187.965 48.7314 187.817 48.8707 187.719 49.0366C187.626 49.2023 187.583 49.3863 187.593 49.5709V50.1549C187.577 50.3367 187.591 50.5196 187.633 50.6981C187.683 50.8667 187.783 51.0208 187.922 51.1448C188.057 51.2667 188.225 51.3571 188.41 51.4076C188.598 51.4475 188.791 51.4623 188.984 51.4514L193.181 51.466L196.013 51.4865H196.78H196.982C197.004 51.4829 197.027 51.4829 197.049 51.4865H196.982H196.78H196.013L193.181 51.5069H188.984C188.778 51.5189 188.571 51.5021 188.37 51.4573C188.163 51.4017 187.974 51.3013 187.822 51.1653C187.587 50.9534 187.454 50.67 187.45 50.3739C187.45 50.2805 187.45 50.1841 187.45 50.0819V49.4979C187.442 49.2959 187.491 49.0951 187.593 48.9139C187.704 48.7276 187.871 48.5712 188.075 48.4612C188.279 48.3513 188.513 48.2918 188.752 48.2891H193.891H196.136C196.487 48.2891 196.819 48.2891 197.155 48.2891C197.485 48.3128 197.791 48.4491 198.008 48.6687C198.213 48.8619 198.331 49.1141 198.34 49.3782C198.34 49.6147 198.34 49.8396 198.34 50.0469C198.353 50.2428 198.335 50.4393 198.287 50.6309C198.234 50.7926 198.14 50.9414 198.011 51.066C197.836 51.2364 197.603 51.353 197.347 51.3989C197.255 51.4493 197.154 51.4858 197.049 51.5069Z" fill="#051509"/>
<path d="M117.475 61.6074H91.7646V83.4841H117.475V61.6074Z" fill="#28A746"/>
<g opacity="0.3">
<path d="M93.76 81.6121L100.871 70.3525L106.691 77.5503L110.224 73.7281L115.483 81.6121H93.76Z" fill="#051509"/>
</g>
<g opacity="0.3">
<path d="M109.168 68.1626C109.169 68.4851 109.061 68.8005 108.857 69.0689C108.654 69.3373 108.365 69.5466 108.026 69.6703C107.688 69.794 107.315 69.8265 106.955 69.7637C106.595 69.7009 106.265 69.5457 106.006 69.3176C105.746 69.0896 105.57 68.799 105.499 68.4827C105.427 68.1663 105.464 67.8385 105.605 67.5406C105.745 67.2428 105.983 66.9883 106.289 66.8095C106.594 66.6307 106.952 66.5356 107.319 66.5361C107.809 66.5369 108.279 66.7085 108.626 67.0134C108.972 67.3182 109.167 67.7315 109.168 68.1626Z" fill="#051509"/>
</g>
<path opacity="0.3" d="M115.483 63.3242L93.7634 63.3096L93.6372 63.4205V68.332C93.6372 69.9399 93.6372 71.5118 93.6372 73.0478C93.6372 76.1108 93.6372 79.0075 93.6372 81.6734V81.7669H93.7434L109.52 81.7173L113.926 81.6939H115.078H115.373H115.466C115.431 81.6895 115.395 81.6895 115.36 81.6939H115.055H113.879L109.45 81.6705L93.8464 81.6238C93.8464 78.9958 93.8464 76.1196 93.8464 73.0916V68.332C93.8464 67.5299 93.8464 66.7182 93.8464 65.8967V63.5256L115.343 63.511C115.363 68.9335 115.383 73.439 115.396 76.6277C115.396 78.222 115.416 79.4747 115.423 80.3419C115.423 80.7653 115.423 81.0953 115.423 81.3289C115.423 81.434 115.423 81.5158 115.423 81.5829C115.423 81.6501 115.423 81.6705 115.423 81.6734C115.426 81.6463 115.426 81.6189 115.423 81.5917C115.423 81.5304 115.423 81.4486 115.423 81.3464C115.423 81.1186 115.423 80.7974 115.423 80.3799C115.423 79.5185 115.423 78.2717 115.453 76.6861C115.453 73.4741 115.483 68.9072 115.506 63.4176V63.3242H115.483Z" fill="#051509"/>
<path d="M114.254 86.8445C114.254 86.8854 109.938 86.9204 104.6 86.9204C99.2613 86.9204 94.9519 86.8854 94.9519 86.8445C94.9519 86.8036 99.2679 86.7686 104.606 86.7686C109.945 86.7686 114.254 86.8007 114.254 86.8445Z" fill="#051509"/>
<path d="M118.122 89.3767C118.122 89.4205 112.223 89.4555 104.949 89.4555C97.6744 89.4555 91.7781 89.4205 91.7781 89.3767C91.7781 89.3329 97.6744 89.3008 104.949 89.3008C112.223 89.3008 118.122 89.3358 118.122 89.3767Z" fill="#051509"/>
<path d="M118.122 91.8318C118.122 91.8727 112.223 91.9077 104.949 91.9077C97.6744 91.9077 91.7781 91.8727 91.7781 91.8318C91.7781 91.7909 97.6744 91.7559 104.949 91.7559C112.223 91.7559 118.122 91.788 118.122 91.8318Z" fill="#051509"/>
<path d="M118.122 94.2849C118.122 94.3258 112.223 94.3608 104.949 94.3608C97.6744 94.3608 91.7781 94.3258 91.7781 94.2849C91.7781 94.244 97.6744 94.209 104.949 94.209C112.223 94.209 118.122 94.2323 118.122 94.2849Z" fill="#051509"/>
<path d="M102.651 96.738C102.651 96.7789 100.214 96.8139 97.2129 96.8139C94.2116 96.8139 91.7781 96.7789 91.7781 96.738C91.7781 96.6971 94.2116 96.6621 97.2129 96.6621C100.214 96.6621 102.651 96.6942 102.651 96.738Z" fill="#051509"/>
<path d="M154.881 61.6074H129.171V83.4841H154.881V61.6074Z" fill="#28A746"/>
<g opacity="0.3">
<path d="M131.167 81.6121L138.278 70.3525L144.095 77.5503L147.63 73.7281L152.889 81.6121H131.167Z" fill="#051509"/>
</g>
<g opacity="0.3">
<path d="M146.575 68.1626C146.575 68.4851 146.467 68.8005 146.264 69.0689C146.061 69.3373 145.771 69.5466 145.433 69.6703C145.094 69.794 144.721 69.8265 144.362 69.7637C144.002 69.7009 143.672 69.5457 143.412 69.3176C143.153 69.0896 142.976 68.799 142.905 68.4827C142.834 68.1663 142.871 67.8385 143.011 67.5406C143.152 67.2428 143.39 66.9883 143.695 66.8095C144 66.6307 144.359 66.5356 144.726 66.5361C145.216 66.5369 145.686 66.7085 146.032 67.0134C146.379 67.3182 146.574 67.7315 146.575 68.1626Z" fill="#051509"/>
</g>
<path opacity="0.3" d="M152.889 63.3242L131.17 63.3096L131.044 63.4205V68.332C131.044 69.9399 131.044 71.5118 131.044 73.0478C131.044 76.1108 131.044 79.0075 131.044 81.6734V81.7669H131.15L146.927 81.7173L151.332 81.6939H152.484H152.78H152.873C152.837 81.6895 152.802 81.6895 152.766 81.6939H152.461H151.286L146.857 81.6705L131.253 81.6238C131.253 78.9958 131.253 76.1196 131.253 73.0916V68.332C131.253 67.5299 131.253 66.7182 131.253 65.8967V63.5256L152.75 63.511C152.77 68.9335 152.79 73.439 152.803 76.6277C152.803 78.222 152.823 79.4747 152.83 80.3419C152.83 80.7653 152.83 81.0953 152.83 81.3289C152.83 81.434 152.83 81.5158 152.83 81.5829C152.83 81.6501 152.83 81.6705 152.83 81.6734C152.833 81.6463 152.833 81.6189 152.83 81.5917C152.83 81.5304 152.83 81.4486 152.83 81.3464C152.83 81.1186 152.83 80.7974 152.83 80.3799C152.83 79.5185 152.846 78.2717 152.859 76.6861C152.859 73.4741 152.889 68.9072 152.913 63.4176V63.3242H152.889Z" fill="#051509"/>
<path d="M151.661 86.8445C151.661 86.8854 147.345 86.9204 142.006 86.9204C136.668 86.9204 132.352 86.8854 132.352 86.8445C132.352 86.8036 136.668 86.7686 142.006 86.7686C147.345 86.7686 151.661 86.8007 151.661 86.8445Z" fill="#051509"/>
<path d="M155.529 89.3767C155.529 89.4205 149.629 89.4555 142.355 89.4555C135.081 89.4555 129.185 89.4205 129.185 89.3767C129.185 89.3329 135.081 89.3008 142.355 89.3008C149.629 89.3008 155.529 89.3358 155.529 89.3767Z" fill="#051509"/>
<path d="M155.529 91.8318C155.529 91.8727 149.629 91.9077 142.355 91.9077C135.081 91.9077 129.185 91.8727 129.185 91.8318C129.185 91.7909 135.081 91.7559 142.355 91.7559C149.629 91.7559 155.529 91.788 155.529 91.8318Z" fill="#051509"/>
<path d="M155.529 94.2849C155.529 94.3258 149.629 94.3608 142.355 94.3608C135.081 94.3608 129.185 94.3258 129.185 94.2849C129.185 94.244 135.081 94.209 142.355 94.209C149.629 94.209 155.529 94.2323 155.529 94.2849Z" fill="#051509"/>
<path d="M140.058 96.738C140.058 96.7789 137.621 96.8139 134.619 96.8139C131.618 96.8139 129.185 96.7789 129.185 96.738C129.185 96.6971 131.618 96.6621 134.619 96.6621C137.621 96.6621 140.058 96.6942 140.058 96.738Z" fill="#051509"/>
<path d="M191.594 61.6074H165.884V83.4841H191.594V61.6074Z" fill="#28A746"/>
<g opacity="0.3">
<path d="M167.876 81.6121L174.991 70.3525L180.807 77.5503L184.343 73.7281L189.602 81.6121H167.876Z" fill="#051509"/>
</g>
<g opacity="0.3">
<path d="M183.284 68.1626C183.284 68.4843 183.175 68.7987 182.972 69.0662C182.769 69.3336 182.48 69.5421 182.142 69.6652C181.804 69.7883 181.433 69.8205 181.074 69.7578C180.715 69.695 180.386 69.5401 180.127 69.3126C179.868 69.0852 179.692 68.7954 179.621 68.4799C179.55 68.1644 179.586 67.8374 179.726 67.5402C179.866 67.243 180.103 66.989 180.407 66.8102C180.711 66.6315 181.069 66.5361 181.435 66.5361C181.925 66.5361 182.395 66.7075 182.742 67.0125C183.089 67.3175 183.284 67.7312 183.284 68.1626Z" fill="#051509"/>
</g>
<path opacity="0.3" d="M189.602 63.3242L167.879 63.3096L167.756 63.4205V68.332C167.756 69.9399 167.756 71.5118 167.756 73.0478C167.756 76.1108 167.756 79.0075 167.756 81.6734V81.7669H167.862L183.639 81.7173L188.045 81.6939H189.2H189.492H189.588C189.553 81.6899 189.517 81.6899 189.482 81.6939H189.177H188.001L183.596 81.6267L167.992 81.58C167.992 78.952 167.992 76.0758 167.992 73.0478C167.992 71.5157 167.992 69.9438 167.992 68.332V63.5256L189.489 63.511C189.512 68.9335 189.529 73.439 189.542 76.6277C189.542 78.222 189.565 79.4747 189.572 80.3419C189.572 80.7653 189.572 81.0953 189.572 81.3289C189.572 81.434 189.572 81.5158 189.572 81.5829C189.569 81.6131 189.569 81.6433 189.572 81.6734C189.572 81.6734 189.572 81.6472 189.572 81.5917C189.572 81.5362 189.572 81.4486 189.572 81.3464C189.572 81.1186 189.572 80.7974 189.572 80.3799C189.572 79.5185 189.588 78.2717 189.598 76.6861C189.598 73.4741 189.632 68.9072 189.655 63.4176V63.3242H189.602Z" fill="#051509"/>
<path d="M188.37 86.8445C188.37 86.8854 184.054 86.9204 178.719 86.9204C173.384 86.9204 169.064 86.8854 169.064 86.8445C169.064 86.8036 173.38 86.7686 178.719 86.7686C184.057 86.7686 188.37 86.8007 188.37 86.8445Z" fill="#051509"/>
<path d="M192.228 89.3767C192.228 89.4205 186.332 89.4555 179.058 89.4555C171.784 89.4555 165.887 89.4205 165.887 89.3767C165.887 89.3329 171.784 89.3008 179.058 89.3008C186.332 89.3008 192.228 89.3358 192.228 89.3767Z" fill="#051509"/>
<path d="M192.228 91.8318C192.228 91.8727 186.332 91.9077 179.058 91.9077C171.784 91.9077 165.887 91.8727 165.887 91.8318C165.887 91.7909 171.784 91.7559 179.058 91.7559C186.332 91.7559 192.228 91.788 192.228 91.8318Z" fill="#051509"/>
<path d="M192.228 94.2849C192.228 94.3258 186.332 94.3608 179.058 94.3608C171.784 94.3608 165.887 94.3258 165.887 94.2849C165.887 94.244 171.784 94.209 179.058 94.209C186.332 94.209 192.228 94.2323 192.228 94.2849Z" fill="#051509"/>
<path d="M176.767 96.738C176.767 96.7789 174.333 96.8139 171.332 96.8139C168.331 96.8139 165.897 96.7789 165.897 96.738C165.897 96.6971 168.327 96.6621 171.332 96.6621C174.336 96.6621 176.767 96.6942 176.767 96.738Z" fill="#051509"/>
<path d="M202.394 55.0163C202.394 55.0572 175.352 55.0923 142.006 55.0923C108.66 55.0923 81.6123 55.0572 81.6123 55.0163C81.6123 54.9755 108.647 54.9404 142.006 54.9404C175.366 54.9404 202.394 54.9755 202.394 55.0163Z" fill="#E0E0E0"/>
<path d="M81.5093 39.7537L202.394 39.6807H202.474V39.7537C202.474 59.4958 202.474 81.1914 202.474 103.924V104.008H202.387L81.5027 103.991H81.4363V103.932C81.4761 64.6146 81.5027 40.2325 81.5027 39.7537C81.5027 40.2325 81.5292 64.6146 81.5724 103.932L81.5027 103.871L202.394 103.868L202.308 103.944C202.308 81.2118 202.308 59.5162 202.308 39.7741L202.387 39.8442L81.5093 39.7537Z" fill="#051509"/>
<path d="M28.9072 72.6239H13.5422C13.2886 72.624 13.0376 72.5798 12.8035 72.4941C12.5694 72.4084 12.3569 72.2829 12.1782 72.1246C11.9996 71.9664 11.8582 71.7786 11.7624 71.5722C11.6666 71.3657 11.6182 71.1446 11.6199 70.9216V52.2161C11.6199 51.7677 11.8224 51.3376 12.1829 51.0206C12.5434 50.7035 13.0324 50.5254 13.5422 50.5254H23.2864L30.8294 57.364V70.9216C30.8312 71.1446 30.7828 71.3657 30.6869 71.5722C30.5911 71.7786 30.4498 71.9664 30.2711 72.1246C30.0925 72.2829 29.88 72.4084 29.6459 72.4941C29.4118 72.5798 29.1607 72.624 28.9072 72.6239Z" fill="#28A746"/>
<g opacity="0.2">
<path d="M11.6199 65.9082H30.8294V69.9758C30.8294 70.6728 30.5146 71.3412 29.9542 71.834C29.3939 72.3269 28.6339 72.6038 27.8414 72.6038H14.6577C13.8537 72.6038 13.0825 72.3235 12.5131 71.8243C11.9437 71.3251 11.6225 70.6478 11.6199 69.9407V65.9082Z" fill="#051509"/>
</g>
<g opacity="0.2">
<path d="M23.2864 50.5254V55.7814C23.2864 56.1988 23.4749 56.5991 23.8105 56.8943C24.1461 57.1895 24.6013 57.3553 25.0759 57.3553H30.8294L23.2864 50.5254Z" fill="white"/>
</g>
<g opacity="0.2">
<path d="M23.366 56.252C23.366 56.252 23.2897 57.528 24.943 57.9485C25.0049 57.9653 25.0682 57.978 25.1323 57.9864C25.8826 58.1032 30.8294 58.88 30.8294 58.7778V57.3645H25.0758C25.0758 57.3645 23.6383 57.3207 23.366 56.252Z" fill="#051509"/>
</g>
<path d="M17.1211 68.8283C17.1508 68.55 17.2707 68.2851 17.4666 68.065C17.6624 67.845 17.926 67.6789 18.2259 67.5867C18.5259 67.4945 18.8496 67.4799 19.1587 67.5447C19.4678 67.6095 19.7493 67.7509 19.9697 67.9523L19.5281 68.3114C19.436 68.2146 19.3206 68.1369 19.1903 68.0839C19.06 68.0308 18.918 68.0039 18.7745 68.0048C18.5209 68.0048 18.2777 68.0934 18.0983 68.2511C17.919 68.4088 17.8183 68.6228 17.8183 68.8458C17.8183 69.0688 17.919 69.2827 18.0983 69.4404C18.2777 69.5981 18.5209 69.6867 18.7745 69.6867C18.9187 69.6881 19.0615 69.6606 19.192 69.6065C19.3225 69.5524 19.4374 69.473 19.5281 69.3743L19.9697 69.7364C19.7501 69.9454 19.4653 70.0928 19.1509 70.1601C18.8365 70.2274 18.5066 70.2115 18.2024 70.1146C17.8982 70.0176 17.6333 69.8438 17.441 69.615C17.2486 69.3862 17.1373 69.1125 17.1211 68.8283Z" fill="#FAFAFA"/>
<path d="M20.1755 69.8849L20.4079 69.4264C20.7002 69.6054 21.0478 69.7013 21.4039 69.7009C21.8156 69.7009 21.9816 69.5812 21.9816 69.4089C21.9816 68.9154 20.2453 69.2542 20.2453 68.2789C20.2453 67.8321 20.6536 67.4613 21.5035 67.4613C21.8661 67.4549 22.2239 67.5346 22.5394 67.692L22.3269 68.1533C22.0756 68.0245 21.7911 67.9541 21.5002 67.9489C21.0885 67.9489 20.9325 68.0832 20.9325 68.2409C20.9325 68.7227 22.6689 68.3898 22.6689 69.3534C22.6689 69.7944 22.2539 70.1681 21.4006 70.1681C20.9689 70.1864 20.5412 70.0875 20.1755 69.8849Z" fill="#FAFAFA"/>
<path d="M22.908 69.8849L23.1437 69.4264C23.4359 69.6054 23.7836 69.7012 24.1397 69.7009C24.5514 69.7009 24.7174 69.5812 24.7174 69.4089C24.7174 68.9154 22.9777 69.2541 22.9777 68.2789C22.9777 67.8321 23.3894 67.4613 24.2393 67.4613C24.6018 67.4552 24.9595 67.5349 25.2751 67.6919L25.0626 68.1533C24.8103 68.0241 24.5246 67.9537 24.2326 67.9489C23.8243 67.9489 23.6649 68.0832 23.6649 68.2409C23.6649 68.7227 25.4046 68.3898 25.4046 69.3534C25.4046 69.7943 24.9896 70.1681 24.1364 70.1681C23.7037 70.1858 23.2751 70.087 22.908 69.8849Z" fill="#FAFAFA"/>
<path d="M18.0938 60.3274C18.4258 60.4121 18.5553 60.5844 18.5553 61.002V61.9685C18.5484 62.0276 18.5567 62.0874 18.5795 62.1433C18.6024 62.1993 18.6392 62.25 18.6873 62.2918C18.7355 62.3335 18.7936 62.3653 18.8575 62.3846C18.9215 62.4039 18.9895 62.4104 19.0566 62.4036H19.1795V63.1394H18.7811C17.9245 63.1394 17.483 62.754 17.483 62.059V60.9669C17.483 60.7742 17.3668 60.6749 17.1842 60.6749H16.9551V59.9362H17.1842C17.3668 59.9362 17.483 59.8456 17.483 59.6442V58.5521C17.483 57.8571 17.9245 57.4717 18.7811 57.4717H19.1795V58.2075H19.0566C18.9883 58.2003 18.9189 58.207 18.8539 58.2269C18.7889 58.2469 18.7299 58.2797 18.6815 58.3229C18.6331 58.366 18.5966 58.4183 18.5747 58.4757C18.5529 58.5331 18.5462 58.5942 18.5553 58.6543V59.6208C18.5553 60.0676 18.4126 60.2428 18.0938 60.3274Z" fill="#FAFAFA"/>
<path d="M25.4942 59.9567V60.6955H25.2684C25.2251 60.6921 25.1816 60.6976 25.1411 60.7116C25.1007 60.7255 25.0644 60.7474 25.0352 60.7757C25.0059 60.8039 24.9845 60.8377 24.9725 60.8745C24.9606 60.9112 24.9585 60.9499 24.9663 60.9875V62.0795C24.9663 62.7745 24.5281 63.1599 23.6682 63.1599H23.2698V62.4037H23.3959C23.4636 62.4115 23.5324 62.4057 23.5972 62.3868C23.6619 62.3679 23.721 62.3363 23.7698 62.2944C23.8187 62.2526 23.8562 62.2015 23.8794 62.145C23.9026 62.0886 23.911 62.0283 23.9039 61.9686V61.0021C23.9039 60.5845 24.0467 60.4181 24.3621 60.3275C24.0301 60.2429 23.9039 60.0677 23.9039 59.6501V58.6836C23.913 58.6235 23.9064 58.5624 23.8845 58.505C23.8626 58.4476 23.8261 58.3953 23.7777 58.3522C23.7293 58.309 23.6704 58.2762 23.6053 58.2562C23.5403 58.2362 23.471 58.2296 23.4026 58.2368H23.2764V57.501H23.6748C24.5347 57.501 24.9729 57.8864 24.9729 58.5814V59.6735C24.9651 59.711 24.9672 59.7497 24.9792 59.7864C24.9911 59.8232 25.0126 59.857 25.0418 59.8852C25.071 59.9135 25.1073 59.9354 25.1478 59.9494C25.1882 59.9633 25.2318 59.9688 25.2751 59.9655L25.4942 59.9567Z" fill="#FAFAFA"/>
<path d="M40.9123 76.943C40.8029 76.9607 40.6915 76.9676 40.5803 76.9635L39.6408 76.9781L36.2378 77.0044H36.188V76.9401C36.188 75.2845 36.188 73.2259 36.188 70.995C36.188 69.608 36.188 68.2852 36.188 67.0793C36.188 66.4807 36.188 65.9113 36.188 65.3711C36.2001 65.2509 36.18 65.1299 36.1292 65.0178C36.0785 64.9058 35.9985 64.8057 35.8958 64.7258C35.7975 64.6533 35.6837 64.5989 35.5611 64.5658C35.4385 64.5327 35.3096 64.5216 35.182 64.533L32.7318 64.5097L32.0678 64.4951C31.9907 64.5032 31.9126 64.5032 31.8354 64.4951C31.912 64.482 31.99 64.4771 32.0678 64.4805H32.7318L35.182 64.4571C35.3249 64.443 35.4695 64.4541 35.6074 64.4897C35.7454 64.5253 35.8739 64.5847 35.9854 64.6644C36.1006 64.757 36.1902 64.8713 36.2478 64.9987C36.3053 65.1262 36.3291 65.2635 36.3174 65.4003C36.3174 65.9376 36.3174 66.5099 36.3174 67.1085C36.3174 68.3144 36.3174 69.6372 36.3174 71.0242C36.3174 73.2551 36.3174 75.3137 36.3174 76.9693L36.2477 76.908L39.6507 76.9343L40.5903 76.9518C40.6972 76.9416 40.8049 76.9387 40.9123 76.943Z" fill="#051509"/>
<path d="M31.5598 89.2214C31.6214 89.2132 31.6841 89.2132 31.7457 89.2214L32.2769 89.2068L34.2357 89.1834C34.6474 89.1601 35.1222 89.2448 35.5239 89.0316C35.7372 88.9223 35.91 88.761 36.0214 88.5672C36.1327 88.3734 36.1779 88.1554 36.1514 87.9395C36.1514 86.9759 36.1514 85.9189 36.1514 84.8122C36.1514 82.6018 36.1713 80.6016 36.1779 79.1299C36.1779 78.4174 36.1979 77.8334 36.2045 77.4071C36.2045 77.2173 36.2045 77.0625 36.2045 76.9399C36.1995 76.8855 36.1995 76.8308 36.2045 76.7764C36.2197 76.8298 36.2264 76.8848 36.2244 76.9399C36.2244 77.0625 36.2244 77.2173 36.2244 77.4071C36.2244 77.8334 36.2244 78.4174 36.251 79.1299C36.251 80.5899 36.2676 82.6018 36.2742 84.8122C36.2742 85.9189 36.2742 86.9759 36.2742 87.9395C36.2801 88.0627 36.2712 88.186 36.2477 88.3074C36.2217 88.427 36.1747 88.5423 36.1082 88.6491C35.9877 88.8491 35.806 89.0155 35.5837 89.1295C35.3613 89.2435 35.1072 89.3006 34.8499 89.2944H34.1859L32.2271 89.2711L31.6959 89.2564C31.6492 89.2494 31.6035 89.2376 31.5598 89.2214Z" fill="#051509"/>
<path d="M42.2667 76.9424C42.2667 77.0579 42.2278 77.1708 42.1548 77.2669C42.0819 77.3629 41.9782 77.4377 41.8568 77.4819C41.7355 77.5261 41.602 77.5377 41.4732 77.5152C41.3444 77.4926 41.2261 77.437 41.1332 77.3553C41.0403 77.2737 40.9771 77.1696 40.9515 77.0563C40.9259 76.943 40.939 76.8256 40.9893 76.7189C41.0395 76.6122 41.1246 76.521 41.2338 76.4568C41.343 76.3927 41.4714 76.3584 41.6027 76.3584C41.7788 76.3584 41.9477 76.4199 42.0722 76.5294C42.1968 76.639 42.2667 76.7875 42.2667 76.9424Z" fill="#051509"/>
<path d="M28.8573 99.9174H13.977C13.4831 99.9174 13.0093 99.7448 12.66 99.4376C12.3107 99.1304 12.1145 98.7137 12.1145 98.2792V80.1752C12.1145 79.7408 12.3107 79.3241 12.66 79.0169C13.0093 78.7097 13.4831 78.5371 13.977 78.5371H23.4125L30.7165 85.1597V98.2997C30.7104 98.7301 30.5119 99.1411 30.164 99.4438C29.8161 99.7465 29.3467 99.9166 28.8573 99.9174Z" fill="#28A746"/>
<g opacity="0.2">
<path d="M12.1145 93.4258H30.7065V97.5138C30.7065 98.1496 30.4193 98.7594 29.9082 99.2089C29.397 99.6585 28.7037 99.9111 27.9808 99.9111H14.8004C14.088 99.9111 13.4049 99.6622 12.9012 99.2192C12.3975 98.7762 12.1145 98.1753 12.1145 97.5488V93.4258Z" fill="#051509"/>
</g>
<path d="M18.708 97.6128L19.1761 97.1194C19.2461 97.2208 19.3431 97.3058 19.4588 97.3668C19.5745 97.4279 19.7054 97.4632 19.8401 97.4698C20.1721 97.4698 20.358 97.2916 20.358 96.9412V95.417H19.0865V94.833H21.2046V96.9091C21.2046 97.7005 20.7498 98.0917 19.8932 98.0917C19.6671 98.0975 19.4425 98.0572 19.237 97.9742C19.0314 97.8911 18.8504 97.7675 18.708 97.6128Z" fill="#FAFAFA"/>
<path d="M21.7061 97.7946L21.9783 97.2836C22.272 97.4393 22.6081 97.522 22.9511 97.523C23.3262 97.523 23.4657 97.4354 23.4657 97.2982C23.4657 96.8952 21.7758 97.2982 21.7758 96.3229C21.7758 95.8557 22.2539 95.5257 23.0706 95.5257C23.4438 95.5198 23.813 95.594 24.1463 95.7418L23.8773 96.2499C23.6315 96.1272 23.3532 96.0638 23.0706 96.0659C22.7054 96.0659 22.5493 96.1681 22.5493 96.2966C22.5493 96.7171 24.2392 96.2966 24.2392 97.2777C24.2392 97.7362 23.7578 98.0603 22.9112 98.0603C22.49 98.0661 22.0744 97.9745 21.7061 97.7946Z" fill="#FAFAFA"/>
<path d="M16.0554 90.0183L16.6397 89.4168C16.795 89.6368 17.0109 89.8188 17.2674 89.9459C17.524 90.073 17.8128 90.1411 18.1072 90.1439C18.9007 90.1439 19.3157 89.7176 19.3157 88.8883V85.4193H16.7692V84.6484H20.3083V88.8532C20.3083 90.2315 19.5447 90.9118 18.1072 90.9118C17.7084 90.9208 17.3131 90.8442 16.9555 90.6885C16.598 90.5328 16.289 90.3028 16.0554 90.0183Z" fill="#FAFAFA"/>
<path d="M21.5466 90.345L21.9517 89.6734C22.5076 89.9922 23.1571 90.1616 23.8208 90.1611C24.7172 90.1611 25.0891 89.9216 25.0891 89.5245C25.0891 88.4704 21.7193 89.3814 21.7193 87.5155C21.7193 86.6746 22.5725 86.1081 23.9404 86.1081C24.6235 86.0962 25.2981 86.2433 25.8958 86.5344L25.4842 87.206C25.023 86.9525 24.4874 86.8235 23.9437 86.8352C23.1004 86.8352 22.6887 87.1097 22.6887 87.4805C22.6887 88.5872 26.0685 87.6849 26.0685 89.507C26.0685 90.3567 25.182 90.894 23.7644 90.894C22.9786 90.9154 22.2043 90.7238 21.5466 90.345Z" fill="#FAFAFA"/>
<g opacity="0.3">
<path d="M23.4126 78.5254V83.6237C23.4126 84.028 23.5952 84.4157 23.9202 84.7015C24.2452 84.9874 24.686 85.148 25.1456 85.148H30.7199L23.4126 78.5254Z" fill="white"/>
</g>
<g opacity="0.2">
<path d="M23.489 84.0703C23.4924 84.4564 23.6456 84.8299 23.9234 85.1289C24.2012 85.4279 24.5867 85.6344 25.0162 85.7143L25.1988 85.7522C25.9259 85.8661 30.72 86.6282 30.72 86.5173V85.1478H25.1457C25.1457 85.1478 23.7546 85.1069 23.489 84.0703Z" fill="#051509"/>
</g>
<path d="M91.6273 54.0637V54.6935C91.6273 54.7911 91.5999 54.8661 91.5448 54.9188C91.49 54.9714 91.4159 54.9978 91.3228 54.9978C91.2252 54.9978 91.1472 54.9702 91.0882 54.9148C91.0294 54.8594 91 54.7809 91 54.679H91.2241C91.2241 54.7178 91.232 54.747 91.2477 54.7666C91.2636 54.7863 91.2864 54.7962 91.3162 54.7962C91.3434 54.7962 91.3645 54.7875 91.3794 54.7698C91.3943 54.7523 91.4018 54.7267 91.4018 54.6933V54.0635H91.6273V54.0637Z" fill="#4EA847"/>
<path d="M91.9495 54.9533C91.8919 54.9225 91.8468 54.8786 91.8139 54.8216C91.7809 54.7646 91.7644 54.6976 91.7644 54.6214C91.7644 54.5459 91.7811 54.4793 91.8145 54.4217C91.8478 54.3641 91.8935 54.32 91.9515 54.2892C92.0095 54.2585 92.0745 54.2432 92.1466 54.2432C92.2187 54.2432 92.2836 54.2585 92.3416 54.2892C92.3996 54.32 92.4453 54.3641 92.4787 54.4217C92.512 54.4793 92.5287 54.5459 92.5287 54.6214C92.5287 54.6968 92.5118 54.7634 92.4781 54.821C92.4443 54.8786 92.3982 54.9227 92.3398 54.9535C92.2814 54.9843 92.2163 54.9995 92.1442 54.9995C92.0719 54.9995 92.0071 54.9841 91.9495 54.9533ZM92.2538 54.757C92.2842 54.7254 92.2993 54.6801 92.2993 54.6214C92.2993 54.5626 92.2846 54.5173 92.2552 54.4857C92.2258 54.4541 92.1895 54.4382 92.1466 54.4382C92.1027 54.4382 92.0661 54.4539 92.0371 54.4849C92.0081 54.5161 91.9936 54.5616 91.9936 54.6214C91.9936 54.6801 92.0079 54.7254 92.0365 54.757C92.0651 54.7886 92.1009 54.8045 92.144 54.8045C92.1869 54.8045 92.2236 54.7886 92.2538 54.757Z" fill="#4EA847"/>
<path d="M92.665 54.1426C92.64 54.1193 92.6274 54.0905 92.6274 54.0561C92.6274 54.021 92.64 53.9918 92.665 53.9686C92.69 53.9453 92.7224 53.9336 92.7619 53.9336C92.8006 53.9336 92.8324 53.9453 92.8575 53.9686C92.8825 53.9918 92.895 54.021 92.895 54.0561C92.895 54.0905 92.8825 54.1191 92.8575 54.1426C92.8324 54.1658 92.8006 54.1775 92.7619 54.1775C92.7222 54.1775 92.69 54.1658 92.665 54.1426ZM92.8737 54.2538V54.9889H92.6485V54.2538H92.8737Z" fill="#4EA847"/>
<path d="M93.6912 54.3297C93.7427 54.3855 93.7683 54.4622 93.7683 54.5597V54.9892H93.5443V54.5899C93.5443 54.5407 93.5315 54.5025 93.5061 54.4753C93.4807 54.4481 93.4463 54.4344 93.4034 54.4344C93.3603 54.4344 93.3262 54.4481 93.3007 54.4753C93.2753 54.5025 93.2626 54.5409 93.2626 54.5899V54.9892H93.0374V54.254H93.2626V54.3516C93.2854 54.319 93.3162 54.2934 93.3548 54.2745C93.3935 54.2556 93.4368 54.2461 93.4853 54.2461C93.5711 54.2459 93.6398 54.2739 93.6912 54.3297Z" fill="#4EA847"/>
<path d="M94.8698 54.0645V54.245H94.6247V54.9895H94.3994V54.245H94.1543V54.0645H94.8698Z" fill="#4EA847"/>
<path d="M95.1234 54.9533C95.0658 54.9225 95.0207 54.8786 94.9877 54.8216C94.9547 54.7646 94.9382 54.6976 94.9382 54.6214C94.9382 54.5459 94.9549 54.4793 94.9883 54.4217C95.0217 54.3641 95.0673 54.32 95.1253 54.2892C95.1833 54.2585 95.2483 54.2432 95.3204 54.2432C95.3923 54.2432 95.4575 54.2585 95.5155 54.2892C95.5735 54.32 95.6191 54.3641 95.6525 54.4217C95.6859 54.4793 95.7026 54.5459 95.7026 54.6214C95.7026 54.6968 95.6857 54.7634 95.6519 54.821C95.6181 54.8786 95.5721 54.9227 95.5137 54.9535C95.4553 54.9843 95.3901 54.9995 95.318 54.9995C95.2455 54.9995 95.1808 54.9841 95.1234 54.9533ZM95.4277 54.757C95.458 54.7254 95.4731 54.6801 95.4731 54.6214C95.4731 54.5626 95.4584 54.5173 95.429 54.4857C95.3996 54.4541 95.3633 54.4382 95.3204 54.4382C95.2765 54.4382 95.24 54.4539 95.211 54.4849C95.182 54.5161 95.1675 54.5616 95.1675 54.6214C95.1675 54.6801 95.1818 54.7254 95.2104 54.757C95.239 54.7886 95.2747 54.8045 95.3178 54.8045C95.3607 54.8045 95.3973 54.7886 95.4277 54.757Z" fill="#4EA847"/>
<path d="M96.1227 54.2809C96.1622 54.2094 96.2172 54.1536 96.2879 54.1137C96.3586 54.0738 96.4387 54.0537 96.5285 54.0537C96.6383 54.0537 96.7323 54.0827 96.8103 54.1407C96.8886 54.1987 96.9408 54.2778 96.967 54.3779H96.7194C96.7009 54.3391 96.6749 54.3097 96.6409 54.2897C96.6071 54.2694 96.5686 54.2593 96.5257 54.2593C96.4564 54.2593 96.4002 54.2835 96.3571 54.3318C96.314 54.3801 96.2925 54.4446 96.2925 54.5255C96.2925 54.6063 96.314 54.6709 96.3571 54.7191C96.4002 54.7674 96.4564 54.7916 96.5257 54.7916C96.5688 54.7916 96.6071 54.7815 96.6409 54.7612C96.6747 54.741 96.7009 54.7116 96.7194 54.673H96.967C96.9406 54.7731 96.8884 54.852 96.8103 54.9096C96.7321 54.9672 96.6381 54.9958 96.5285 54.9958C96.4389 54.9958 96.3586 54.9758 96.2879 54.9358C96.2172 54.8959 96.1622 54.8403 96.1227 54.7692C96.0831 54.6981 96.0635 54.6168 96.0635 54.5255C96.0633 54.4341 96.0831 54.3526 96.1227 54.2809Z" fill="#4EA847"/>
<path d="M97.2457 54.9533C97.1881 54.9225 97.143 54.8786 97.11 54.8216C97.077 54.7646 97.0605 54.6976 97.0605 54.6214C97.0605 54.5459 97.0772 54.4793 97.1106 54.4217C97.144 54.3641 97.1897 54.32 97.2477 54.2892C97.3057 54.2585 97.3706 54.2432 97.4427 54.2432C97.5146 54.2432 97.5798 54.2585 97.6378 54.2892C97.6958 54.32 97.7415 54.3641 97.7748 54.4217C97.8082 54.4793 97.8249 54.5459 97.8249 54.6214C97.8249 54.6968 97.808 54.7634 97.7742 54.821C97.7405 54.8786 97.6944 54.9227 97.636 54.9535C97.5776 54.9843 97.5124 54.9995 97.4403 54.9995C97.368 54.9995 97.3033 54.9841 97.2457 54.9533ZM97.55 54.757C97.5804 54.7254 97.5955 54.6801 97.5955 54.6214C97.5955 54.5626 97.5808 54.5173 97.5514 54.4857C97.522 54.4541 97.4856 54.4382 97.4427 54.4382C97.3988 54.4382 97.3623 54.4539 97.3333 54.4849C97.3043 54.5161 97.2898 54.5616 97.2898 54.6214C97.2898 54.6801 97.3041 54.7254 97.3327 54.757C97.3613 54.7886 97.397 54.8045 97.4401 54.8045C97.483 54.8045 97.5198 54.7886 97.55 54.757Z" fill="#4EA847"/>
<path d="M97.9611 54.1426C97.9361 54.1193 97.9236 54.0905 97.9236 54.0561C97.9236 54.021 97.9361 53.9918 97.9611 53.9686C97.9862 53.9453 98.0183 53.9336 98.0579 53.9336C98.0966 53.9336 98.1284 53.9453 98.1534 53.9686C98.1784 53.9918 98.1909 54.021 98.1909 54.0561C98.1909 54.0905 98.1784 54.1191 98.1534 54.1426C98.1284 54.1658 98.0966 54.1775 98.0579 54.1775C98.0183 54.1775 97.9862 54.1658 97.9611 54.1426ZM98.1699 54.2538V54.9889H97.9446V54.2538H98.1699Z" fill="#4EA847"/>
<path d="M98.9874 54.3297C99.0388 54.3855 99.0645 54.4622 99.0645 54.5597V54.9892H98.8404V54.5899C98.8404 54.5407 98.8277 54.5025 98.8023 54.4753C98.7768 54.4481 98.7425 54.4344 98.6996 54.4344C98.6565 54.4344 98.6223 54.4481 98.5969 54.4753C98.5715 54.5025 98.5587 54.5409 98.5587 54.5899V54.9892H98.3335V54.254H98.5587V54.3516C98.5816 54.319 98.6124 54.2934 98.6509 54.2745C98.6894 54.2556 98.7329 54.2461 98.7814 54.2461C98.8672 54.2459 98.9359 54.2739 98.9874 54.3297Z" fill="#4EA847"/>
<path fill-rule="evenodd" clip-rule="evenodd" d="M98.7909 47.5703L96.897 48.0778H98.4121H99.0906H99.092H99.1657L99.0734 47.7334C99.0406 47.6108 98.9135 47.5375 98.7909 47.5703Z" fill="#4EA847"/>
<path fill-rule="evenodd" clip-rule="evenodd" d="M98.2225 47.0308L96.5244 48.0112L97.9881 47.6191L98.6434 47.4435L98.6446 47.4431L98.7159 47.4241L98.5377 47.1154C98.4742 47.0053 98.3325 46.9672 98.2225 47.0308Z" fill="#4EA847"/>
<path fill-rule="evenodd" clip-rule="evenodd" d="M96.7154 48.3325C95.3018 48.4976 95.0015 50.4265 96.3249 50.9846C96.2661 50.8853 96.2324 50.7697 96.2324 50.6464C96.2324 50.6096 96.2353 50.5737 96.2411 50.5385C96.2939 50.2175 96.5736 49.979 96.8998 49.979H99.1788V49.7597V48.3252H96.8996L96.7154 48.3325ZM97.8349 48.6305C97.5469 48.6305 97.3133 48.8641 97.3133 49.1521C97.3133 49.4401 97.5469 49.6737 97.8349 49.6737C98.1229 49.6737 98.3565 49.4401 98.3565 49.1521C98.3565 48.8641 98.1231 48.6305 97.8349 48.6305ZM97.556 49.3213L97.6659 49.2635C97.6824 49.3003 97.6949 49.3181 97.7364 49.3374C97.798 49.366 97.8834 49.3696 97.945 49.339C97.989 49.317 98.0028 49.25 97.9416 49.2236C97.8357 49.1779 97.7161 49.2103 97.624 49.1225C97.5572 49.0589 97.5449 48.8585 97.7839 48.823V48.7441H97.9078V48.8232C98.0014 48.8381 98.0461 48.8696 98.09 48.9481L97.9847 49.0043C97.9684 48.9765 97.9587 48.9634 97.9249 48.9489C97.847 48.9153 97.7106 48.9304 97.7114 49.0093C97.7118 49.0506 97.7567 49.0617 97.7902 49.0687C97.8977 49.0905 98.0395 49.0879 98.0967 49.2008C98.1317 49.2695 98.115 49.366 98.0468 49.4189C98.0057 49.4508 97.9581 49.4679 97.907 49.4739V49.5607H97.7839V49.4771C97.6929 49.4659 97.6015 49.424 97.5622 49.3356L97.556 49.3213ZM96.6692 49.4844V48.8198C96.8694 48.8305 97.042 48.6923 97.0815 48.503H98.5887C98.628 48.6923 98.8006 48.8305 99.0011 48.8198V49.4844C98.8008 49.4737 98.6282 49.6119 98.5887 49.8012H97.0815C97.042 49.6119 96.8694 49.4737 96.6692 49.4844Z" fill="#4EA847"/>
<path fill-rule="evenodd" clip-rule="evenodd" d="M95.5741 48.9043C94.0163 49.8901 95.2599 51.8998 96.7588 51.8998H99.0595V51.5548H96.7594C95.884 51.5548 95.1679 50.8386 95.1679 49.9634C95.1679 49.5576 95.3219 49.1862 95.5741 48.9043ZM96.7588 52.0917C95.6041 52.0917 94.6567 51.1601 94.6308 50.0115C94.5202 50.2814 94.4592 50.5766 94.4592 50.8852C94.4592 52.162 95.5038 53.2066 96.7806 53.2066H99.0597V52.0919H96.7588V52.0917Z" fill="#F5D60B"/>
<path fill-rule="evenodd" clip-rule="evenodd" d="M95.0483 47.0254V48.0698H94.0818V51.1052C94.0818 51.3931 94.0335 51.6628 93.9369 51.9145C93.8404 52.1663 93.7099 52.3882 93.5456 52.5799C93.3812 52.7718 93.1867 52.9231 92.9623 53.0339C92.738 53.145 92.4979 53.2002 92.2422 53.2002H91.0054V51.9506H92.2422C92.3465 51.9506 92.4431 51.928 92.5318 51.8831C92.6206 51.838 92.6989 51.7766 92.7666 51.6988C92.8344 51.6209 92.8868 51.5309 92.9231 51.429C92.9597 51.3271 92.9782 51.2193 92.9782 51.1052L92.9635 48.0751H91.9894L91.9884 47.0254H95.0483Z" fill="#4EA847"/>
</svg>
