<svg width="23" height="22" viewBox="0 0 23 22" fill="none" xmlns="http://www.w3.org/2000/svg">
<g clip-path="url(#clip0_78_2924)">
<g clip-path="url(#clip1_78_2924)">
<path fill-rule="evenodd" clip-rule="evenodd" d="M0.416504 2.75H31.7665V4.01973H0.416504V2.75ZM0.416504 5.28945H31.7665V6.55918H0.416504V5.28945ZM0.416504 7.82568H31.7665V9.09863H0.416504V7.82568ZM0.416504 10.3651H31.7665V11.6349H0.416504V10.3651ZM0.416504 12.9046H31.7665V14.1743H0.416504V12.9046ZM0.416504 15.4408H31.7665V16.7105H0.416504V15.4408ZM0.416504 17.9803H31.7665V19.25H0.416504V17.9803Z" fill="#BD3D44"/>
<path fill-rule="evenodd" clip-rule="evenodd" d="M0.416504 4.01978H31.7665V5.2895H0.416504V4.01978ZM0.416504 6.55923H31.7665V7.82573H0.416504V6.55923ZM0.416504 9.09546H31.7665V10.3652H0.416504V9.09546ZM0.416504 11.6349H31.7665V12.9046H0.416504V11.6349ZM0.416504 14.1744H31.7665V15.4441H0.416504V14.1744ZM0.416504 16.7106H31.7665V17.9803H0.416504V16.7106Z" fill="white"/>
<path fill-rule="evenodd" clip-rule="evenodd" d="M0.416504 2.75H12.9559V11.6349H0.416504V2.75Z" fill="#192F5D"/>
<path fill-rule="evenodd" clip-rule="evenodd" d="M1.46069 3.13025L1.57671 3.48152H1.94409L1.64761 3.69744L1.7604 4.05193L1.46069 3.83279L1.16421 4.04871L1.277 3.69744L0.977295 3.48152H1.35112L1.46069 3.13025ZM3.5522 3.13025L3.66499 3.48152H4.0356L3.73589 3.69744L3.84868 4.05193L3.5522 3.83279L3.25249 4.04871L3.36528 3.69744L3.0688 3.48152H3.43618L3.5522 3.13025ZM5.64048 3.13025L5.75649 3.48152H6.12066L5.82417 3.69744L5.93696 4.05193L5.63726 3.83279L5.34077 4.04871L5.45357 3.69744L5.15386 3.48152H5.52446L5.64048 3.13025ZM7.73198 3.13025L7.84478 3.48152H8.21538L7.91567 3.69744L8.03169 4.05193L7.73198 3.83279L7.43228 4.04871L7.54829 3.69744L7.24858 3.48152H7.61597L7.73198 3.13025ZM9.82026 3.13025L9.93628 3.48152H10.3037L10.0072 3.69744L10.12 4.05193L9.82026 3.83279L9.52378 4.04871L9.63657 3.69744L9.34009 3.48152H9.70747L9.82026 3.13025ZM11.9118 3.13025L12.0246 3.48152H12.3952L12.0955 3.69744L12.2115 4.05193L11.9118 3.83279L11.6121 4.04871L11.7281 3.69744L11.4284 3.48152H11.799L11.9118 3.13025ZM2.50806 4.0197L2.62085 4.37097H2.99146L2.69175 4.58689L2.80132 4.93816L2.51128 4.72224L2.21157 4.93816L2.31792 4.58689L2.02788 4.37097H2.39526L2.50806 4.0197ZM4.59634 4.0197L4.71235 4.37097H5.07974L4.78003 4.58689L4.89605 4.93816L4.59634 4.72224L4.29663 4.93816L4.41265 4.58689L4.11294 4.37097H4.48355L4.59634 4.0197ZM6.68784 4.0197L6.80064 4.37097H7.17124L6.87153 4.58689L6.98433 4.93816L6.68784 4.72224L6.38814 4.93816L6.50093 4.58689L6.20444 4.37097H6.57183L6.68784 4.0197ZM8.77612 4.0197L8.89214 4.37097H9.25952L8.95982 4.58689L9.07583 4.93816L8.77612 4.72224L8.47964 4.93816L8.59243 4.58689L8.29273 4.37097H8.66655L8.77612 4.0197ZM10.8676 4.0197L10.9804 4.37097H11.351L11.0513 4.58689L11.1641 4.93816L10.8676 4.72224L10.5679 4.93816L10.6807 4.58689L10.3842 4.37097H10.7516L10.8676 4.0197ZM1.46069 4.90593L1.57671 5.26365H1.94409L1.64761 5.47957L1.7604 5.83083L1.46069 5.61169L1.16421 5.83083L1.277 5.47634L0.977295 5.26042H1.35112L1.46069 4.90593ZM3.5522 4.90593L3.66499 5.26042H4.0356L3.73589 5.47634L3.84868 5.82761L3.5522 5.60847L3.25249 5.82761L3.36528 5.47312L3.0688 5.2572H3.43618L3.5522 4.90593ZM5.64048 4.90593L5.75649 5.26042H6.12066L5.82417 5.47634L5.93696 5.82761L5.63726 5.60847L5.34077 5.82761L5.45357 5.47312L5.15386 5.2572H5.52446L5.64048 4.90593ZM7.73198 4.90593L7.84478 5.26042H8.21538L7.91567 5.47634L8.03169 5.82761L7.73198 5.60847L7.43228 5.82761L7.54829 5.47312L7.24858 5.2572H7.61597L7.73198 4.90593ZM9.82026 4.90593L9.93628 5.26042H10.3037L10.0072 5.47634L10.12 5.82761L9.82026 5.60847L9.52378 5.82761L9.63657 5.47312L9.34009 5.2572H9.70747L9.82026 4.90593ZM11.9118 4.90593L12.0246 5.26042H12.3952L12.0955 5.47634L12.2115 5.82761L11.9118 5.60847L11.6121 5.82761L11.7281 5.47312L11.4284 5.2572H11.799L11.9118 4.90593ZM2.50806 5.79539L2.62085 6.14666H2.99146L2.69175 6.36257L2.80454 6.71707L2.50806 6.49792L2.20835 6.71384L2.32114 6.36257L2.02466 6.14666H2.39204L2.50806 5.79539ZM4.59634 5.79539L4.71235 6.14666H5.07974L4.78003 6.36257L4.89605 6.71707L4.59634 6.49792L4.29663 6.71384L4.41265 6.36257L4.11294 6.14666H4.48355L4.59634 5.79539ZM6.68784 5.79539L6.80064 6.14666H7.17124L6.87153 6.36257L6.98433 6.71707L6.68784 6.49792L6.38814 6.71384L6.50093 6.36257L6.20444 6.14666H6.57183L6.68784 5.79539ZM8.77612 5.79539L8.89214 6.14666H9.25952L8.96304 6.36257L9.07583 6.71707L8.77612 6.49792L8.47964 6.71384L8.59243 6.36257L8.29273 6.14666H8.66655L8.77612 5.79539ZM10.8676 5.79539L10.9804 6.14666H11.351L11.0513 6.36257L11.1641 6.71707L10.8676 6.49792L10.5679 6.71384L10.6807 6.36257L10.3842 6.14666H10.7516L10.8676 5.79539ZM1.46069 6.68484L1.57671 7.03611H1.94409L1.64761 7.25203L1.7604 7.60652L1.46069 7.38738L1.16421 7.6033L1.277 7.25203L0.977295 7.03611H1.35112L1.46069 6.68484ZM3.5522 6.68484L3.66499 7.03611H4.0356L3.73589 7.25203L3.84868 7.6033L3.5522 7.38738L3.25249 7.6033L3.36528 7.25203L3.0688 7.03611H3.43618L3.5522 6.68484ZM5.64048 6.68484L5.75649 7.03611H6.12066L5.82417 7.25203L5.93696 7.60652L5.63726 7.38738L5.34077 7.6033L5.45357 7.25203L5.15386 7.03611H5.52446L5.64048 6.68484ZM7.73198 6.68484L7.84478 7.03611H8.21538L7.91567 7.25203L8.03169 7.60652L7.73198 7.38738L7.43228 7.6033L7.54829 7.25203L7.24858 7.03611H7.61597L7.73198 6.68484ZM9.82026 6.68484L9.93628 7.03611H10.3037L10.0072 7.25203L10.12 7.60652L9.82026 7.38738L9.52378 7.6033L9.63657 7.25203L9.34009 7.03611H9.70747L9.82026 6.68484ZM11.9118 6.68484L12.0246 7.03611H12.3952L12.0955 7.25203L12.2115 7.60652L11.9118 7.38738L11.6121 7.6033L11.7281 7.25203L11.4284 7.03611H11.799L11.9118 6.68484ZM2.50806 7.57429L2.62085 7.92556H2.99146L2.69175 8.14148L2.80454 8.49275L2.50806 8.27361L2.20835 8.49275L2.32114 8.13826L2.02466 7.92234H2.39204L2.50806 7.57429ZM4.59634 7.57429L4.71235 7.92556H5.07974L4.78003 8.14148L4.89605 8.49275L4.59634 8.27361L4.29663 8.49275L4.41265 8.13826L4.11294 7.92234H4.48355L4.59634 7.57429ZM6.68784 7.57429L6.80064 7.92556H7.17124L6.87153 8.14148L6.98433 8.49275L6.68784 8.27361L6.38814 8.49275L6.50093 8.13826L6.20444 7.92234H6.57183L6.68784 7.57429ZM8.77612 7.57429L8.89214 7.92556H9.25952L8.96304 8.14148L9.07583 8.49275L8.77612 8.27361L8.47964 8.49275L8.59243 8.13826L8.29273 7.92234H8.66655L8.77612 7.57429ZM10.8676 7.57429L10.9804 7.92556H11.351L11.0513 8.14148L11.1641 8.49275L10.8676 8.27361L10.5679 8.49275L10.6807 8.13826L10.3842 7.92234H10.7516L10.8676 7.57429ZM1.46069 8.46052L1.57671 8.81501H1.94409L1.64761 9.03093L1.7604 9.37898L1.46069 9.16306L1.16421 9.37898L1.277 9.02771L0.977295 8.81179H1.35112L1.46069 8.46052ZM3.5522 8.46052L3.66499 8.81501H4.0356L3.73589 9.03093L3.8519 9.37898L3.5522 9.16306L3.25249 9.37898L3.36851 9.02771L3.0688 8.81179H3.43618L3.5522 8.46052ZM5.64048 8.46052L5.75649 8.81501H6.12066L5.82417 9.03093L5.93696 9.37898L5.63726 9.16306L5.34077 9.37898L5.45357 9.02771L5.15386 8.81179H5.52446L5.64048 8.46052ZM7.73198 8.46052L7.84478 8.81501H8.21538L7.91567 9.03093L8.03169 9.37898L7.73198 9.16306L7.43228 9.37898L7.54829 9.02771L7.24858 8.81179H7.61597L7.73198 8.46052ZM9.82026 8.46052L9.93628 8.81501H10.3037L10.0072 9.03093L10.12 9.37898L9.82026 9.16306L9.52378 9.37898L9.63657 9.02771L9.34009 8.81179H9.70747L9.82026 8.46052ZM11.9118 8.46052L12.0246 8.81501H12.3952L12.0955 9.03093L12.2115 9.37898L11.9118 9.16306L11.6121 9.37898L11.7281 9.02771L11.4284 8.81179H11.799L11.9118 8.46052ZM2.50806 9.34998L2.62085 9.70124H2.99146L2.69175 9.91716L2.80454 10.2717L2.50806 10.0525L2.20835 10.2684L2.32114 9.91716L2.02466 9.70124H2.39204L2.50806 9.34998ZM4.59634 9.34998L4.71235 9.70124H5.07974L4.78003 9.91716L4.89605 10.2717L4.59634 10.0525L4.29663 10.2684L4.41265 9.91716L4.11294 9.70124H4.48355L4.59634 9.34998ZM6.68784 9.34998L6.80064 9.70124H7.17124L6.87153 9.91716L6.98433 10.2717L6.68784 10.0525L6.38814 10.2684L6.50093 9.91716L6.20444 9.70124H6.57183L6.68784 9.34998ZM8.77612 9.34998L8.89214 9.70124H9.25952L8.96304 9.91716L9.07583 10.2717L8.77612 10.0525L8.47964 10.2684L8.59243 9.91716L8.29273 9.70124H8.66655L8.77612 9.34998ZM10.8676 9.34998L10.9804 9.70124H11.351L11.0513 9.91716L11.1641 10.2717L10.8676 10.0525L10.5679 10.2684L10.6807 9.91716L10.3842 9.70124H10.7516L10.8676 9.34998ZM1.46069 10.2394L1.57671 10.5907H1.94409L1.64761 10.8066L1.7604 11.1579L1.46069 10.942L1.16421 11.1579L1.277 10.8034L0.977295 10.5875H1.35112L1.46069 10.2394ZM3.5522 10.2394L3.66499 10.5907H4.0356L3.73589 10.8066L3.8519 11.1579L3.5522 10.942L3.25249 11.1579L3.36851 10.8034L3.0688 10.5875H3.43618L3.5522 10.2394ZM5.64048 10.2394L5.75649 10.5907H6.12066L5.83062 10.8066L5.94341 11.1579L5.6437 10.942L5.34722 11.1579L5.46001 10.8034L5.1603 10.5875H5.53091L5.64048 10.2394ZM7.73198 10.2394L7.84478 10.5907H8.21538L7.91567 10.8066L8.03169 11.1579L7.73198 10.942L7.43228 11.1579L7.54829 10.8034L7.24858 10.5875H7.61597L7.73198 10.2394ZM9.82026 10.2394L9.93628 10.5907H10.3037L10.0072 10.8066L10.12 11.1579L9.82026 10.942L9.52378 11.1579L9.63657 10.8034L9.34009 10.5875H9.70747L9.82026 10.2394ZM11.9118 10.2394L12.0246 10.5907H12.3952L12.0955 10.8066L12.2115 11.1579L11.9118 10.942L11.6121 11.1579L11.7281 10.8034L11.4284 10.5875H11.799L11.9118 10.2394Z" fill="white"/>
</g>
</g>
<defs>
<clipPath id="clip0_78_2924">
<rect width="22" height="22" fill="white" transform="translate(0.416504)"/>
</clipPath>
<clipPath id="clip1_78_2924">
<rect width="22" height="16.5" fill="white" transform="translate(0.416504 2.75)"/>
</clipPath>
</defs>
</svg>
